<svg xmlns="http://www.w3.org/2000/svg" xmlns:xlink="http://www.w3.org/1999/xlink" width="1105" height="1686.826" viewBox="0 0 1105 1686.826">
  <defs>
    <clipPath id="clip-path">
      <rect id="Rechteck_1333" data-name="Rechteck 1333" width="144" height="144" transform="translate(-0.424)" fill="#092a5e"/>
    </clipPath>
    <clipPath id="clip-path-2">
      <rect id="Rechteck_1334" data-name="Rechteck 1334" width="144" height="144" fill="none"/>
    </clipPath>
    <clipPath id="clip-path-3">
      <rect id="Rechteck_1335" data-name="Rechteck 1335" width="144.01" height="144" fill="none"/>
    </clipPath>
    <clipPath id="clip-path-4">
      <rect id="Rechteck_1766" data-name="Rechteck 1766" width="686.531" height="686.296" fill="none"/>
    </clipPath>
  </defs>
  <g id="infografik-workation" transform="translate(-130 -1446)">
    <circle id="Ellipse_31" data-name="Ellipse 31" cx="88.479" cy="88.479" r="88.479" transform="translate(189.093 1933)" fill="#092a5e"/>
    <circle id="Ellipse_258" data-name="Ellipse 258" cx="88.479" cy="88.479" r="88.479" transform="translate(459.669 1933)" fill="#092a5e"/>
    <circle id="Ellipse_259" data-name="Ellipse 259" cx="88.479" cy="88.479" r="88.479" transform="translate(726.446 1933)" fill="#092a5e"/>
    <circle id="Ellipse_260" data-name="Ellipse 260" cx="88.479" cy="88.479" r="88.479" transform="translate(1001.446 1933)" fill="#092a5e"/>
    <text id="_Daten_von_pwc.de_Daten_von_workation.de" data-name="*Daten von pwc.de
**Daten von workation.de" transform="translate(141 3091.826)" fill="#092a5e" font-size="18" font-family="TUITypeLightLATN-Regular, TUITypeLight LATN"><tspan x="0" y="17">*Daten von pwc.de</tspan><tspan x="0" y="37">**Daten von workation.de</tspan></text>
    <text id="Warum_entscheiden_sich_Arbeitnehmer_für_eine_Workation_" data-name="Warum entscheiden sich Arbeitnehmer für eine Workation?*" transform="translate(142 1868)" fill="#092a5e" font-size="22" font-family="TUITypeLightLATN-Bold, TUITypeLight LATN" font-weight="700"><tspan x="-269.027" y="21">Warum entscheiden sich Arbeitnehmer für eine Workation?*</tspan></text>
    <text id="Die_Generationen:_So_viel_Prozent_haben_Interesse_an_einer_Workation_" data-name="Die Generationen: So viel Prozent haben Interesse an einer Workation*" transform="translate(757 1446)" fill="#092a5e" font-size="22" font-family="TUITypeLightLATN-Bold, TUITypeLight LATN" font-weight="700"><tspan x="-181.456" y="21">Die Generationen: So viel Prozent haben </tspan><tspan x="-133.287" y="49">Interesse an einer Workation*</tspan></text>
    <text id="Würden_Arbeitnehmer_gern_Workation_im_Ausland_machen_" data-name="Würden Arbeitnehmer gern Workation im Ausland machen?*" transform="translate(185 1446)" fill="#092a5e" font-size="22" font-family="TUITypeLightLATN-Bold, TUITypeLight LATN" font-weight="700"><tspan x="-184.503" y="21">Würden Arbeitnehmer gern Workation im </tspan><tspan x="-83.226" y="49">Ausland machen?*</tspan></text>
    <path id="Pfad_689" data-name="Pfad 689" d="M501.219-21109.32v-82.047l-18.289-18.227" transform="translate(412.85 24106.92)" fill="none" stroke="#d7d7d7" stroke-linecap="round" stroke-linejoin="round" stroke-width="1"/>
    <path id="Pfad_23257" data-name="Pfad 23257" d="M501.219-21209.594v82.047l-18.289,18.227" transform="translate(322.85 23423.094)" fill="none" stroke="#d7d7d7" stroke-linecap="round" stroke-linejoin="round" stroke-width="1"/>
    <path id="Pfad_688" data-name="Pfad 688" d="M482.93-21108.973v-82.332l18.289-18.289" transform="translate(-32 24106.92)" fill="none" stroke="#d7d7d7" stroke-linecap="round" stroke-linejoin="round" stroke-width="1"/>
    <path id="Pfad_23258" data-name="Pfad 23258" d="M482.93-21209.594v82.332l18.289,18.289" transform="translate(68 23422.746)" fill="none" stroke="#d7d7d7" stroke-linecap="round" stroke-linejoin="round" stroke-width="1"/>
    <path id="Pfad_685" data-name="Pfad 685" d="M363-21324.008v-89.975h21.894" transform="translate(-37 24100.826)" fill="none" stroke="#d7d7d7" stroke-linecap="round" stroke-linejoin="round" stroke-width="1"/>
    <path id="Pfad_23255" data-name="Pfad 23255" d="M363-21413.984v89.975h59.145" transform="translate(-37 23783.744)" fill="none" stroke="#d7d7d7" stroke-linecap="round" stroke-linejoin="round" stroke-width="1"/>
    <path id="Pfad_686" data-name="Pfad 686" d="M384.894-21324.008v-89.975H363" transform="translate(653.979 24100.826)" fill="none" stroke="#d7d7d7" stroke-linecap="round" stroke-linejoin="round" stroke-width="1"/>
    <path id="Pfad_23256" data-name="Pfad 23256" d="M384.894-21413.984v89.975H327.3" transform="translate(653.979 23783.744)" fill="none" stroke="#d7d7d7" stroke-linecap="round" stroke-linejoin="round" stroke-width="1"/>
    <text id="_36_Mitarbeitergesundheit_steigern" data-name="36 %
Mitarbeitergesundheit steigern" transform="translate(130 2737.826)" fill="#092a5e" font-size="22" font-family="TUITypeLightLATN-Bold, TUITypeLight LATN" font-weight="700"><tspan x="-45.056" y="21">36 %</tspan><tspan font-size="18" font-family="TUITypeLightLATN-Regular, TUITypeLight LATN" font-weight="400"><tspan x="-153.594" y="43">Mitarbeitergesundheit </tspan><tspan x="-55.314" y="65">steigern</tspan></tspan></text>
    <text id="_76_Mitarbeiterzufriedenheit_steigern" data-name="76 %
Mitarbeiterzufriedenheit steigern" transform="translate(130 2342.742)" fill="#092a5e" font-size="22" font-family="TUITypeLightLATN-Bold, TUITypeLight LATN" font-weight="700"><tspan x="-44.99" y="21">76 %</tspan><tspan font-size="18" font-family="TUITypeLightLATN-Regular, TUITypeLight LATN" font-weight="400"><tspan x="-168.822" y="43">Mitarbeiterzufriedenheit </tspan><tspan x="-55.314" y="65">steigern</tspan></tspan></text>
    <text id="_42_Kreative_Impulse" data-name="42 %
Kreative
Impulse" transform="translate(195 2962.826)" fill="#092a5e" font-size="22" font-family="TUITypeLightLATN-Bold, TUITypeLight LATN" font-weight="700"><tspan x="-45.012" y="21">42 %</tspan><tspan font-size="18" font-family="TUITypeLightLATN-Regular, TUITypeLight LATN" font-weight="400"><tspan x="-56.142" y="43">Kreative</tspan><tspan x="-54.954" y="65">Impulse</tspan></tspan></text>
    <text id="_74_Mitarbeiterbindung_erhöhen" data-name="74 %
Mitarbeiterbindung
erhöhen" transform="translate(295 2180.5)" fill="#092a5e" font-size="22" font-family="TUITypeLightLATN-Bold, TUITypeLight LATN" font-weight="700"><tspan x="-44.968" y="21">74 %</tspan><tspan font-size="18" font-family="TUITypeLightLATN-Regular, TUITypeLight LATN" font-weight="400"><tspan x="-134.028" y="43">Mitarbeiterbindung</tspan><tspan x="-58.392" y="65">erhöhen</tspan></tspan></text>
    <text id="_54_Recruiting-_Vorteile" data-name="54 %
Recruiting-
Vorteile" transform="translate(929 2962.826)" fill="#092a5e" font-size="22" font-family="TUITypeLightLATN-Bold, TUITypeLight LATN" font-weight="700"><tspan x="0" y="21">54 %</tspan><tspan font-size="18" font-family="TUITypeLightLATN-Regular, TUITypeLight LATN" font-weight="400"><tspan x="0" y="43">Recruiting-</tspan><tspan x="0" y="65">Vorteile</tspan></tspan></text>
    <text id="_69_Mitarbeitermotivation_steigern" data-name="69 %
Mitarbeitermotivation steigern" transform="translate(839 2180)" fill="#092a5e" font-size="22" font-family="TUITypeLightLATN-Bold, TUITypeLight LATN" font-weight="700"><tspan x="0" y="21">69 %</tspan><tspan font-size="18" font-family="TUITypeLightLATN-Regular, TUITypeLight LATN" font-weight="400"><tspan x="0" y="43">Mitarbeitermotivation </tspan><tspan x="0" y="65">steigern</tspan></tspan></text>
    <text id="_54_Firmenkultur_entwickeln" data-name="54 %
Firmenkultur
entwickeln" transform="translate(1054 2737.826)" fill="#092a5e" font-size="22" font-family="TUITypeLightLATN-Bold, TUITypeLight LATN" font-weight="700"><tspan x="0" y="21">54 %</tspan><tspan font-size="18" font-family="TUITypeLightLATN-Regular, TUITypeLight LATN" font-weight="400"><tspan x="0" y="43">Firmenkultur</tspan><tspan x="0" y="65">entwickeln</tspan></tspan></text>
    <text id="_66_Work-Life-Balance_verbessern" data-name="66 %
Work-Life-Balance verbessern" transform="translate(1054 2342.742)" fill="#092a5e" font-size="22" font-family="TUITypeLightLATN-Bold, TUITypeLight LATN" font-weight="700"><tspan x="0" y="21">66 %</tspan><tspan font-size="18" font-family="TUITypeLightLATN-Regular, TUITypeLight LATN" font-weight="400"><tspan x="0" y="43">Work-Life-Balance </tspan><tspan x="0" y="65">verbessern</tspan></tspan></text>
    <text id="Was_sind_die_Gründe_für_Arbeitgeber_eine_Workation_anzubieten_" data-name="Was sind die Gründe
für Arbeitgeber, eine
Workation anzubieten?**" transform="translate(493 2577)" fill="#092a5e" font-size="30" font-family="TUITypeLightLATN-Bold, TUITypeLight LATN" font-weight="700"><tspan x="-125.88" y="28">Was sind die Gründe</tspan><tspan x="-126.705" y="66">für Arbeitgeber, eine</tspan><tspan x="-153.51" y="104">Workation anzubieten?**</tspan></text>
    <g id="Gruppe_17884" data-name="Gruppe 17884" transform="translate(0 12)">
      <path id="Pfad_9616" data-name="Pfad 9616" d="M0,0V462.936" transform="translate(762.055 1608.98) rotate(-90)" fill="none" stroke="rgba(215,215,215,0.6)" stroke-linecap="round" stroke-width="1" opacity="0.5"/>
      <path id="Pfad_9615" data-name="Pfad 9615" d="M0,0V462.936" transform="translate(762.055 1633.676) rotate(-90)" fill="none" stroke="rgba(215,215,215,0.6)" stroke-linecap="round" stroke-width="1" opacity="0.5"/>
      <path id="Pfad_9599" data-name="Pfad 9599" d="M0,0V462.936" transform="translate(762.055 1658.369) rotate(-90)" fill="none" stroke="rgba(215,215,215,0.6)" stroke-linecap="round" stroke-width="1" opacity="0.5"/>
      <path id="Pfad_9583" data-name="Pfad 9583" d="M0,0V462.936" transform="translate(762.055 1708.064) rotate(-90)" fill="none" stroke="rgba(215,215,215,0.6)" stroke-linecap="round" stroke-width="1" opacity="0.5"/>
      <path id="Pfad_9537" data-name="Pfad 9537" d="M0,0V462.936" transform="translate(762.055 1683.469) rotate(-90)" fill="none" stroke="rgba(215,215,215,0.6)" stroke-linecap="round" stroke-width="1" opacity="0.5"/>
      <text id="_0" data-name="0" transform="translate(747.054 1737.66)" fill="#b9b9b9" font-size="14" font-family="TUITypeLightLATN-Regular, TUITypeLight LATN"><tspan x="-6.986" y="0">0</tspan></text>
      <text id="_10" data-name="10" transform="translate(747.054 1713.064)" fill="#b9b9b9" font-size="14" font-family="TUITypeLightLATN-Regular, TUITypeLight LATN"><tspan x="-13.902" y="0">10</tspan></text>
      <text id="_20" data-name="20" transform="translate(747.054 1688.469)" fill="#b9b9b9" font-size="14" font-family="TUITypeLightLATN-Regular, TUITypeLight LATN"><tspan x="-13.72" y="0">20</tspan></text>
      <text id="_30" data-name="30" transform="translate(747.054 1661.643)" fill="#b9b9b9" font-size="14" font-family="TUITypeLightLATN-Regular, TUITypeLight LATN"><tspan x="-13.734" y="0">30</tspan></text>
      <text id="_40" data-name="40" transform="translate(747.054 1637.047)" fill="#b9b9b9" font-size="14" font-family="TUITypeLightLATN-Regular, TUITypeLight LATN"><tspan x="-13.636" y="0">40</tspan></text>
      <text id="_50" data-name="50" transform="translate(747.054 1613.176)" fill="#b9b9b9" font-size="14" font-family="TUITypeLightLATN-Regular, TUITypeLight LATN"><tspan x="-13.734" y="0">50</tspan></text>
      <text id="_60" data-name="60" transform="translate(747.054 1588.943)" fill="#b9b9b9" font-size="14" font-family="TUITypeLightLATN-Regular, TUITypeLight LATN"><tspan x="-13.664" y="0">60</tspan></text>
      <text id="_70" data-name="70" transform="translate(747.054 1562.117)" fill="#b9b9b9" font-size="14" font-family="TUITypeLightLATN-Regular, TUITypeLight LATN"><tspan x="-13.692" y="0">70</tspan></text>
      <text id="_80" data-name="80" transform="translate(747.054 1537.885)" fill="#b9b9b9" font-size="14" font-family="TUITypeLightLATN-Regular, TUITypeLight LATN"><tspan x="-13.664" y="0">80</tspan></text>
      <text id="_90" data-name="90" transform="translate(747.054 1513.652)" fill="#b9b9b9" font-size="14" font-family="TUITypeLightLATN-Regular, TUITypeLight LATN"><tspan x="-13.664" y="0">90</tspan></text>
      <path id="Pfad_9614" data-name="Pfad 9614" d="M433-17033v234.094" transform="translate(329.054 18531.996)" fill="none" stroke="#b9b9b9" stroke-linecap="round" stroke-width="1"/>
      <path id="Pfad_9533" data-name="Pfad 9533" d="M0,0V462.946" transform="translate(1225 1733.27) rotate(90)" fill="none" stroke="#b9b9b9" stroke-linecap="round" stroke-width="1"/>
      <text id="_49_" data-name="49 %" transform="translate(1054.054 1586.307)" fill="#092a5e" font-size="18" font-family="TUITypeLightLATN-Bold, TUITypeLight LATN" font-weight="700"><tspan x="-18.378" y="17">49 %</tspan></text>
      <path id="Pfad_9618" data-name="Pfad 9618" d="M0,0V462.936" transform="translate(762.055 1559.592) rotate(-90)" fill="none" stroke="rgba(215,215,215,0.6)" stroke-linecap="round" stroke-width="1" opacity="0.5"/>
      <path id="Pfad_9619" data-name="Pfad 9619" d="M0,0V462.936" transform="translate(762.064 1534.248) rotate(-90)" fill="none" stroke="rgba(215,215,215,0.6)" stroke-linecap="round" stroke-width="1" opacity="0.5"/>
      <path id="Pfad_9620" data-name="Pfad 9620" d="M0,0V462.936" transform="translate(762.064 1508.662) rotate(-90)" fill="none" stroke="rgba(215,215,215,0.6)" stroke-linecap="round" stroke-width="1" opacity="0.5"/>
      <path id="Pfad_9617" data-name="Pfad 9617" d="M0,0V462.936" transform="translate(762.055 1584.287) rotate(-90)" fill="none" stroke="rgba(215,215,215,0.6)" stroke-linecap="round" stroke-width="1" opacity="0.5"/>
      <path id="Rechteck_1331" data-name="Rechteck 1331" d="M0,0H141.953a10,10,0,0,1,10,10v0a10,10,0,0,1-10,10H0a0,0,0,0,1,0,0V0A0,0,0,0,1,0,0Z" transform="translate(805.054 1690.553) rotate(-90)" fill="#70cbf4"/>
      <path id="Rechteck_1332" data-name="Rechteck 1332" d="M0,0H195.084a10,10,0,0,1,10,10v0a10,10,0,0,1-10,10H0a0,0,0,0,1,0,0V0A0,0,0,0,1,0,0Z" transform="translate(805.054 1733.77) rotate(-90)" fill="#70cbf4"/>
      <path id="Rechteck_1329" data-name="Rechteck 1329" d="M0,0H182.385a10,10,0,0,1,10,10v0a10,10,0,0,1-10,10H0a0,0,0,0,1,0,0V0A0,0,0,0,1,0,0Z" transform="translate(892.054 1733.27) rotate(-90)" fill="#70cbf4"/>
      <path id="Rechteck_1320" data-name="Rechteck 1320" d="M0,0H127.191a10,10,0,0,1,10,10v0a10,10,0,0,1-10,10H0a0,0,0,0,1,0,0V0A0,0,0,0,1,0,0Z" transform="translate(979.054 1703.797) rotate(-90)" fill="#70cbf4"/>
      <path id="Rechteck_1321" data-name="Rechteck 1321" d="M0,0H51.926a10,10,0,0,1,10,10v0a10,10,0,0,1-10,10H0a0,0,0,0,1,0,0V0A0,0,0,0,1,0,0Z" transform="translate(979.054 1733.168) rotate(-90)" fill="#70cbf4"/>
      <path id="Rechteck_1311" data-name="Rechteck 1311" d="M0,0H107.463a10,10,0,0,1,10,10v0a10,10,0,0,1-10,10H0a0,0,0,0,1,0,0V0A0,0,0,0,1,0,0Z" transform="translate(1066.054 1729.77) rotate(-90)" fill="#70cbf4"/>
      <path id="Rechteck_1312" data-name="Rechteck 1312" d="M0,0H49.941a10,10,0,0,1,10,10v0a10,10,0,0,1-10,10H0a0,0,0,0,1,0,0V0A0,0,0,0,1,0,0Z" transform="translate(1066.054 1733.77) rotate(-90)" fill="#70cbf4"/>
      <path id="Rechteck_1305" data-name="Rechteck 1305" d="M0,0H100.693a10,10,0,0,1,10,10v0a10,10,0,0,1-10,10H0a0,0,0,0,1,0,0V0A0,0,0,0,1,0,0Z" transform="translate(1153.054 1733.27) rotate(-90)" fill="#70cbf4"/>
      <text id="_76_" data-name="76 %" transform="translate(881.054 1514.885)" fill="#092a5e" font-size="18" font-family="TUITypeLightLATN-Bold, TUITypeLight LATN" font-weight="700"><tspan x="-18.405" y="17">76 %</tspan></text>
      <text id="_81_" data-name="81 %" transform="translate(794.054 1502.686)" fill="#092a5e" font-size="18" font-family="TUITypeLightLATN-Bold, TUITypeLight LATN" font-weight="700"><tspan x="-18.522" y="17">81 %</tspan></text>
      <text id="_18-29_Jahre" data-name="18-29
Jahre" transform="translate(782.054 1742.66)" fill="#092a5e" font-size="18" font-family="TUITypeLightLATN-Bold, TUITypeLight LATN" font-weight="700"><tspan x="-21.42" y="17">18-29</tspan><tspan x="-20.466" y="39">Jahre</tspan></text>
      <text id="_30-39_Jahre" data-name="30-39
Jahre" transform="translate(872.054 1742.66)" fill="#092a5e" font-size="18" font-family="TUITypeLightLATN-Bold, TUITypeLight LATN" font-weight="700"><tspan x="-21.33" y="17">30-39</tspan><tspan x="-20.466" y="39">Jahre</tspan></text>
      <text id="_40-49_Jahre" data-name="40-49
Jahre" transform="translate(955.054 1742.66)" fill="#092a5e" font-size="18" font-family="TUITypeLightLATN-Bold, TUITypeLight LATN" font-weight="700"><tspan x="-21.222" y="17">40-49</tspan><tspan x="-20.466" y="39">Jahre</tspan></text>
      <text id="_50-59_Jahre" data-name="50-59
Jahre" transform="translate(1038.054 1742.66)" fill="#092a5e" font-size="18" font-family="TUITypeLightLATN-Bold, TUITypeLight LATN" font-weight="700"><tspan x="-21.33" y="17">50-59</tspan><tspan x="-20.466" y="39">Jahre</tspan></text>
      <text id="_60-65_Jahre" data-name="60-65
Jahre" transform="translate(1129.054 1742.66)" fill="#092a5e" font-size="18" font-family="TUITypeLightLATN-Bold, TUITypeLight LATN" font-weight="700"><tspan x="-21.285" y="17">60-65</tspan><tspan x="-20.466" y="39">Jahre</tspan></text>
      <text id="_67_" data-name="67 %" transform="translate(967.054 1540.605)" fill="#092a5e" font-size="18" font-family="TUITypeLightLATN-Bold, TUITypeLight LATN" font-weight="700"><tspan x="-18.405" y="17">67 %</tspan></text>
      <text id="_43_" data-name="43 %" transform="translate(1142.054 1596.576)" fill="#092a5e" font-size="18" font-family="TUITypeLightLATN-Bold, TUITypeLight LATN" font-weight="700"><tspan x="-18.423" y="17">43 %</tspan></text>
    </g>
    <g id="Gruppe_17885" data-name="Gruppe 17885" transform="translate(0 15)">
      <g id="Gruppe_3496" data-name="Gruppe 3496" transform="translate(141.424 1561.117)">
        <g id="Gruppe_3495" data-name="Gruppe 3495" transform="translate(0 -0.117)" clip-path="url(#clip-path)">
          <path id="Pfad_9621" data-name="Pfad 9621" d="M71.721,71.72l-54.94,46.1a71.721,71.721,0,0,1,8.84-101.042A69.529,69.529,0,0,1,71.721,0Z" transform="translate(0 0.136)" fill="#e2f3fe"/>
          <path id="Pfad_9622" data-name="Pfad 9622" d="M136.506,71.72V0a71.72,71.72,0,0,1,0,143.44c-22.181,0-40.682-8.627-54.94-25.619Z" transform="translate(-64.785 0.136)" fill="#092a5e"/>
        </g>
      </g>
      <g id="Gruppe_3498" data-name="Gruppe 3498" transform="translate(324.99 1561)">
        <g id="Gruppe_3497" data-name="Gruppe 3497" transform="translate(0 0)" clip-path="url(#clip-path-2)">
          <path id="Pfad_9623" data-name="Pfad 9623" d="M72.186,72.175,5.274,99.213A72.179,72.179,0,0,1,45.152,5.255,69.932,69.932,0,0,1,72.186,0Z" transform="translate(0 -0.352)" fill="#e2f3fe"/>
          <path id="Pfad_9624" data-name="Pfad 9624" d="M90.949,72.175V0a72.177,72.177,0,0,1,0,144.353c-30.291,0-55.565-17.05-66.912-45.139Z" transform="translate(-18.763 -0.352)" fill="#092a5e"/>
        </g>
      </g>
      <g id="Gruppe_3500" data-name="Gruppe 3500" transform="translate(508.99 1561)">
        <g id="Gruppe_3499" data-name="Gruppe 3499" clip-path="url(#clip-path-3)">
          <path id="Pfad_9625" data-name="Pfad 9625" d="M72.009,72l-38.154,61.06A72,72,0,0,1,10.95,33.845C24.436,12.263,46.56,0,72.009,0Z" transform="translate(0 0.001)" fill="#e2f3fe"/>
          <path id="Pfad_9626" data-name="Pfad 9626" d="M187.97,72V0a72,72,0,0,1,0,144,68.024,68.024,0,0,1-38.154-10.941Z" transform="translate(-115.96 0.001)" fill="#092a5e"/>
        </g>
      </g>
      <text id="_69_" data-name="69 %" transform="translate(592.99 1623.076)" fill="#e2f3fe" font-size="22" font-family="TUITypeLightLATN-Bold, TUITypeLight LATN" font-weight="700"><tspan x="-44.946" y="21">69 %</tspan></text>
      <text id="_64_" data-name="64 %" transform="translate(225.5 1623.076)" fill="#e2f3fe" font-size="22" font-family="TUITypeLightLATN-Bold, TUITypeLight LATN" font-weight="700"><tspan x="-44.924" y="21">64 %</tspan></text>
      <text id="Ja" transform="translate(350 1737)" fill="#092a5e" font-size="18" font-family="TUITypeLightLATN-Bold, TUITypeLight LATN" font-weight="700"><tspan x="0" y="17">Ja</tspan></text>
      <text id="Nein" transform="translate(428 1737)" fill="#092a5e" font-size="18" font-family="TUITypeLightLATN-Bold, TUITypeLight LATN" font-weight="700"><tspan x="0" y="17">Nein</tspan></text>
      <text id="_59_" data-name="59 %" transform="translate(408.145 1621.922)" fill="#e2f3fe" font-size="22" font-family="TUITypeLightLATN-Bold, TUITypeLight LATN" font-weight="700"><tspan x="-45.056" y="21">59 %</tspan></text>
      <text id="Frauen" transform="translate(361.49 1521)" fill="#092a5e" font-size="22" font-family="TUITypeLightLATN-Bold, TUITypeLight LATN" font-weight="700"><tspan x="-30.998" y="21">Frauen</tspan></text>
      <text id="Männer" transform="translate(545.495 1521)" fill="#092a5e" font-size="22" font-family="TUITypeLightLATN-Bold, TUITypeLight LATN" font-weight="700"><tspan x="-34.155" y="21">Männer</tspan></text>
      <text id="Gesamt" transform="translate(178 1521)" fill="#092a5e" font-size="22" font-family="TUITypeLightLATN-Bold, TUITypeLight LATN" font-weight="700"><tspan x="-34.221" y="21">Gesamt</tspan></text>
      <rect id="Rechteck_1735" data-name="Rechteck 1735" width="12" height="12" transform="translate(331 1742)" fill="#092a5e"/>
      <rect id="Rechteck_1736" data-name="Rechteck 1736" width="12" height="12" transform="translate(409 1742)" fill="#c2e6fa"/>
    </g>
    <text id="Längerer_Auslandsaufenthalt" data-name="Längerer Auslandsaufenthalt" transform="translate(186.093 2014.479)" fill="#fff" font-size="18" font-family="TUITypeLightLATN-Bold, TUITypeLight LATN" font-weight="700"><tspan x="-32.517" y="17">Längerer </tspan><tspan x="-70.758" y="39">Auslandsaufenthalt</tspan></text>
    <text id="Bessere_Work-Life-Balance" data-name="Bessere 
Work-Life-Balance" transform="translate(457.093 2014.479)" fill="#fff" font-size="18" font-family="TUITypeLightLATN-Bold, TUITypeLight LATN" font-weight="700"><tspan x="-28.962" y="17">Bessere </tspan><tspan x="-67.716" y="39">Work-Life-Balance</tspan></text>
    <text id="Höhere_Jobzufriedenheit" data-name="Höhere Jobzufriedenheit" transform="translate(728.093 2014.479)" fill="#fff" font-size="18" font-family="TUITypeLightLATN-Bold, TUITypeLight LATN" font-weight="700"><tspan x="-27.009" y="17">Höhere </tspan><tspan x="-62.181" y="39">Jobzufriedenheit</tspan></text>
    <text id="Höhere_Produktivität" data-name="Höhere
Produktivität" transform="translate(999.093 2014.479)" fill="#fff" font-size="18" font-family="TUITypeLightLATN-Bold, TUITypeLight LATN" font-weight="700"><tspan x="-27.009" y="17">Höhere</tspan><tspan x="-47.916" y="39">Produktivität</tspan></text>
    <text id="_84_" data-name="84 %" transform="translate(220.093 1960.479)" fill="#fff" font-size="44" font-family="TUITypeLightLATN-Bold, TUITypeLight LATN" font-weight="700"><tspan x="-44.902" y="42">84 %</tspan></text>
    <text id="_81_2" data-name="81 %" transform="translate(499.093 1960.479)" fill="#fff" font-size="44" font-family="TUITypeLightLATN-Bold, TUITypeLight LATN" font-weight="700"><tspan x="-45.276" y="42">81 %</tspan></text>
    <text id="_79_" data-name="79 %" transform="translate(765.093 1960.479)" fill="#fff" font-size="44" font-family="TUITypeLightLATN-Bold, TUITypeLight LATN" font-weight="700"><tspan x="-44.99" y="42">79 %</tspan></text>
    <text id="_74_" data-name="74 %" transform="translate(1035.093 1960.479)" fill="#fff" font-size="44" font-family="TUITypeLightLATN-Bold, TUITypeLight LATN" font-weight="700"><tspan x="-44.968" y="42">74 %</tspan></text>
    <g id="Gruppe_18185" data-name="Gruppe 18185" transform="translate(339.734 2288.5)">
      <g id="Gruppe_18184" data-name="Gruppe 18184" clip-path="url(#clip-path-4)">
        <path id="Pfad_23270" data-name="Pfad 23270" d="M333.265,0c-76.457,1.924-142.774,26.062-202.58,73.733L231.231,193.559a187.11,187.11,0,0,1,102.034-36.738Z" fill="#e2f3fe"/>
        <path id="Pfad_23271" data-name="Pfad 23271" d="M215.832,206.321,115.364,86.588c-57.332,50.62-92.618,111.738-107.79,186.7l152.9,26.959a187.917,187.917,0,0,1,55.362-93.925" fill="#e2f3fe"/>
        <path id="Pfad_23272" data-name="Pfad 23272" d="M156.806,319.909,4.1,292.983c-11.38,75.629.874,145.131,37.436,212.306l133.276-76.947a187.281,187.281,0,0,1-19.625-83.709,189.9,189.9,0,0,1,1.619-24.724" fill="#e2f3fe"/>
        <path id="Pfad_23273" data-name="Pfad 23273" d="M184.659,445.751,51.536,522.61C91.43,587.861,145.493,633.225,216.68,661.183l52.31-143.719a188.8,188.8,0,0,1-84.331-71.713" fill="#e2f3fe"/>
        <path id="Pfad_23274" data-name="Pfad 23274" d="M287.757,524.38,235.475,668.023C271.727,680.194,307.5,686.3,343.266,686.3s71.538-6.1,107.79-18.273L398.774,524.38a189.089,189.089,0,0,1-111.017,0" fill="#092a5e"/>
        <path id="Pfad_23275" data-name="Pfad 23275" d="M417.541,517.464,469.85,661.183c71.188-27.958,125.25-73.322,165.145-138.573L501.872,445.751a188.8,188.8,0,0,1-84.331,71.713" fill="#e2f3fe"/>
        <path id="Pfad_23276" data-name="Pfad 23276" d="M511.718,428.342l133.276,76.947c36.562-67.176,48.817-136.677,37.435-212.306L529.724,319.909a189.727,189.727,0,0,1,1.619,24.724,187.281,187.281,0,0,1-19.625,83.709" fill="#e2f3fe"/>
        <path id="Pfad_23277" data-name="Pfad 23277" d="M526.061,300.247l152.9-26.959c-15.171-74.961-50.458-136.08-107.79-186.7L470.7,206.322a187.909,187.909,0,0,1,55.362,93.925" fill="#e2f3fe"/>
        <path id="Pfad_23278" data-name="Pfad 23278" d="M555.845,73.733C496.039,26.062,429.721,1.924,353.265,0V156.821A187.113,187.113,0,0,1,455.3,193.559Z" fill="#e2f3fe"/>
      </g>
    </g>
    <text id="der_befragten_Arbeit-nehmer_geben_an_dass_die_Möglichkeit_für_Workation_ihre_Jobwahl_beeinflusst." data-name="der befragten Arbeit-nehmer geben an, dass die Möglichkeit für Workation ihre Jobwahl beeinflusst." transform="translate(606.51 2871.766)" fill="#e2f3fe" font-size="15" font-family="TUITypeLightLATN-Regular, TUITypeLight LATN"><tspan x="-61.298" y="14">der befragten Arbeit-</tspan><tspan x="-67.035" y="32">nehmer geben an, dass </tspan><tspan x="-53.625" y="50">die Möglichkeit für </tspan><tspan x="-67.957" y="68">Workation ihre Jobwahl </tspan><tspan x="-33.105" y="86">beeinflusst.</tspan></text>
    <text id="_62_" data-name="62 %" transform="translate(683 2864.855)" fill="#e2f3fe" font-size="36" font-family="TUITypeLATN-Bold, TUIType LATN" font-weight="700"><tspan x="-37.731" y="0">62 %</tspan></text>
    <g id="Gruppe_18195" data-name="Gruppe 18195" transform="translate(414.443 2456.68)">
      <g id="Gruppe_18192" data-name="Gruppe 18192" transform="translate(0.194 31.915)">
        <g id="Gruppe_18191" data-name="Gruppe 18191" transform="translate(0)">
          <path id="Pfad_23280" data-name="Pfad 23280" d="M2.343,224.948A2.149,2.149,0,0,0,.194,227.1v31.561a2.149,2.149,0,0,0,2.149,2.149H15.289V224.948Z" transform="translate(-0.194 -224.948)" fill="#092a5e"/>
        </g>
      </g>
      <g id="Gruppe_18194" data-name="Gruppe 18194" transform="translate(19.587 0)">
        <g id="Gruppe_18193" data-name="Gruppe 18193">
          <path id="Pfad_23281" data-name="Pfad 23281" d="M190.078,43.781a7.5,7.5,0,0,0-3.651-6.43,7.488,7.488,0,0,0-6.163-11.745H164.451c.485-2.2,1.147-5.492,1.609-8.942,1.2-8.978.38-13.957-2.583-15.669a6.477,6.477,0,0,0-5.609-.61c-1.367.521-3.213,1.8-4.265,4.943l-4.156,10.882c-2.107,5.2-8.559,10.667-12.561,13.687V68.725a69.465,69.465,0,0,0,23.051,3.916h17.23A7.488,7.488,0,0,0,183.533,61.2a7.486,7.486,0,0,0,2.894-10.994A7.5,7.5,0,0,0,190.078,43.781Z" transform="translate(-136.886 0)" fill="#092a5e"/>
        </g>
      </g>
    </g>
    <g id="Gruppe_18196" data-name="Gruppe 18196" transform="translate(380.272 2621.574)">
      <path id="Pfad_23282" data-name="Pfad 23282" d="M38.889,31.464C21.926,16.628.358,29.663,0,47.335A22.946,22.946,0,0,0,3.8,60.27H20.576L23.559,55.3a2.28,2.28,0,0,1,3.878-.051l6.295,9.891,9.176-19.37a2.282,2.282,0,0,1,4.068-.1L54.841,60.27H73.975C88.149,38.117,60.136,12.88,38.889,31.464Z" transform="translate(0 0)" fill="#092a5e"/>
      <path id="Pfad_23283" data-name="Pfad 23283" d="M92.809,213.1l-6.374-11.837L77.423,220.29a2.281,2.281,0,0,1-3.984.248l-6.531-10.262-1.75,2.916A2.28,2.28,0,0,1,63.2,214.3H48.746c.453.474-1.962-1.936,29.872,29.733a2.28,2.28,0,0,0,3.216,0c31.344-31.182,29.42-29.26,29.872-29.733H94.816A2.279,2.279,0,0,1,92.809,213.1Z" transform="translate(-41.337 -149.469)" fill="#092a5e"/>
    </g>
    <g id="Gruppe_18221" data-name="Gruppe 18221" transform="translate(470.882 2796.545)">
      <g id="Gruppe_18200" data-name="Gruppe 18200" transform="translate(0 28.012)">
        <g id="Gruppe_18199" data-name="Gruppe 18199">
          <path id="Pfad_23285" data-name="Pfad 23285" d="M6.962,180.985H2.321a2.321,2.321,0,0,0,0,4.641H6.962a2.321,2.321,0,0,0,0-4.641Z" transform="translate(0 -180.985)" fill="#092a5e"/>
        </g>
      </g>
      <g id="Gruppe_18202" data-name="Gruppe 18202" transform="translate(0.835 12.448)">
        <g id="Gruppe_18201" data-name="Gruppe 18201">
          <path id="Pfad_23286" data-name="Pfad 23286" d="M12.638,84.342,9.356,81.061a2.32,2.32,0,0,0-3.282,3.282l3.282,3.281a2.32,2.32,0,0,0,3.282-3.282Z" transform="translate(-5.395 -80.381)" fill="#092a5e"/>
        </g>
      </g>
      <g id="Gruppe_18204" data-name="Gruppe 18204" transform="translate(0.835 40.295)">
        <g id="Gruppe_18203" data-name="Gruppe 18203">
          <path id="Pfad_23287" data-name="Pfad 23287" d="M12.638,261.06a2.32,2.32,0,0,0-3.282,0l-3.282,3.282a2.32,2.32,0,1,0,3.282,3.282l3.282-3.282A2.32,2.32,0,0,0,12.638,261.06Z" transform="translate(-5.395 -260.38)" fill="#092a5e"/>
        </g>
      </g>
      <g id="Gruppe_18206" data-name="Gruppe 18206" transform="translate(69.929 28.012)">
        <g id="Gruppe_18205" data-name="Gruppe 18205">
          <path id="Pfad_23288" data-name="Pfad 23288" d="M458.962,180.985h-4.641a2.321,2.321,0,0,0,0,4.641h4.641a2.321,2.321,0,0,0,0-4.641Z" transform="translate(-452 -180.985)" fill="#092a5e"/>
        </g>
      </g>
      <g id="Gruppe_18208" data-name="Gruppe 18208" transform="translate(70.454 12.448)">
        <g id="Gruppe_18207" data-name="Gruppe 18207">
          <path id="Pfad_23289" data-name="Pfad 23289" d="M462.638,81.06a2.32,2.32,0,0,0-3.282,0l-3.282,3.282a2.32,2.32,0,0,0,3.282,3.282l3.282-3.282A2.32,2.32,0,0,0,462.638,81.06Z" transform="translate(-455.395 -80.38)" fill="#092a5e"/>
        </g>
      </g>
      <g id="Gruppe_18210" data-name="Gruppe 18210" transform="translate(70.454 40.296)">
        <g id="Gruppe_18209" data-name="Gruppe 18209">
          <path id="Pfad_23290" data-name="Pfad 23290" d="M462.638,264.342l-3.282-3.281a2.32,2.32,0,0,0-3.282,3.282l3.282,3.281a2.32,2.32,0,0,0,3.282-3.282Z" transform="translate(-455.395 -260.381)" fill="#092a5e"/>
        </g>
      </g>
      <g id="Gruppe_18212" data-name="Gruppe 18212" transform="translate(11.759 0.014)">
        <g id="Gruppe_18211" data-name="Gruppe 18211" transform="translate(0 0)">
          <path id="Pfad_23291" data-name="Pfad 23291" d="M121.4,6.238a27.9,27.9,0,0,0-38.37,40.249,17.847,17.847,0,0,1,4.352,9.373h7.183V34.974c0-.9,6.8-14.158,7.207-14.962a2.416,2.416,0,0,1,4.152,0c.421.842,7.207,14.108,7.207,14.962V55.86h7.191a18.582,18.582,0,0,1,4.48-9.525A27.778,27.778,0,0,0,131.7,28.012,28.057,28.057,0,0,0,121.4,6.238Z" transform="translate(-76.005 -0.014)" fill="#092a5e"/>
        </g>
      </g>
      <g id="Gruppe_18214" data-name="Gruppe 18214" transform="translate(34.964 38.639)">
        <g id="Gruppe_18213" data-name="Gruppe 18213">
          <path id="Pfad_23292" data-name="Pfad 23292" d="M230.641,250.446a14.79,14.79,0,0,1-4.641-.772v17.221h9.283V249.674A14.79,14.79,0,0,1,230.641,250.446Z" transform="translate(-226 -249.674)" fill="#092a5e"/>
        </g>
      </g>
      <g id="Gruppe_18216" data-name="Gruppe 18216" transform="translate(23.361 60.501)">
        <g id="Gruppe_18215" data-name="Gruppe 18215">
          <path id="Pfad_23293" data-name="Pfad 23293" d="M151,390.986v2.321a6.97,6.97,0,0,0,6.962,6.962h18.565a6.97,6.97,0,0,0,6.962-6.962v-2.321Z" transform="translate(-151 -390.986)" fill="#092a5e"/>
        </g>
      </g>
      <g id="Gruppe_18218" data-name="Gruppe 18218" transform="translate(35.77 26.24)">
        <g id="Gruppe_18217" data-name="Gruppe 18217">
          <path id="Pfad_23294" data-name="Pfad 23294" d="M235.046,169.53l-3.835,7.67a10.038,10.038,0,0,0,7.67,0Z" transform="translate(-231.211 -169.53)" fill="#092a5e"/>
        </g>
      </g>
      <g id="Gruppe_18220" data-name="Gruppe 18220" transform="translate(28.43 74.425)">
        <g id="Gruppe_18219" data-name="Gruppe 18219">
          <path id="Pfad_23295" data-name="Pfad 23295" d="M183.763,480.986a7.092,7.092,0,0,0,6.534,4.8h9.283a7.092,7.092,0,0,0,6.534-4.8Z" transform="translate(-183.763 -480.986)" fill="#092a5e"/>
        </g>
      </g>
    </g>
    <g id="Gruppe_18222" data-name="Gruppe 18222" transform="matrix(0.966, 0.259, -0.259, 0.966, 826.77, 2781.246)">
      <path id="Pfad_23296" data-name="Pfad 23296" d="M146.882,147.966a11.033,11.033,0,1,0-14.976-.577c.2.2.415.4.631.581a15.5,15.5,0,0,0-6,5.611,17.908,17.908,0,0,0,26.354,0A15.507,15.507,0,0,0,146.882,147.966Zm0,0" transform="translate(-107.866 -109.577)" fill="#092a5e"/>
      <path id="Pfad_23297" data-name="Pfad 23297" d="M63.692,31.846A31.846,31.846,0,0,0,9.327,9.327,31.846,31.846,0,0,0,54.365,54.365,31.64,31.64,0,0,0,63.692,31.846ZM31.846,54.21A22.364,22.364,0,1,1,54.21,31.846,22.389,22.389,0,0,1,31.846,54.21Zm0,0" fill="#092a5e"/>
      <path id="Pfad_23298" data-name="Pfad 23298" d="M368.365,356.854,357.809,346.3A36.733,36.733,0,0,1,346.3,357.809l10.557,10.557a8.14,8.14,0,1,0,11.511-11.512Zm0,0" transform="translate(-295.204 -295.204)" fill="#092a5e"/>
    </g>
    <g id="Page-1" transform="translate(902.926 2632.65)">
      <g id="_020---Teamwork" data-name="020---Teamwork" transform="translate(-0.001 -0.001)">
        <path id="Shape" d="M1.013,18.582a2.261,2.261,0,0,1,2.249-2.507h9.8a1.507,1.507,0,1,0,0-3.015H6.277a2.261,2.261,0,0,1-2.254-2.5,2.4,2.4,0,0,1,2.469-2.02h9.583a1.507,1.507,0,1,0,0-3.015H9.292a2.261,2.261,0,0,1-2.254-2.5A2.4,2.4,0,0,1,9.507,1H31.831a1.507,1.507,0,0,1,.778.223l6.1,3.651a4.554,4.554,0,0,0,2.322.648H55.27v13.4l-2.611-2.138a5.011,5.011,0,0,0-6.5.357,4.747,4.747,0,0,0-1.18,4.963H39.925a4.522,4.522,0,0,0-3.166,1.312L22.573,37.488l-.03.03-.627.621a1.869,1.869,0,0,1-2.789-2.477L23.272,30.6a1.507,1.507,0,0,0-1.167-2.462H4.985A2.4,2.4,0,0,1,2.52,26.117a2.261,2.261,0,0,1,2.249-2.5H13.06a1.507,1.507,0,0,0,0-3.015H3.477a2.4,2.4,0,0,1-2.465-2.015ZM26.1,83.9a2.234,2.234,0,0,1-1.741-.567,2.282,2.282,0,0,1-.749-1.682V73.359a1.507,1.507,0,0,0-3.015,0v9.586a2.412,2.412,0,0,1-2.037,2.465,2.221,2.221,0,0,1-1.737-.567,2.279,2.279,0,0,1-.749-1.685v-9.8a1.507,1.507,0,0,0-3.015,0v6.8a2.261,2.261,0,0,1-2.5,2.234,2.4,2.4,0,0,1-2.02-2.468V70.344a1.507,1.507,0,1,0-3.015,0v6.8a2.261,2.261,0,0,1-2.5,2.239A2.4,2.4,0,0,1,1,76.914V54.59a1.608,1.608,0,0,1,.207-.775l3.668-6.1a4.568,4.568,0,0,0,.648-2.32V31.15h13.4l-2.139,2.612a4.857,4.857,0,0,0,5.323,7.681V46.5a4.522,4.522,0,0,0,1.312,3.166l14.059,14.17c.017.018.033.035.051.051l.614.618A1.869,1.869,0,0,1,36.8,67.681a1.809,1.809,0,0,1-1.131-.39l-5.064-4.144a1.507,1.507,0,0,0-2.474,1.168v17.12A2.412,2.412,0,0,1,26.1,83.9Zm59.3-16.062a2.261,2.261,0,0,1-2.249,2.507h-9.8a1.507,1.507,0,0,0,0,3.015h6.784a2.261,2.261,0,0,1,2.254,2.5,2.4,2.4,0,0,1-2.469,2.02H70.344a1.507,1.507,0,1,0,0,3.015h6.784a2.261,2.261,0,0,1,2.254,2.5,2.4,2.4,0,0,1-2.469,2.02H54.588a1.507,1.507,0,0,1-.778-.223l-6.1-3.651a4.554,4.554,0,0,0-2.322-.648H31.15v-13.4l2.611,2.138a5,5,0,0,0,6.5-.357,4.747,4.747,0,0,0,1.185-4.96h5.05A4.522,4.522,0,0,0,49.66,63L63.843,48.938l.053-.051.614-.6A1.869,1.869,0,0,1,67.3,50.761l-4.146,5.065a1.507,1.507,0,0,0,1.162,2.459h17.12A2.4,2.4,0,0,1,83.9,60.3a2.261,2.261,0,0,1-2.249,2.5H73.359a1.507,1.507,0,1,0,0,3.015h9.588a2.4,2.4,0,0,1,2.46,2.015Zm.012-36.008a1.521,1.521,0,0,1-.222.778l-3.653,6.1a4.552,4.552,0,0,0-.648,2.32V55.27h-13.4l2.139-2.612a4.877,4.877,0,0,0-.36-6.5,4.963,4.963,0,0,0-4.958-1.143v-5.1A4.522,4.522,0,0,0,63,36.758L48.938,22.567l-.029-.029-.623-.627a1.841,1.841,0,0,1,.018-2.637,1.911,1.911,0,0,1,2.46-.151l5.064,4.144a1.507,1.507,0,0,0,2.456-1.162V4.985A2.4,2.4,0,0,1,60.3,2.52a2.261,2.261,0,0,1,2.5,2.249V13.06a1.507,1.507,0,0,0,3.015,0V3.477a2.4,2.4,0,0,1,2.02-2.465,2.261,2.261,0,0,1,2.5,2.249v9.8a1.507,1.507,0,1,0,3.015,0V6.277a2.261,2.261,0,0,1,2.5-2.252,2.4,2.4,0,0,1,2.02,2.468v9.583a1.507,1.507,0,1,0,3.015,0V9.292A2.261,2.261,0,0,1,83.4,7.04a2.4,2.4,0,0,1,2.02,2.466Z" transform="translate(-0.999 -0.999)" fill="#092a5e"/>
      </g>
    </g>
    <g id="Gruppe_18223" data-name="Gruppe 18223" transform="translate(872.605 2449.205)">
      <path id="Pfad_23299" data-name="Pfad 23299" d="M165.607,458.434A7.434,7.434,0,0,0,158.172,451H128.434A7.434,7.434,0,0,0,121,458.434v2.643h44.607Z" transform="translate(-101.01 -376.49)" fill="#092a5e"/>
      <path id="Pfad_23300" data-name="Pfad 23300" d="M79.631,19.99V15.034H49.272a7.425,7.425,0,0,0-4.5-4.5V0H39.815V10.534a7.425,7.425,0,0,0-4.5,4.5H4.956V19.99h6.2L0,47.25A12.405,12.405,0,0,0,12.391,59.641h4.956A12.405,12.405,0,0,0,29.738,47.25l-11.2-27.26H35.316a7.425,7.425,0,0,0,4.5,4.5V59.912a12.414,12.414,0,0,0-9.662,9.641h24.28a12.414,12.414,0,0,0-9.662-9.641V24.49a7.425,7.425,0,0,0,4.5-4.5H66L54.85,47.25A12.405,12.405,0,0,0,67.24,59.641H72.2A12.405,12.405,0,0,0,84.587,47.25l-11.2-27.26ZM23.542,44.772H6.2l8.673-20.817Zm54.85,0H61.046l8.673-20.817Z" fill="#092a5e"/>
    </g>
    <g id="Gruppe_18228" data-name="Gruppe 18228" transform="translate(545.112 2356.098) rotate(-23)">
      <g id="Gruppe_18225" data-name="Gruppe 18225" transform="translate(0.039 25.095)">
        <g id="Gruppe_18224" data-name="Gruppe 18224">
          <path id="Pfad_23301" data-name="Pfad 23301" d="M47.665,169.947a17.711,17.711,0,0,0-3.057-2.459,18.215,18.215,0,0,0-22.7,2.459L5.361,186.508a18.213,18.213,0,0,0,25.744,25.77l13.659-13.659a1.3,1.3,0,0,0-.924-2.225h-.52a21.9,21.9,0,0,1-8.326-1.613,1.3,1.3,0,0,0-1.418.286L23.755,204.9a7.81,7.81,0,0,1-11.044-11.044l16.612-16.6a7.805,7.805,0,0,1,11.031,0,5.334,5.334,0,0,0,7.311,0,5.153,5.153,0,0,0,0-7.311Z" transform="translate(-0.039 -164.614)" fill="#092a5e"/>
        </g>
      </g>
      <g id="Gruppe_18227" data-name="Gruppe 18227" transform="translate(28.922 0)">
        <g id="Gruppe_18226" data-name="Gruppe 18226" transform="translate(0 0)">
          <path id="Pfad_23302" data-name="Pfad 23302" d="M233.339,5.335a18.213,18.213,0,0,0-25.757,0L193.935,18.968a1.306,1.306,0,0,0,.95,2.225h.481a21.854,21.854,0,0,1,8.313,1.626,1.3,1.3,0,0,0,1.418-.286l9.8-9.783a7.81,7.81,0,1,1,11.044,11.044l-12.2,12.189-.1.117-4.267,4.241a7.805,7.805,0,0,1-11.031,0,5.334,5.334,0,0,0-7.311,0,5.187,5.187,0,0,0,0,7.337,18.057,18.057,0,0,0,5.2,3.642c.273.13.546.234.82.351s.559.208.833.312.559.2.833.273l.768.208c.52.13,1.041.234,1.574.325a18.111,18.111,0,0,0,1.938.182h.989l.781-.091c.286-.013.585-.078.924-.078h.442l.9-.13.416-.078.754-.156h.143a18.211,18.211,0,0,0,8.443-4.787l16.56-16.56A18.213,18.213,0,0,0,233.339,5.335Z" transform="translate(-189.502 0)" fill="#092a5e"/>
        </g>
      </g>
    </g>
    <g id="Gruppe_18229" data-name="Gruppe 18229" transform="translate(730.768 2338.295)">
      <path id="Pfad_23303" data-name="Pfad 23303" d="M21.98,391.28H6.852a2.2,2.2,0,0,0-2.2,2.2v13.292a2.2,2.2,0,0,0,2.2,2.2H24.178V393.478A2.2,2.2,0,0,0,21.98,391.28Z" transform="translate(-3.974 -333.953)" fill="#092a5e"/>
      <path id="Pfad_23304" data-name="Pfad 23304" d="M183.041,307.28H170.11a2.2,2.2,0,0,0-2.2,2.2v27.8h17.326v-27.8A2.2,2.2,0,0,0,183.041,307.28Z" transform="translate(-143.312 -262.26)" fill="#092a5e"/>
      <path id="Pfad_23305" data-name="Pfad 23305" d="M339.85,11.869l4.429-4.807a2.2,2.2,0,0,0-1.616-3.686H328.5V2.2a2.2,2.2,0,1,0-4.4,0v25.64h-5.733a2.2,2.2,0,0,0-2.2,2.2V75.014h17.7a2.2,2.2,0,0,0,2.2-2.2V30.035a2.2,2.2,0,0,0-2.2-2.2H328.5V19.974h14.168a2.2,2.2,0,0,0,1.552-3.754Z" transform="translate(-269.848 0)" fill="#092a5e"/>
      <path id="Pfad_23306" data-name="Pfad 23306" d="M37.293,67.875a2.2,2.2,0,1,0,3.938-1.953c-3.984-8.034-3.581-7.224-3.639-7.334a2.2,2.2,0,0,0-2.168-1.158l-.019,0c-.18.02.3-.074-8.024,1.678a2.2,2.2,0,0,0,.45,4.349,28.231,28.231,0,0,0,3.974-.788A60.565,60.565,0,0,1,20.618,78.039,60.459,60.459,0,0,1,1.34,91.048,2.2,2.2,0,0,0,3.052,95.1,64.834,64.834,0,0,0,23.726,81.147,64.938,64.938,0,0,0,35.713,64.688Z" transform="translate(0 -49.007)" fill="#092a5e"/>
    </g>
  </g>
</svg>
