<svg xmlns="http://www.w3.org/2000/svg" xmlns:xlink="http://www.w3.org/1999/xlink" width="100" height="100" viewBox="0 0 100 100">
  <defs>
    <clipPath id="clip-path">
      <rect id="Rechteck_3645" data-name="Rechteck 3645" width="64" height="60" transform="translate(-0.152 -0.482)" fill="#fff"/>
    </clipPath>
  </defs>
  <g id="icon_zufrieden" transform="translate(-961 -3974)">
    <circle id="Ellipse_310" data-name="Ellipse 310" cx="50" cy="50" r="50" transform="translate(961 3974)" fill="#70cbf4"/>
    <g id="Gruppe_21114" data-name="Gruppe 21114" transform="translate(979.619 3996.56)">
      <g id="Gruppe_21113" data-name="Gruppe 21113" transform="translate(-0.467 -0.077)" clip-path="url(#clip-path)">
        <path id="Pfad_33321" data-name="Pfad 33321" d="M31.524,0C14.113,0,0,11.151,0,24.908c0,8.626,5.555,16.226,13.989,20.7V58.858l9.824-9.824a39.438,39.438,0,0,0,7.711.78c17.407,0,31.523-11.15,31.523-24.907S48.932,0,31.525,0ZM15.169,16.181a7.345,7.345,0,0,1,10.15,0,1.136,1.136,0,0,1-1.607,1.6,5.023,5.023,0,0,0-6.941,0,1.134,1.134,0,1,1-1.6-1.6ZM31.524,39.754A11.347,11.347,0,0,1,20.176,28.406h22.7A11.35,11.35,0,0,1,31.524,39.754M47.879,17.785a1.135,1.135,0,0,1-1.6,0,5.025,5.025,0,0,0-6.942,0,1.135,1.135,0,0,1-1.606-1.6,7.342,7.342,0,0,1,10.149,0A1.129,1.129,0,0,1,47.879,17.785Z" transform="translate(0.322 0.09)" fill="#fff"/>
      </g>
    </g>
  </g>
</svg>
