<svg id="icon_bewegung" xmlns="http://www.w3.org/2000/svg" xmlns:xlink="http://www.w3.org/1999/xlink" width="24.561" height="32.885" viewBox="0 0 24.561 32.885">
  <defs>
    <clipPath id="clip-path">
      <rect id="Rechteck_3643" data-name="Rechteck 3643" width="24.561" height="32.885" fill="#fff" stroke="#fff" stroke-width="0.3"/>
    </clipPath>
  </defs>
  <g id="Gruppe_21090" data-name="Gruppe 21090" clip-path="url(#clip-path)">
    <path id="Pfad_33316" data-name="Pfad 33316" d="M58.206,6.289A3.145,3.145,0,1,1,61.35,3.145a3.148,3.148,0,0,1-3.144,3.144m0-5.5a2.358,2.358,0,1,0,2.358,2.358A2.361,2.361,0,0,0,58.206.786" transform="translate(-41.152 0)" fill="#fff" stroke="#fff" stroke-width="0.3"/>
    <path id="Pfad_33317" data-name="Pfad 33317" d="M1.7,50.987A1.7,1.7,0,0,1,.435,48.149a.337.337,0,0,1,.036-.044l5.544-5.937,1.815-6.207a.369.369,0,0,1,.041-.092l2.037-8.345H7.715l-1.446,4.8a.416.416,0,0,1-.032.077,1.7,1.7,0,0,1-3.288-.607,1.634,1.634,0,0,1,.059-.425.337.337,0,0,1,.015-.077l1.736-5.725a1.445,1.445,0,0,1,.043-.146l.01-.029a1.705,1.705,0,0,1,1.612-1.171H14.3a.407.407,0,0,1,.113.016,1.7,1.7,0,0,1,1.284.845.362.362,0,0,1,.069.1l2.759,5.783,3.48-2.09a.355.355,0,0,1,.084-.038,1.658,1.658,0,0,1,.767-.189,1.706,1.706,0,0,1,1.7,1.7,1.688,1.688,0,0,1-.764,1.416.377.377,0,0,1-.05.036L18.8,34.775a1.69,1.69,0,0,1-2.626-.833l-.8-1.669-.794,3.252,5.024,3.964a.377.377,0,0,1,.063.062,1.693,1.693,0,0,1-.2,2.618.34.34,0,0,1-.048.038l-7.459,4.927a1.668,1.668,0,0,1-.993.325,1.7,1.7,0,0,1-1.013-3.073.424.424,0,0,1,.062-.051l5.476-3.619-4.225-3.047L9.2,43.7a.388.388,0,0,1-.085.14l-6.17,6.608a.358.358,0,0,1-.032.03,1.683,1.683,0,0,1-1.21.51ZM1.082,48.6a.368.368,0,0,1-.038.046.915.915,0,1,0,1.326,1.26l.027-.026,6.088-6.518,2.208-6.447a.394.394,0,0,1,.6-.191l5.117,3.689a.394.394,0,0,1-.014.647L10.5,44.955a.351.351,0,0,1-.051.041.915.915,0,1,0,1.054,1.5l7.427-4.908a.35.35,0,0,1,.05-.038.915.915,0,0,0,.423-.77A.905.905,0,0,0,19.1,40.1a.187.187,0,0,1-.024-.023L13.9,35.987a.39.39,0,0,1-.138-.4l1.116-4.569a.394.394,0,0,1,.737-.076l1.282,2.689a.34.34,0,0,1,.021.053.9.9,0,0,0,1.425.455l.036-.025L23.3,31.155a.336.336,0,0,1,.037-.027.914.914,0,0,0-.478-1.695.9.9,0,0,0-.451.125.329.329,0,0,1-.059.028l-3.788,2.276a.4.4,0,0,1-.316.039A.39.39,0,0,1,18,31.694l-2.9-6.08a.337.337,0,0,1-.057-.085.916.916,0,0,0-.767-.514.437.437,0,0,1-.055-.007h-7.8a.915.915,0,0,0-.863.623l-.015.045a.692.692,0,0,0-.021.068q0,.018-.009.036L3.8,31.451a.378.378,0,0,1-.015.074.9.9,0,0,0-.047.269.914.914,0,0,0,1.781.29.46.46,0,0,1,.019-.046l1.512-5.022a.393.393,0,0,1,.376-.28h2.985a.393.393,0,0,1,.382.486L8.671,35.9a.381.381,0,0,1,.023.121.392.392,0,0,1-.162.334l-1.79,6.122a.387.387,0,0,1-.09.158Z" transform="translate(0 -18.102)" fill="#fff" stroke="#fff" stroke-width="0.3"/>
  </g>
</svg>
