<svg id="icon" xmlns="http://www.w3.org/2000/svg" width="45" height="45" viewBox="0 0 45 45">
  <path id="Ellipse_21" data-name="Ellipse 21" d="M18.5-4A22.5,22.5,0,1,1-4,18.5,22.525,22.525,0,0,1,18.5-4Zm0,41.667A19.167,19.167,0,1,0-.667,18.5,19.188,19.188,0,0,0,18.5,37.667Z" transform="translate(4 4)" fill="#092a5e"/>
  <path id="Linie_1" data-name="Linie 1" d="M-2.086,16.577A1.914,1.914,0,0,1-4,14.663V-2.086A1.914,1.914,0,0,1-2.086-4,1.914,1.914,0,0,1-.172-2.086V14.663A1.914,1.914,0,0,1-2.086,16.577Z" transform="translate(24.586 19.029)" fill="#092a5e"/>
  <path id="Linie_2" data-name="Linie 2" d="M-2.086.568A1.914,1.914,0,0,1-4-1.347,2.133,2.133,0,0,1-2.086-3.5,1.724,1.724,0,0,1-.172-1.825v.479A1.914,1.914,0,0,1-2.086.568Z" transform="translate(24.586 13.99)" fill="#092a5e"/>
</svg>
