<svg xmlns="http://www.w3.org/2000/svg" xmlns:xlink="http://www.w3.org/1999/xlink" width="70" height="70" viewBox="0 0 70 70">
  <defs>
    <clipPath id="clip-path">
      <rect id="Rechteck_3613" data-name="Rechteck 3613" width="70" height="70" fill="#fff"/>
    </clipPath>
  </defs>
  <g id="icon_tipps_nichtstun" transform="translate(0.198 -0.47)">
    <g id="Gruppe_20976" data-name="Gruppe 20976" transform="translate(-0.198 0.47)" clip-path="url(#clip-path)">
      <path id="Pfad_33022" data-name="Pfad 33022" d="M55.968,14.964,57.7,13.516A26.212,26.212,0,0,0,49.357,6.9l-1.02,2.017A23.885,23.885,0,0,1,55.968,14.964Z" transform="translate(3.366 -0.009)" fill="#fff"/>
      <path id="Pfad_33023" data-name="Pfad 33023" d="M57.7,17.68l.03.051.974-.572.944-.624a26.6,26.6,0,0,0-1.532-2.313L56.307,15.57A24.046,24.046,0,0,1,57.7,17.68Z" transform="translate(3.878 0.462)" fill="#fff"/>
      <path id="Pfad_33024" data-name="Pfad 33024" d="M44.746,27.108l1.561-3.123,1.561,3.123h8.173L57.6,23.985l1.56,3.123h8.174l2.689-5.381v-1.7l-2.86-4.864a30.755,30.755,0,0,0-53.013,0l-2.86,4.864v1.705l2.691,5.38h8.174l1.56-3.123,1.561,3.123h8.173l1.561-3.123,1.561,3.123h.7V51.489l-6.746,6.746-6.559-10.5a10.239,10.239,0,0,0-3.035-3.1,7.915,7.915,0,1,0-8.046-1.41,10.155,10.155,0,0,0-7.164,6.229L.313,63.367A4.55,4.55,0,0,0,0,65.029v.42a4.58,4.58,0,0,0,8.73,1.937l3.535-7.576L13.94,63.16a12.354,12.354,0,0,0,11.113,6.869H65.51a4.518,4.518,0,0,0,0-9.036h-.662L54.82,50.964a12.014,12.014,0,0,0-10.77-3.309V27.109ZM37.97,24.849l-1.129-2.26h7.638l-1.129,2.26ZM40.66,2.372c1.9.929,9.656,5.508,10.117,17.959H30.543C31,7.881,38.76,3.3,40.66,2.372Zm8.6,22.477-1.129-2.26h7.64l-1.129,2.26Zm11.3,0L59.43,22.59h7.64l-1.13,2.26Zm4.658-8.543,2.369,4.025H53.06c-.317-9.515-4.586-14.914-7.946-17.7a28.6,28.6,0,0,1,20.1,13.678Zm-49.116,0A28.606,28.606,0,0,1,36.207,2.629c-3.36,2.788-7.629,8.188-7.946,17.7H13.734Zm-.722,8.543-1.129-2.26h7.64l-1.129,2.26Zm11.3,0-1.13-2.26h7.64l-1.129,2.26ZM12.424,37.273a5.647,5.647,0,1,1,5.647,5.647,5.653,5.653,0,0,1-5.647-5.647M67.768,65.51a2.262,2.262,0,0,1-2.26,2.259H25.051a10.106,10.106,0,0,1-9.092-5.621L13.483,57.2l2.223-4.765-2.047-.956L6.681,66.429a2.32,2.32,0,0,1-4.423-.981v-.42a2.326,2.326,0,0,1,.158-.842L7.826,50.274A7.991,7.991,0,0,1,22.05,48.935L31,63.251H65.509a2.261,2.261,0,0,1,2.258,2.258Zm-26.64-4.518,4.051-4.05a1.637,1.637,0,0,1,2.258,0l4.051,4.05ZM53.221,52.56l8.431,8.431H54.682l-5.647-5.647a3.95,3.95,0,0,0-5.453,0l-5.647,5.647H32.251l-.5-.793,7.638-7.638a9.779,9.779,0,0,1,13.827,0ZM41.79,48.316a11.82,11.82,0,0,0-2.258,1.214V27.108H41.79Z" transform="translate(0.258 -0.453)" fill="#fff"/>
      <path id="Pfad_33025" data-name="Pfad 33025" d="M39.918,6.343,38.8,4.38a13.942,13.942,0,0,0-2.015,1.407l1.445,1.736A11.866,11.866,0,0,1,39.918,6.343Z" transform="translate(2.623 -0.171)" fill="#fff"/>
      <path id="Pfad_33026" data-name="Pfad 33026" d="M36.933,8.789l-1.692-1.5a17.015,17.015,0,0,0-1.467,1.922l1.888,1.24A14.486,14.486,0,0,1,36.933,8.789Z" transform="translate(2.429 0.016)" fill="#fff"/>
      <path id="Pfad_33027" data-name="Pfad 33027" d="M33.969,14.009a16.827,16.827,0,0,1,.788-1.964l-2.041-.971a19.166,19.166,0,0,0-.891,2.228Z" transform="translate(2.304 0.259)" fill="#fff"/>
    </g>
  </g>
</svg>
