<svg xmlns="http://www.w3.org/2000/svg" width="71.232" height="67.15" viewBox="0 0 71.232 67.15">
  <g id="icon_tipps_detox" transform="translate(-7.423 -18.977)">
    <g id="Gruppe_21089" data-name="Gruppe 21089" transform="translate(8.036 19.498)">
      <g id="Gruppe_21092" data-name="Gruppe 21092">
        <path id="Pfad_33259" data-name="Pfad 33259" d="M61.425,54.978a10.062,10.062,0,1,1,8.213-8.213,10.07,10.07,0,0,1-8.213,8.213M61.253,36.14a9.049,9.049,0,1,0,7.381,7.381A9.061,9.061,0,0,0,61.253,36.14Z" transform="translate(-24.708 -35.005)" fill="#fff" stroke="#fff" stroke-width="1"/>
        <path id="Pfad_33260" data-name="Pfad 33260" d="M41.8,88.843a.51.51,0,0,0-.567.284l-3.244,7.026a12.6,12.6,0,0,1-3.975,4.907l-2.748,2.018a.5.5,0,0,0-.172.588.494.494,0,0,0,.477.324h.04c.162-.01.335-.03.507-.03H41.7a.5.5,0,0,0,.507-.506V89.34a.531.531,0,0,0-.405-.5Zm-.618,14.1H33.154l1.46-1.074a13.6,13.6,0,0,0,4.3-5.293l2.281-4.928v11.3Z" transform="translate(-19.282 -50.71)" fill="#fff" stroke="#fff" stroke-width="1"/>
        <path id="Pfad_33261" data-name="Pfad 33261" d="M89.074,100.992a12.582,12.582,0,0,1-3.975-4.9l-3.305-7.169a.511.511,0,0,0-.568-.284.5.5,0,0,0-.4.5V103.4a.5.5,0,0,0,.507.506H91.01c.162,0,.314.011.477.021h.04A.518.518,0,0,0,92,103.6a.506.506,0,0,0-.172-.589Zm-7.24,1.9V91.451l2.342,5.07a13.6,13.6,0,0,0,4.3,5.293l1.46,1.074Z" transform="translate(-33.802 -50.652)" fill="#fff" stroke="#fff" stroke-width="1"/>
        <path id="Pfad_33262" data-name="Pfad 33262" d="M83.607,97.828c-.2-.212-9.429-9.348-9.429-9.348a9.932,9.932,0,0,1-2.332-3.661L67.04,71.882A9.7,9.7,0,0,0,57.8,65H41.062A9.538,9.538,0,0,0,32.1,71.121a1.171,1.171,0,0,0-.061.112L27,84.82a9.977,9.977,0,0,1-2.322,3.66l-9.237,9.126a3.249,3.249,0,0,0-.264.294,3.2,3.2,0,0,0,4.279,4.664l.994-.73a6.933,6.933,0,0,0,6.824,8.05h44.35a6.938,6.938,0,0,0,6.824-8.031l.984.72c3.052,2.058,6.641-1.977,4.177-4.746Zm-2.392,4.279a2.17,2.17,0,0,1-1.207-.365l-2.149-1.582a.5.5,0,0,0-.608.011.509.509,0,0,0-.162.588,5.927,5.927,0,0,1-5.465,8.111h-7.31a3.365,3.365,0,0,0,1.339-2.606c.071-2.038-1.491-3.518-4.208-3.954L38.112,99.552a.506.506,0,0,0-.122,1L61.3,103.314c4.472.436,4.38,5.5.01,5.445l-34.057.111a5.922,5.922,0,0,1-5.455-8.132.5.5,0,0,0-.761-.6l-2.17,1.592a2.187,2.187,0,0,1-2.9-3.2c.03-.04.142-.162.182-.2L25.4,89.2a10.772,10.772,0,0,0,2.565-4.036l5.019-13.536c.011-.02.041-.081.051-.1A8.57,8.57,0,0,1,41.074,66h16.74A8.686,8.686,0,0,1,66.088,72.2L70.9,85.164A10.905,10.905,0,0,0,73.469,89.2s9.126,9.034,9.419,9.328A2.2,2.2,0,0,1,81.215,102.107Z" transform="translate(-14.428 -43.755)" fill="#fff" stroke="#fff" stroke-width="1"/>
      </g>
    </g>
  </g>
</svg>
