<svg id="icon_tipps_bewegung" xmlns="http://www.w3.org/2000/svg" xmlns:xlink="http://www.w3.org/1999/xlink" width="52.281" height="70" viewBox="0 0 52.281 70">
  <defs>
    <clipPath id="clip-path">
      <rect id="Rechteck_3643" data-name="Rechteck 3643" width="52.281" height="70" fill="#fff" stroke="#fff" stroke-width="0.3"/>
    </clipPath>
  </defs>
  <g id="Gruppe_21090" data-name="Gruppe 21090" clip-path="url(#clip-path)">
    <path id="Pfad_33316" data-name="Pfad 33316" d="M61.754,13.387a6.694,6.694,0,1,1,6.692-6.693,6.7,6.7,0,0,1-6.692,6.693m0-11.714a5.02,5.02,0,1,0,5.02,5.02,5.025,5.025,0,0,0-5.02-5.02" transform="translate(-25.453 0)" fill="#fff" stroke="#fff" stroke-width="0.3"/>
    <path id="Pfad_33317" data-name="Pfad 33317" d="M3.625,81.2a3.622,3.622,0,0,1-2.7-6.041A.717.717,0,0,1,1,75.062L12.8,62.424l3.863-13.213a.786.786,0,0,1,.087-.2L21.088,31.25H16.423L13.345,41.47a.887.887,0,0,1-.069.163,3.618,3.618,0,0,1-7-1.293,3.478,3.478,0,0,1,.126-.9.717.717,0,0,1,.032-.163L10.13,27.086a3.076,3.076,0,0,1,.092-.31l.021-.062a3.63,3.63,0,0,1,3.431-2.492H30.445a.867.867,0,0,1,.241.035,3.619,3.619,0,0,1,2.733,1.8.771.771,0,0,1,.147.209l5.872,12.309,7.407-4.449a.756.756,0,0,1,.178-.08,3.529,3.529,0,0,1,1.633-.4,3.631,3.631,0,0,1,3.624,3.627,3.594,3.594,0,0,1-1.627,3.015.8.8,0,0,1-.107.076L40.016,46.687a3.6,3.6,0,0,1-5.589-1.772l-1.694-3.552-1.69,6.922,10.7,8.438a.8.8,0,0,1,.134.133,3.6,3.6,0,0,1-.435,5.573.724.724,0,0,1-.1.08L25.457,73a3.55,3.55,0,0,1-2.114.693,3.626,3.626,0,0,1-2.157-6.541.9.9,0,0,1,.133-.109l11.656-7.7L23.98,52.851l-4.4,12.828a.826.826,0,0,1-.18.3L6.268,80.045a.763.763,0,0,1-.068.064,3.583,3.583,0,0,1-2.576,1.086ZM2.3,76.121a.784.784,0,0,1-.081.1A1.947,1.947,0,1,0,5.045,78.9c.018-.02.037-.038.057-.056L18.06,64.969l4.7-13.724a.838.838,0,0,1,1.281-.407l10.892,7.853a.839.839,0,0,1-.03,1.377L22.359,68.357a.747.747,0,0,1-.108.087,1.949,1.949,0,1,0,2.244,3.185L40.3,61.181a.745.745,0,0,1,.107-.081,1.947,1.947,0,0,0,.9-1.64,1.927,1.927,0,0,0-.657-1.449.4.4,0,0,1-.051-.049l-11.023-8.7a.831.831,0,0,1-.293-.856l2.375-9.727a.838.838,0,0,1,1.569-.162l2.729,5.724a.722.722,0,0,1,.044.113,1.925,1.925,0,0,0,3.033.969c.025-.019.05-.036.077-.054l10.479-6.294a.716.716,0,0,1,.079-.057,1.946,1.946,0,0,0-1.017-3.608,1.92,1.92,0,0,0-.959.265.7.7,0,0,1-.125.059l-8.062,4.844a.842.842,0,0,1-.672.084.831.831,0,0,1-.514-.441L32.149,27.186A.716.716,0,0,1,32.028,27,1.95,1.95,0,0,0,30.4,25.911a.93.93,0,0,1-.117-.015H13.673a1.948,1.948,0,0,0-1.836,1.326l-.031.1a1.474,1.474,0,0,0-.045.146q-.008.039-.019.077L8.081,39.612a.8.8,0,0,1-.032.158,1.916,1.916,0,0,0-.1.572,1.945,1.945,0,0,0,3.791.617.98.98,0,0,1,.04-.1L15,30.171a.837.837,0,0,1,.8-.6h6.353a.837.837,0,0,1,.814,1.035L18.458,49.085a.812.812,0,0,1,.05.258.834.834,0,0,1-.345.711l-3.81,13.031a.823.823,0,0,1-.192.337Z" transform="translate(0 -11.196)" fill="#fff" stroke="#fff" stroke-width="0.3"/>
  </g>
</svg>
