<svg height="45" viewBox="0 0 45 45" width="45" xmlns="http://www.w3.org/2000/svg"><g fill="#092a5e"><path d="m18.5-4a22.5 22.5 0 1 1 -22.5 22.5 22.525 22.525 0 0 1 22.5-22.5zm0 41.667a19.167 19.167 0 1 0 -19.167-19.167 19.188 19.188 0 0 0 19.167 19.167z" transform="translate(4 4)"/><path d="m-2.086 16.577a1.914 1.914 0 0 1 -1.914-1.914v-16.749a1.914 1.914 0 0 1 1.914-1.914 1.914 1.914 0 0 1 1.914 1.914v16.749a1.914 1.914 0 0 1 -1.914 1.914z" transform="translate(24.586 19.029)"/><path d="m-2.086.568a1.914 1.914 0 0 1 -1.914-1.915 2.133 2.133 0 0 1 1.914-2.153 1.724 1.724 0 0 1 1.914 1.675v.479a1.914 1.914 0 0 1 -1.914 1.914z" transform="translate(24.586 13.99)"/></g></svg>