<svg xmlns="http://www.w3.org/2000/svg" width="1366" height="369" viewBox="0 0 1366 369">
  <g id="wellen" transform="translate(0 -9939.592)">
    <path id="Pfad_33159" data-name="Pfad 33159" d="M1162.054,1457.035c-54.143.221-105.922-16.905-159.818-13.97-58.489,3.186-104.468,28.84-158.122,42.432-59.6,15.1-127.237,14.928-192.5,14.493l-465.782-3.1c-61.94-.413-124.755-.913-185.832-6.071v19.947H1366V1360.283c-46.5,47.837-110.506,96.369-203.946,96.752" transform="translate(0 8797.83)" fill="#2693c6"/>
    <path id="Pfad_33160" data-name="Pfad 33160" d="M1290.479,1312.995c-34.8,18.8-79.823,32.939-127.863,33.564-66.477.866-128.425-23.719-194.786-21.334-71.6,2.574-126.829,35.029-189.531,54.807-76.584,24.156-170.886,29.5-254.373,14.4-60.609-10.957-117.177-32.262-180.785-32.619-88.162-.5-168.105,39.677-255.488,33.025A250.167,250.167,0,0,1,0,1371.439v42.636c61.077,5.158,123.891,5.659,185.832,6.071l465.781,3.1c65.264.435,132.9.6,192.5-14.493,53.653-13.592,99.631-39.246,158.121-42.432,53.9-2.936,105.675,14.191,159.818,13.969,93.441-.382,157.442-48.914,203.946-96.752v-23.6c-22.168,18.957-46.869,37.575-75.521,53.056" transform="translate(0 8874.569)" fill="#4aabd9"/>
    <path id="Pfad_33161" data-name="Pfad 33161" d="M180.9,1209.835c72.545-15.441,128.121-57.551,205.6-57.834,95.659-.349,157.679,62.984,251.876,72.443,132.3,13.285,228.041-82.676,362.092-87.8,84.491-3.232,179.154,29.661,247.552,1.332,28.734-11.9,43.008-31.673,62.507-48.556A124.166,124.166,0,0,1,1366,1062.1v-13.765c-28.863-1.87-61.372,7.3-83.7,19.312-29.967,16.125-52.8,37.316-89.464,48.105-74.638,21.965-161.971-8.6-245.623-13.412-110.858-6.374-211.816,33.3-301.213,71.041-32,13.51-81.354,7.191-117.146-2.8s-66.864-24.862-102.91-34.555c-52.007-13.986-113.429-16.305-168.245-6.354-46.4,8.424-89.478,25.362-138.195,25.259A217.284,217.284,0,0,1,9.975,1124.443Q4.8,1121.314,0,1118.017v72.5q5.726,2.941,11.915,5.582c47.486,20.209,113.41,25.569,168.987,13.74" transform="translate(0 9036.584)" fill="#9ed8f3"/>
    <path id="Pfad_33162" data-name="Pfad 33162" d="M59.013,645.981c41.723,18.889,103.482,9.757,151.1-3.922s96.684-31.641,149.629-27.8c78.81,5.724,126.822,56.85,204.614,66.019,67.911,8,132.476-18.385,183.877-44.809S855.5,579.2,924.846,578.324c69.87-.881,132.663,28.605,202.525,27.518,52.269-.813,98.229-18.469,143.9-32.92,29.151-9.225,62.11-17.409,94.734-19.213V537.836c-82.569,25.511-187.339,29.12-279.324,17.825-66.8-8.2-131.2-25.364-199.546-25-78.332.418-149.673,23.648-220.153,43.048s-151.355,35.734-225.763,21.835c-56.436-10.541-105.59-37.89-164.8-35.11-27.238,1.278-52.545,9.033-79.782,10.318-50.635,2.388-96.86-18.284-123.512-42.828S34.078,474.84,14.324,448.28A178.1,178.1,0,0,0,0,431.308V571.071q7.433,16.434,16.509,32.611c8.819,15.7,19.8,32.021,42.5,42.3" transform="translate(0 9508.284)" fill="#ebf8fe"/>
    <path id="Pfad_33163" data-name="Pfad 33163" d="M119.5,1081.185c48.716.1,91.8-16.836,138.195-25.26,54.815-9.951,116.237-7.632,168.245,6.354,36.045,9.693,67.117,24.564,102.91,34.555s85.143,16.31,117.146,2.8c89.4-37.739,190.354-77.414,301.213-71.04,83.651,4.809,170.985,35.377,245.622,13.412,36.663-10.79,59.5-31.98,89.464-48.106,22.331-12.016,54.84-21.182,83.7-19.312V951.661c-32.624,1.8-65.583,9.989-94.734,19.213-45.666,14.451-91.627,32.107-143.9,32.92-69.861,1.087-132.655-28.4-202.525-27.519-69.344.875-125.207,30.725-176.608,57.149s-115.966,52.814-183.877,44.809c-77.792-9.169-125.8-60.294-204.614-66.019-52.946-3.846-102.008,14.116-149.63,27.8s-109.381,22.812-151.1,3.922c-22.7-10.278-33.685-26.6-42.5-42.3Q7.429,985.467,0,969.023v75.245q4.811,3.292,9.975,6.426A217.285,217.285,0,0,0,119.5,1081.185" transform="translate(0 9110.333)" fill="#def3fd"/>
    <path id="Pfad_33164" data-name="Pfad 33164" d="M343.142,1245.347c63.607.358,120.176,21.663,180.785,32.619,83.487,15.093,177.79,9.753,254.373-14.4,62.7-19.778,117.935-52.233,189.531-54.807,66.361-2.385,128.309,22.2,194.786,21.334,48.039-.626,93.064-14.763,127.863-33.565,28.652-15.48,53.353-34.1,75.521-53.055v-35.823a124.166,124.166,0,0,0-55.471,27.314c-19.5,16.883-33.773,36.655-62.507,48.556-68.4,28.329-163.061-4.565-247.552-1.332-134.051,5.128-229.793,101.09-362.092,87.8-94.2-9.459-156.217-72.792-251.876-72.443-77.479.283-133.055,42.393-205.6,57.834-55.577,11.829-121.5,6.469-168.987-13.74Q5.726,1239.006,0,1236.058v18.912a250.159,250.159,0,0,0,87.653,23.4c87.384,6.653,167.326-33.521,255.489-33.025" transform="translate(0 8991.039)" fill="#69c5eb"/>
  </g>
</svg>
