<svg width="48" height="49" fill="none" xmlns="http://www.w3.org/2000/svg"><g clip-path="url(#clip0_137_2086)" fill="#092A5E"><path d="M9.938 48.298h28.124a4.223 4.223 0 0 0 4.22-4.219V14.36h-9.844a4.223 4.223 0 0 1-4.22-4.218V.298H9.939a4.223 4.223 0 0 0-4.22 4.219v39.562a4.223 4.223 0 0 0 4.22 4.219zm5.624-28.219h16.876a1.406 1.406 0 1 1 0 2.813H15.561a1.405 1.405 0 1 1 0-2.813zm0 5.625h16.876a1.406 1.406 0 1 1 0 2.813H15.561a1.405 1.405 0 1 1 0-2.813zm0 5.625h16.876a1.406 1.406 0 1 1 0 2.813H15.561a1.405 1.405 0 1 1 0-2.813zm0 5.625h11.25a1.406 1.406 0 1 1 0 2.813h-11.25a1.405 1.405 0 1 1 0-2.813z"/><path d="M32.438 11.548h9.02L31.03 1.122v9.02c0 .776.63 1.406 1.407 1.406z"/></g><defs><clipPath id="clip0_137_2086"><path fill="#fff" transform="translate(0 .298)" d="M0 0h48v48H0z"/></clipPath></defs></svg>