<svg width="61" height="54" fill="none" xmlns="http://www.w3.org/2000/svg"><path d="M2.444 42.955h45.942c.412 0 .81-.144 1.126-.407.441-.37 10.507-9.031 11.12-27.728h-49.34C10.681 31.792 1.411 39.77 1.314 39.85a1.762 1.762 0 0 0 1.13 3.106zM58.934 4.27h-8.79V2.511c0-.984-.774-1.758-1.758-1.758-.985 0-1.758.774-1.758 1.758V4.27H37.72V2.511c0-.984-.774-1.758-1.758-1.758-.985 0-1.758.774-1.758 1.758V4.27h-8.79V2.511c0-.984-.774-1.758-1.758-1.758-.985 0-1.758.774-1.758 1.758V4.27h-8.79c-.985 0-1.758.774-1.758 1.759v5.275h49.34V6.03c0-.985-.773-1.759-1.757-1.759z" fill="#092A5E"/><path d="M51.77 45.244a5.29 5.29 0 0 1-3.384 1.228H11.35v5.276c0 .971.786 1.758 1.758 1.758h45.825c.971 0 1.758-.787 1.758-1.758V32.036c-3.39 8.318-8.12 12.536-8.922 13.208z" fill="#092A5E"/></svg>