<svg width="56" height="55" fill="none" xmlns="http://www.w3.org/2000/svg"><path d="M18.954 18.944c.173.118.375.18.586.18h.003a1.045 1.045 0 0 0 1.002-1.337c-.601-2.631-.316-4.75.846-6.3 1.37-1.825 1.977-4.166 1.624-6.264-.313-1.858-1.312-3.403-2.89-4.466a1.06 1.06 0 0 0-1.177.005 1.04 1.04 0 0 0-.424 1.098c.65 2.769.06 4.523-1.42 7.185-.922 1.657-1.299 3.52-1.06 5.243.269 1.949 1.277 3.56 2.91 4.656zM27.517 18.498a.974.974 0 0 0 .552.17h.001a.984.984 0 0 0 .944-1.253c-.456-2.003-.243-3.61.634-4.778 1.096-1.46 1.582-3.337 1.299-5.02-.252-1.496-1.057-2.741-2.328-3.598a.993.993 0 0 0-1.11.006.985.985 0 0 0-.395 1.031c.494 2.11.041 3.452-1.094 5.493-.738 1.327-1.038 2.818-.847 4.198a5.275 5.275 0 0 0 2.344 3.75zM54.427 24.823c-.651-.766-1.581-1.187-2.62-1.187H46.99c.05-.826-.102-1.856-.69-2.55-.436-.511-1.056-.782-1.794-.782H2.756c-1.093 0-1.723.47-2.059.865-.687.808-.782 2.018-.641 2.882 1.15 7.064 3.634 13.48 6.995 18.068 2.488 3.396 5.403 5.815 8.712 7.247H4.133a2.623 2.623 0 0 0-2.62 2.62 2.623 2.623 0 0 0 2.62 2.619h38.733a2.623 2.623 0 0 0 2.62-2.62 2.623 2.623 0 0 0-2.62-2.619H31.298c2.726-1.173 5.175-3.011 7.331-5.505 3.699-.317 7.413-2.082 10.577-5.053 3.236-3.038 5.441-6.916 6.051-10.639.077-.466.242-2.083-.83-3.346zM42.91 37.26c1.406-2.883 2.39-5.857 3.079-8.581h3.974c-1.009 3.234-3.723 6.64-7.053 8.58z" fill="#092A5E"/></svg>