<svg width="53" height="53" fill="none" xmlns="http://www.w3.org/2000/svg"><g clip-path="url(#clip0_137_1517)"><path d="M26.37 0C15.838 0 7.27 8.568 7.27 19.1c0 13.07 17.093 32.259 17.82 33.07a1.72 1.72 0 0 0 2.56 0c.727-.811 17.82-20 17.82-33.07C45.47 8.568 36.902 0 26.37 0zm0 28.71c-5.299 0-9.61-4.31-9.61-9.61 0-5.299 4.311-9.61 9.61-9.61 5.299 0 9.61 4.312 9.61 9.61 0 5.3-4.311 9.61-9.61 9.61z" fill="#092A5E"/></g><defs><clipPath id="clip0_137_1517"><path fill="#fff" d="M0 0h52.74v52.74H0z"/></clipPath></defs></svg>