<svg width="50" height="53" fill="none" xmlns="http://www.w3.org/2000/svg"><path d="M40.242 39.794a24.32 24.32 0 0 0-.265-1.564 19.298 19.298 0 0 0-4.609-9.088c.693 3.05-1.202 4.998-1.226 4.991.336-3.663-.886-7.3-3.367-10.016a1199.375 1199.375 0 0 1-3.064-3.364C24.08 16.76 21.13 12.713 18.495 9.3c.063 1.687-.508 3.848-2.766 6.49.026-.002.967-1.834 1.315-4.896a7.051 7.051 0 0 0-1.77-5.517C11.998 1.746 8.78-.357 4.651.992.354 2.377-.923 6.988.644 13.355a7.042 7.042 0 0 0 3.084 4.276c3.501 2.205 6.087 1.974 6.063 2-3.385.91-5.807.09-7.425-1.202 2.147 5.059 5.763 10.601 10.497 15.8a49.373 49.373 0 0 0 5.392 5.11c3.001 2.442 7.079 3.141 10.72 1.83-.011-.023-1.152 2.566-4.787 2.29.316.185.63.363.941.537a14.647 14.647 0 0 0 6.578 1.823c1.698.058 3.623-.16 5.61-.917.078.016-4.64 3.223-1.062 7.498.005-1.862 3.73-5.827 5.131-7.343.042-.042-1.956 4.223 3.505 7.516-2.312-2.834-1.079-4.719-.257-6.123a66.777 66.777 0 0 1-10.23-5.458c-6.381-4.13-11.826-9.438-15.298-13.853-1.764-2.19-3.03-4.165-3.92-5.533-.869-1.386-1.302-2.216-1.304-2.214.002-.002.602.717 1.66 1.954 1.036 1.25 2.61 2.955 4.532 4.938 3.846 3.97 9.367 8.827 15.563 12.817a88.908 88.908 0 0 0 9.81 5.559c.505-1.576 1.254-3.585 4.427-4.083-5.14-1.3-7.436 2.403-7.447 2.449.357-2.044 1.82-7.218 3.218-8.342-4.497-.16-5.456 5.057-5.403 5.11z" fill="#092A5E"/></svg>