<svg width="18" height="18" fill="none" xmlns="http://www.w3.org/2000/svg"><mask id="a" style="mask-type:alpha" maskUnits="userSpaceOnUse" x="0" y="0" width="18" height="18"><circle cx="9" cy="9" r="9" fill="#D9D9D9"/></mask><g clip-path="url(#clip0_170_1113)" mask="url(#a)"><mask id="b" style="mask-type:luminance" maskUnits="userSpaceOnUse" x="-2" y="0" width="27" height="18"><path d="M-2 0h27v18H-2V0z" fill="#fff"/></mask><g mask="url(#b)"><path d="M-2 0v18h27V0H-2z" fill="#001489"/><path d="M-2 0v9h27V0H-2z" fill="#E03C31"/><path d="M-2 0l13.5 9L-2 18m13.5-9H25z" fill="#000"/><path fill-rule="evenodd" clip-rule="evenodd" d="M6.092 9l-9.756-6.504 3.328-4.992L12.408 6H25v6H12.408L-.336 20.496l-3.328-4.992L6.092 9z" fill="#fff"/><mask id="c" style="mask-type:luminance" maskUnits="userSpaceOnUse" x="-2" y="0" width="14" height="18"><path d="M-2 0l13.5 9L-2 18" fill="#fff"/></mask><g mask="url(#c)"><path d="M-2 0l13.5 9L-2 18" fill="#000"/><path fill-rule="evenodd" clip-rule="evenodd" d="M6.092 9l-9.756-6.504 3.328-4.992L16.908 9-.336 20.496l-3.328-4.992L6.092 9z" fill="#FFB81C"/></g><path fill-rule="evenodd" clip-rule="evenodd" d="M8.255 9L-2.998 1.498l1.996-2.996L12.045 7.2H25v3.6H12.045l-13.047 8.698-1.996-2.996L8.255 9z" fill="#007749"/></g></g><defs><clipPath id="clip0_170_1113"><path fill="#fff" transform="translate(-2)" d="M0 0h27v18H0z"/></clipPath></defs></svg>