<svg width="18" height="18" fill="none" xmlns="http://www.w3.org/2000/svg"><mask id="a" style="mask-type:alpha" maskUnits="userSpaceOnUse" x="0" y="0" width="18" height="18"><circle cx="9" cy="9" r="9" fill="#D9D9D9"/></mask><g mask="url(#a)"><path d="M-3.411 2.265V5.09H.626l-4.037-2.826zM-.066 18h5.98v-4.186L-.066 18zm13.152-4.185V18h5.979l-5.979-4.185zM-3.41 12.263v2.826l4.038-2.826H-3.41zM19.066-.647h-5.98V3.54l5.98-4.186zm3.345 15.737v-2.827h-4.039l4.039 2.827zm0-10V2.266L18.373 5.09h4.038zM5.914-.645h-5.98l5.98 4.186V-.646z" fill="#00247D"/><path d="M14.621 12.263l6.967 4.877c.34-.35.584-.782.71-1.254l-5.175-3.623H14.62zm-8.707 0H4.378l-6.966 4.876c.374.38.853.652 1.39.779l7.112-4.979v-.676zm7.172-7.172h1.536L21.588.214a2.861 2.861 0 0 0-1.39-.778l-7.112 4.979v.676zm-8.708 0L-2.588.214c-.34.35-.584.783-.71 1.254l5.175 3.623h2.5z" fill="#CF1B2B"/><path d="M22.411 10.828h-10.76V18h1.435v-4.185L19.065 18h.477a2.863 2.863 0 0 0 2.046-.86l-6.967-4.877h2.501l5.176 3.623c.066-.242.113-.492.113-.755v-.041l-4.039-2.827h4.039v-1.435zm-25.822 0v1.435H.627l-4.038 2.826v.042c0 .783.315 1.49.823 2.008l6.966-4.876h1.536v.676l-7.111 4.978c.21.05.428.083.655.083h.476l5.98-4.186V18h1.434v-7.172H-3.41zm25.822-8.606c0-.751-.295-1.473-.823-2.008l-6.966 4.877h-1.536v-.676l7.112-4.979a2.87 2.87 0 0 0-.656-.082h-.476l-5.98 4.186V-.646h-1.434v7.171H22.41V5.091h-4.038l4.038-2.826v-.043zM5.914-.646V3.54L-.066-.646h-.476a2.859 2.859 0 0 0-2.046.86l6.966 4.877H1.877l-5.175-3.623c-.072.246-.11.499-.113.754v.043L.626 5.09h-4.037v1.434h10.76V-.646H5.913z" fill="#EFEFEF"/><path d="M11.652 6.525V-.646H7.348v7.171H-3.41v4.303h10.76V18h4.303v-7.172H22.41V6.525h-10.76z" fill="#CF1B2B"/></g></svg>