<svg width="18" height="18" fill="none" xmlns="http://www.w3.org/2000/svg"><circle cx="9" cy="9" r="9" fill="#DA251D"/><path d="M9.05 4L7.38 9.136l3.424 1.112" fill="#FF0"/><path d="M9.05 4l1.668 5.136-3.423 1.112" fill="#FF0"/><path d="M14.185 7.731h-5.4v3.6" fill="#FF0"/><path d="M14.185 7.731l-4.368 3.175L7.7 7.992" fill="#FF0"/><path d="M12.224 13.769l-1.669-5.136-3.424 1.113" fill="#FF0"/><path d="M12.224 13.769l-4.369-3.174 2.116-2.912" fill="#FF0"/><path d="M3.914 7.731h5.4v3.6" fill="#FF0"/><path d="M3.914 7.731l4.369 3.175 2.116-2.913" fill="#FF0"/><path d="M5.876 13.769l1.668-5.136 3.424 1.113" fill="#FF0"/><path d="M5.876 13.769l4.368-3.174-2.116-2.912" fill="#FF0"/></svg>