<svg width="18" height="18" fill="none" xmlns="http://www.w3.org/2000/svg"><mask id="a" style="mask-type:alpha" maskUnits="userSpaceOnUse" x="0" y="0" width="18" height="18"><path d="M18 9A9 9 0 1 1 0 9a9 9 0 0 1 18 0z" fill="#D9D9D9"/></mask><g mask="url(#a)"><path d="M-4.783-1.093h27.28V18h-27.28V-1.093z" fill="#009B3A"/><path d="M-2.464 8.454L8.857 15.68l11.321-7.227-11.32-7.228-11.322 7.228z" fill="#FEDF00"/><path d="M8.857 13.228a4.774 4.774 0 1 0 0-9.548 4.774 4.774 0 0 0 0 9.548z" fill="#002776"/><mask id="b" style="mask-type:luminance" maskUnits="userSpaceOnUse" x="4" y="3" width="10" height="11"><path d="M8.857 13.228a4.774 4.774 0 1 0 0-9.548 4.774 4.774 0 0 0 0 9.548z" fill="#fff"/></mask><g mask="url(#b)"><path d="M-5.465 18.001a11.592 11.592 0 0 1 19.792-8.197A11.592 11.592 0 0 1 17.723 18h-.682a10.91 10.91 0 0 0-21.824 0h-.682z" fill="#fff"/></g><path fill-rule="evenodd" clip-rule="evenodd" d="M4.785 7.059a.195.195 0 0 0 .136-.084.24.24 0 0 0 .04-.167.24.24 0 0 0-.08-.152.195.195 0 0 0-.15-.049.195.195 0 0 0-.136.084.24.24 0 0 0-.04.167.24.24 0 0 0 .079.152.195.195 0 0 0 .151.049zm-.01-.084a.111.111 0 0 0 .08-.052.158.158 0 0 0 .022-.105.158.158 0 0 0-.047-.096.111.111 0 0 0-.09-.03.111.111 0 0 0-.079.051.158.158 0 0 0-.022.105.158.158 0 0 0 .047.096.111.111 0 0 0 .09.03zM5.156 7.018l.084-.006-.012-.169.182-.013a.143.143 0 0 0-.02-.285l-.26.019.026.454zm.067-.26l.174-.011a.058.058 0 1 0-.008-.117l-.175.012.009.117z" fill="#009B3A"/><path d="M5.542 6.99c-.005-.065-.015-.207-.112-.2l-.123.008c.142-.01.152.133.157.198" fill="#009B3A"/><path fill-rule="evenodd" clip-rule="evenodd" d="M5.732 6.981l.214-.003a.195.195 0 0 0 .192-.199l-.001-.064a.195.195 0 0 0-.198-.192l-.215.004.008.454zm.083-.085l.124-.003a.123.123 0 0 0 .12-.125v-.04a.123.123 0 0 0-.125-.12l-.124.002.005.286z" fill="#009B3A"/><path d="M6.31 6.976l.408.014.003-.084-.33-.012.003-.117.26.01.003-.078-.26-.01.003-.09.312.01.003-.084-.39-.014-.016.455zM6.886 7l.078.008.027-.311.064.319.07.006.118-.303-.027.31.078.007.04-.452-.114-.01-.117.302-.064-.318-.113-.01-.04.453zM7.828 7.107l.336.058.014-.077-.26-.045.018-.102.211.036.013-.077-.21-.036.011-.07.251.043.014-.077-.328-.056-.07.403z" fill="#009B3A"/><path fill-rule="evenodd" clip-rule="evenodd" d="M8.692 7.277l.081.02.043-.163.176.046a.143.143 0 1 0 .071-.277l-.251-.065-.12.439zm.145-.224l.17.043a.058.058 0 0 0 .029-.113l-.17-.044-.03.114zM9.25 7.425l.08.026.05-.161.174.054a.143.143 0 1 0 .086-.272l-.248-.078-.143.431zm.156-.216l.167.053a.058.058 0 1 0 .036-.112l-.168-.052-.035.111z" fill="#009B3A"/><path d="M9.618 7.541c.02-.062.063-.198-.03-.228l-.118-.037c.136.043.093.18.074.242" fill="#009B3A"/><path fill-rule="evenodd" clip-rule="evenodd" d="M9.99 7.675c.051.019.108.015.16-.012a.24.24 0 0 0 .112-.13.24.24 0 0 0 0-.171.195.195 0 0 0-.112-.113.195.195 0 0 0-.16.012.24.24 0 0 0-.112.13.24.24 0 0 0 0 .17.195.195 0 0 0 .112.114zm.03-.08c.03.012.064.008.094-.009a.157.157 0 0 0 .068-.082.157.157 0 0 0 .003-.107.111.111 0 0 0-.065-.069.111.111 0 0 0-.094.01.158.158 0 0 0-.069.082.158.158 0 0 0-.002.107.111.111 0 0 0 .065.069z" fill="#009B3A"/><mask id="c" style="mask-type:luminance" maskUnits="userSpaceOnUse" x="10" y="7" width="1" height="1"><path d="M10.338 7.809l.181-.417.376.163-.182.417-.375-.163zm.31-.198l-.032.071.188.082.03-.072-.187-.081z" fill="#fff"/></mask><g mask="url(#c)"><path fill-rule="evenodd" clip-rule="evenodd" d="M10.526 7.89c.05.022.107.021.159-.003a.24.24 0 0 0 .119-.123.24.24 0 0 0 .009-.172.195.195 0 0 0-.106-.118.195.195 0 0 0-.16.003.24.24 0 0 0-.118.124.24.24 0 0 0-.01.17.195.195 0 0 0 .107.12zm.033-.077c.03.013.064.011.095-.004a.157.157 0 0 0 .072-.079.158.158 0 0 0 .008-.107.111.111 0 0 0-.06-.072.111.111 0 0 0-.095.005.157.157 0 0 0-.073.078.158.158 0 0 0-.008.107c.01.033.032.06.061.072z" fill="#009B3A"/></g><path d="M10.646 7.695l.158.069-.026.06-.158-.07.026-.059z" fill="#009B3A"/><path d="M10.744 7.738l.06.026-.09.209-.06-.026.09-.209z" fill="#009B3A"/><path fill-rule="evenodd" clip-rule="evenodd" d="M10.866 8.044l.075.037.075-.15.163.08a.143.143 0 1 0 .128-.255l-.233-.116-.208.404zm.188-.19l.157.079a.058.058 0 0 0 .052-.105l-.157-.078-.052.105z" fill="#009B3A"/><path d="M11.211 8.216c.03-.058.093-.186.006-.23l-.11-.055c.127.064.064.192.035.25M11.38 8.305l.356.201.042-.073-.288-.163.057-.102.226.128.039-.068-.226-.128.044-.079.272.154.041-.074-.339-.192-.224.396zM12.044 8.527c-.025.039 0 .081.055.116.054.035.092.034.108.01.05-.079-.238-.193-.15-.329.077-.116.208-.025.257.006.05.031.128.113.067.206l-.084-.053c.026-.041-.002-.08-.046-.109-.043-.027-.077-.039-.102 0-.043.064.239.184.153.32-.064.1-.175.056-.249.009-.063-.04-.157-.135-.096-.23l.087.054zM12.531 8.85c-.026.037-.004.081.05.12.052.037.09.037.107.014.053-.076-.228-.204-.132-.336.082-.112.208-.015.256.02.047.033.122.118.056.209l-.081-.058c.028-.04.002-.08-.04-.11s-.075-.044-.103-.006c-.046.062.23.196.136.327-.069.096-.177.047-.248-.004-.061-.043-.15-.143-.084-.235l.083.06z" fill="#009B3A"/><path fill-rule="evenodd" clip-rule="evenodd" d="M12.993 9.373a.195.195 0 0 0 .154.038.24.24 0 0 0 .147-.088.241.241 0 0 0 .053-.163.195.195 0 0 0-.071-.143.195.195 0 0 0-.155-.037.24.24 0 0 0-.147.088.24.24 0 0 0-.053.163c.003.057.03.109.072.142zm.052-.066c.025.02.059.027.093.02a.158.158 0 0 0 .09-.057.158.158 0 0 0 .036-.1.111.111 0 0 0-.04-.086.111.111 0 0 0-.093-.02.158.158 0 0 0-.09.057.157.157 0 0 0-.036.1c0 .036.015.066.04.086z" fill="#009B3A"/><path d="M4.96 7.392l-.063.194.097.032" fill="#fff"/><path d="M4.96 7.392l.063.194-.097.032" fill="#fff"/><path d="M5.155 7.533H4.95v.103" fill="#fff"/><path d="M5.155 7.533l-.166.12-.06-.082" fill="#fff"/><path d="M4.765 7.533l.166.12.06-.083" fill="#fff"/><path d="M4.765 7.533h.205v.102" fill="#fff"/><path d="M5.08 7.761l-.063-.194-.097.031" fill="#fff"/><path d="M5.08 7.761l-.165-.12.06-.083" fill="#fff"/><path d="M4.84 7.761l.165-.12-.06-.083" fill="#fff"/><path d="M4.84 7.761l.063-.194.097.031M5.382 9.398l-.063.195.097.032" fill="#fff"/><path d="M5.382 9.398l.063.195-.097.032" fill="#fff"/><path d="M5.577 9.54h-.205v.102" fill="#fff"/><path d="M5.577 9.54l-.166.12-.06-.083" fill="#fff"/><path d="M5.188 9.54l.165.12.06-.083" fill="#fff"/><path d="M5.188 9.54h.204v.102" fill="#fff"/><path d="M5.503 9.769l-.064-.195-.097.032" fill="#fff"/><path d="M5.503 9.769l-.166-.12.06-.083" fill="#fff"/><path d="M5.262 9.769l.166-.12-.06-.083" fill="#fff"/><path d="M5.262 9.769l.063-.195.098.032M4.798 9.861l-.053.162.081.027" fill="#fff"/><path d="M4.798 9.861l.052.162-.08.027" fill="#fff"/><path d="M4.96 9.979h-.17v.085" fill="#fff"/><path d="M4.96 9.979l-.138.1-.05-.069" fill="#fff"/><path d="M4.636 9.979l.138.1.05-.069" fill="#fff"/><path d="M4.636 9.979h.17v.085" fill="#fff"/><path d="M4.898 10.17l-.053-.163-.08.027" fill="#fff"/><path d="M4.898 10.17l-.138-.1.05-.07" fill="#fff"/><path d="M4.698 10.17l.137-.1-.05-.07" fill="#fff"/><path d="M4.698 10.17l.052-.163.081.027M5.85 9.213l-.03.093.046.015" fill="#fff"/><path d="M5.85 9.213l.03.093-.046.015" fill="#fff"/><path d="M5.942 9.28h-.097v.05" fill="#fff"/><path d="M5.942 9.28l-.078.058-.029-.04" fill="#fff"/><path d="M5.757 9.28l.079.058.029-.04" fill="#fff"/><path d="M5.757 9.28h.098v.05" fill="#fff"/><path d="M5.907 9.39l-.03-.094-.046.016" fill="#fff"/><path d="M5.907 9.39l-.079-.058.029-.04" fill="#fff"/><path d="M5.793 9.389l.079-.058-.03-.039" fill="#fff"/><path d="M5.793 9.389l.03-.093.046.015M6.376 9.906l-.053.162.081.027" fill="#fff"/><path d="M6.376 9.906l.053.162-.081.027" fill="#fff"/><path d="M6.538 10.024h-.17v.085" fill="#fff"/><path d="M6.538 10.024l-.138.1-.05-.069" fill="#fff"/><path d="M6.214 10.024l.138.1.05-.069" fill="#fff"/><path d="M6.214 10.024h.17v.085" fill="#fff"/><path d="M6.476 10.215l-.053-.162-.08.026" fill="#fff"/><path d="M6.476 10.215l-.138-.1.05-.07" fill="#fff"/><path d="M6.276 10.215l.138-.1-.05-.07" fill="#fff"/><path d="M6.276 10.215l.052-.162.082.026M6.233 10.415l-.042.13.065.02" fill="#fff"/><path d="M6.233 10.415l.042.13-.065.02" fill="#fff"/><path d="M6.363 10.509h-.137v.068" fill="#fff"/><path d="M6.363 10.509l-.11.08-.04-.055" fill="#fff"/><path d="M6.103 10.51l.11.08.04-.056" fill="#fff"/><path d="M6.103 10.51h.137v.068" fill="#fff"/><path d="M6.313 10.661l-.042-.13-.065.021" fill="#fff"/><path d="M6.313 10.661l-.11-.08.04-.055" fill="#fff"/><path d="M6.153 10.661l.11-.08-.04-.055" fill="#fff"/><path d="M6.153 10.661l.042-.13.065.021M10.338 6.769l-.063.194.097.032" fill="#fff"/><path d="M10.338 6.769l.063.194-.097.032" fill="#fff"/><path d="M10.533 6.91h-.205v.102" fill="#fff"/><path d="M10.533 6.91l-.166.12-.06-.082" fill="#fff"/><path d="M10.143 6.91l.166.12.06-.083" fill="#fff"/><path d="M10.143 6.91h.205v.102" fill="#fff"/><path d="M10.458 7.14l-.063-.195-.097.031" fill="#fff"/><path d="M10.458 7.14l-.165-.121.06-.083" fill="#fff"/><path d="M10.218 7.139l.165-.12-.06-.083" fill="#fff"/><path d="M10.218 7.139l.063-.195.097.032M12.202 9.925l-.063.194.097.032" fill="#fff"/><path d="M12.202 9.925l.063.194-.097.032" fill="#fff"/><path d="M12.397 10.066h-.205v.103" fill="#fff"/><path d="M12.397 10.066l-.166.12-.06-.082" fill="#fff"/><path d="M12.008 10.066l.165.12.06-.083" fill="#fff"/><path d="M12.008 10.066h.204v.102" fill="#fff"/><path d="M12.322 10.295l-.063-.195-.097.032" fill="#fff"/><path d="M12.322 10.295l-.165-.12.06-.083" fill="#fff"/><path d="M12.082 10.295l.165-.12-.06-.083" fill="#fff"/><path d="M12.082 10.295l.063-.195.097.032M12.865 10.038l-.043.13.065.02" fill="#fff"/><path d="M12.865 10.038l.042.13-.065.02" fill="#fff"/><path d="M12.994 10.132h-.136v.069" fill="#fff"/><path d="M12.994 10.132l-.11.08-.04-.055" fill="#fff"/><path d="M12.735 10.132l.11.08.04-.055" fill="#fff"/><path d="M12.735 10.132h.136v.069" fill="#fff"/><path d="M12.945 10.285l-.042-.13-.065.022" fill="#fff"/><path d="M12.945 10.285l-.11-.08.04-.055" fill="#fff"/><path d="M12.784 10.285l.11-.08-.04-.055" fill="#fff"/><path d="M12.784 10.285l.043-.13.064.022M12.397 10.38l-.053.163.081.026" fill="#fff"/><path d="M12.397 10.38l.053.163-.081.026" fill="#fff"/><path d="M12.56 10.498h-.171v.086" fill="#fff"/><path d="M12.56 10.498l-.139.1-.05-.068" fill="#fff"/><path d="M12.235 10.498l.138.1.05-.068" fill="#fff"/><path d="M12.235 10.498h.17v.086" fill="#fff"/><path d="M12.497 10.689l-.053-.162-.08.026" fill="#fff"/><path d="M12.497 10.689l-.138-.1.05-.07" fill="#fff"/><path d="M12.297 10.689l.138-.1-.05-.07" fill="#fff"/><path d="M12.297 10.689l.053-.162.08.026M11.247 11.38l-.052.163.08.026" fill="#fff"/><path d="M11.247 11.38l.053.163-.081.026" fill="#fff"/><path d="M11.41 11.498h-.171v.086" fill="#fff"/><path d="M11.41 11.498l-.138.1-.05-.068" fill="#fff"/><path d="M11.085 11.498l.138.1.05-.069" fill="#fff"/><path d="M11.085 11.498h.17v.085" fill="#fff"/><path d="M11.348 11.689l-.053-.162-.081.026" fill="#fff"/><path d="M11.348 11.689l-.138-.1.05-.07" fill="#fff"/><path d="M11.147 11.689l.138-.1-.05-.07" fill="#fff"/><path d="M11.147 11.689l.053-.162.08.026M11.24 11.896l-.041.13.065.02" fill="#fff"/><path d="M11.24 11.896l.043.13-.065.02" fill="#fff"/><path d="M11.37 11.99h-.136v.067" fill="#fff"/><path d="M11.37 11.99l-.11.08-.04-.056" fill="#fff"/><path d="M11.111 11.99l.11.08.04-.056" fill="#fff"/><path d="M11.111 11.99h.137v.067" fill="#fff"/><path d="M11.321 12.142l-.042-.13-.065.021" fill="#fff"/><path d="M11.321 12.142l-.11-.08.04-.055" fill="#fff"/><path d="M11.16 12.142l.111-.08-.04-.055" fill="#fff"/><path d="M11.16 12.142l.043-.13.065.021M11.722 11.038l-.043.13.065.02" fill="#fff"/><path d="M11.722 11.038l.042.13-.065.02" fill="#fff"/><path d="M11.851 11.133h-.136v.068" fill="#fff"/><path d="M11.851 11.133l-.11.08-.04-.055" fill="#fff"/><path d="M11.592 11.133l.11.08.04-.055" fill="#fff"/><path d="M11.592 11.133h.136v.068" fill="#fff"/><path d="M11.802 11.285l-.043-.13-.064.022" fill="#fff"/><path d="M11.802 11.285l-.11-.08.04-.055" fill="#fff"/><path d="M11.641 11.286l.11-.08-.04-.055" fill="#fff"/><path d="M11.641 11.286l.042-.13.065.021M12.105 10.764l-.053.162.081.026" fill="#fff"/><path d="M12.105 10.764l.052.162-.08.026" fill="#fff"/><path d="M12.267 10.881h-.17v.086" fill="#fff"/><path d="M12.267 10.881l-.138.1-.05-.068" fill="#fff"/><path d="M11.943 10.881l.138.1.05-.068" fill="#fff"/><path d="M11.943 10.881h.17v.086" fill="#fff"/><path d="M12.205 11.072l-.053-.162-.08.026" fill="#fff"/><path d="M12.205 11.072l-.138-.1.05-.07" fill="#fff"/><path d="M12.005 11.072l.137-.1-.05-.07" fill="#fff"/><path d="M12.005 11.072l.052-.162.081.026M11.228 10.947l-.042.13.065.021" fill="#fff"/><path d="M11.228 10.947l.042.13-.065.021" fill="#fff"/><path d="M11.358 11.04h-.137v.068" fill="#fff"/><path d="M11.358 11.04l-.11.08-.04-.055" fill="#fff"/><path d="M11.098 11.041l.11.08.04-.055" fill="#fff"/><path d="M11.098 11.041h.136v.069" fill="#fff"/><path d="M11.308 11.194l-.042-.13-.065.021" fill="#fff"/><path d="M11.308 11.194l-.11-.08.04-.056" fill="#fff"/><path d="M11.148 11.194l.11-.08-.04-.056" fill="#fff"/><path d="M11.148 11.194l.042-.13.065.021M7.039 8.478l-.053.162.08.027" fill="#fff"/><path d="M7.039 8.478l.052.162-.08.027" fill="#fff"/><path d="M7.2 8.594h-.17v.085" fill="#fff"/><path d="M7.2 8.594l-.137.1-.05-.069" fill="#fff"/><path d="M6.876 8.595l.138.1.05-.069" fill="#fff"/><path d="M6.876 8.595h.17v.085" fill="#fff"/><path d="M7.139 8.786l-.053-.162-.081.026" fill="#fff"/><path d="M7.139 8.786L7 8.686l.05-.07" fill="#fff"/><path d="M6.938 8.786l.138-.1-.05-.07" fill="#fff"/><path d="M6.938 8.786l.053-.162.081.026M10.156 8.077l-.042.13.065.02" fill="#fff"/><path d="M10.156 8.077l.042.13-.065.02" fill="#fff"/><path d="M10.286 8.171h-.136v.069" fill="#fff"/><path d="M10.286 8.171l-.11.08-.04-.055" fill="#fff"/><path d="M10.026 8.171l.11.08.04-.055" fill="#fff"/><path d="M10.026 8.171h.137v.069" fill="#fff"/><path d="M10.236 8.323l-.042-.13-.065.022" fill="#fff"/><path d="M10.236 8.323l-.11-.08.04-.055" fill="#fff"/><path d="M10.076 8.323l.11-.08-.04-.055" fill="#fff"/><path d="M10.076 8.323l.042-.13.065.022M8.857 10.393l-.063.194.097.032" fill="#fff"/><path d="M8.857 10.393l.063.194-.097.032" fill="#fff"/><path d="M9.052 10.534h-.205v.102" fill="#fff"/><path d="M9.052 10.534l-.166.12-.06-.082" fill="#fff"/><path d="M8.663 10.534l.165.12.06-.083" fill="#fff"/><path d="M8.663 10.534h.204v.102" fill="#fff"/><path d="M8.977 10.762l-.063-.194-.097.031" fill="#fff"/><path d="M8.977 10.762l-.165-.12.06-.083" fill="#fff"/><path d="M8.737 10.762l.165-.12-.06-.083" fill="#fff"/><path d="M8.737 10.762l.063-.194.097.031M9.41 9.478l-.054.162.082.027" fill="#fff"/><path d="M9.41 9.478l.052.162-.081.027" fill="#fff"/><path d="M9.571 9.596h-.17v.085" fill="#fff"/><path d="M9.571 9.596l-.138.1-.05-.069" fill="#fff"/><path d="M9.247 9.596l.138.1.05-.069" fill="#fff"/><path d="M9.247 9.596h.17v.085" fill="#fff"/><path d="M9.51 9.786l-.053-.162-.081.026" fill="#fff"/><path d="M9.51 9.786l-.139-.1.05-.07" fill="#fff"/><path d="M9.309 9.786l.138-.1-.05-.07" fill="#fff"/><path d="M9.309 9.786l.053-.162.08.026M8.857 9.05l-.053.161.082.027" fill="#fff"/><path d="M8.857 9.05l.053.161-.081.027" fill="#fff"/><path d="M9.02 9.167h-.171v.086" fill="#fff"/><path d="M9.02 9.167l-.139.1-.05-.068" fill="#fff"/><path d="M8.695 9.167l.138.1.05-.068" fill="#fff"/><path d="M8.695 9.167h.17v.086" fill="#fff"/><path d="M8.957 9.358l-.052-.162-.081.026" fill="#fff"/><path d="M8.957 9.358l-.138-.1.05-.07" fill="#fff"/><path d="M8.757 9.358l.138-.1-.05-.07" fill="#fff"/><path d="M8.757 9.358l.053-.162.08.026M8.376 9.512l-.042.13.065.021" fill="#fff"/><path d="M8.376 9.512l.043.13-.065.021" fill="#fff"/><path d="M8.506 9.606H8.37v.069" fill="#fff"/><path d="M8.506 9.606l-.11.08-.04-.055" fill="#fff"/><path d="M8.247 9.607l.11.08.04-.055" fill="#fff"/><path d="M8.247 9.607h.136v.068" fill="#fff"/><path d="M8.457 9.759l-.043-.13-.064.021" fill="#fff"/><path d="M8.457 9.759l-.11-.08.04-.056" fill="#fff"/><path d="M8.296 9.759l.11-.08-.04-.056" fill="#fff"/><path d="M8.296 9.759l.042-.13.065.021M8.617 9.882l-.03.093.046.015" fill="#fff"/><path d="M8.617 9.882l.03.093-.046.015" fill="#fff"/><path d="M8.71 9.949h-.098v.048" fill="#fff"/><path d="M8.71 9.949l-.08.057-.028-.04" fill="#fff"/><path d="M8.524 9.949l.079.057.029-.04" fill="#fff"/><path d="M8.524 9.949h.098v.048" fill="#fff"/><path d="M8.674 10.06l-.03-.094-.046.015" fill="#fff"/><path d="M8.674 10.06l-.079-.058.029-.04" fill="#fff"/><path d="M8.56 10.059L8.638 10l-.028-.04" fill="#fff"/><path d="M8.56 10.059l.03-.093.046.015M10.286 11.498l-.053.162.081.026" fill="#fff"/><path d="M10.286 11.498l.053.162-.081.026" fill="#fff"/><path d="M10.448 11.615h-.17v.085" fill="#fff"/><path d="M10.448 11.615l-.138.1-.05-.069" fill="#fff"/><path d="M10.124 11.615l.138.1.05-.069" fill="#fff"/><path d="M10.124 11.615h.17v.085" fill="#fff"/><path d="M10.386 11.806l-.052-.162-.081.026" fill="#fff"/><path d="M10.386 11.806l-.138-.1.05-.069" fill="#fff"/><path d="M10.186 11.806l.138-.1-.05-.069" fill="#fff"/><path d="M10.186 11.806l.053-.162.08.026M10.695 11.11l-.042.13.065.02" fill="#fff"/><path d="M10.695 11.11l.042.13-.064.02" fill="#fff"/><path d="M10.825 11.204h-.136v.068" fill="#fff"/><path d="M10.825 11.204l-.11.08-.04-.055" fill="#fff"/><path d="M10.566 11.204l.11.08.04-.055" fill="#fff"/><path d="M10.566 11.204h.136v.068" fill="#fff"/><path d="M10.775 11.357l-.042-.13-.065.021" fill="#fff"/><path d="M10.775 11.357l-.11-.08.04-.055" fill="#fff"/><path d="M10.615 11.357l.11-.08-.04-.055" fill="#fff"/><path d="M10.615 11.357l.042-.13.065.021M9.91 10.993l-.043.13.065.02" fill="#fff"/><path d="M9.91 10.993l.041.13-.064.02" fill="#fff"/><path d="M10.04 11.086h-.137v.069" fill="#fff"/><path d="M10.04 11.086l-.111.08-.04-.055" fill="#fff"/><path d="M9.78 11.087l.11.08.04-.055" fill="#fff"/><path d="M9.78 11.087h.136v.069" fill="#fff"/><path d="M9.99 11.24l-.043-.13-.065.02" fill="#fff"/><path d="M9.99 11.24l-.11-.08.04-.056" fill="#fff"/><path d="M9.83 11.24l.11-.08-.04-.056" fill="#fff"/><path d="M9.83 11.24l.041-.13.065.02M6.941 10.782l-.063.194.097.032" fill="#fff"/><path d="M6.941 10.782l.063.194-.097.032" fill="#fff"/><path d="M7.136 10.923H6.93v.103" fill="#fff"/><path d="M7.136 10.923l-.166.12-.06-.082" fill="#fff"/><path d="M6.747 10.923l.165.12.06-.083" fill="#fff"/><path d="M6.747 10.923h.204v.102" fill="#fff"/><path d="M7.061 11.152l-.063-.194-.097.031" fill="#fff"/><path d="M7.061 11.152l-.165-.12.06-.083" fill="#fff"/><path d="M6.82 11.152l.166-.12-.06-.083" fill="#fff"/><path d="M6.82 11.152l.064-.194.097.031M8.857 12.12l-.021.064.032.01" fill="#fff"/><path d="M8.857 12.12l.021.064-.032.01" fill="#fff"/><path d="M8.922 12.166h-.068v.035" fill="#fff"/><path d="M8.922 12.166l-.055.04-.02-.027" fill="#fff"/><path d="M8.792 12.166l.055.04.02-.027" fill="#fff"/><path d="M8.792 12.166h.068v.035" fill="#fff"/><path d="M8.897 12.243l-.02-.065-.033.01" fill="#fff"/><path d="M8.897 12.243l-.055-.04.02-.028" fill="#fff"/><path d="M8.817 12.243l.055-.04-.02-.028" fill="#fff"/><path d="M8.817 12.243l.021-.065.033.01" fill="#fff"/></g></svg>