<svg width="22" height="18" fill="none" xmlns="http://www.w3.org/2000/svg"><mask id="a" style="mask-type:alpha" maskUnits="userSpaceOnUse" x="4" y="0" width="18" height="18"><circle cx="13" cy="9" r="9" fill="#D9D9D9"/></mask><g mask="url(#a)"><path d="M0 0h36v18H0V0z" fill="#0038A8"/><path d="M0 9h36v9H0V9z" fill="#CE1126"/><path d="M15.588 9L0 18V0" fill="#fff"/><path d="M5.6 10.8a1.8 1.8 0 1 0 0-3.6 1.8 1.8 0 0 0 0 3.6z" fill="#FCD116"/><path d="M1.8 9l.236.235L5.6 9l-3.564-.236L1.8 9zM2.199 9.446l.192.192L5.6 9l-3.401.446zM2.199 8.553l.192-.192L5.6 9l-3.401-.447zM2.913 6.313v.333L5.6 9 3.246 6.313h-.333z" fill="#FCD116"/><path d="M2.88 6.91v.272L5.6 8.999 2.88 6.91zM3.51 6.279h.273L5.6 8.999 3.51 6.28z" fill="#FCD116"/><path d="M5.6 5.2l-.236.235L5.6 9l.236-3.565L5.6 5.2zM5.154 5.599l-.193.192L5.6 9l-.446-3.401zM6.046 5.599l.193.192L5.6 9l.446-3.401zM8.287 6.312h-.333L5.6 9l2.687-2.353v-.334z" fill="#FCD116"/><path d="M7.69 6.279h-.273L5.6 8.999l2.09-2.72zM8.32 6.91v.272L5.6 8.999l2.72-2.09zM9.4 9l-.236-.236L5.6 9l3.564.235L9.4 9zM9.001 8.554L8.81 8.36 5.6 9l3.401-.446zM9.001 9.446l-.192.193L5.6 9l3.401.446zM8.287 11.687v-.333L5.6 9l2.354 2.687h.333zM8.32 11.09v-.272L5.6 9l2.72 2.09zM7.69 11.72h-.273L5.6 9l2.09 2.72zM5.6 12.8l.236-.236L5.6 9l-.236 3.564.236.236z" fill="#FCD116"/><path d="M6.046 12.4l.193-.191-.639-3.21.446 3.402z" fill="#FCD116"/><path d="M5.154 12.4l-.193-.191.639-3.21-.446 3.402z" fill="#FCD116"/><path d="M2.913 11.687h.333L5.6 9l-2.687 2.354v.333zM3.51 11.72h.273L5.6 9l-2.09 2.72zM2.88 11.09v-.272L5.6 9l-2.72 2.09zM13.788 9l-.676.235-.015.716-.432-.57-.686.207.41-.588h1.4zM13.788 9l-.676-.235-.015-.716-.432.57-.686-.207.41.588h1.4z" fill="#FCD116"/></g></svg>