<svg width="18" height="18" fill="none" xmlns="http://www.w3.org/2000/svg"><mask id="a" style="mask-type:alpha" maskUnits="userSpaceOnUse" x="0" y="0" width="18" height="18"><path d="M18 9A9 9 0 1 1 0 9a9 9 0 0 1 18 0z" fill="#D9D9D9"/></mask><g mask="url(#a)"><path d="M-2.817-1.086h28.634V18H-2.817V-1.086z" fill="#fff"/><path d="M9.591-1.086h3.818V18H9.59V-1.086zM-2.817 6.548h28.634v3.818H-2.817V6.548zM2.778.889c.437.059.88.059 1.317 0a10.344 10.344 0 0 0 0 3.95c-.437-.06-.88-.06-1.317 0a10.344 10.344 0 0 0 0-3.95z" fill="red"/><path d="M5.411 2.205c-.059.437-.059.88 0 1.316a10.344 10.344 0 0 0-3.949 0c.06-.437.06-.88 0-1.316 1.303.253 2.646.253 3.95 0zM21.867 2.205c-.059.437-.059.88 0 1.316a10.344 10.344 0 0 0-3.95 0c.06-.437.06-.88 0-1.316 1.304.253 2.647.253 3.95 0zM2.778 12.077c.437.06.88.06 1.317 0a10.344 10.344 0 0 0 0 3.95 4.91 4.91 0 0 0-1.317 0 10.344 10.344 0 0 0 0-3.95z" fill="red"/><path d="M5.411 13.393c-.059.437-.059.88 0 1.316a10.346 10.346 0 0 0-3.949 0c.06-.436.06-.879 0-1.316 1.303.254 2.646.254 3.95 0zM21.867 13.393a4.9 4.9 0 0 0 0 1.316 10.346 10.346 0 0 0-3.95 0 4.9 4.9 0 0 0 0-1.316c1.304.254 2.647.254 3.95 0z" fill="red"/></g></svg>