<svg width="18" height="18" fill="none" xmlns="http://www.w3.org/2000/svg"><mask id="a" style="mask-type:alpha" maskUnits="userSpaceOnUse" x="0" y="0" width="18" height="18"><path d="M18 9A9 9 0 1 1 0 9a9 9 0 0 1 18 0z" fill="#fff"/></mask><g mask="url(#a)"><mask id="b" style="mask-type:alpha" maskUnits="userSpaceOnUse" x="-1" y="0" width="20" height="20"><path d="M19 10c0 5.523-4.477 10-10 10S-1 15.523-1 10 3.477 0 9 0s10 4.477 10 10z" fill="#D9D9D9"/></mask><g mask="url(#b)"><path d="M24-1.14H-6v19.998h30V-1.14z" fill="#A51931"/><path d="M24 2.193H-6v13.333h30V2.193z" fill="#fff"/><path d="M24 5.527H-6v6.665h30V5.527z" fill="#2D2A4A"/></g></g></svg>