<svg width="18" height="18" fill="none" xmlns="http://www.w3.org/2000/svg"><mask id="a" style="mask-type:alpha" maskUnits="userSpaceOnUse" x="0" y="0" width="18" height="18"><circle cx="9" cy="9" r="9" fill="#D9D9D9"/></mask><g clip-path="url(#clip0_169_42075)" mask="url(#a)"><path d="M-2 0h27v18H-2V0z" fill="#C8102E"/><path d="M-2 0h13.5v18H-2V0z" fill="#fff"/><path d="M-1.333 2.485v1.363H.03c0 .228.228.455.455.455v1.364h1.363V4.303a.489.489 0 0 0 .455-.455h1.364V2.485H2.303a.489.489 0 0 0-.455-.455V.667H.485V2.03a.489.489 0 0 0-.455.455h-1.363z" fill="#C8102E"/><path d="M-1.242 2.575v1.182H.12c0 .228.227.455.455.455v1.364h1.182V4.212a.489.489 0 0 0 .454-.455h1.364V2.575H2.212a.489.489 0 0 0-.454-.454V.757H.576v1.364a.489.489 0 0 0-.455.454h-1.363z" fill="#96877D"/><path d="M-1.197 2.621v1.091H.167c0 .227.227.455.454.455V5.53h1.091V4.167a.489.489 0 0 0 .455-.455H3.53v-1.09H2.167a.489.489 0 0 0-.455-.455V.803H.622v1.364a.489.489 0 0 0-.455.454h-1.364z" fill="#CCC"/><path d="M.536 2.15c.08.08.058.231-.048.338-.107.106-.258.128-.338.048-.08-.08-.058-.231.049-.338.106-.106.257-.128.337-.048z" fill="#96877D"/><path d="M.134 2.391l.032-.032.129.065-.064-.129.032-.032.128.257-.257-.129zM.327 2.2l.032-.032.193.192-.032.032L.327 2.2z" fill="#D0D0D0"/><path d="M2.183 2.536c-.08.08-.231.058-.338-.048-.106-.107-.128-.258-.048-.338.08-.08.231-.058.338.049.106.106.128.257.048.337z" fill="#96877D"/><path d="M1.942 2.134l.032.032-.064.129.128-.064.033.032-.258.128.129-.257zm.193.193l.032.032-.193.193-.032-.032.193-.193z" fill="#D0D0D0"/><path d="M1.797 4.183c-.08-.08-.058-.23.048-.337.107-.107.258-.128.338-.048.08.08.058.23-.048.337-.107.107-.258.128-.338.048z" fill="#96877D"/><path d="M2.199 3.942l-.032.032-.129-.064.065.128-.033.033-.128-.257.257.128zm-.193.193l-.032.032-.193-.193.032-.032.193.193z" fill="#D0D0D0"/><path d="M.15 3.797c.08-.08.231-.058.338.048.106.107.128.258.048.338-.08.08-.23.058-.337-.048C.092 4.028.07 3.877.15 3.797z" fill="#96877D"/><path d="M.391 4.199L.36 4.167l.064-.129-.128.064-.032-.032.257-.128-.129.257zM.2 4.006l-.033-.032.193-.193.032.032-.192.193z" fill="#D0D0D0"/><path fill-rule="evenodd" clip-rule="evenodd" d="M1.167 2.357a.81.81 0 1 0 0 1.62.81.81 0 0 0 0-1.62zm-1.1.81a1.1 1.1 0 1 1 2.199 0 1.1 1.1 0 0 1-2.199 0z" fill="#96877D"/><path fill-rule="evenodd" clip-rule="evenodd" d="M1.167 2.584a.583.583 0 1 0 0 1.166.583.583 0 0 0 0-1.166zm-.872.583a.872.872 0 1 1 1.744 0 .872.872 0 0 1-1.744 0z" fill="#96877D"/><path d="M.803 3.985a.045.045 0 1 0 0-.091.045.045 0 0 0 0 .09zM1.53 3.985a.045.045 0 1 0 0-.091.045.045 0 0 0 0 .09zM1.137 3.94v.047h-.061c-.06 0-.06.047 0 .047h.06v.048c0 .049.053.055.057.004l.004-.052h.06c.061 0 .061-.047 0-.047h-.06V3.94c0-.048-.06-.048-.06 0zm-.858-.538l.062-.015-.007-.029C.333 3.352.33 3.347.326 3.345c-.003-.003-.01-.003-.019-.002v-.005l.053-.013.001.005a.032.032 0 0 0-.013.005.016.016 0 0 0-.005.008l.001.013.007.029.05-.012a.053.053 0 0 0 .015-.005.01.01 0 0 0 .004-.007.023.023 0 0 0 0-.011v-.006h.004l.016.067-.005.001v-.005C.432 3.4.428 3.396.424 3.394c-.003-.001-.01 0-.019.001l-.103.025a.055.055 0 0 0-.015.005.01.01 0 0 0-.004.006.022.022 0 0 0 0 .012l.001.005-.004.001-.028-.118.034-.01.001.004a.05.05 0 0 0-.015.011.024.024 0 0 0-.005.012c0 .004 0 .01.002.019l.009.035zm-.04-.282a.074.074 0 0 1 .027-.054.083.083 0 0 1 .061-.02c.025.002.045.01.06.027a.076.076 0 0 1 .022.059.075.075 0 0 1-.027.055.086.086 0 0 1-.063.02.083.083 0 0 1-.062-.03.078.078 0 0 1-.019-.057zm.008.003c0 .014.004.026.014.036.013.012.033.018.059.02a.097.097 0 0 0 .062-.014.042.042 0 0 0 .018-.034.047.047 0 0 0-.015-.039c-.012-.01-.03-.016-.056-.018-.028-.001-.05.003-.064.013a.045.045 0 0 0-.018.036zm.237-.299l-.016.041-.09.025a.265.265 0 0 1-.007.016l.044.016c.01.004.016.005.02.004.004-.002.007-.005.01-.01l.002-.007.004.002-.025.065-.004-.001.002-.006c.002-.007.002-.012-.001-.016-.002-.003-.007-.006-.016-.01L.31 2.907c-.01-.003-.016-.005-.02-.003-.004.001-.007.005-.01.01l-.002.007-.004-.002.021-.056a.141.141 0 0 1 .018-.034.044.044 0 0 1 .02-.015.036.036 0 0 1 .026 0c.01.004.016.01.02.02.005.008.007.02.005.033l.056-.015a.085.085 0 0 0 .027-.01.05.05 0 0 0 .014-.018l.004.001zm-.12.079a.11.11 0 0 1 .003-.006c.005-.015.006-.027.003-.037a.032.032 0 0 0-.02-.02.034.034 0 0 0-.027 0 .034.034 0 0 0-.018.02.107.107 0 0 0-.005.019l.064.024zm.348-.542l.031.041-.003.003a.07.07 0 0 0-.03-.016.052.052 0 0 0-.039.009.053.053 0 0 0-.026.046.099.099 0 0 0 .046.08.064.064 0 0 0 .035.011c.011 0 .021-.003.03-.009A.066.066 0 0 0 .78 2.5l-.026-.04a.043.043 0 0 0-.01-.012.013.013 0 0 0-.008-.002.033.033 0 0 0-.013.006l-.002-.004.053-.034.002.004-.002.002c-.005.003-.008.007-.008.012 0 .003.003.009.008.016L.8 2.49a.119.119 0 0 1-.04.043c-.027.017-.052.022-.077.014a.081.081 0 0 1-.044-.034.088.088 0 0 1-.014-.04.083.083 0 0 1 .039-.08.082.082 0 0 1 .014-.009.141.141 0 0 1 .02-.006.034.034 0 0 0 .01-.002.005.005 0 0 0 .002-.004c0-.002 0-.005-.003-.008l.004-.003zm.266.019l-.061.016-.004.028a.04.04 0 0 0 0 .015c0 .002.002.004.005.005h.015l.002.004-.05.013-.001-.004c.006-.003.01-.006.011-.008a.074.074 0 0 0 .007-.026l.021-.145.005-.001.09.117c.007.009.013.015.017.017.004.002.01.002.016.001l.002.004-.063.017v-.004c.005-.002.01-.004.011-.007a.008.008 0 0 0 .002-.007.05.05 0 0 0-.01-.015l-.015-.02zm-.005-.008l-.044-.057-.01.071.054-.014zm.288 0h.004l-.016.044-.126-.005v-.005h.006c.007.001.012-.001.015-.005.002-.003.003-.009.004-.018l.004-.106c0-.01 0-.016-.003-.019-.003-.004-.008-.005-.014-.006H1.13v-.004l.074.002v.005c-.009 0-.015 0-.018.002a.015.015 0 0 0-.008.006.052.052 0 0 0-.002.018l-.004.103.001.014c.001.001.002.003.004.003.002.001.009.002.02.002h.038a.034.034 0 0 0 .014-.01.08.08 0 0 0 .013-.022zm.218.057l.003.002-.027.038-.12-.04.001-.004.006.002c.007.002.012.002.016-.002.003-.002.006-.007.008-.016l.034-.1c.003-.01.004-.016.002-.02-.001-.004-.005-.007-.011-.009l-.006-.002.001-.004.07.023v.005a.046.046 0 0 0-.019-.004.015.015 0 0 0-.009.004.053.053 0 0 0-.007.017l-.033.097a.033.033 0 0 0-.002.014c0 .002.001.004.003.005a.079.079 0 0 0 .017.007l.012.004c.012.004.02.006.026.005.005 0 .01-.001.016-.005a.082.082 0 0 0 .019-.017zm.175.093l-.051-.036-.024.014a.04.04 0 0 0-.012.01c-.001.002-.002.004 0 .007 0 .003.004.007.01.012l-.003.004-.042-.03.003-.004c.006.003.01.004.013.004a.074.074 0 0 0 .025-.011l.125-.077.003.002-.032.144a.062.062 0 0 0-.002.025c.001.005.004.01.01.013l-.003.004-.053-.037.003-.004c.005.004.01.005.012.005a.008.008 0 0 0 .007-.003.05.05 0 0 0 .006-.017l.005-.025zm.003-.009l.015-.07-.061.038.046.032zm.194.036l.026.035-.039.154.076-.056c.008-.006.012-.011.013-.014 0-.005 0-.01-.004-.015l-.004-.004.004-.003.034.046-.004.002-.003-.004c-.004-.006-.01-.008-.014-.008-.003 0-.009.003-.016.008l-.11.082-.003-.003.041-.165-.08.06c-.009.006-.013.01-.014.013 0 .005 0 .01.005.015l.003.004-.003.003-.034-.046.003-.002.004.004c.004.006.008.009.013.008.004 0 .009-.002.016-.008l.092-.068a.078.078 0 0 0 .002-.015l-.003-.011a.038.038 0 0 0-.005-.01l.004-.002zm.206.38l-.036.014-.001-.004a.047.047 0 0 0 .012-.008.024.024 0 0 0 .007-.013c0-.006 0-.012-.003-.017L2.03 2.88l-.118.041c-.01.004-.015.007-.017.01-.002.003-.002.009 0 .015l.002.005-.004.001-.023-.065.004-.002.002.006c.002.006.006.01.01.012.004 0 .01 0 .018-.004l.118-.041-.007-.019a.055.055 0 0 0-.007-.015.022.022 0 0 0-.012-.007.036.036 0 0 0-.018.001l-.002-.004.037-.011.045.126zm-.13.29l-.002-.044.074-.06a.27.27 0 0 1-.001-.013V3.1L1.95 3.1c-.01 0-.016.002-.019.005-.003.003-.005.007-.004.013v.007h-.004l-.004-.07h.004v.006c.001.007.004.012.008.015.003.001.009.002.018.001l.105-.005c.01 0 .017-.002.02-.005.003-.003.004-.008.004-.014v-.006h.004l.003.06c.001.016 0 .03-.002.038a.044.044 0 0 1-.012.021.036.036 0 0 1-.024.01.038.038 0 0 1-.027-.008.055.055 0 0 1-.017-.03l-.045.036a.084.084 0 0 0-.02.021.05.05 0 0 0-.006.022h-.005zm.078-.12v.006c.001.016.005.027.012.035a.032.032 0 0 0 .027.01c.01 0 .018-.004.024-.01a.034.034 0 0 0 .008-.026.106.106 0 0 0-.003-.02l-.068.004zm.045.336l-.014.055-.005-.001.001-.003v-.01a.035.035 0 0 0-.005-.013.108.108 0 0 0-.013-.016l-.05-.054-.04-.01c-.01-.003-.016-.003-.02-.002-.003.003-.006.007-.008.013l-.001.005H1.89l.017-.068.005.001-.002.006c-.002.006 0 .012.002.016.002.002.008.004.017.007l.037.01.078-.027a.145.145 0 0 0 .017-.006.043.043 0 0 0 .01-.01.016.016 0 0 0 .003-.006l.004.001-.017.068-.005-.002.001-.003a.021.021 0 0 0 0-.01.009.009 0 0 0-.006-.007c-.003-.001-.009 0-.017.003l-.06.02.04.043c.007.007.012.01.015.011a.01.01 0 0 0 .012-.004.024.024 0 0 0 .004-.009l.004.002z" fill="#000"/><path d="M1.685 3.306c.016-.004.043-.001.043-.001s.002.011-.005.015c.008.004.036.003.036.003l-.017.011c.01.001.023.014.023.014s-.023.004-.033-.001c.006.012.005.023.005.023s-.037-.01-.05-.034m-.064-.051c-.009.022-.075-.02-.075-.02s.029.047.073.052m-.826.393h.777l.06-.048-.1-.054-.154-.052-.061-.034-.114.007-.096.05-.13.016-.03.035-.098.008-.152-.003.254.04-.21-.011.054.046z" fill="#96877D"/><path fill-rule="evenodd" clip-rule="evenodd" d="M1.778 3.265l-.003-.012-.04-.005h-.006l-.014-.001c-.01 0-.026 0-.042.003L1.6 3.21l.011.024a.208.208 0 0 1-.025-.012l-.006-.004h-.002l-.079.078.001.002.002.002a.185.185 0 0 0 .026.03c.012.012.03.026.053.035l-.015.01.084.008c.014.015.03.025.042.03a.176.176 0 0 0 .028.011h.002l.001.001.005-.02-.005.02.066.016.003-.04.089-.014-.048-.05.106-.08-.161.008zm-.138.027l-.013-.027-.002.02.015.007zm-.043-.055h.001a.092.092 0 0 0 .01.011.05.05 0 0 0 .016.012l-.012-.026h-.004a.04.04 0 0 0-.01.003zm-.267.227l.071.04.154.052.18.097-.143.114H.774l-.197-.169.119.006.002-.027.15.003.07-.005.03-.035.142-.016.097-.052.143-.008zm-.328.189h.483l-.13-.044-.052-.029-.085.005-.093.05-.12.014-.003.004z" fill="#000"/><path d="M1.214 3.487c-.098-.052-.126.077-.168.108.057.01.1-.044.148-.07.036.1.094.034.094.034s.06.096.14.053c.023.016.047.001.047.001s.03.006.035-.008c.016.006.033-.013.033-.013s.033 0 .04-.017c.05.009.115-.102.115-.102l.02-.038.029-.006s.002-.02-.014-.019c0-.011-.01-.017-.024-.015.002-.007-.008-.012-.008-.012-.028.007-.03.076-.03.076s-.048.037-.065.047c-.001-.04-.068-.095-.054-.12.014-.026.057.04.095.027.038-.012.057-.061.059-.1-.011-.026-.037-.069-.037-.069l-.025-.001-.021-.053s-.046.03-.045.056c0 .026.048.047.048.047s-.027.017-.053.01c-.002.026.031.02.043.021.006.019.025.03.025.03s.012.028-.018.025c-.03-.002-.066-.071-.108-.04-.045.034.02.096.02.096s-.04.02-.063.074c-.096-.081-.152-.043-.258-.022z" fill="#96877D"/><path fill-rule="evenodd" clip-rule="evenodd" d="M1.649 3.104l.034.084h.019l.015.026.002.002.003.006a1.056 1.056 0 0 1 .036.07l.005.011v.013c0 .01-.002.022-.005.034.007.004.013.01.018.016l.003.003a.07.07 0 0 1 .021.033.082.082 0 0 1 .004.028v.003l-.004.043-.044.009-.009.017-.001.002-.003.004a.497.497 0 0 1-.04.056.263.263 0 0 1-.049.045.129.129 0 0 1-.046.02.104.104 0 0 1-.042.016c0 .002-.001.002-.002.003a.093.093 0 0 1-.034.014.105.105 0 0 1-.101.011.148.148 0 0 1-.134-.026.212.212 0 0 1-.018-.014.094.094 0 0 1-.101-.027.513.513 0 0 1-.022.015.163.163 0 0 1-.118.03l-.131-.023.107-.08.004-.004a.251.251 0 0 0 .012-.018l.005-.007a.461.461 0 0 1 .032-.046.15.15 0 0 1 .07-.05.127.127 0 0 1 .085.004 1.465 1.465 0 0 0 .052-.013.388.388 0 0 1 .072-.012.205.205 0 0 1 .112.026l.001-.002a.12.12 0 0 1-.015-.059c0-.028.013-.055.039-.073a.098.098 0 0 1 .037-.018l.003-.029c0-.006 0-.013.002-.02a.1.1 0 0 1 .014-.032.158.158 0 0 1 .024-.028.24.24 0 0 1 .027-.023l.002-.001.059-.039zm-.105.396h.001a.055.055 0 0 1 .004.008v.002h-.003l-.01.024h-.013l.001-.003a.116.116 0 0 1 .02-.031zm-.115.047c-.035-.028-.058-.032-.08-.03a.17.17 0 0 0-.019.001l.006.01.001.002a.117.117 0 0 0 .025.025c.015.011.026.013.04.006l.027-.014zM1.63 3.3z" fill="#000"/><path d="M1.074 3.35c.04.038.012.1.027.112.017.013.04-.006.04-.006.042.011.117-.012.117-.012.033.018.02-.009.04-.008.018.045.077.037.077.037s-.054-.055-.088-.07c-.025.015-.1.017-.113.015-.015-.003-.006-.02-.013-.031.028-.027.006-.094-.009-.119-.06-.04-.134.03-.078.082zm-.266-.113c-.05.014-.138-.064-.178-.034-.041.03-.022.104.005.141.027.036-.039.05-.056.07-.017.02.005.044.005.044l.019.012-.004.027.01.033s.009.008.012-.002c.008.008 0 .032.022.036-.008-.016.005-.06.005-.06s.037.004.046-.012c.009-.016-.009-.05-.009-.05h.011C.684 3.433.68 3.408.68 3.408s.05-.016.05-.054c0-.039-.082-.08-.052-.1.033-.021.09.058.14.022.049-.037.017-.002.017-.002s.023-.05-.027-.037zm.26-.538C1 2.671.862 2.669.785 2.631c-.033.002-.048.029-.05.04-.035-.002-.059.053-.054.064C.618 2.71.59 2.81.61 2.831c-.054.003-.047.072-.053.092-.017.042.004.056.039.041.005.019-.002.029-.018.032.095.109.148-.066.231-.066.104-.03.145-.081.145-.081l.04.005.074-.155z" fill="#96877D"/><path fill-rule="evenodd" clip-rule="evenodd" d="M.798 2.574l.013.006c.03.015.075.024.129.033l.016.002c.045.008.096.016.133.032l.056.023-.118.247-.054-.008a.424.424 0 0 1-.148.076l-.009.003H.808s-.006 0-.022.012a.423.423 0 0 0-.023.022l-.003.002a.688.688 0 0 1-.026.024.155.155 0 0 1-.09.041c-.043.003-.08-.02-.11-.055l-.063-.072.022-.005a.924.924 0 0 1 .016-.102.118.118 0 0 1 .037-.058.159.159 0 0 1 .017-.057.125.125 0 0 1 .051-.054.102.102 0 0 1 .027-.01.113.113 0 0 1 .142-.102h.015zm-.145.392A.155.155 0 0 1 .8 2.874a.305.305 0 0 0 .11-.06l.02-.026.031.005.027-.056a2.613 2.613 0 0 0-.066-.012.762.762 0 0 1-.13-.03l-.005.036-.043-.003.054.115-.131-.053-.001.002a.046.046 0 0 0-.004.01l.08.081-.109.005.018.061a.102.102 0 0 1 .003.017zm-.026-.078H.619l-.001.004.009-.004zm.168.294H.793a.089.089 0 0 1 .069.007.07.07 0 0 1 .032.042.06.06 0 0 1 .003.053.094.094 0 0 1-.013.021l-.004.006-.002.001-.06-.038v.003l.03.04a.053.053 0 0 0 .017-.005h.001l-.002.001a.27.27 0 0 0-.012.009m-.057-.14L.782 3.18l.013.003zM.782 3.18l-.036-.014.036.014zm-.036-.014a2.781 2.781 0 0 0-.008-.003l.008.003zm-.008-.003a.307.307 0 0 0-.06-.02l.06.02zm-.06-.02a.103.103 0 0 0-.082.015l.083-.015zm.111.131c.004.005.009.01.015.014a.038.038 0 0 0 .018.006L.82 3.277l-.001-.003-.003-.001-.027-.018a.055.055 0 0 0 .001.018zm.03.004l.029.04a.056.056 0 0 1-.047-.02m.018-.02l.004.016-.004-.016zm.033.045a.103.103 0 0 1-.066.02v.011a.1.1 0 0 1-.023.066l.117.08H.752a.075.075 0 0 1-.05.056l.039.081-.107-.016a.074.074 0 0 1-.057-.042.074.074 0 0 1-.003-.002l-.001-.002H.571l.002-.004-.002.003-.013-.01-.018-.06v-.006L.54 3.493a.106.106 0 0 1-.017-.028.084.084 0 0 1 .013-.087.102.102 0 0 1 .019-.018.195.195 0 0 1 .018-.012c.005.01.01.02.017.03 0-.001-.003-.005-.004-.012a.038.038 0 0 1 .002-.02.029.029 0 0 1 .006-.01l-.002.001-.011.007-.008.004a.22.22 0 0 1-.022-.071c-.004-.036.001-.088.046-.12m-.012.401l-.006.007.006-.007zm.445-.325c.037-.037.1-.049.155-.013l.01.007.007.011a.24.24 0 0 1 .03.12.208.208 0 0 0 .018-.003l.01-.003m0 0l.025-.015.027.013a.325.325 0 0 1 .07.05l.025.022.007.007.002.002v.001l-.04.04.008.057h-.006a.155.155 0 0 1-.045-.002.128.128 0 0 1-.048-.02.07.07 0 0 1-.03-.004.287.287 0 0 1-.102.011.083.083 0 0 1-.086-.008m.31-.034l.007.057.112-.016-.08-.08-.04.04zm-.347-.239a.107.107 0 0 0-.032.076l.032-.076zm-.032.076c0 .031.014.06.038.082L.997 3.31zm.038.082c.002.002.005.006.005.024l-.005-.024zm.005.024v.013-.013zm0 .013zm0 0v.018-.017zm0 .018c0 .005 0 .014.002.024l-.003-.024zm.002.024a.07.07 0 0 0 .025.037l-.025-.037z" fill="#000"/><path d="M1.154 2.72a.1.1 0 1 0 0-.198.1.1 0 0 0 0 .199z" fill="#96877D"/><path fill-rule="evenodd" clip-rule="evenodd" d="M1.154 2.58a.042.042 0 1 0 0 .084.042.042 0 0 0 0-.084zm-.156.042a.156.156 0 1 1 .313 0 .156.156 0 0 1-.313 0z" fill="#000"/><path d="M.98 3.402c-.062-.01-.163-.075-.174-.158.057-.225.353-.107.378-.277a.509.509 0 0 1 .076-.315c.028-.036.066-.046.066-.046s.006.024-.003.04c.048-.005.115.022.161.025.014.027.012.037.01.053-.004.017-.022.013-.022.013-.012.01-.026.022-.059.017a.184.184 0 0 1-.075.023s.107.112.09.147c.022.01.055.06.055.06s.073-.038.096-.074c.043 0 .112.045.146.05l.085.069s-.05.033-.072-.011c-.027.002-.084-.061-.163-.042-.003.07-.08.12-.08.12s.072-.01.112.014a4.2 4.2 0 0 0 .102.082l.053.092s-.049.008-.067-.055c-.019.051-.02-.032-.093-.071-.022.003-.033.004-.052-.01-.052.013-.115.044-.189.036-.053.016-.091.06-.144.085-.054.024-.07.012-.07.012l-.043.001c-.006.026-.002.066-.026.073.015.016-.01.085-.037.096.013.045.049.058.086.08 0 0 .034-.015.056.005s.044.077.044.077-.045.003-.06-.003c-.014-.006-.015-.021-.032-.017-.104-.093-.159-.056-.169-.077-.01-.022.025-.078.014-.114z" fill="#96877D"/><path fill-rule="evenodd" clip-rule="evenodd" d="M1.55 2.735zm-.257-.028l.036-.004a.173.173 0 0 1 .05.005l-.007.003a.134.134 0 0 1-.033.008h-.006l-.049.005a.378.378 0 0 1 .01-.018zm.179.03l-.013.055h.002l.002.001a.083.083 0 0 0 .03 0 .144.144 0 0 0 .018-.015l-.04-.042zm-.046.075h.015a.57.57 0 0 0-.004-.006.115.115 0 0 0 .011-.007l-.035-.046-.003.019a.94.94 0 0 0-.025-.03L1.38 2.74l-.001-.001-.042.038-.005-.056m.166.296zm.02-.08a.454.454 0 0 0-.023-.027.329.329 0 0 1-.01.007l-.001-.02a.125.125 0 0 0-.034-.024l-.024.052.033.016m.259.087l-.02-.015a1.063 1.063 0 0 1-.057-.022l-.01-.005a.164.164 0 0 1-.011.046m.098-.004l-.032.016a.11.11 0 0 0 .008.015l-.002.006a.264.264 0 0 1-.022-.012l-.02-.01a.133.133 0 0 0-.03-.01m-.075.12l-.031.04a.12.12 0 0 0 .028.017.48.48 0 0 1 .022-.007l-.013-.05c.01.001.018.003.023.006l.02.015-.02.035a.083.083 0 0 1 .013.008l.02-.001h.001l-.004-.032.035.028m-.271.03a.105.105 0 0 1 .01-.003l-.018-.054-.006.057h.014zm-.23.097l.014.002a.194.194 0 0 0 .004-.028V3.31a.15.15 0 0 1 .003-.015l-.012-.002V3.28l.034-.046-.035.046-.007.01-.036-.009.002.047-.028.025.016.055a.078.078 0 0 0 .046-.035.09.09 0 0 0-.006-.036h.005zm-.118.17v-.002.001z" fill="#000"/><path d="M.73 2.99c.005-.007.043.007.043.007l.07.044.141.091.05.073-.09-.03-.125-.107-.068-.044S.724 2.996.73 2.99zm.835.231c-.048-.012-.169.134-.169.134l.091.098s.003-.167.078-.232z" fill="#96877D"/><path fill-rule="evenodd" clip-rule="evenodd" d="M.793 2.944l.006.002.075.047.15.097.152.221-.26-.085-.131-.112-.07-.045-.004-.005H.71l-.001-.002-.004-.004a.247.247 0 0 1-.025-.035.074.074 0 0 1-.007-.021.061.061 0 0 1 .05-.07.08.08 0 0 1 .021-.001.147.147 0 0 1 .042.01l.005.002h.002zm-.01.029zm.742.196a.094.094 0 0 1 .054-.003l.108.027-.084.071c-.023.02-.04.06-.05.109a.523.523 0 0 0-.009.076v.005l-.002.143-.221-.24.031-.039.002-.002.004-.005a1.026 1.026 0 0 1 .065-.069.467.467 0 0 1 .064-.053.18.18 0 0 1 .038-.02z" fill="#000"/><path d="M.97 2.814c-.026.034-.028.103.006.13.004.042.04.126.067.134.03.009.152.037.2.03-.01.077.051.139.107.18 0 .006 0 .015.006.023.007.009.036.01.037.006.013.018.077.026.081.018.005-.008-.093-.076-.114-.097a.596.596 0 0 1-.062-.172c-.048-.057-.13-.056-.13-.056l.003-.112.004-.126-.044-.023s.009-.004.013-.009c.011.005.032-.017.034-.023.01.003.02.003.022-.002.001-.005.003-.026.007-.038.033-.03-.005-.092-.057-.093-.05-.001-.062.06-.06.065.004.02.003.03 0 .034a.136.136 0 0 1-.022.016s-.029-.014-.063 0c-.035.013-.074.031-.076.053-.016.003-.041.023-.046.04-.014-.002-.032.01-.061.057-.053.024-.057.137-.057.137s-.014.02-.015.032c0 .011.005.021.012.02.001.006.01.013.015.01.002.008.012.012.018.011.001.005.021.004.023 0 .002-.006-.002-.03 0-.033.003-.001.02.012.024.008.005-.003 0-.014-.003-.019-.002-.004-.017-.008-.02-.026-.004-.018.009-.043.009-.043s.057-.045.064-.084c.043.004.066-.034.079-.048z" fill="#96877D"/><path fill-rule="evenodd" clip-rule="evenodd" d="M1.152 2.527a.112.112 0 0 0-.101.06l.1-.06zm-.101.06a.153.153 0 0 0-.015.035l.015-.036zm-.015.035a.134.134 0 0 0-.003.013l.003-.013zm-.003.013a.144.144 0 0 0-.05.01.361.361 0 0 0-.059.029.138.138 0 0 0-.037.034.141.141 0 0 0-.04.034.106.106 0 0 0-.026.016.23.23 0 0 0-.04.049.134.134 0 0 0-.04.046.239.239 0 0 0-.023.06.385.385 0 0 0-.009.055v.002a.158.158 0 0 0-.009.017.083.083 0 0 0 .004.075c.004.005.01.013.019.02a.076.076 0 0 0 .022.017.076.076 0 0 0 .032.015.083.083 0 0 0 .054.001.06.06 0 0 0 .038-.03.06.06 0 0 0 .008-.005l-.004-.005a.064.064 0 0 0 .003-.016.107.107 0 0 0 0-.021l-.001-.005c0-.001 0 0 0 0v.003a.051.051 0 0 1-.012.026l-.012-.016-.006-.053-.02.004-.002-.009v-.004-.004a.053.053 0 0 1 .03 0l.01.01h.001l.003-.002a.333.333 0 0 0 .008-.007V2.98a.435.435 0 0 0 .005-.004.061.061 0 0 1 .008.01.106.106 0 0 1 .01.023.073.073 0 0 1 .003.025.061.061 0 0 1-.024.046l-.004-.005-.001.003-.018-.007A.056.056 0 0 1 .8 3.08H.8l-.004-.021-.012.001-.006-.011-.01.002-.003-.01a.05.05 0 0 1 .007-.016.088.088 0 0 0 .016.021l.001.001a.108.108 0 0 0 .014.011.049.049 0 0 1-.012-.013l.029-.018a.05.05 0 0 1 0 .004v-.004l.035.044m-.035-.044l.036.043a.057.057 0 0 0 .008-.008l-.012-.016.001.006-.001-.006a.055.055 0 0 0-.017-.028L.83 3.02l.004.016a.047.047 0 0 0-.006-.015l-.008.005zm.008-.005l-.008.005-.002-.015V3.01a.045.045 0 0 1 .01.011zm.002-.001l.005-.003a.052.052 0 0 0-.006-.005l.001.008zm-.068.016h.001l.002.004a.05.05 0 0 0-.002.01h.004l.003.011.014-.002.018.032.001.008a.062.062 0 0 1-.042.004.062.062 0 0 1-.01-.01.06.06 0 0 1-.015-.005.066.066 0 0 1-.014-.028l.04-.01v-.006-.008zm.041.063l.002-.001-.003-.007-.002-.013m-.03-.06a.086.086 0 0 0 .002.006.054.054 0 0 1 .005-.005h.012a.05.05 0 0 0 0 .015v.006l.001.002.001.002.029-.018m-.004-.012l-.002.003-.002.002a.116.116 0 0 0-.005.01l.001-.009H.788h.02a.03.03 0 0 0-.004-.016h.004a.042.042 0 0 1 .007.01zm-.012-.012v.002H.803a.04.04 0 0 0-.005.002H.796l.011.008-.011-.008m-.004.001a.053.053 0 0 0-.004.012H.776a.053.053 0 0 1 .016-.012zm0 0a.044.044 0 0 1 .004-.001l-.004.001zm.023.007a.047.047 0 0 1 .004.012m.09-.08a.31.31 0 0 1-.029.029l-.002-.003m.03-.026a.123.123 0 0 0 .015.024.355.355 0 0 0 .053.123.103.103 0 0 0 .051.04 1.185 1.185 0 0 0 .162.03c.007.03.02.057.036.08.02.03.047.054.072.074a.075.075 0 0 0 .05.052.114.114 0 0 0 .031.006.191.191 0 0 0 .105.017.06.06 0 0 0 .04-.03c.017-.028.004-.052.002-.056a.077.077 0 0 0-.01-.015.82.82 0 0 0-.053-.046l-.024-.018-.033-.026a.528.528 0 0 1-.05-.144l-.003-.016-.01-.013a.216.216 0 0 0-.116-.068l.002-.06.005-.138a.06.06 0 0 0 .02-.03L1.2 2.715l.054.018.002-.01.001-.005.002-.01v-.004c.028-.038.017-.086 0-.114a.131.131 0 0 0-.107-.063m-.035.28l-.004.09-.003.139a1.073 1.073 0 0 1-.043-.01.21.21 0 0 1-.034-.086l-.002-.025-.019-.015c0-.001-.004-.007-.004-.02 0-.014.004-.027.008-.031l-.054-.044.02-.003.003-.031a.22.22 0 0 1 .032-.016l.1.051zm.04-.158v-.004a.02.02 0 0 0-.002-.002.014.014 0 0 0-.004-.002.022.022 0 0 0-.003.005l.008.003z" fill="#000"/><path d="M.87 2.651c.014-.032.061-.03.061-.03s.017-.044.081-.017c.024-.019.088.008.088.008s.024-.032.055-.028c.058.007.067.06.064.069-.032.008-.087-.026-.128-.017-.025.014-.064.029-.079.048-.038.005-.08-.035-.142-.033zm.12.053c.015-.008.05-.024.074-.005a.403.403 0 0 0 .064.052l.044.019.02.012-.013.2c-.04-.04-.079-.048-.108-.097-.015-.02-.003-.071-.03-.104-.027-.034-.056-.056-.05-.077z" fill="#96877D"/><path fill-rule="evenodd" clip-rule="evenodd" d="M1.161 2.527a.11.11 0 0 0-.075.02l.075-.02zm-.075.02a.25.25 0 0 0-.05-.007c-.007 0-.016 0-.025.003a.115.115 0 0 0-.094.012.102.102 0 0 0-.016.012.105.105 0 0 0-.084.062l-.033.082.088-.003c.019 0 .035.005.057.014l.005.001a.089.089 0 0 0 .005.02.132.132 0 0 0 .02.03l.018.022h.001a.532.532 0 0 1 .018.022c.003.002.005.008.008.027a.757.757 0 0 1 .004.03c.001.01.005.027.015.042a.22.22 0 0 0 .077.076c.015.01.026.018.038.03l.09.092.023-.363-.053-.032-.034-.014a.275.275 0 0 0 .017.003.122.122 0 0 0 .052 0L1.26 2.7l.01-.028a.071.071 0 0 0 .005-.027c0-.006 0-.012-.002-.019a.127.127 0 0 0-.113-.1m-.054.257zm.006.023a.273.273 0 0 1 .004.024l.001.01.002.013v.002a.095.095 0 0 0 .01.012l.003-.053-.02-.008z" fill="#000"/><path d="M1.096 2.762s.023-.004.03.001c.007.003.015.006.017.012.009.003.015.007.015.014.008.002.011.017.011.017l-.007.011s-.009-.008-.01-.017c-.005-.002-.018-.005-.02-.013-.01-.001-.016-.006-.018-.014-.009.002-.018-.01-.018-.01z" fill="#96877D"/><path fill-rule="evenodd" clip-rule="evenodd" d="M1.141 2.708a.076.076 0 0 0-.016-.004.113.113 0 0 0-.033.001h-.005v.001h-.002l-.089.017.054.073.01-.007-.01.007v.001l.002.001.003.004a.096.096 0 0 0 .022.018.073.073 0 0 0 .022.017.081.081 0 0 0 .01.007.125.125 0 0 0 .01.01l.002.003.001.001.05.047.058-.088-.005-.024V2.79l-.002-.004a.099.099 0 0 0-.017-.032l-.001-.001a.07.07 0 0 0-.025-.025.076.076 0 0 0-.02-.013l-.002-.012-.017.004zm-.003.135z" fill="#000"/><path d="M1.29 2.632c-.013-.015-.036-.004-.036-.004l-.061.106-.027.022-.002.083.022.078-.008.06s.031-.03.035-.046c.003-.015-.012-.066-.012-.066s-.018-.031.004-.09c.022-.058.073-.106.085-.143z" fill="#96877D"/><path fill-rule="evenodd" clip-rule="evenodd" d="M1.26 2.568a.083.083 0 0 1 .073.026l.022.024-.01.032a.195.195 0 0 1-.022.042.82.82 0 0 1-.025.036.32.32 0 0 0-.04.068m.003-.228a.104.104 0 0 0-.02.004l.02-.004zm-.02.004a.097.097 0 0 0-.007.002l.006-.002zm-.007.002l-.002.001h.002zm-.002.001H1.23zm-.001 0v.001zm0 .001l.019.042-.02-.042zm-.082.12l.065-.112.016-.008.02.042m-.101.078l-.04.033-.003.117.022.075-.027.206.116-.109.002-.002.005-.004a.338.338 0 0 0 .029-.035.1.1 0 0 0 .015-.033m-.04-.087l.028-.008v.003l.003.006a.547.547 0 0 1 .01.049c.001.007.003.022 0 .037m-.04-.087l.027-.008-.002-.007-.002-.003v-.004a.085.085 0 0 1 .006-.04" fill="#000"/><path d="M1.442 2.726s-.096.137-.253.186c-.043.01-.028-.101-.028-.101l-.01.003s-.025.11.033.11c.158-.03.277-.197.277-.197h-.019zm.065.789s-.014.01-.033 0c-.01-.023-.037-.025-.037-.025s-.018-.05-.045-.035c-.004-.026-.034-.012-.034-.012s0-.038-.035-.033c.011-.042-.048-.04-.048-.04s-.002-.048-.089-.038c.188-.084.337.132.337.132m.073.07s.044.048.067.048c.022 0 .024-.047.024-.047s.007.02.019.015c-.002.015.013.018.013.018s-.039.092-.15.005m-.312-.021l-.016.063s-.02.017-.014.021.037-.006.037-.006.049-.006.063-.02c.01.023.032.025.032.025s.002-.01-.001-.016c.01.002.02-.001.02-.001s.006-.018-.008-.025c.002-.013.008-.024-.015-.023-.017.019-.06.04-.07.032-.012-.007.041-.03.027-.061" fill="#96877D"/></g><defs><clipPath id="clip0_169_42075"><path fill="#fff" transform="translate(-2)" d="M0 0h27v18H0z"/></clipPath></defs></svg>