<svg width="18" height="18" fill="none" xmlns="http://www.w3.org/2000/svg"><mask id="a" style="mask-type:alpha" maskUnits="userSpaceOnUse" x="0" y="0" width="18" height="18"><circle cx="9" cy="9" r="9" fill="#D9D9D9"/></mask><g mask="url(#a)"><path d="M-6 0h28.8v18H-6V0z" fill="#74ACDF"/><path d="M-6 6h28.8v6H-6V6z" fill="#fff"/><path d="M8.286 9.047l1.025 2.232s.017.043.046.031c.028-.012.01-.055.01-.055l-.853-2.302m-.025.868c-.012.34.196.527.17.83-.028.303.138.474.177.592.039.118-.042.188-.007.205.035.017.11-.076.086-.244-.025-.167-.152-.217-.122-.587s-.152-.457-.108-.794" fill="#F6B40E"/><path fill-rule="evenodd" clip-rule="evenodd" d="M9.386 11.248l-.854-2.302-.037.014.854 2.302v.002l.002.004a.06.06 0 0 1 .002.011c0 .01-.002.011-.004.012-.002 0-.005.002-.01-.006a.054.054 0 0 1-.01-.014l-.63-1.373c0-.023.003-.047.006-.073l-.04-.005v.004l-.36-.785-.037.016.39.851a.843.843 0 0 0 .057.307v.002c.036.109.072.22.058.4a.803.803 0 0 0 .074.451l.016.035a.4.4 0 0 1 .032.106c.012.08 0 .141-.019.18a.106.106 0 0 1-.028.037.033.033 0 0 1-.008.005l.005-.016.002-.007a.237.237 0 0 0 .008-.17.649.649 0 0 0-.05-.103l-.004-.008c-.02-.036-.04-.074-.06-.117a.688.688 0 0 1-.063-.356c.014-.156-.033-.283-.08-.41a1.034 1.034 0 0 1-.089-.42l-.04-.002c-.006.174.044.308.09.434l.001.002c.048.128.091.246.078.392a.728.728 0 0 0 .066.376c.02.045.042.085.062.12l.005.009c.02.037.037.069.046.096a.198.198 0 0 1-.002.128l-.005.015a1.193 1.193 0 0 0-.009.03.048.048 0 0 0 0 .023c.004.01.01.016.02.02.018.01.038.002.052-.009a.147.147 0 0 0 .04-.053.354.354 0 0 0 .021-.202.438.438 0 0 0-.035-.116l-.017-.038a.764.764 0 0 1-.07-.43.946.946 0 0 0-.059-.414V10.2a.997.997 0 0 1-.05-.198l.59 1.284v.002l.003.006.012.017c.01.01.03.027.056.016.027-.01.03-.037.029-.051a.097.097 0 0 0-.006-.027v-.002z" fill="#85340A"/><path d="M8.277 9l.092 2.454s0 .046.03.046c.032 0 .032-.046.032-.046L8.523 9m-.355.793c-.141.309-.02.561-.161.83-.141.27-.053.492-.062.616-.01.124-.111.158-.086.187.026.028.132-.028.173-.193.041-.164-.057-.259.112-.59.17-.33.035-.479.205-.774" fill="#F6B40E"/><path fill-rule="evenodd" clip-rule="evenodd" d="M8.45 11.454l.093-2.453-.04-.002-.092 2.454v.002a.072.072 0 0 1-.003.015c-.003.01-.006.01-.008.01s-.005 0-.008-.01a.058.058 0 0 1-.003-.016l-.057-1.51a.795.795 0 0 1 .034-.065l-.034-.02-.003.004-.032-.864-.04.002.035.935a.843.843 0 0 0-.066.305v.002c-.009.114-.017.23-.1.391A.803.803 0 0 0 8.02 11c0 .028 0 .055.002.08l.001.038c.001.037 0 .072-.01.11a.314.314 0 0 1-.086.159.109.109 0 0 1-.04.024.029.029 0 0 1-.01.002.135.135 0 0 1 .01-.014l.006-.005.011-.013a.237.237 0 0 0 .06-.14.647.647 0 0 0-.007-.125c-.004-.04-.01-.083-.01-.13a.688.688 0 0 1 .078-.353c.073-.14.077-.274.082-.409.005-.136.01-.273.08-.423l-.037-.017a1.068 1.068 0 0 0-.082.436v.002c-.006.136-.01.262-.079.392a.728.728 0 0 0-.083.372c.002.05.007.095.011.134l.002.01a.614.614 0 0 1 .006.107.197.197 0 0 1-.051.118 1.267 1.267 0 0 1-.011.012l-.005.006a.172.172 0 0 0-.014.018.048.048 0 0 0-.009.022c0 .01.003.019.01.026.013.015.035.016.052.011a.146.146 0 0 0 .056-.034.353.353 0 0 0 .099-.178.438.438 0 0 0 .011-.12l-.001-.042-.002-.075a.764.764 0 0 1 .102-.348.945.945 0 0 0 .104-.406v-.003a.999.999 0 0 1 .03-.201l.053 1.411v.003a.115.115 0 0 0 .005.026c.005.014.017.037.046.037.029 0 .041-.023.046-.037a.098.098 0 0 0 .005-.028z" fill="#85340A"/><path d="M8.286 8.953l-.854 2.302s-.017.043.011.055c.029.011.046-.031.046-.031l1.025-2.232m-.632.597c-.248.23-.233.51-.466.706-.234.195-.238.434-.294.544-.056.11-.162.104-.15.14.013.036.132.024.233-.112s.047-.26.33-.501c.282-.241.215-.43.485-.638" fill="#F6B40E"/><path fill-rule="evenodd" clip-rule="evenodd" d="M7.508 11.287l1.024-2.231-.037-.017-1.024 2.232v.001a.086.086 0 0 1-.01.014c-.005.007-.008.006-.01.005-.002 0-.005-.002-.004-.011a.058.058 0 0 1 .004-.017l.525-1.416a.795.795 0 0 1 .056-.048l-.024-.031a.555.555 0 0 0-.003.002l.3-.81-.038-.014-.325.878a.843.843 0 0 0-.178.257v.001c-.052.103-.105.207-.242.324a.803.803 0 0 0-.28.407.399.399 0 0 1-.053.098c-.048.065-.1.1-.14.113a.107.107 0 0 1-.047.008.028.028 0 0 1-.008-.003.13.13 0 0 1 .021-.011l.016-.008a.238.238 0 0 0 .11-.107.648.648 0 0 0 .037-.107l.003-.01c.011-.039.023-.08.04-.125a.688.688 0 0 1 .207-.296c.12-.1.177-.223.233-.346.057-.124.114-.248.235-.36l-.027-.03c-.127.118-.187.249-.243.371l-.001.002c-.057.124-.11.238-.222.332a.728.728 0 0 0-.22.313c-.017.046-.03.09-.04.128l-.003.01a.614.614 0 0 1-.035.1.197.197 0 0 1-.093.09l-.014.007a.242.242 0 0 0-.027.014.049.049 0 0 0-.016.017.034.034 0 0 0-.002.028c.007.02.027.028.044.03.019.003.041 0 .065-.009a.354.354 0 0 0 .16-.127.437.437 0 0 0 .07-.146l.028-.07a.764.764 0 0 1 .228-.283.946.946 0 0 0 .251-.335l.001-.002c.03-.06.06-.118.105-.175l-.491 1.324v.001l-.001.002a.094.094 0 0 0-.006.026c0 .015.002.04.029.051.026.011.046-.005.056-.016a.097.097 0 0 0 .015-.024z" fill="#85340A"/><path d="M8.313 8.913l-1.67 1.8s-.033.033-.01.055c.02.022.054-.011.054-.011l1.8-1.67m-.812.31c-.318.118-.41.382-.701.473-.29.091-.385.31-.48.391-.093.081-.19.034-.191.072-.003.038.112.073.258-.014.145-.087.142-.224.496-.338.353-.114.364-.314.692-.403" fill="#F6B40E"/><path fill-rule="evenodd" clip-rule="evenodd" d="M6.7 10.771l1.8-1.67-.027-.029-1.8 1.67-.001.001-.003.003a.06.06 0 0 1-.01.007c-.009.004-.011.002-.013 0-.001 0-.003-.003.001-.012a.057.057 0 0 1 .01-.013L7.684 9.62a.797.797 0 0 1 .07-.022l-.01-.039-.004.001.588-.633-.03-.028-.636.687a.843.843 0 0 0-.263.17h-.001a.907.907 0 0 1-.347.206.803.803 0 0 0-.39.241l-.026.029a.4.4 0 0 1-.085.07.315.315 0 0 1-.173.051.106.106 0 0 1-.046-.011.031.031 0 0 1-.007-.005.137.137 0 0 1 .024-.003l.018-.001a.237.237 0 0 0 .142-.057.652.652 0 0 0 .082-.093c.026-.031.053-.065.085-.1a.688.688 0 0 1 .305-.194c.15-.047.249-.138.347-.23.1-.093.2-.186.355-.244l-.014-.037c-.162.06-.267.158-.366.25l-.001.001c-.1.093-.193.178-.333.222a.728.728 0 0 0-.322.205 1.622 1.622 0 0 0-.087.102l-.006.008a.607.607 0 0 1-.071.08.197.197 0 0 1-.12.047l-.016.001h-.008a.168.168 0 0 0-.022.003.049.049 0 0 0-.021.01.035.035 0 0 0-.012.025c-.002.02.013.036.029.045.016.009.038.015.063.016a.354.354 0 0 0 .196-.057.436.436 0 0 0 .093-.077l.029-.03a.765.765 0 0 1 .37-.228.946.946 0 0 0 .36-.214l.002-.002c.051-.043.1-.085.164-.121l-.96 1.035-.001.001-.001.001a.097.097 0 0 0-.015.022c-.007.014-.014.039.006.059.02.02.045.013.058.006a.105.105 0 0 0 .023-.015l.001-.001z" fill="#85340A"/><path d="M8.555 9.879c.016.325.201.47.165.767.08-.235-.112-.417-.102-.764m-.275-.855l.702 1.532-.588-1.58" fill="#85340A"/><path d="M8.207 9.871c-.11.308.006.512-.141.772.163-.186.055-.428.198-.744m.073-.896l.062 1.685.061-1.685" fill="#85340A"/><path d="M7.888 9.731c-.219.242-.19.475-.426.66.223-.11.216-.375.469-.613m.41-.8l-.588 1.58.701-1.532" fill="#85340A"/><path d="M7.648 9.48c-.295.14-.358.365-.646.445.247-.016.342-.263.667-.386m.684-.582l-1.147 1.235L8.44 9.044" fill="#85340A"/><path d="M8.353 8.886L6.12 9.911s-.043.017-.03.046c.01.028.054.01.054.01l2.302-.853m-.868-.025c-.34-.012-.526.196-.83.17-.303-.028-.474.138-.592.177-.118.039-.188-.042-.205-.007-.017.035.076.11.244.086.168-.025.217-.152.588-.122.37.03.456-.152.794-.108" fill="#F6B40E"/><path fill-rule="evenodd" clip-rule="evenodd" d="M6.152 9.986l2.302-.853-.014-.038-2.303.854h-.001a.065.065 0 0 1-.016.004c-.009 0-.01-.002-.011-.004-.001-.002-.002-.005.005-.01a.058.058 0 0 1 .015-.01l1.373-.63c.023 0 .047.003.073.006l.005-.04h-.004l.785-.36-.017-.037-.85.39a.843.843 0 0 0-.308.057h-.001a.907.907 0 0 1-.4.058.803.803 0 0 0-.379.042c-.026.01-.05.021-.072.032a1.738 1.738 0 0 1-.036.016.398.398 0 0 1-.105.032.314.314 0 0 1-.18-.019.107.107 0 0 1-.038-.028.03.03 0 0 1-.004-.007.133.133 0 0 1 .023.007l.017.005a.237.237 0 0 0 .152.002.647.647 0 0 0 .104-.05l.008-.004c.035-.02.074-.04.117-.06a.688.688 0 0 1 .356-.063c.156.014.282-.033.409-.08.128-.047.256-.095.421-.089l.001-.04a1.068 1.068 0 0 0-.434.09l-.001.002c-.128.047-.246.09-.393.077a.728.728 0 0 0-.375.066c-.045.02-.085.042-.12.062l-.009.005a.613.613 0 0 1-.096.046.197.197 0 0 1-.128-.002l-.016-.005L6 9.407a.172.172 0 0 0-.022-.006.048.048 0 0 0-.023 0 .034.034 0 0 0-.02.02c-.01.018-.002.038.009.052.011.015.03.028.052.04a.354.354 0 0 0 .203.022.438.438 0 0 0 .115-.036.764.764 0 0 1 .467-.087c.189.016.306-.022.416-.059h.002a.997.997 0 0 1 .198-.05l-1.284.59h-.001-.001a.104.104 0 0 0-.023.015c-.011.01-.027.03-.016.056.01.027.036.03.051.029a.098.098 0 0 0 .028-.007z" fill="#85340A"/><path d="M8.4 8.877l-2.454.092S5.9 8.97 5.9 9c0 .03.046.03.046.03l2.454.093m-.793-.355c-.309-.141-.561-.02-.83-.16-.27-.142-.492-.054-.616-.063-.124-.01-.158-.11-.187-.085-.028.025.028.131.193.172.164.042.259-.057.59.112.33.17.479.035.774.205" fill="#F6B40E"/><path fill-rule="evenodd" clip-rule="evenodd" d="M5.946 9.05l2.453.093.002-.04-2.455-.092h-.001a.078.078 0 0 1-.016-.003c-.009-.003-.01-.006-.01-.008s.001-.005.01-.008a.058.058 0 0 1 .017-.003l1.51-.056c.02.01.042.02.065.033l.02-.034-.004-.002.864-.033-.002-.04-.935.035a.843.843 0 0 0-.306-.066h-.001a.907.907 0 0 1-.392-.1.804.804 0 0 0-.365-.106c-.028 0-.055 0-.08.002l-.039.001c-.036.001-.07 0-.11-.01a.314.314 0 0 1-.158-.086.107.107 0 0 1-.025-.04.03.03 0 0 1 0-.01.134.134 0 0 1 .012.011l.006.005a.237.237 0 0 0 .154.072.645.645 0 0 0 .124-.008c.04-.004.083-.009.13-.01a.688.688 0 0 1 .353.078c.14.073.274.078.409.083.136.005.272.01.423.078l.016-.036a1.068 1.068 0 0 0-.435-.082h-.002c-.136-.005-.262-.01-.392-.079a.728.728 0 0 0-.373-.082c-.049.001-.094.006-.134.01l-.01.002a.613.613 0 0 1-.106.006.197.197 0 0 1-.118-.051.667.667 0 0 1-.012-.01l-.006-.006a.172.172 0 0 0-.018-.014.048.048 0 0 0-.022-.008.034.034 0 0 0-.026.009c-.016.014-.016.035-.011.052a.146.146 0 0 0 .033.056.354.354 0 0 0 .179.099c.043.01.082.012.12.011l.042-.001.075-.002a.764.764 0 0 1 .348.102c.168.086.29.095.406.104h.002c.067.005.132.01.202.03l-1.411.053h-.002a.109.109 0 0 0-.027.005c-.014.005-.037.017-.037.046 0 .029.022.041.037.046a.098.098 0 0 0 .028.005z" fill="#85340A"/><path d="M8.447 8.886l-2.302-.854s-.043-.017-.055.011c-.012.028.031.046.031.046l2.232 1.024m-.597-.63c-.231-.25-.51-.234-.706-.468-.195-.233-.434-.237-.544-.293-.11-.056-.104-.162-.14-.15-.037.013-.024.132.112.233s.26.047.501.33c.24.282.43.215.638.485" fill="#F6B40E"/><path fill-rule="evenodd" clip-rule="evenodd" d="M6.113 8.108l2.231 1.024.017-.037L6.13 8.071h-.001a.067.067 0 0 1-.014-.01c-.007-.005-.006-.008-.005-.01 0-.002.002-.005.011-.004a.059.059 0 0 1 .016.004h.001l1.416.525a.798.798 0 0 1 .048.056l.032-.024a.854.854 0 0 0-.003-.004l.81.3.014-.037-.878-.325a.843.843 0 0 0-.257-.178h-.001c-.102-.052-.206-.105-.323-.242a.804.804 0 0 0-.298-.239c-.025-.01-.05-.02-.074-.028a1.742 1.742 0 0 1-.036-.014.398.398 0 0 1-.098-.052.314.314 0 0 1-.113-.14.107.107 0 0 1-.007-.047.03.03 0 0 1 .002-.008.135.135 0 0 1 .011.021l.008.016a.237.237 0 0 0 .107.11c.03.014.067.025.108.037l.01.003c.038.011.08.023.124.04.096.036.201.094.296.207.1.12.223.177.346.233.124.057.248.114.36.235l.03-.027a1.068 1.068 0 0 0-.371-.243l-.002-.001c-.123-.057-.238-.11-.332-.222a.728.728 0 0 0-.312-.22c-.046-.017-.09-.03-.129-.04l-.01-.003a.613.613 0 0 1-.1-.035.197.197 0 0 1-.09-.093l-.007-.014a1.007 1.007 0 0 0-.014-.027.048.048 0 0 0-.017-.016.034.034 0 0 0-.028-.002c-.02.007-.028.027-.03.044a.146.146 0 0 0 .01.065.354.354 0 0 0 .127.16.438.438 0 0 0 .106.056l.04.015.07.027a.764.764 0 0 1 .282.228c.122.143.232.199.335.251l.002.001c.06.03.118.06.175.105l-1.324-.491H6.15a.077.077 0 0 0-.008-.003.098.098 0 0 0-.02-.004c-.015 0-.04.002-.051.028-.011.027.005.047.016.057a.099.099 0 0 0 .025.015z" fill="#85340A"/><path d="M8.487 8.913l-1.8-1.67s-.033-.033-.055-.01c-.022.021.011.054.011.054l1.67 1.8m-.31-.812c-.118-.318-.382-.41-.473-.7-.091-.291-.31-.386-.391-.48-.08-.094-.034-.19-.072-.192-.039-.003-.073.112.014.258.087.145.224.142.338.496.114.353.314.364.403.692" fill="#F6B40E"/><path fill-rule="evenodd" clip-rule="evenodd" d="M6.629 7.3l1.67 1.8.029-.027-1.67-1.8-.001-.001a.06.06 0 0 1-.01-.013c-.004-.009-.002-.011 0-.013 0-.001.003-.003.012.001a.059.059 0 0 1 .013.01L7.78 8.286a.798.798 0 0 1 .022.07l.039-.01-.001-.005.633.588.028-.03-.687-.636a.843.843 0 0 0-.17-.263v-.001c-.075-.087-.15-.175-.206-.347a.803.803 0 0 0-.27-.415.398.398 0 0 1-.07-.085.314.314 0 0 1-.051-.173.107.107 0 0 1 .011-.046.03.03 0 0 1 .005-.008.134.134 0 0 1 .003.024l.001.018c.003.038.012.09.057.142.021.025.052.05.085.076l.008.007c.031.025.065.052.1.084.074.07.15.164.194.305.047.15.138.249.23.348.093.1.186.2.244.354l.037-.013a1.068 1.068 0 0 0-.25-.367l-.001-.001c-.093-.1-.178-.192-.222-.333a.728.728 0 0 0-.205-.322 1.622 1.622 0 0 0-.102-.087l-.008-.006a.613.613 0 0 1-.08-.071.197.197 0 0 1-.047-.12l-.001-.016v-.008a.17.17 0 0 0-.003-.022.048.048 0 0 0-.01-.021.034.034 0 0 0-.025-.012c-.02-.002-.036.013-.045.029a.146.146 0 0 0-.016.063.354.354 0 0 0 .057.196c.023.039.05.067.077.093l.03.029a.764.764 0 0 1 .228.37c.058.18.139.273.214.36l.002.002c.043.051.085.1.121.164l-1.035-.96-.001-.001-.001-.001a.108.108 0 0 0-.022-.015c-.014-.007-.039-.014-.059.006-.02.02-.013.045-.006.059a.1.1 0 0 0 .016.023z" fill="#85340A"/><path d="M7.521 9.155c-.326.017-.47.202-.767.165.235.08.417-.112.764-.101m.855-.276l-1.533.702 1.58-.588" fill="#85340A"/><path d="M7.529 8.807c-.308-.11-.512.006-.772-.141.186.163.428.055.744.198m.896.073l-1.685.062 1.685.061" fill="#85340A"/><path d="M7.669 8.488c-.242-.219-.475-.19-.66-.426.11.223.375.216.613.469m.8.41l-1.58-.588 1.532.702" fill="#85340A"/><path d="M7.92 8.248c-.14-.295-.365-.358-.446-.646.017.247.264.342.387.667m.581.684L7.208 7.806 8.355 9.04" fill="#85340A"/><path d="M8.514 8.953L7.489 6.72s-.017-.043-.046-.031c-.028.012-.01.054-.01.054l.853 2.303m.025-.868c.012-.34-.197-.527-.17-.83.028-.303-.138-.474-.177-.592-.039-.118.042-.188.007-.205-.035-.017-.11.076-.086.244.025.167.152.217.122.587s.152.457.108.794" fill="#F6B40E"/><path fill-rule="evenodd" clip-rule="evenodd" d="M7.414 6.752l.853 2.302.038-.014-.854-2.302v-.002a.067.067 0 0 1-.004-.015c0-.01.002-.011.004-.012.002 0 .005-.002.01.006a.058.058 0 0 1 .01.013v.001l.63 1.373a.802.802 0 0 1-.006.073l.04.005v-.004l.36.785.037-.016-.39-.851a.843.843 0 0 0-.057-.307v-.002a.907.907 0 0 1-.058-.4.803.803 0 0 0-.042-.378c-.01-.026-.021-.05-.032-.073a1.738 1.738 0 0 1-.016-.035.398.398 0 0 1-.032-.106.314.314 0 0 1 .019-.18c.01-.018.02-.03.028-.037a.03.03 0 0 1 .007-.005l-.004.016-.003.007a.237.237 0 0 0-.008.17c.011.031.03.066.05.103L8 6.875c.02.036.04.074.06.117a.688.688 0 0 1 .063.356c-.014.156.033.283.08.41s.095.255.089.42l.04.002a1.068 1.068 0 0 0-.09-.434l-.002-.002c-.047-.128-.09-.246-.077-.392a.728.728 0 0 0-.066-.376 1.62 1.62 0 0 0-.062-.12l-.005-.009a.613.613 0 0 1-.046-.096.197.197 0 0 1 .002-.128A.733.733 0 0 1 8 6.579a.048.048 0 0 0 0-.024.034.034 0 0 0-.02-.02c-.018-.01-.038-.002-.052.009a.146.146 0 0 0-.04.052.354.354 0 0 0-.022.203c.007.044.02.08.036.116l.017.038.03.068c.03.077.054.179.04.361a.945.945 0 0 0 .059.415V7.8c.021.064.041.125.05.198l-.59-1.284a.024.024 0 0 0 0-.002.097.097 0 0 0-.015-.023c-.01-.01-.03-.027-.056-.016-.027.01-.03.037-.029.051a.1.1 0 0 0 .007.029z" fill="#85340A"/><path d="M8.523 9l-.092-2.454s0-.046-.031-.046c-.03 0-.03.046-.03.046L8.276 9m.355-.793c.141-.309.02-.561.161-.83.141-.27.053-.492.062-.616.01-.124.111-.158.085-.187-.025-.029-.13.028-.172.193-.041.164.057.259-.112.59-.17.33-.035.479-.205.774" fill="#F6B40E"/><path fill-rule="evenodd" clip-rule="evenodd" d="M8.35 6.546l-.093 2.453.04.002.092-2.454v-.002a.06.06 0 0 1 .003-.015c.003-.01.006-.01.008-.01s.005 0 .008.01a.06.06 0 0 1 .003.016l.057 1.51a.799.799 0 0 1-.034.065l.034.02.003-.004.032.864.04-.002-.035-.935a.843.843 0 0 0 .066-.305v-.002a.907.907 0 0 1 .1-.391.803.803 0 0 0 .104-.446l-.001-.038c-.001-.037 0-.071.01-.11a.315.315 0 0 1 .086-.159.107.107 0 0 1 .04-.024.03.03 0 0 1 .01-.002.135.135 0 0 1-.016.019l-.011.013a.237.237 0 0 0-.06.14.647.647 0 0 0 .007.125c.004.04.01.083.01.13a.688.688 0 0 1-.078.353c-.073.14-.078.274-.082.409-.005.136-.01.273-.08.423l.037.017c.072-.158.077-.301.082-.436v-.002c.005-.136.01-.262.079-.392a.728.728 0 0 0 .083-.372 1.62 1.62 0 0 0-.011-.134l-.002-.01a.612.612 0 0 1-.006-.107.197.197 0 0 1 .051-.118l.011-.012a1.599 1.599 0 0 0 .019-.024.048.048 0 0 0 .008-.022.034.034 0 0 0-.009-.026c-.013-.015-.035-.016-.052-.011a.146.146 0 0 0-.056.033.354.354 0 0 0-.099.18.438.438 0 0 0-.01.161l.002.075a.764.764 0 0 1-.102.348c-.086.168-.095.291-.104.406v.003a.997.997 0 0 1-.03.201L8.45 6.546v-.001-.002a.1.1 0 0 0-.005-.026c-.005-.014-.017-.037-.046-.037-.029 0-.041.023-.046.037a.1.1 0 0 0-.005.028z" fill="#85340A"/><path d="M8.514 9.047l.853-2.302s.018-.043-.01-.055c-.029-.011-.046.031-.046.031L8.286 8.953m.632-.597c.248-.23.233-.51.466-.706.234-.195.237-.433.293-.544.057-.11.163-.104.15-.14-.012-.037-.132-.024-.233.112-.1.136-.046.26-.329.501-.283.241-.215.43-.485.638" fill="#F6B40E"/><path fill-rule="evenodd" clip-rule="evenodd" d="M9.292 6.713L8.268 8.944l.036.017L9.33 6.73v-.001a.056.056 0 0 1 .01-.014c.005-.007.008-.006.01-.005.002 0 .004.002.004.011a.06.06 0 0 1-.004.016v.001l-.525 1.416a.795.795 0 0 1-.057.048l.025.031a.555.555 0 0 0 .003-.002l-.3.81.037.014.326-.878a.843.843 0 0 0 .178-.257v-.001c.052-.103.105-.207.242-.324a.804.804 0 0 0 .267-.371l.014-.036a.398.398 0 0 1 .052-.098c.048-.065.1-.1.14-.113a.107.107 0 0 1 .046-.007.03.03 0 0 1 .01.002.134.134 0 0 1-.022.011l-.016.008a.237.237 0 0 0-.11.107.647.647 0 0 0-.037.107l-.003.01c-.011.039-.023.08-.04.125a.688.688 0 0 1-.207.296c-.121.1-.177.223-.233.346a1.034 1.034 0 0 1-.235.36l.027.03c.127-.118.187-.249.243-.371v-.002c.057-.124.11-.238.223-.332.12-.1.181-.212.22-.313.017-.046.03-.09.04-.128l.003-.01a.612.612 0 0 1 .035-.1.197.197 0 0 1 .092-.09l.015-.007a1.007 1.007 0 0 0 .027-.014.048.048 0 0 0 .016-.017.034.034 0 0 0 .001-.028c-.006-.02-.026-.028-.043-.03a.146.146 0 0 0-.065.009.354.354 0 0 0-.16.128.438.438 0 0 0-.056.106c-.006.013-.01.026-.015.04a.764.764 0 0 1-.255.353c-.143.121-.199.231-.251.334L9 7.901a.998.998 0 0 1-.105.175l.491-1.324V6.75l.001-.002a.1.1 0 0 0 .006-.026c0-.015-.002-.04-.029-.051-.026-.011-.046.005-.056.016a.099.099 0 0 0-.015.023v.001z" fill="#85340A"/><path d="M8.487 9.087l1.67-1.8s.033-.033.01-.055c-.021-.022-.054.011-.054.011l-1.8 1.67m.812-.31c.318-.118.41-.382.7-.473.291-.091.386-.31.48-.391.094-.081.19-.034.192-.072.003-.039-.113-.073-.258.014-.145.087-.143.224-.496.338-.353.114-.364.314-.692.403" fill="#F6B40E"/><path fill-rule="evenodd" clip-rule="evenodd" d="M10.1 7.229l-1.8 1.67.027.029 1.8-1.67.001-.001.003-.003a.056.056 0 0 1 .01-.007c.009-.004.011-.002.013 0 .001 0 .003.003-.001.012a.059.059 0 0 1-.01.013L9.114 8.38a.797.797 0 0 1-.07.022l.01.039.005-.001-.588.633.03.028.636-.687a.843.843 0 0 0 .263-.17h.001a.907.907 0 0 1 .347-.206.804.804 0 0 0 .334-.184l.055-.057a1.7 1.7 0 0 1 .027-.029.4.4 0 0 1 .085-.07.314.314 0 0 1 .172-.051.107.107 0 0 1 .046.011.028.028 0 0 1 .008.005.138.138 0 0 1-.017.002h-.007a.237.237 0 0 0-.16.058.642.642 0 0 0-.082.094 1.55 1.55 0 0 1-.085.1.688.688 0 0 1-.305.194c-.15.047-.249.138-.347.23-.1.093-.2.186-.355.244l.014.037c.162-.06.267-.158.366-.25l.001-.001c.1-.093.193-.178.333-.222a.728.728 0 0 0 .322-.205c.033-.035.062-.071.087-.102a.608.608 0 0 1 .077-.088.197.197 0 0 1 .12-.047.696.696 0 0 1 .046-.004.048.048 0 0 0 .021-.01.034.034 0 0 0 .012-.025c.002-.02-.013-.036-.029-.045a.146.146 0 0 0-.063-.016.354.354 0 0 0-.196.057.44.44 0 0 0-.122.107.764.764 0 0 1-.37.228.946.946 0 0 0-.36.214l-.002.002a.998.998 0 0 1-.164.121l.96-1.035.001-.001.001-.001a.108.108 0 0 0 .015-.022c.007-.014.014-.039-.006-.059-.02-.02-.045-.013-.059-.006a.1.1 0 0 0-.022.015l-.001.001z" fill="#85340A"/><path d="M8.245 8.121c-.017-.325-.201-.47-.165-.767-.08.235.112.417.101.764m.276.855l-.702-1.532.588 1.58" fill="#85340A"/><path d="M8.593 8.129c.11-.308-.006-.512.141-.772-.163.186-.055.428-.198.744m-.073.896L8.4 7.312 8.34 8.997" fill="#85340A"/><path d="M8.912 8.269c.219-.242.19-.475.426-.66-.223.11-.216.375-.469.613m-.41.8l.588-1.58-.702 1.532" fill="#85340A"/><path d="M9.152 8.52c.295-.14.358-.365.646-.445-.247.016-.342.263-.667.386m-.684.582l1.147-1.235L8.36 8.956" fill="#85340A"/><path d="M8.447 9.114l2.232-1.025s.043-.017.03-.046c-.011-.028-.054-.01-.054-.01l-2.302.853m.868.025c.34.012.526-.196.83-.17.303.028.474-.138.592-.177.118-.039.188.042.205.007.017-.035-.077-.11-.244-.086-.168.025-.217.152-.588.122-.37-.03-.456.152-.794.108" fill="#F6B40E"/><path fill-rule="evenodd" clip-rule="evenodd" d="M10.648 8.014l-2.302.853.014.038 2.303-.854h.001a.054.054 0 0 1 .016-.004c.009 0 .01.002.011.004.001.002.002.005-.005.01a.062.062 0 0 1-.01.008l-.004.001h-.001l-1.373.631a.797.797 0 0 1-.073-.006l-.005.04h.004l-.785.36.016.037.851-.39a.843.843 0 0 0 .307-.057h.002a.907.907 0 0 1 .4-.058.804.804 0 0 0 .378-.042c.026-.01.05-.021.073-.032l.036-.016a.397.397 0 0 1 .105-.032c.08-.012.141 0 .18.019.019.01.031.02.038.028a.028.028 0 0 1 .004.007.137.137 0 0 1-.016-.004l-.007-.003a.237.237 0 0 0-.17-.008.646.646 0 0 0-.111.055c-.036.02-.074.04-.117.06a.688.688 0 0 1-.356.063c-.156-.014-.283.033-.409.08a1.034 1.034 0 0 1-.421.089l-.002.04c.174.006.308-.044.435-.09l.001-.002c.128-.047.246-.09.393-.077a.727.727 0 0 0 .375-.066c.045-.02.085-.042.12-.062l.009-.005a.613.613 0 0 1 .096-.046.197.197 0 0 1 .128.002.526.526 0 0 1 .045.014.048.048 0 0 0 .023 0 .035.035 0 0 0 .02-.02c.01-.018.002-.038-.009-.052a.146.146 0 0 0-.052-.04.354.354 0 0 0-.203-.022.437.437 0 0 0-.116.036 1.656 1.656 0 0 0-.037.017.764.764 0 0 1-.43.07c-.188-.016-.305.022-.415.059h-.002a.997.997 0 0 1-.198.05l1.284-.59h.002a.101.101 0 0 0 .023-.015c.011-.01.027-.03.016-.056-.01-.027-.036-.03-.051-.029a.098.098 0 0 0-.028.007z" fill="#85340A"/><path d="M8.4 9.123l2.454-.092s.046 0 .046-.031c0-.03-.046-.03-.046-.03L8.4 8.876m.793.355c.309.141.561.02.83.16.27.142.492.054.616.063.123.01.158.11.187.085.028-.025-.029-.131-.193-.172-.164-.042-.259.057-.59-.112-.33-.17-.479-.035-.774-.205" fill="#F6B40E"/><path fill-rule="evenodd" clip-rule="evenodd" d="M10.854 8.95l-2.453-.093-.002.04 2.455.092a.08.08 0 0 1 .017.003c.009.003.009.006.009.008s0 .005-.01.008a.059.059 0 0 1-.016.003l-1.51.056a.798.798 0 0 1-.065-.033l-.02.034.004.002-.864.033.002.04.935-.035c.115.05.21.058.306.066h.001c.115.008.23.017.392.1a.803.803 0 0 0 .365.106c.028 0 .055 0 .08-.002l.039-.001c.036-.001.07 0 .11.01.078.02.13.055.158.086.014.016.022.03.024.04a.027.027 0 0 1 .002.01.137.137 0 0 1-.013-.011l-.006-.005a.237.237 0 0 0-.154-.072.645.645 0 0 0-.124.008c-.04.004-.083.009-.13.01a.688.688 0 0 1-.353-.078c-.14-.073-.274-.078-.409-.083a1.034 1.034 0 0 1-.423-.078l-.016.036c.157.072.3.077.435.082h.002c.136.005.262.01.392.079a.728.728 0 0 0 .373.082c.049-.001.094-.006.134-.01l.01-.002a.613.613 0 0 1 .106-.006.197.197 0 0 1 .118.051l.012.01.006.006.018.014a.048.048 0 0 0 .022.008c.01.001.019-.002.026-.009.015-.014.016-.035.011-.052a.146.146 0 0 0-.033-.056.353.353 0 0 0-.179-.099.438.438 0 0 0-.12-.011l-.042.001a.764.764 0 0 1-.423-.1c-.168-.086-.29-.095-.406-.104h-.002a.997.997 0 0 1-.202-.03l1.411-.053h.002a.115.115 0 0 0 .027-.005c.014-.005.037-.017.037-.046 0-.029-.022-.041-.037-.046a.097.097 0 0 0-.028-.005z" fill="#85340A"/><path d="M8.353 9.114l2.302.854s.043.017.055-.011c.011-.028-.031-.046-.031-.046L8.447 8.887m.597.63c.23.25.51.234.706.468.195.233.434.237.544.293.11.056.104.162.14.15.037-.013.024-.132-.112-.233s-.26-.046-.501-.33c-.241-.282-.43-.215-.638-.485" fill="#F6B40E"/><path fill-rule="evenodd" clip-rule="evenodd" d="M10.687 9.892L8.455 8.868l-.016.037 2.232 1.024h.001l.004.003a.059.059 0 0 1 .01.006c.007.006.006.01.005.011 0 .002-.002.005-.011.004a.058.058 0 0 1-.016-.004h-.001l-1.416-.525a.795.795 0 0 1-.048-.056l-.032.024.003.004-.81-.3-.014.037.878.325a.843.843 0 0 0 .256.178h.002c.102.052.206.105.323.242a.803.803 0 0 0 .298.239c.025.01.05.02.074.028l.036.014a.399.399 0 0 1 .097.052c.066.048.1.1.114.14.007.02.009.036.007.047a.028.028 0 0 1-.002.008.125.125 0 0 1-.011-.021l-.008-.016a.237.237 0 0 0-.107-.11.637.637 0 0 0-.108-.037l-.01-.003a1.56 1.56 0 0 1-.124-.04.687.687 0 0 1-.296-.207c-.1-.12-.223-.177-.346-.233a1.034 1.034 0 0 1-.36-.235l-.03.027c.118.127.249.187.371.243l.002.001c.123.057.238.11.332.222.1.12.212.181.312.22a1.624 1.624 0 0 0 .138.043.605.605 0 0 1 .101.036c.05.025.073.061.09.092l.007.014a.255.255 0 0 0 .014.027c.004.005.01.012.017.016a.034.034 0 0 0 .028.002c.02-.007.028-.027.03-.044a.146.146 0 0 0-.01-.065.354.354 0 0 0-.127-.16.438.438 0 0 0-.106-.056 1.457 1.457 0 0 0-.04-.015c-.022-.008-.045-.016-.07-.027a.764.764 0 0 1-.282-.228c-.122-.143-.232-.199-.335-.251L9.499 9.6a.997.997 0 0 1-.175-.105l1.324.491h.001l.001.001a.12.12 0 0 0 .027.006c.014 0 .04-.002.051-.028.011-.027-.005-.047-.016-.057a.101.101 0 0 0-.025-.015z" fill="#85340A"/><path d="M8.313 9.087l1.8 1.67s.033.033.055.01c.022-.02-.011-.054-.011-.054l-1.67-1.8m.31.812c.118.318.382.41.473.7.09.291.31.386.391.48.08.094.034.19.072.192.038.003.073-.112-.014-.258-.087-.145-.224-.143-.338-.496-.114-.353-.314-.364-.403-.692" fill="#F6B40E"/><path fill-rule="evenodd" clip-rule="evenodd" d="M10.171 10.7l-1.67-1.8-.029.027 1.67 1.8.001.001.003.003a.052.052 0 0 1 .006.01c.005.009.003.011.002.013-.002.001-.004.003-.013-.002a.05.05 0 0 1-.01-.006l-.003-.003L9.02 9.714a.801.801 0 0 1-.022-.07l-.039.01.001.005-.633-.588-.028.03.687.636c.045.118.107.19.169.263l.001.001c.075.087.15.175.206.347.058.18.122.27.184.334l.057.055.029.027c.026.024.05.05.07.084.041.07.053.131.051.174a.107.107 0 0 1-.011.045.03.03 0 0 1-.005.008.136.136 0 0 1-.002-.017v-.007l-.002-.018a.237.237 0 0 0-.057-.142.65.65 0 0 0-.085-.076l-.008-.007a1.586 1.586 0 0 1-.1-.084.687.687 0 0 1-.194-.305c-.047-.15-.138-.249-.23-.348-.093-.1-.186-.2-.244-.354l-.037.013c.06.163.158.268.25.367l.001.001c.093.1.178.192.222.333.047.15.127.248.205.322.035.033.07.062.102.087a.782.782 0 0 1 .088.077.197.197 0 0 1 .047.12l.001.015v.009a.17.17 0 0 0 .003.022.049.049 0 0 0 .01.021.035.035 0 0 0 .025.012c.02.001.036-.013.045-.029a.146.146 0 0 0 .016-.063.354.354 0 0 0-.057-.196.436.436 0 0 0-.077-.093l-.03-.029a.765.765 0 0 1-.228-.37.946.946 0 0 0-.214-.36l-.002-.002a.997.997 0 0 1-.121-.164l1.035.96.001.001.001.001a.097.097 0 0 0 .022.015c.014.007.039.014.059-.006.02-.02.013-.045.006-.059a.094.094 0 0 0-.015-.022l-.001-.001z" fill="#85340A"/><path d="M9.279 8.845c.326-.017.47-.202.767-.165-.235-.08-.417.112-.764.101m-.855.276l1.533-.702-1.58.588" fill="#85340A"/><path d="M9.271 9.193c.308.11.512-.006.772.141-.186-.163-.428-.055-.744-.198m-.896-.073l1.685-.062-1.685-.061" fill="#85340A"/><path d="M9.131 9.512c.242.219.475.19.66.426-.11-.223-.375-.216-.613-.469m-.8-.41l1.58.588-1.532-.702" fill="#85340A"/><path d="M8.88 9.752c.14.295.365.358.446.646-.017-.247-.264-.342-.387-.667m-.581-.684l1.234 1.147L8.445 8.96" fill="#85340A"/><path d="M8.4 10a1 1 0 1 0 0-2 1 1 0 0 0 0 2z" fill="#F6B40E"/><path fill-rule="evenodd" clip-rule="evenodd" d="M8.4 8.027a.973.973 0 1 0 0 1.946.973.973 0 0 0 0-1.946zM7.373 9a1.027 1.027 0 1 1 2.054 0 1.027 1.027 0 0 1-2.054 0z" fill="#85340A"/><path d="M8.74 8.786a.198.198 0 0 0-.171.091c.077.07.247.077.362-.008a.264.264 0 0 0-.19-.083zm0 .016c.066-.001.128.03.137.06-.077.084-.2.077-.277.015a.162.162 0 0 1 .14-.075z" fill="#843511"/><path d="M8.754 8.739c-.1 0-.123.023-.17.061-.046.039-.069.031-.076.039-.008.008 0 .03.015.023.015-.008.046-.023.092-.062.047-.038.093-.038.139-.038.138 0 .215.115.23.108.016-.008-.076-.131-.23-.131z" fill="#85340A"/><path d="M9.03 8.785c-.176-.154-.4-.177-.522-.062a.302.302 0 0 0-.058.129c-.015.087.012.182.08.279a.058.058 0 0 0-.03.015.548.548 0 0 1-.063-.35.498.498 0 0 1 .024-.088c.17-.139.4-.154.57.077z" fill="#85340A"/><path d="M8.738 8.93a.07.07 0 1 0 0-.138.07.07 0 0 0 0 .138z" fill="#85340A"/><path d="M8.939 8.908c-.131.1-.262.092-.339.046-.077-.046-.077-.061-.061-.061.015 0 .03.015.092.046.061.03.154.03.307-.031zM8.247 9.138a.07.07 0 1 0 .07.108c.026.02.063.022.083.023h.009c.02 0 .057-.003.083-.023.013.019.034.03.057.03a.07.07 0 0 0 .013-.138.046.046 0 0 1 .027.062.046.046 0 0 1-.089-.016.115.115 0 0 1-.095.062.115.115 0 0 1-.096-.062.046.046 0 0 1-.064.04.046.046 0 0 1-.028-.042c0-.02.012-.037.03-.044zm.075.205c-.077 0-.107.07-.176.116.038-.015.068-.046.122-.077.054-.03.1.007.13.007H8.4c.03 0 .077-.037.13-.007.054.031.086.062.124.077-.07-.046-.1-.116-.178-.116a.207.207 0 0 0-.076.024h-.001a.206.206 0 0 0-.077-.024z" fill="#85340A"/><path d="M8.296 9.434a.527.527 0 0 0-.128.025c.139-.031.17.015.23.015H8.4c.061 0 .092-.046.23-.015-.153-.046-.184-.016-.23-.016h-.001c-.03 0-.052-.011-.103-.01z" fill="#85340A"/><path d="M8.175 9.458l-.03.001c.162.016.085.108.254.108H8.4c.17 0 .093-.092.254-.108-.169-.015-.115.085-.254.085h-.001c-.13 0-.09-.088-.224-.086zm.364.25a.139.139 0 0 0-.277 0 .142.142 0 0 1 .277 0zM7.778 8.785c.177-.154.4-.177.523-.062.03.04.05.084.058.129.015.087-.012.182-.08.279.007 0 .022.008.03.015a.548.548 0 0 0 .063-.35.498.498 0 0 0-.024-.088c-.17-.139-.4-.154-.57.077z" fill="#85340A"/><path d="M8.055 8.739c.1 0 .123.023.17.061.046.039.069.031.076.039.008.008 0 .03-.015.023-.015-.008-.046-.023-.092-.062-.047-.038-.093-.038-.139-.038-.138 0-.215.115-.23.108-.016-.008.076-.131.23-.131z" fill="#85340A"/><path d="M8.05 8.786a.198.198 0 0 0-.172.091c.077.07.247.077.363-.008a.264.264 0 0 0-.19-.083zm0 .016c.066-.001.128.03.137.06-.077.084-.2.077-.277.015a.162.162 0 0 1 .14-.075z" fill="#843511"/><path d="M8.06 8.93a.07.07 0 1 0 0-.138.07.07 0 0 0 0 .138z" fill="#85340A"/><path d="M7.87 8.908c.131.1.262.092.339.046.077-.046.077-.061.061-.061-.015 0-.03.015-.092.046-.061.03-.154.03-.307-.031z" fill="#85340A"/></g></svg>