<svg width="18" height="18" fill="none" xmlns="http://www.w3.org/2000/svg"><mask id="a" style="mask-type:alpha" maskUnits="userSpaceOnUse" x="0" y="0" width="18" height="18"><circle cx="9" cy="9" r="9" fill="#D9D9D9"/></mask><g mask="url(#a)"><path d="M0 0h27v18H0V0z" fill="#EE1C25"/><path d="M0 0h27v12H0V0z" fill="#0B4EA2"/><path d="M0 0h27v6H0V0z" fill="#fff"/><path d="M11.804 4.23H4.391l-.026.242c-.005.052-.135 1.319-.135 4.1 0 1.307.442 2.46 1.313 3.427.61.678 1.408 1.248 2.437 1.744l.117.057.118-.057c1.03-.496 1.827-1.066 2.437-1.744a4.975 4.975 0 0 0 1.313-3.427c0-2.781-.13-4.048-.135-4.1l-.026-.242z" fill="#fff"/><path d="M8.098 13.5C6.618 12.787 4.5 11.372 4.5 8.572c0-2.799.134-4.072.134-4.072h6.927s.134 1.273.134 4.072c0 2.8-2.117 4.215-3.597 4.928z" fill="#EE1C25"/><path d="M8.415 7.839c.4.006 1.182.022 1.879-.211 0 0-.019.25-.019.54 0 .29.019.539.019.539-.64-.214-1.428-.218-1.88-.213v1.546h-.632V8.495c-.452-.005-1.24 0-1.88.213 0 0 .019-.25.019-.54 0-.29-.019-.539-.019-.539.697.233 1.479.217 1.88.21v-.97a4.443 4.443 0 0 0-1.487.213s.018-.249.018-.54c0-.29-.018-.539-.018-.539.594.2 1.12.217 1.485.214-.019-.615-.198-1.39-.198-1.39s.369.028.516.028c.147 0 .516-.028.516-.028s-.18.775-.198 1.39c.365.003.89-.015 1.485-.214 0 0-.018.25-.018.54 0 .29.018.54.018.54a4.444 4.444 0 0 0-1.487-.214v.97z" fill="#fff"/><path d="M8.097 9.873c-.746 0-1.145 1.034-1.145 1.034a.914.914 0 0 0-.83-.49c-.411 0-.715.366-.907.705.748 1.19 1.943 1.926 2.882 2.378.94-.452 2.135-1.187 2.883-2.378-.193-.34-.496-.705-.907-.705a.916.916 0 0 0-.831.49s-.4-1.034-1.145-1.034z" fill="#0B4EA2"/></g></svg>