<svg width="18" height="18" fill="none" xmlns="http://www.w3.org/2000/svg"><mask id="a" style="mask-type:alpha" maskUnits="userSpaceOnUse" x="0" y="0" width="18" height="18"><circle cx="9" cy="9" r="9" fill="#D9D9D9"/></mask><g mask="url(#a)"><path d="M28.385-.383h-38.77V19h38.77V-.383z" fill="#171796"/><path d="M28.385-.383h-38.77V12.54h38.77V-.383z" fill="#EFEFEF"/><path d="M28.385-.383h-38.77v6.46h38.77v-6.46zM9.001 14.323a3.78 3.78 0 0 0 3.769-3.768V6.077H5.233v4.478A3.78 3.78 0 0 0 9 14.323z" fill="red"/><path d="M9.001 14.262a3.707 3.707 0 0 0 3.697-3.696V6.149H5.305v4.417A3.707 3.707 0 0 0 9 14.262z" fill="#fff"/><path d="M6.865 6.288H5.442v1.563h1.423V6.288zM6.865 9.414h1.422V7.851H6.865v1.563zM5.442 10.558c0 .142.01.282.025.42h1.398V9.413H5.442v1.144zM9.71 9.414H8.287v1.563H9.71V9.414zM9.71 12.54h1.423v-1.563H9.71v1.563z" fill="red"/><path d="M11.133 13.394c.315-.238.59-.527.812-.855h-.812v.855zM6.865 12.54h1.423v-1.563H6.865v1.563zM6.051 12.54c.223.327.498.617.814.855v-.856h-.814z" fill="red"/><path d="M9.247 14.102c.157-.011.312-.032.463-.063v-1.5H8.287v1.5a3.516 3.516 0 0 0 .96.063zM12.529 10.977a3.55 3.55 0 0 0 .025-.42V9.413h-1.421v1.563h1.396zM9.71 9.414h1.423V7.851H9.71v1.563zM9.71 6.288H8.288v1.563H9.71V6.288zM12.554 7.851V6.288h-1.421v1.563h1.421z" fill="red"/><path d="M12.634 6.031l.882-2-.672-1.084-1.114.412-.781-.894-1.03.59L9 2.304l-.918.753-1.03-.59-.782.893-1.113-.412-.673 1.085.881 2A8.794 8.794 0 0 1 9 5.25c1.294 0 2.524.28 3.634.781z" fill="#fff"/><path d="M6.294 3.447l-.001.002-1.104-.409-.618.998.237.538.6 1.361c.447-.198.913-.36 1.396-.483l-.51-2.007z" fill="#0093DD"/><path d="M6.23 4.434a.54.54 0 1 1-1.007.354.543.543 0 0 0 1.008-.354v0z" fill="#fff" stroke="#000" stroke-width="0.35"/><path d="M5.736 3.687l-.002.009-.037.194.148.13.007.006-.008.002-.187.065-.038.193-.002.01-.007-.007-.149-.13-.186.065-.009.003.002-.01.037-.193-.148-.13-.007-.006.009-.003.186-.064.038-.194.002-.009.007.006.149.13.187-.064.008-.003z" fill="#000"/><path d="M5.512 3.962l.14.122.174-.06-.314-.062zM5.513 3.956l.314.061-.139-.121-.175.06zM5.177 3.89l.313.061-.14-.12-.173.06zM5.489 3.958l-.314-.062.14.122.174-.06zM5.507 3.946l.21-.24-.175.059-.035.181zM5.281 4.205l.21-.241-.175.06-.035.18zM5.496 3.968l-.21.24.174-.06.036-.18zM5.721 3.709l-.21.24.175-.06.035-.18zM5.494 3.947l-.103-.303-.036.181.14.122zM5.606 4.271l-.104-.302-.035.181.139.121zM5.508 3.967l.104.302.035-.18-.14-.122zM5.397 3.642l.103.303.036-.182-.14-.12z" fill="#F7DB17"/><path d="M8.091 3.147l-.002.002-1.021-.586-.774.884.51 2.007c.472-.12.96-.202 1.458-.244l-.17-2.063z" fill="#171796"/><path d="M6.677 4.956a9.38 9.38 0 0 1 1.543-.258l-.043-.521c-.557.046-1.101.137-1.629.272l.13.507zM6.421 3.947a10.417 10.417 0 0 1 1.713-.286L8.09 3.15c-.614.051-1.214.152-1.796.3l.126.498z" fill="red"/><path d="M9.913 3.147l-.002.001L9 2.403l-.909.744.171 2.063a8.96 8.96 0 0 1 1.48 0l.17-2.063h.001z" fill="#0093DD"/><path d="M8.998 4.075c-.002 0-.004.001-.006.004l-.053.07c-.018.005-.023.016-.016.033-.025-.003-.027.018-.028.04-.024-.035-.05-.045-.078-.028-.001-.022-.018-.033-.042-.038a.08.08 0 0 1-.042-.014l-.016-.01c-.012-.008-.022 0-.017.007l.077.125c-.001.007 0 .014.008.02l.014.037-.003.011c-.021-.01-.043-.011-.064-.013-.016 0-.027-.004-.034-.013-.006-.006-.01-.002-.01.008a.2.2 0 0 0 .058.143c-.022 0-.044 0-.066.002-.008 0-.01.004-.007.01.012.029.032.055.078.073a.063.063 0 0 0-.034.05c0 .021-.007.036-.02.043-.006.003-.008.007-.002.01.024.018.054.019.085.011a.134.134 0 0 0-.019.082.1.1 0 0 0 .06-.005.094.094 0 0 0-.006.03.077.077 0 0 1-.01.032c-.003.003-.006.008 0 .01a.142.142 0 0 0 .088-.005c0 .024 0 .047.007.07.002.005.007.01.012.002a.173.173 0 0 1 .05-.05.035.035 0 0 0 .016.021c.009.006.014.017.014.033 0 .003 0 .006.004.009.014 0 .049-.036.056-.057.02.011.027.023.042.044.005.007.01.003.012-.003a.27.27 0 0 0 .007-.069c.025.01.055.013.087.005.007-.002.004-.007 0-.01a.09.09 0 0 1-.01-.035c-.001-.013-.002-.022-.004-.027a.1.1 0 0 0 .058.005.134.134 0 0 0-.02-.082c.032.008.063.007.087-.01.006-.004.003-.008-.002-.01-.013-.008-.02-.023-.02-.044a.062.062 0 0 0-.035-.05.127.127 0 0 0 .079-.073c.002-.007 0-.01-.007-.01l-.068-.003a.201.201 0 0 0 .058-.143c0-.01-.004-.014-.009-.008-.007.009-.017.013-.033.014-.022.002-.042.002-.063.012l-.003-.01.014-.038c.008-.005.01-.012.009-.02.025-.041.049-.083.075-.124.005-.008-.005-.016-.017-.007l-.016.01a.08.08 0 0 1-.042.014c-.024.005-.04.016-.04.038-.029-.017-.055-.007-.079.03 0-.024-.004-.045-.029-.042.008-.016.002-.028-.017-.034-.017-.024-.043-.045-.061-.069-.003-.003-.005-.004-.007-.004z" fill="#000"/><path d="M9.24 4.208c-.004-.002-.011.002-.015.01-.004.007-.003.016.002.019.004.002.008 0 .011-.006l.003-.003v-.001c.004-.008.005-.016 0-.019zM8.761 4.208c.005-.002.012.002.016.01.004.007.004.016-.001.018-.005.003-.01-.002-.014-.01-.004-.007-.006-.015-.001-.018zM9.195 4.295a.006.006 0 0 0-.005.005c0 .003.002.006.005.006a.006.006 0 0 0 0-.011zM8.81 4.295a.006.006 0 1 0 0 .01.006.006 0 0 0 0-.01zM9.22 4.266a1.801 1.801 0 0 0-.433-.002c-.003 0-.002.009.001.008.073-.007.144-.01.216-.01.071 0 .142.003.213.012.004 0 .006-.008.003-.008z" fill="#F7DB17"/><path d="M8.785 4.258a2.226 2.226 0 0 1 .436.001l.01-.017a.011.011 0 0 1-.008 0c-.008-.004-.01-.016-.004-.027.005-.011.016-.017.023-.013.004.002.006.006.007.01l.042-.07c-.02.012-.031.02-.055.024-.027.004-.04.013-.036.03.004.014-.005.012-.019.005-.03-.017-.052.006-.062.033-.007.018-.015.018-.016 0l-.001-.02c-.002-.021-.008-.027-.02-.021-.016.007-.017.002-.014-.006.003-.006.008-.012.007-.021-.001-.007-.007-.009-.015-.01-.017-.023-.045-.046-.062-.07l-.053.07c-.008.001-.014.003-.015.01-.002.009.005.015.008.02.004.008.002.014-.013.006-.012-.006-.018 0-.02.021l-.001.02c-.001.019-.01.02-.016.001-.01-.027-.034-.05-.064-.033-.014.007-.02.01-.018-.006.003-.016-.01-.025-.037-.029-.024-.003-.036-.012-.055-.024l.04.065a.011.011 0 0 1 .005-.005c.007-.004.017.002.023.013.005.01.004.023-.004.026l-.003.001.01.016zM9.205 4.345h-.002c-.005.002-.008.007-.013.013a.17.17 0 0 1-.02.018c-.001 0-.003.001-.004-.001-.002-.002-.001-.003 0-.004a.174.174 0 0 0 .027-.026 1.387 1.387 0 0 0-.027-.003.093.093 0 0 0-.021.009.038.038 0 0 0-.013.012c-.001.001-.002.002-.005 0-.002 0-.002-.002 0-.003a.043.043 0 0 1 .014-.015.083.083 0 0 1 .01-.005l-.03-.002a.039.039 0 0 0-.011.01c-.001.002-.002.003-.005.002-.002-.002-.001-.003 0-.005a.047.047 0 0 1 .006-.007l-.022-.002h-.001a.032.032 0 0 0-.01.013c0 .001 0 .002-.003.001-.003 0-.002-.002-.002-.004a.041.041 0 0 1 .005-.007l.002-.004a1.94 1.94 0 0 0-.034 0 .033.033 0 0 0-.006.005.028.028 0 0 0-.005.006c0 .002-.001.003-.004.001-.003-.001-.002-.002-.001-.004a.032.032 0 0 1 .007-.009 2.152 2.152 0 0 0-.069 0l.002.002a.039.039 0 0 1 .006.007c0 .002.001.003-.001.004-.003.002-.004 0-.005 0a.028.028 0 0 0-.004-.007.033.033 0 0 0-.006-.005h-.035l.003.004a.034.034 0 0 1 .004.007c0 .002.001.003-.001.004-.003.001-.004 0-.004-.001a.032.032 0 0 0-.01-.013h-.023v.002a.042.042 0 0 1 .007.007c0 .002.002.003 0 .005-.003.001-.004 0-.005-.001a.04.04 0 0 0-.012-.011c-.01 0-.021 0-.032.002a.084.084 0 0 1 .012.005.042.042 0 0 1 .015.014c0 .002.002.003 0 .005-.003.001-.004 0-.005-.001a.037.037 0 0 0-.013-.012.098.098 0 0 0-.024-.01l-.026.002a.173.173 0 0 0 .028.028c.001 0 .003.002 0 .004-.001.002-.002.001-.003 0a.17.17 0 0 1-.02-.017l-.014-.014a.153.153 0 0 0-.055-.014c-.014-.001-.03 0-.043-.007a.097.097 0 0 0 .012.021.039.039 0 0 0 .02.014l.002.003a.077.077 0 0 0 .016.037c.005.006.01.01.018.014a.096.096 0 0 1-.017-.024.077.077 0 0 1-.007-.04c0-.002 0-.003.003-.003s.003.002.003.003a.07.07 0 0 0 .007.037.103.103 0 0 0 .028.034c.002.001 0 .006-.003.005a.075.075 0 0 1-.037-.022.081.081 0 0 1-.017-.038.045.045 0 0 1-.021-.016.094.094 0 0 1-.011-.02.187.187 0 0 0 .043.11.072.072 0 0 0 .025.02c.008.003.009.01-.002.01h-.01a.154.154 0 0 1 .022.01c.012.007.02.015.021.026 0 .001 0 .003-.002.003-.003 0-.003-.001-.004-.003 0-.008-.007-.015-.018-.021a.19.19 0 0 0-.038-.015h-.044a.106.106 0 0 0 .045.02.08.08 0 0 1 .022.008.064.064 0 0 1 .017.015c.001 0 .002.002 0 .004-.003.002-.003 0-.005 0a.054.054 0 0 0-.015-.013.076.076 0 0 0-.02-.008.135.135 0 0 1-.052-.024.115.115 0 0 0 .08.066l.005.001h.001a.34.34 0 0 0 .026.006l.025.003c.001 0 .003 0 .003.004 0 .003-.002.002-.004.002a.287.287 0 0 1-.042-.006h-.01c-.022.002-.04.022-.041.048v.002a.164.164 0 0 1 .026-.02c.01-.007.022-.01.034-.007.002 0 .003 0 .003.003-.001.003-.003.003-.004.002-.01-.002-.02 0-.03.007a.182.182 0 0 0-.03.024.054.054 0 0 1-.02.036c.006.003.01.006.015.004a.27.27 0 0 1 .025-.01.099.099 0 0 1 .027-.006c.002 0 .003 0 .004.003 0 .003-.002.003-.003.003a.09.09 0 0 0-.026.006.254.254 0 0 0-.021.008c.021.005.044 0 .064-.007l.013-.004.016-.008a.072.072 0 0 1 .017-.005c.002 0 .004 0 .004.002 0 .003-.001.004-.003.004a.038.038 0 0 0-.021.007c0 .002-.006.006-.012.01a.07.07 0 0 0-.026.034.116.116 0 0 0-.007.02.143.143 0 0 1 .02-.028.1.1 0 0 1 .032-.026c.002 0 .003 0 .004.002.002.003 0 .003-.001.004a.091.091 0 0 0-.031.024.142.142 0 0 0-.021.033l-.004.008a.22.22 0 0 1 .03-.03c.013-.009.028-.014.04-.012.002 0 .004 0 .003.004 0 .002-.002.002-.003.002-.011-.002-.024.003-.036.012a.263.263 0 0 0-.035.034.114.114 0 0 0 .052-.008c.009-.003.018-.013.023-.015a.12.12 0 0 1 .015-.016h.005c.002.003 0 .004 0 .005a.102.102 0 0 0-.019.02s0 .002-.002.002c-.006.006-.014.015-.016.022-.006.02-.003.036-.012.056a.059.059 0 0 0 .017-.013.066.066 0 0 0 .012-.022.07.07 0 0 1 .041-.042c.001-.001.003-.002.004.001 0 .003 0 .004-.002.004a.065.065 0 0 0-.037.039.071.071 0 0 1-.014.024.06.06 0 0 1-.015.012h.012c.007-.001.02-.007.026-.012a.05.05 0 0 0 .015-.02c0-.001.001-.003.004-.001.003 0 .002.002.002.004a.055.055 0 0 1-.017.022.05.05 0 0 1-.019.009c.016 0 .03-.004.045-.01.006-.002.008-.016.012-.02a.093.093 0 0 1 .01-.015.042.042 0 0 1 .016-.012c.001 0 .003-.001.004.002.001.002 0 .003-.002.004a.036.036 0 0 0-.013.01.086.086 0 0 0-.01.014c.002.007-.004.022-.005.03 0 .019 0 .038.006.058a.201.201 0 0 1 .015-.019v-.001a.305.305 0 0 0 .003-.063c0-.002 0-.003.003-.004.003 0 .003.001.003.003a.292.292 0 0 1-.002.058l.008-.01a.071.071 0 0 0 .005-.044c0-.002-.001-.003.002-.004.003 0 .003 0 .004.002a.068.068 0 0 1 0 .024.084.084 0 0 1-.004.02.242.242 0 0 1 .017-.012.272.272 0 0 1 .002-.04c0-.002 0-.004.004-.003.004 0 .004.002.003.004a.314.314 0 0 0-.001.04c0 .008.005.018.012.023a.04.04 0 0 1 .018.026.171.171 0 0 0 0-.038.09.09 0 0 0-.01-.036c-.001-.001-.002-.002 0-.004.003-.001.004 0 .005.001.006.01.01.023.011.038a.18.18 0 0 1 0 .047c.009-.008.036-.025.033-.057a.034.034 0 0 0-.003-.007c0-.002-.001-.003.001-.004.003-.002.004 0 .004 0a.043.043 0 0 1 .005.019l.005-.004.008.005a.07.07 0 0 1-.003-.041c0-.001 0-.003.004-.002.003 0 .002.002.002.003a.063.063 0 0 0-.001.022c0 .008.003.015.006.023v.002a.134.134 0 0 1 .007.007.293.293 0 0 1-.002-.057c0-.002 0-.003.004-.003.003 0 .002.002.002.003a.305.305 0 0 0 .003.063v.001l.015.019a.197.197 0 0 0 .006-.059c0-.007-.006-.021-.006-.029a.088.088 0 0 0-.01-.014.035.035 0 0 0-.013-.01c-.001 0-.002-.001-.001-.004 0-.003.002-.003.004-.002a.042.042 0 0 1 .015.012c.004.004.007.01.01.015.006 0 .008.017.014.02a.138.138 0 0 0 .043.01.05.05 0 0 1-.035-.031c0-.002-.001-.003.001-.004.003-.002.004 0 .005.001a.049.049 0 0 0 .014.02.084.084 0 0 0 .039.012.063.063 0 0 1-.029-.036.066.066 0 0 0-.037-.039c-.002 0-.003 0-.002-.004 0-.002.002-.002.004-.001.009.003.018.009.025.016a.071.071 0 0 1 .016.026.056.056 0 0 0 .03.035c-.01-.02-.007-.035-.013-.055-.003-.013-.022-.027-.018-.031.004-.005.012.008.023.012.017.006.035.01.052.008a.257.257 0 0 0-.035-.034c-.011-.009-.023-.014-.034-.012-.001 0-.003 0-.003-.002 0-.003 0-.004.002-.004.013-.002.026.003.039.013l.03.028-.003-.007a.147.147 0 0 0-.021-.033.096.096 0 0 0-.031-.024c-.002 0-.003-.001-.002-.004s.003-.002.004-.001a.101.101 0 0 1 .033.025.146.146 0 0 1 .02.03.108.108 0 0 0-.007-.022.071.071 0 0 0-.018-.028c-.006-.005-.02-.013-.02-.017l-.006-.002a.069.069 0 0 0-.016-.005c-.001 0-.003 0-.002-.004 0-.003.002-.003.003-.002.005 0 .011.002.018.005l.009.006c.005 0 .013.004.02.007.02.007.043.012.064.007a.243.243 0 0 0-.022-.008.09.09 0 0 0-.025-.005c-.002 0-.003 0-.003-.004 0-.003.002-.002.003-.002.01 0 .018.002.027.005a.267.267 0 0 1 .025.01c.006.003.01 0 .016-.004a.054.054 0 0 1-.02-.036.182.182 0 0 0-.03-.024c-.01-.006-.02-.01-.03-.006-.002 0-.003 0-.004-.003-.001-.002 0-.003.002-.003a.045.045 0 0 1 .035.006.159.159 0 0 1 .026.02c-.002-.027-.02-.047-.042-.048-.007 0-.018.002-.018-.003 0-.006.01-.004.023-.008a.115.115 0 0 0 .08-.066.133.133 0 0 1-.052.024.075.075 0 0 0-.02.008.058.058 0 0 0-.016.013c-.001 0-.002.002-.004 0-.003-.002-.002-.003 0-.004a.064.064 0 0 1 .016-.015.082.082 0 0 1 .022-.008.13.13 0 0 0 .046-.02h-.044a.2.2 0 0 0-.039.015c-.01.006-.018.013-.018.021 0 .002 0 .003-.003.003s-.003-.002-.003-.003c0-.01.01-.02.021-.026a.153.153 0 0 1 .023-.01h-.01c-.011 0-.011-.007-.002-.01a.071.071 0 0 0 .024-.02.2.2 0 0 0 .043-.109.092.092 0 0 1-.01.02.046.046 0 0 1-.022.015.072.072 0 0 1-.053.06c-.002 0-.004-.004-.002-.006a.098.098 0 0 0 .026-.032.072.072 0 0 0 .007-.037c0-.002 0-.004.003-.004s.003.001.003.003a.077.077 0 0 1-.007.04.095.095 0 0 1-.017.024.061.061 0 0 0 .018-.014.078.078 0 0 0 .017-.037s0-.002.002-.002a.04.04 0 0 0 .02-.014.095.095 0 0 0 .012-.022c-.014.006-.03.006-.044.007a.151.151 0 0 0-.053.015z" fill="#F7DB17"/><path d="M9.2 4.328a1.894 1.894 0 0 0-.392 0c-.003 0-.002.003-.002.005s.003.003.011.002a1.987 1.987 0 0 1 .38.001c.003 0 .008-.008.002-.008z" fill="#F7DB17"/><path fill-rule="evenodd" clip-rule="evenodd" d="M8.81 4.321c.064-.007.13-.01.194-.01.065 0 .13.004.194.012L9.2 4.31a.012.012 0 0 1-.006.001.012.012 0 1 1 .01-.016l.007-.017a1.798 1.798 0 0 0-.418 0l.006.015a.012.012 0 1 1 .006.018l.003.009zm.293-.04a.012.012 0 1 0 0 .024.012.012 0 0 0 0-.024zm0 .007a.006.006 0 0 0 0 .01.006.006 0 0 0 .005-.005.006.006 0 0 0-.005-.005zm-.104-.01a.012.012 0 1 0 0 .024.012.012 0 0 0 0-.023zm0 .007a.006.006 0 1 0 0 .011.006.006 0 0 0 0-.011zm-.102-.004a.012.012 0 1 0 0 .024.012.012 0 0 0 0-.024zm0 .006a.006.006 0 0 0-.005.006c0 .003.002.006.005.006a.006.006 0 0 0 0-.012z" fill="#F7DB17"/><path d="M9.003 4.208a.03.03 0 0 0-.01-.017.033.033 0 0 0-.017-.008c-.003 0-.004-.006 0-.007a.03.03 0 0 0 .014-.013A.064.064 0 0 0 9 4.14c0-.003.006-.003.006 0a.042.042 0 0 0 .01.02c.005.006.011.01.018.013.003.001.002.006-.001.006a.021.021 0 0 0-.013.009.056.056 0 0 0-.01.021c0 .003-.006.003-.007 0zm.004-.011a.054.054 0 0 1 .007-.014.03.03 0 0 1 .01-.008.052.052 0 0 1-.02-.023.063.063 0 0 1-.008.015.043.043 0 0 1-.01.011.041.041 0 0 1 .02.019zM9.083 4.686l-.05.02s-.002.001-.004-.002c-.001-.003 0-.004.002-.005l.05-.02c.001 0 .003 0 .004.003s0 .004-.002.004zm.006-.03l-.058.03c-.002.001-.003.002-.005-.001s0-.004.002-.005l.057-.031c.002-.001.004-.002.005.001.002.003 0 .004-.001.005zm-.175-.007l.058.031c.001.001.003.002.001.005-.001.003-.003.002-.005.002l-.057-.032c-.002 0-.004-.002-.002-.005s.003-.002.005-.001zm.005.03l.05.02c0 .001.003.002.001.005-.001.003-.003.003-.004.002l-.05-.02c-.001 0-.003-.001-.002-.004.002-.004.003-.003.005-.002zm.021.042a.089.089 0 0 0 .035.003.023.023 0 0 0 .018-.014v-.047a.112.112 0 0 1-.03-.004.027.027 0 0 1-.018-.017.055.055 0 0 1 0-.031c0-.002 0-.004.004-.003.003 0 .003.003.002.004a.049.049 0 0 0 0 .027.02.02 0 0 0 .015.013.113.113 0 0 0 .058 0 .037.037 0 0 0 .019-.012.022.022 0 0 0 .005-.017.011.011 0 0 0-.005-.007.024.024 0 0 0-.012-.004c-.004 0-.009 0-.013.002l-.008.001c-.002 0-.003 0-.004-.003 0-.004.002-.004.003-.004l.007-.001a.067.067 0 0 1 .015-.002.03.03 0 0 1 .017.005.018.018 0 0 1 .007.012.03.03 0 0 1-.007.023.044.044 0 0 1-.022.014.113.113 0 0 1-.026.004v.048c.004.007.01.012.018.013.01.002.021 0 .035-.003.001 0 .003 0 .004.003 0 .003-.001.004-.003.004a.095.095 0 0 1-.037.003.03.03 0 0 1-.02-.013.03.03 0 0 1-.021.013.092.092 0 0 1-.037-.003c-.002 0-.004 0-.003-.004 0-.004.003-.003.004-.003zm.034.02h.039c.002 0 .004 0 .004.003 0 .004-.002.004-.004.004h-.038c-.002 0-.004 0-.004-.003 0-.004.002-.004.003-.004zM9.031 4.446a.258.258 0 0 1 .04-.028.068.068 0 0 1 .035-.01c.002 0 .003 0 .003.003 0 .004-.002.004-.003.004a.063.063 0 0 0-.031.01.241.241 0 0 0-.04.027c0 .001-.002.002-.004 0-.003-.003-.001-.005 0-.006zm-.058.006a.193.193 0 0 0-.042-.03.07.07 0 0 0-.035-.01c-.002 0-.004 0-.004-.003 0-.004.001-.004.003-.004a.077.077 0 0 1 .039.01c.015.008.03.018.044.031.001.002.003.003 0 .005-.002.003-.003.002-.005 0zm-.02.096a.09.09 0 0 1 .013-.021.127.127 0 0 1 .016-.016c.002-.002.003-.003.005 0 .003.003.001.004 0 .005a.118.118 0 0 0-.016.015.083.083 0 0 0-.012.02c0 .001-.001.003-.004.001-.004-.001-.003-.003-.002-.004zm.035-.166A.07.07 0 0 1 9 4.403a.085.085 0 0 1 .004.027.11.11 0 0 1 0 .024.053.053 0 0 1-.01.023.027.027 0 0 1-.031.01c.002.01.004.02 0 .03 0 .002-.003.002-.005.002a.284.284 0 0 0-.024-.011.14.14 0 0 1-.023-.011.053.053 0 0 1-.014-.012.037.037 0 0 1-.009-.016.078.078 0 0 1-.002-.017.22.22 0 0 1-.034-.023c0-.002-.002-.003 0-.005.003-.003.004-.002.006 0a.22.22 0 0 0 .034.023.11.11 0 0 1 .035.01.19.19 0 0 1 .03.019l.003.002.002.001c.005.003.01.003.015.002a.02.02 0 0 0 .011-.008.046.046 0 0 0 .008-.02.104.104 0 0 0 .001-.023.081.081 0 0 0-.003-.025.064.064 0 0 0-.01-.02c-.001 0-.002-.002 0-.004.003-.002.004 0 .006 0zm-.036.1a.178.178 0 0 0-.03-.018.108.108 0 0 0-.03-.01l.002.013a.03.03 0 0 0 .007.014.048.048 0 0 0 .013.01.14.14 0 0 0 .021.01.158.158 0 0 1 .022.01.052.052 0 0 0-.004-.026v-.003zm.075-.096a.062.062 0 0 0-.01.02.079.079 0 0 0-.003.024v.023a.048.048 0 0 0 .008.02.02.02 0 0 0 .012.008c.004.001.01 0 .014-.001l.003-.002.002-.002a.18.18 0 0 1 .03-.019.112.112 0 0 1 .036-.01.21.21 0 0 0 .034-.023c.001-.001.002-.003.005 0 .003.002.001.003 0 .005a.24.24 0 0 1-.034.024c0 .005 0 .01-.002.016a.038.038 0 0 1-.008.016.053.053 0 0 1-.015.012.145.145 0 0 1-.022.01.143.143 0 0 0-.025.012c-.002 0-.004 0-.005-.002-.004-.01-.002-.02 0-.03a.028.028 0 0 1-.015.001.027.027 0 0 1-.016-.01.053.053 0 0 1-.009-.024.111.111 0 0 1 0-.024c0-.01 0-.019.003-.027a.07.07 0 0 1 .01-.021c.002-.002.003-.003.006 0 .003.001.002.003 0 .004zm.09.068a.107.107 0 0 0-.03.01.178.178 0 0 0-.03.018v.003a.052.052 0 0 0-.004.025.341.341 0 0 1 .021-.009.14.14 0 0 0 .022-.01.047.047 0 0 0 .012-.01.032.032 0 0 0 .007-.014.068.068 0 0 0 .002-.013z" fill="#000"/><path fill-rule="evenodd" clip-rule="evenodd" d="M9.086 4.46a.02.02 0 1 0 0 .04.02.02 0 0 0 0-.04zm0 .006a.014.014 0 1 0 0 .028.014.014 0 0 0 0-.028zm0 .006a.008.008 0 1 0 0 .016.008.008 0 0 0 0-.016zm-.163-.012c.012 0 .02.01.02.02a.02.02 0 1 1-.02-.02zm0 .007a.014.014 0 0 1 0 .028.014.014 0 0 1 0-.028zm0 .005a.008.008 0 1 1 0 .017.008.008 0 0 1 0-.017z" fill="#000"/><path d="M8.582 3.146c-.001 0-.004.001-.006.005l-.05.07c-.018.007-.022.019-.014.034-.025-.001-.027.02-.028.043-.025-.035-.051-.044-.079-.027-.001-.021-.019-.031-.043-.035a.08.08 0 0 1-.042-.013l-.017-.01c-.012-.007-.021.001-.016.008l.081.122a.018.018 0 0 0 .01.02l.014.037-.002.01c-.022-.009-.043-.009-.064-.01-.016 0-.028-.003-.035-.011-.006-.006-.009-.003-.009.008a.2.2 0 0 0 .063.14 2.568 2.568 0 0 0-.066.005c-.008 0-.01.004-.007.01a.127.127 0 0 0 .081.07.063.063 0 0 0-.032.051c0 .022-.006.037-.018.045-.006.003-.008.006-.002.01.025.017.054.016.086.007a.134.134 0 0 0-.016.082.1.1 0 0 0 .058-.007.093.093 0 0 0-.004.03.077.077 0 0 1-.008.033c-.003.003-.006.008 0 .01a.142.142 0 0 0 .088-.008c0 .023.002.046.01.07.002.005.007.009.012.001a.173.173 0 0 1 .048-.051.035.035 0 0 0 .016.02c.01.005.015.016.016.032 0 .003 0 .006.004.009.014 0 .047-.039.054-.06.02.011.028.023.043.043.006.007.01.002.013-.003a.27.27 0 0 0 .003-.07.142.142 0 0 0 .088.002c.006-.002.003-.007 0-.01a.09.09 0 0 1-.012-.035c-.002-.012-.002-.021-.005-.027a.1.1 0 0 0 .059.003.134.134 0 0 0-.024-.08c.032.006.063.004.087-.015.005-.004.003-.007-.003-.01-.013-.006-.02-.021-.022-.043a.062.062 0 0 0-.036-.048.127.127 0 0 0 .076-.076c.002-.007 0-.01-.007-.01h-.069a.201.201 0 0 0 .053-.145c0-.01-.004-.014-.01-.008-.006.01-.016.014-.032.016-.021.002-.042.004-.062.014l-.004-.01c.004-.013.01-.026.013-.039.008-.005.01-.012.008-.02l.07-.127c.005-.007-.005-.015-.017-.006l-.015.01a.08.08 0 0 1-.042.016c-.023.006-.039.018-.04.04-.028-.016-.053-.005-.076.032-.002-.023-.005-.044-.03-.04.006-.017 0-.028-.019-.033-.018-.024-.045-.044-.064-.067-.003-.003-.005-.004-.007-.004z" fill="#000"/><path d="M8.83 3.27c-.005-.002-.012.002-.016.01-.003.008-.002.017.003.02.004.001.008-.002.012-.007l.002-.003v-.001c.003-.008.004-.016 0-.019H8.83zM8.35 3.288c.006-.003.013.001.017.009.004.007.004.016 0 .019-.006.003-.01-.002-.015-.01-.004-.007-.006-.015-.001-.018zM8.788 3.358a.006.006 0 0 0-.006.006c0 .003.003.006.006.005a.006.006 0 0 0 0-.011zM8.402 3.373a.006.006 0 0 0-.005.006.006.006 0 0 0 .01 0 .005.005 0 0 0-.005-.006zM8.812 3.328a1.8 1.8 0 0 0-.433.015c-.003 0-.002.009.001.008.072-.01.144-.016.216-.019a1.79 1.79 0 0 1 .213.004c.004 0 .005-.007.003-.008z" fill="#F7DB17"/><path d="M8.377 3.337a2.223 2.223 0 0 1 .435-.015l.01-.018a.011.011 0 0 1-.009 0c-.007-.003-.01-.015-.004-.026.005-.011.015-.017.022-.014.004.002.006.006.007.01l.04-.072c-.02.013-.03.022-.055.026-.026.005-.038.015-.034.031.004.015-.005.013-.019.006-.03-.015-.051.009-.06.036-.007.018-.015.018-.017 0l-.001-.02c-.003-.02-.01-.027-.022-.02-.015.008-.016.003-.013-.005.002-.006.008-.013.005-.022 0-.006-.006-.008-.014-.008-.019-.023-.047-.045-.065-.068l-.05.072c-.009 0-.014.003-.015.01-.001.009.006.015.009.02.004.008.002.013-.013.006-.013-.005-.018 0-.02.022v.02c0 .019-.008.02-.016.002-.011-.027-.035-.049-.065-.031-.013.008-.019.01-.017-.005.001-.016-.012-.025-.039-.028-.024-.002-.036-.01-.056-.022l.042.064a.011.011 0 0 1 .005-.006c.007-.004.018.002.024.013.005.01.004.022-.003.026l-.003.001.01.015zM8.8 3.408l-.003.001c-.004.002-.007.007-.012.013a.168.168 0 0 1-.02.018c0 .001-.002.002-.004 0s0-.003 0-.004a.173.173 0 0 0 .027-.028l-.028-.001a.093.093 0 0 0-.02.01.038.038 0 0 0-.013.012c-.001.001-.002.003-.004.001-.003-.001-.002-.003-.002-.004a.043.043 0 0 1 .015-.015.083.083 0 0 1 .01-.005l-.03-.001a.04.04 0 0 0-.01.011c-.003.001-.003.002-.006 0-.002 0-.002-.002 0-.003a.046.046 0 0 1 .005-.008 1.78 1.78 0 0 0-.023 0 .032.032 0 0 0-.008.012c0 .001-.001.003-.004.002s-.003-.003-.002-.004a.042.042 0 0 1 .004-.008l.002-.003a1.9 1.9 0 0 0-.032 0H8.64a.032.032 0 0 0-.01.012c-.001.002-.002.003-.004.002-.003-.002-.002-.003-.002-.005a.032.032 0 0 1 .006-.007l.002-.002a2.109 2.109 0 0 0-.07.002l.002.002a.038.038 0 0 1 .006.007c.001.002.002.003 0 .005-.003.001-.004 0-.005-.001a.028.028 0 0 0-.011-.01l-.002-.002-.033.002a.034.034 0 0 1 .008.01c0 .003.001.004-.002.005-.002.001-.003 0-.004-.001a.032.032 0 0 0-.01-.013l-.023.002.001.001a.042.042 0 0 1 .007.007c0 .002.001.003-.001.005-.002.001-.003 0-.004-.001a.04.04 0 0 0-.012-.01v-.001a1.76 1.76 0 0 0-.032.003.082.082 0 0 1 .012.006.042.042 0 0 1 .015.013c.001.002.002.003 0 .005-.003.001-.004 0-.005-.001a.037.037 0 0 0-.013-.012.097.097 0 0 0-.024-.009 1.099 1.099 0 0 0-.026.004.174.174 0 0 0 .029.026c.001 0 .002.002 0 .004-.001.003-.002.002-.004.001a.17.17 0 0 1-.02-.017l-.014-.013a.153.153 0 0 0-.055-.012c-.015 0-.03 0-.044-.006a.096.096 0 0 0 .012.021.039.039 0 0 0 .02.014c.002 0 .003.001.003.002.003.015.01.027.018.036.005.006.011.01.018.014a.095.095 0 0 1-.017-.023.077.077 0 0 1-.009-.04c0-.002 0-.003.003-.003s.003.002.003.003a.07.07 0 0 0 .008.037.103.103 0 0 0 .03.032c.002.002 0 .006-.003.005a.075.075 0 0 1-.038-.02.08.08 0 0 1-.018-.038.045.045 0 0 1-.022-.015.094.094 0 0 1-.012-.019c.004.041.02.076.048.107a.072.072 0 0 0 .025.02c.009.003.01.01-.002.01h-.01a.155.155 0 0 1 .023.01c.012.006.021.014.022.025 0 .001 0 .003-.002.003-.003 0-.004-.001-.004-.003 0-.008-.008-.015-.019-.02a.19.19 0 0 0-.039-.014c-.015 0-.03 0-.044.002a.106.106 0 0 0 .046.018.08.08 0 0 1 .023.008.064.064 0 0 1 .017.013c.001.001.002.003 0 .005s-.003 0-.004 0a.055.055 0 0 0-.016-.013.075.075 0 0 0-.021-.007.12.12 0 0 1-.053-.022.115.115 0 0 0 .083.063l.006.001a.343.343 0 0 0 .026.005l.025.002c.002 0 .003 0 .003.003s-.002.003-.003.003a.289.289 0 0 1-.042-.005.076.076 0 0 1-.01.002c-.022.002-.04.023-.04.048v.002a.163.163 0 0 1 .025-.021c.011-.007.023-.011.035-.008.001 0 .003 0 .002.003 0 .003-.002.003-.004.003-.01-.003-.02 0-.03.007a.182.182 0 0 0-.029.025.054.054 0 0 1-.018.037c.006.003.01.006.016.004a.268.268 0 0 1 .024-.012.099.099 0 0 1 .027-.006c.001 0 .003 0 .003.003s-.001.003-.003.003a.09.09 0 0 0-.025.006.25.25 0 0 0-.02.01.117.117 0 0 0 .063-.01l.012-.005.017-.008a.071.071 0 0 1 .017-.006c.001 0 .003 0 .003.002 0 .004 0 .004-.002.004a.038.038 0 0 0-.021.008c0 .002-.006.006-.012.01a.07.07 0 0 0-.025.035.116.116 0 0 0-.006.021c.005-.01.011-.02.019-.03a.1.1 0 0 1 .032-.026s.002-.001.004.001c.001.003 0 .004-.002.005a.092.092 0 0 0-.03.025.142.142 0 0 0-.02.033l-.003.009a.22.22 0 0 1 .03-.03c.012-.01.026-.017.04-.015 0 0 .002 0 .002.003s-.002.003-.004.003c-.01-.002-.023.004-.035.013a.264.264 0 0 0-.033.036.114.114 0 0 0 .051-.01c.009-.003.017-.014.023-.016a.13.13 0 0 1 .014-.016c.001-.001.002-.002.005 0 .002.002 0 .003 0 .004a.101.101 0 0 0-.018.02c0 .002-.001.002-.002.002-.006.007-.014.016-.016.024-.004.02 0 .035-.01.055a.059.059 0 0 0 .017-.013.066.066 0 0 0 .011-.022.069.069 0 0 1 .04-.044c.001 0 .002-.001.004.001 0 .003 0 .004-.002.004a.065.065 0 0 0-.036.04.071.071 0 0 1-.013.025.06.06 0 0 1-.014.013l.012-.002c.007 0 .02-.007.026-.012a.05.05 0 0 0 .014-.02c0-.002 0-.003.004-.002.003.001.002.003.001.004a.055.055 0 0 1-.015.023.05.05 0 0 1-.019.01.138.138 0 0 0 .045-.012c.006-.002.007-.016.011-.02a.093.093 0 0 1 .01-.016.042.042 0 0 1 .015-.012c.001-.001.002-.002.004.001 0 .003 0 .004-.002.004a.036.036 0 0 0-.013.011.086.086 0 0 0-.009.014c.002.007-.004.022-.004.03 0 .02.002.039.008.058a.201.201 0 0 1 .015-.019v-.001a.306.306 0 0 0 0-.064c0-.001 0-.003.003-.003s.003.001.003.002a.29.29 0 0 1 0 .058c.005-.004.005-.004.007-.01a.071.071 0 0 0 .004-.044c0-.002 0-.003.002-.004.003 0 .003 0 .004.002a.068.068 0 0 1 .002.024.084.084 0 0 1-.004.02.239.239 0 0 1 .017-.013.279.279 0 0 1 0-.04c0-.002 0-.004.004-.003.004 0 .004.002.003.004v.041c.001.007.006.017.013.021a.04.04 0 0 1 .02.026.171.171 0 0 0-.002-.039.09.09 0 0 0-.012-.034c-.001-.002-.002-.003 0-.005.003-.001.004 0 .005.001.006.01.01.023.013.038a.181.181 0 0 1 0 .046c.01-.008.036-.026.032-.058a.033.033 0 0 0-.003-.007c0-.001-.001-.003.001-.004.003-.001.004 0 .004.001a.043.043 0 0 1 .006.018l.005-.004.007.005a.07.07 0 0 1-.004-.041c0-.002 0-.003.004-.003.003 0 .002.002.002.004a.062.062 0 0 0 0 .022.077.077 0 0 0 .007.022v.003a.142.142 0 0 1 .007.006.295.295 0 0 1-.004-.057c0-.002 0-.003.004-.003.003 0 .002.002.002.003v.032l.006.031v.001l.015.018a.197.197 0 0 0 .004-.059c0-.007-.007-.021-.007-.028a.088.088 0 0 0-.01-.014.035.035 0 0 0-.014-.01c-.001 0-.003-.001-.002-.004s.003-.002.004-.002a.042.042 0 0 1 .016.012c.004.004.008.009.01.014.006 0 .009.017.015.02a.138.138 0 0 0 .044.008.05.05 0 0 1-.036-.03c-.001-.001-.002-.003.001-.004s.003 0 .004.001a.049.049 0 0 0 .015.02c.009.005.029.01.04.01a.063.063 0 0 1-.03-.035.066.066 0 0 0-.04-.037c-.001 0-.002-.001-.001-.004 0-.003.002-.002.003-.002.01.003.018.008.026.016a.071.071 0 0 1 .017.025.056.056 0 0 0 .03.034c-.01-.02-.007-.035-.013-.055-.004-.012-.024-.026-.02-.03.004-.005.013.008.024.011.017.005.035.01.052.006a.257.257 0 0 0-.036-.033c-.012-.008-.023-.012-.034-.01-.002 0-.003 0-.004-.002 0-.003 0-.004.002-.004.013-.003.026.002.04.011.01.008.02.016.03.028l-.003-.008a.147.147 0 0 0-.022-.032.096.096 0 0 0-.032-.023c-.002 0-.003 0-.002-.004.001-.002.003-.002.004-.001a.101.101 0 0 1 .034.024.146.146 0 0 1 .02.029.108.108 0 0 0-.007-.022.07.07 0 0 0-.019-.027c-.006-.005-.02-.012-.02-.016l-.006-.002a.069.069 0 0 0-.016-.005c-.002 0-.003 0-.003-.003s.002-.003.003-.003c.005 0 .011.003.018.005l.01.006c.004 0 .013.003.02.006.02.007.043.01.064.005a.243.243 0 0 0-.022-.008.09.09 0 0 0-.026-.004c-.001 0-.003 0-.003-.003s.002-.003.003-.003c.01 0 .019.002.028.004a.266.266 0 0 1 .025.01c.006.002.01-.001.015-.005a.054.054 0 0 1-.02-.035.182.182 0 0 0-.032-.024c-.01-.005-.02-.008-.03-.005-.002 0-.003.001-.004-.002-.001-.002 0-.003.002-.003a.045.045 0 0 1 .035.005c.01.005.018.012.027.02v-.002c-.003-.026-.021-.045-.044-.046-.007 0-.018.003-.018-.002 0-.006.01-.005.022-.01a.115.115 0 0 0 .078-.068.133.133 0 0 1-.051.026.074.074 0 0 0-.02.008.058.058 0 0 0-.015.014c-.001.001-.002.002-.005 0-.002-.001-.001-.002 0-.004a.064.064 0 0 1 .016-.015.082.082 0 0 1 .022-.01.13.13 0 0 0 .045-.02h-.044a.202.202 0 0 0-.038.017c-.01.007-.017.014-.018.022 0 .002 0 .004-.003.003-.003 0-.003-.001-.003-.003 0-.01.009-.02.02-.027a.155.155 0 0 1 .023-.01.34.34 0 0 1-.01 0c-.011 0-.011-.006-.003-.01A.07.07 0 0 0 8.86 3.5a.2.2 0 0 0 .04-.11.092.092 0 0 1-.011.02.046.046 0 0 1-.02.016.081.081 0 0 1-.016.038.072.072 0 0 1-.035.024c-.003 0-.005-.004-.003-.006a.098.098 0 0 0 .025-.033.071.071 0 0 0 .006-.038c0-.001 0-.003.003-.003s.003.001.003.002a.077.077 0 0 1-.006.04.095.095 0 0 1-.016.026.06.06 0 0 0 .018-.015.077.077 0 0 0 .015-.038s0-.002.002-.002a.04.04 0 0 0 .02-.015.095.095 0 0 0 .01-.022c-.013.007-.028.007-.043.009a.152.152 0 0 0-.053.016z" fill="#F7DB17"/><path d="M8.793 3.391a1.897 1.897 0 0 0-.392.015c-.002 0-.001.003 0 .005 0 .002.003.003.01.002a1.984 1.984 0 0 1 .38-.014c.004.001.008-.008.002-.008z" fill="#F7DB17"/><path fill-rule="evenodd" clip-rule="evenodd" d="M8.403 3.4a1.514 1.514 0 0 1 .389-.013l.002-.013a.012.012 0 0 1-.005.002.012.012 0 1 1 .01-.017l.005-.016a1.798 1.798 0 0 0-.418.014l.007.016a.012.012 0 1 1 .007.018l.003.008zm.292-.051a.012.012 0 1 0 0 .023.012.012 0 0 0 0-.023zm0 .006a.006.006 0 0 0 0 .011.006.006 0 0 0 .006-.006.006.006 0 0 0-.006-.005zm-.104-.005a.012.012 0 1 0 0 .024.012.012 0 0 0 0-.024zm0 .006a.006.006 0 1 0 0 .012.006.006 0 0 0 0-.012zm-.101 0a.012.012 0 1 0 0 .024.012.012 0 0 0 0-.024zm0 .006a.006.006 0 0 0-.006.006c0 .003.003.006.006.006a.006.006 0 0 0 0-.012z" fill="#F7DB17"/><path d="M8.593 3.279a.031.031 0 0 0-.01-.017.033.033 0 0 0-.019-.007c-.003 0-.004-.006 0-.007a.03.03 0 0 0 .014-.013.064.064 0 0 0 .008-.025c0-.003.006-.004.007 0a.042.042 0 0 0 .01.02c.005.005.012.01.019.012.003 0 .002.006 0 .006a.021.021 0 0 0-.014.009.056.056 0 0 0-.009.022c0 .003-.005.003-.006 0zm.003-.012a.054.054 0 0 1 .007-.014.03.03 0 0 1 .009-.008.052.052 0 0 1-.022-.022.063.063 0 0 1-.006.015.042.042 0 0 1-.01.012c.005.001.01.004.013.007a.038.038 0 0 1 .009.01zM8.69 3.754l-.048.021c-.002 0-.003.002-.005-.002-.001-.003 0-.004.002-.004l.049-.022c.001 0 .003-.001.004.002.002.003 0 .004-.001.005zm.005-.032l-.057.034c-.001 0-.003.002-.004-.002-.002-.003 0-.004 0-.004l.057-.034c.002 0 .003-.002.005.001s0 .004-.001.005zm-.175 0l.06.03s.002.001 0 .005c0 .003-.002.002-.004.001l-.06-.029s-.002-.002 0-.005c0-.003.002-.002.004-.001zm.006.031l.05.018c.002 0 .004.001.002.005 0 .003-.002.002-.004.002l-.05-.018c-.002 0-.004-.001-.002-.005 0-.003.002-.002.004-.002zm.023.04a.09.09 0 0 0 .035.003.023.023 0 0 0 .017-.015L8.6 3.734c-.01 0-.02 0-.029-.003a.027.027 0 0 1-.02-.016.055.055 0 0 1-.001-.032c0-.002 0-.003.004-.003.004.001.003.003.003.005a.049.049 0 0 0 .001.027.02.02 0 0 0 .015.012.113.113 0 0 0 .058-.002.037.037 0 0 0 .018-.013.022.022 0 0 0 .005-.017.011.011 0 0 0-.005-.007.023.023 0 0 0-.012-.003c-.005 0-.01 0-.014.002a.144.144 0 0 1-.007.001c-.002 0-.004 0-.004-.003s.001-.004.003-.004l.007-.001a.068.068 0 0 1 .015-.003.03.03 0 0 1 .016.005.018.018 0 0 1 .008.012.03.03 0 0 1-.006.022.044.044 0 0 1-.021.015.114.114 0 0 1-.026.005l.001.046v.002c.005.008.01.012.02.013.008.001.02 0 .033-.004.002-.001.004-.001.005.002 0 .003-.001.004-.003.004a.095.095 0 0 1-.037.005.03.03 0 0 1-.02-.012.03.03 0 0 1-.02.013.092.092 0 0 1-.038-.001c-.002 0-.004 0-.003-.004 0-.004.002-.004.004-.003zm.035.02l.038-.003c.002 0 .004 0 .004.004 0 .003-.001.003-.003.004l-.039.002c-.001 0-.003 0-.003-.004 0-.003.001-.003.003-.003zM8.63 3.516a.258.258 0 0 1 .039-.03.068.068 0 0 1 .034-.012c.002 0 .003 0 .003.004s-.001.004-.003.004a.063.063 0 0 0-.03.01.241.241 0 0 0-.039.03c-.001 0-.002.002-.005-.001-.002-.003 0-.004 0-.005zm-.058.007a.193.193 0 0 0-.044-.028.07.07 0 0 0-.035-.008c-.002 0-.003 0-.004-.003 0-.004.001-.004.003-.004a.077.077 0 0 1 .04.008c.014.007.03.018.045.03 0 .001.002.002 0 .005s-.004.001-.005 0zm-.017.097a.09.09 0 0 1 .012-.021.128.128 0 0 1 .016-.017c.002-.001.003-.003.005 0 .003.003.001.004 0 .005a.119.119 0 0 0-.015.016.083.083 0 0 0-.011.02c-.001.001-.002.003-.005.002-.003-.002-.003-.003-.002-.005zm.03-.167a.07.07 0 0 1 .011.02.085.085 0 0 1 .005.027.11.11 0 0 1 0 .024.053.053 0 0 1-.008.024.027.027 0 0 1-.031.011c.003.01.005.02.001.03a.004.004 0 0 1-.005.002.291.291 0 0 0-.024-.01.139.139 0 0 1-.023-.01.053.053 0 0 1-.015-.011.037.037 0 0 1-.01-.016.078.078 0 0 1-.002-.017.217.217 0 0 1-.035-.022c-.001-.001-.002-.002 0-.005.003-.003.004-.001.005 0a.218.218 0 0 0 .035.022.11.11 0 0 1 .036.009c.01.004.02.01.03.017.002 0 .003.001.003.002l.003.002c.005.001.01.002.014 0a.02.02 0 0 0 .012-.008.047.047 0 0 0 .007-.02V3.5a.081.081 0 0 0-.005-.025.064.064 0 0 0-.01-.019c-.001-.001-.002-.002 0-.005.003-.002.004 0 .005 0v.001zm-.033.101a.178.178 0 0 0-.03-.017.108.108 0 0 0-.03-.008c0 .005 0 .01.002.013a.03.03 0 0 0 .007.013.048.048 0 0 0 .013.01.14.14 0 0 0 .022.01.16.16 0 0 1 .022.008.052.052 0 0 0-.005-.026v-.003zm.07-.098a.062.062 0 0 0-.008.02.079.079 0 0 0-.003.024c0 .008 0 .015.002.023a.048.048 0 0 0 .009.02.02.02 0 0 0 .012.007c.004.001.01 0 .014-.002l.002-.002s.002 0 .003-.002a.18.18 0 0 1 .03-.02.112.112 0 0 1 .034-.01.209.209 0 0 0 .033-.025c.002-.002.003-.003.005 0 .003.002.002.003 0 .005a.238.238 0 0 1-.033.025v.016a.038.038 0 0 1-.009.017.053.053 0 0 1-.013.012.145.145 0 0 1-.023.011.145.145 0 0 0-.024.012c-.002.001-.004 0-.005-.001-.004-.01-.003-.02 0-.03a.028.028 0 0 1-.016.002.027.027 0 0 1-.016-.01.053.053 0 0 1-.01-.024.112.112 0 0 1-.002-.024c0-.01 0-.018.003-.026a.07.07 0 0 1 .01-.022c0-.002.002-.003.005-.001s.002.003 0 .005zm.093.065a.107.107 0 0 0-.03.01.178.178 0 0 0-.028.02l-.001.002a.052.052 0 0 0-.003.026l.01-.005a.145.145 0 0 1 .012-.005.139.139 0 0 0 .02-.011.047.047 0 0 0 .013-.01.032.032 0 0 0 .006-.014l.001-.013z" fill="#000"/><path fill-rule="evenodd" clip-rule="evenodd" d="M8.684 3.527a.02.02 0 1 0 .002.041.02.02 0 0 0-.002-.041zm0 .006a.014.014 0 1 0 .002.029.014.014 0 0 0-.001-.029zm0 .006a.008.008 0 1 0 .001.017.008.008 0 0 0 0-.017zm-.162-.006a.02.02 0 0 1 .022.02.02.02 0 1 1-.022-.02zm0 .007a.014.014 0 0 1 .001.028.014.014 0 0 1 0-.028zm0 .006c.005 0 .009.003.01.008a.008.008 0 1 1-.01-.008z" fill="#000"/><path d="M9.415 3.146c-.001 0-.004 0-.006.004l-.055.067c-.019.005-.024.016-.017.032-.025-.003-.029.018-.03.04-.023-.037-.049-.048-.078-.032 0-.022-.016-.033-.04-.039a.08.08 0 0 1-.041-.015l-.016-.011c-.012-.01-.022-.002-.017.006l.072.128a.018.018 0 0 0 .008.02l.012.038-.004.01c-.02-.01-.042-.012-.063-.014-.016-.002-.027-.006-.034-.015-.005-.006-.008-.003-.009.008a.2.2 0 0 0 .052.144h-.067c-.007 0-.009.003-.007.01.011.03.03.056.076.076a.063.063 0 0 0-.036.048c-.002.022-.009.037-.022.043-.006.003-.008.006-.003.01.024.019.054.02.085.014a.134.134 0 0 0-.022.08.1.1 0 0 0 .06-.002.093.093 0 0 0-.007.03.077.077 0 0 1-.01.032c-.004.003-.007.007 0 .01.03.01.06.007.087-.002-.001.024-.002.047.004.07.002.006.007.01.012.003a.173.173 0 0 1 .053-.047.035.035 0 0 0 .014.02c.009.006.013.017.013.034 0 .003 0 .006.003.009.014 0 .05-.035.059-.055.019.012.026.024.04.045.005.008.01.004.012-.001a.27.27 0 0 0 .01-.07c.024.011.054.016.086.008.007-.001.004-.006.001-.01a.09.09 0 0 1-.01-.035c0-.012 0-.021-.002-.027a.1.1 0 0 0 .058.007.134.134 0 0 0-.017-.082c.031.009.063.01.087-.008.006-.003.004-.006-.002-.01-.012-.007-.018-.023-.018-.044a.062.062 0 0 0-.032-.051.127.127 0 0 0 .081-.07c.002-.007 0-.01-.007-.01-.022-.002-.045-.005-.068-.006a.2.2 0 0 0 .064-.14c0-.01-.003-.015-.009-.009-.007.008-.017.013-.034.013-.02 0-.041 0-.063.01l-.002-.011c.004-.013.01-.025.016-.037.008-.005.01-.011.009-.02.027-.04.052-.08.08-.12.005-.008-.005-.017-.017-.009l-.017.01a.08.08 0 0 1-.042.012c-.024.004-.04.015-.042.037-.028-.018-.054-.01-.08.026 0-.023-.001-.044-.027-.042.008-.016.003-.028-.015-.035-.017-.024-.042-.046-.06-.071-.002-.003-.004-.005-.006-.005z" fill="#000"/><path d="M9.653 3.288c-.005-.002-.013.002-.017.009-.004.008-.003.017.002.02.003.001.008 0 .011-.006l.003-.003v-.001c.004-.008.006-.016 0-.018zM9.173 3.27c.006-.002.012.002.016.01.003.008.003.016-.002.019-.005.002-.01-.003-.014-.01-.003-.009-.005-.016 0-.019zM9.604 3.373a.005.005 0 1 0 0 .011.005.005 0 0 0 .005-.005.006.006 0 0 0-.005-.006zM9.218 3.358a.006.006 0 0 0-.005.006c0 .003.002.005.005.005a.005.005 0 0 0 .006-.005.005.005 0 0 0-.006-.006zM9.63 3.345a1.8 1.8 0 0 0-.433-.018c-.002 0-.002.009.001.008.073-.004.145-.005.216-.002.071.002.142.009.213.02.004 0 .005-.007.003-.008z" fill="#F7DB17"/><path d="M9.196 3.32a2.227 2.227 0 0 1 .435.018l.01-.017h-.008c-.007-.004-.008-.016-.002-.027.006-.01.016-.016.023-.012.004.002.006.006.006.011l.046-.07c-.02.013-.032.02-.057.023-.027.003-.04.012-.036.028.003.015-.006.012-.02.004-.029-.017-.051.005-.063.032-.008.017-.016.016-.016-.002v-.02c-.001-.02-.008-.027-.02-.021-.016.006-.017.001-.013-.007.003-.005.009-.011.007-.02 0-.007-.006-.01-.014-.01-.016-.024-.043-.048-.06-.072l-.055.067c-.008 0-.014.003-.015.01-.002.008.004.014.007.02.003.008.002.013-.013.005-.012-.006-.018 0-.021.02a.343.343 0 0 0-.002.02c-.002.019-.01.019-.016.001-.01-.027-.032-.051-.063-.036-.014.007-.02.009-.017-.006.003-.016-.01-.026-.036-.03-.024-.005-.035-.014-.054-.027l.037.067a.011.011 0 0 1 .005-.006c.008-.003.018.003.023.015.005.01.003.022-.005.026h-.003l.01.016zM9.612 3.423l-.002.001c-.005.002-.008.006-.014.012a.17.17 0 0 1-.02.017c-.002 0-.003.002-.005 0-.001-.003 0-.004.001-.005a.174.174 0 0 0 .028-.025 1.41 1.41 0 0 0-.027-.004.092.092 0 0 0-.022.008.038.038 0 0 0-.013.012c-.001.001-.002.002-.005 0-.002-.001-.001-.002 0-.004a.043.043 0 0 1 .015-.013.082.082 0 0 1 .01-.005l-.03-.003a.04.04 0 0 0-.012.01c0 .001-.002.002-.004 0-.002-.001-.002-.002 0-.004a.046.046 0 0 1 .006-.007 1.77 1.77 0 0 0-.023-.002.032.032 0 0 0-.01.012c0 .001 0 .002-.003.001s-.002-.002-.002-.004a.04.04 0 0 1 .005-.007l.002-.003a1.869 1.869 0 0 0-.034-.002.032.032 0 0 0-.011.01c0 .002-.002.003-.004.002-.003-.002-.002-.003-.001-.005a.032.032 0 0 1 .006-.007l.002-.001-.035-.002-.035-.001.002.002a.039.039 0 0 1 .006.007c0 .002.001.003-.001.004-.003.002-.004 0-.005 0a.028.028 0 0 0-.004-.007.033.033 0 0 0-.006-.005l-.002-.001h-.033a.034.034 0 0 1 .007.011c0 .001.001.003-.002.004-.002 0-.003 0-.004-.002a.033.033 0 0 0-.01-.013h-.022l.001.001a.042.042 0 0 1 .006.008s.002.002-.001.004c-.003.001-.003 0-.004-.001a.04.04 0 0 0-.011-.012l-.032.001a.084.084 0 0 1 .011.006.042.042 0 0 1 .015.015c0 .001.001.003-.002.004-.002.002-.003 0-.004-.001a.037.037 0 0 0-.012-.013.097.097 0 0 0-.024-.01l-.025.001a.175.175 0 0 0 .027.029s.002.002 0 .004-.003.001-.005 0a.17.17 0 0 1-.02-.018l-.011-.014a.153.153 0 0 0-.055-.016c-.015-.002-.03-.002-.043-.01a.096.096 0 0 0 .01.023.039.039 0 0 0 .02.014l.002.003a.077.077 0 0 0 .015.037c.005.006.01.011.017.015a.095.095 0 0 1-.015-.024.077.077 0 0 1-.006-.04c0-.002 0-.004.003-.003.003 0 .003.002.003.003a.07.07 0 0 0 .006.037.103.103 0 0 0 .026.035c.002.001 0 .006-.003.005a.075.075 0 0 1-.036-.024.081.081 0 0 1-.015-.038.045.045 0 0 1-.021-.017.094.094 0 0 1-.01-.02.187.187 0 0 0 .039.11.072.072 0 0 0 .023.022c.01.004.01.01-.002.01h-.01a.155.155 0 0 1 .022.01c.012.008.02.017.02.027 0 .002 0 .003-.002.003-.003 0-.004-.001-.004-.003 0-.008-.007-.015-.017-.022a.19.19 0 0 0-.038-.016l-.044-.002a.105.105 0 0 0 .045.022.08.08 0 0 1 .022.01c.006.003.012.009.016.014 0 .001.002.003 0 .005-.003.001-.004 0-.005-.001a.054.054 0 0 0-.015-.014.075.075 0 0 0-.02-.008.135.135 0 0 1-.05-.026.115.115 0 0 0 .076.069c.003 0 .005 0 .006.002h.001a.345.345 0 0 0 .025.006l.025.004c.002 0 .003 0 .003.004 0 .003-.002.003-.004.002-.009 0-.016-.002-.025-.004a.42.42 0 0 1-.016-.004h-.01c-.023.001-.041.02-.044.047v.001a.163.163 0 0 1 .027-.02c.011-.005.023-.008.035-.005.001 0 .003.001.002.004 0 .003-.002.003-.004.002-.01-.003-.02 0-.03.005a.182.182 0 0 0-.031.023.054.054 0 0 1-.021.035c.005.004.01.007.015.005l.025-.009a.099.099 0 0 1 .028-.004c.001 0 .003 0 .003.003s-.002.003-.003.003a.09.09 0 0 0-.026.004.252.252 0 0 0-.021.008.117.117 0 0 0 .064-.005L9.2 3.7l.016-.007a.072.072 0 0 1 .018-.005c.001 0 .003 0 .003.003s-.001.003-.003.003a.038.038 0 0 0-.021.007c0 .002-.007.005-.013.009a.07.07 0 0 0-.028.033.115.115 0 0 0-.006.021.143.143 0 0 1 .02-.028.1.1 0 0 1 .034-.024c.001-.001.003-.001.004.001 0 .003 0 .004-.002.004a.092.092 0 0 0-.032.023.142.142 0 0 0-.022.032l-.004.008a.219.219 0 0 1 .032-.028c.013-.01.027-.014.04-.011.002 0 .003 0 .003.003-.001.003-.003.003-.004.003-.011-.003-.024.002-.036.01a.262.262 0 0 0-.036.033.114.114 0 0 0 .052-.006c.009-.002.018-.012.023-.014a.125.125 0 0 1 .016-.015c.001 0 .003-.002.005 0 .001.003 0 .004-.001.005a.101.101 0 0 0-.019.019s-.001.002-.002.001c-.006.007-.015.015-.017.023-.007.02-.004.035-.014.054a.059.059 0 0 0 .017-.012.066.066 0 0 0 .013-.021.069.069 0 0 1 .043-.04c.001-.001.003-.002.004 0 0 .004-.001.004-.002.005a.065.065 0 0 0-.039.037.071.071 0 0 1-.015.023.06.06 0 0 1-.015.012h.012c.007 0 .02-.006.027-.01a.05.05 0 0 0 .015-.02c0-.001.001-.003.004-.001.003.001.002.003.002.004a.05.05 0 0 1-.036.03c.014 0 .029-.003.044-.008.006-.002.009-.016.013-.02a.092.092 0 0 1 .01-.014.041.041 0 0 1 .017-.012c.001 0 .003-.001.004.002 0 .003 0 .003-.002.004a.036.036 0 0 0-.014.01.086.086 0 0 0-.01.013c0 .007-.005.022-.006.03a.196.196 0 0 0 .003.058.204.204 0 0 1 .016-.018V3.91a.302.302 0 0 0 .006-.063c0-.002 0-.003.003-.004.003 0 .003.002.003.003v.033a.29.29 0 0 1-.005.025c.006-.004.006-.004.008-.01a.071.071 0 0 0 .007-.044c0-.001 0-.003.002-.003.003 0 .004 0 .004.002a.067.067 0 0 1 0 .024.083.083 0 0 1-.005.02.244.244 0 0 1 .018-.012.275.275 0 0 1 .002-.04c0-.002.001-.003.005-.003.004.001.004.003.003.005a.319.319 0 0 0-.003.04c0 .008.004.018.011.023a.04.04 0 0 1 .017.027.171.171 0 0 0 .002-.039.09.09 0 0 0-.01-.035c0-.002-.001-.003.002-.004.002-.002.003 0 .004 0 .005.012.009.024.01.039a.18.18 0 0 1-.003.046c.01-.007.037-.023.036-.055a.033.033 0 0 0-.003-.007c0-.002 0-.003.002-.004.003-.002.003 0 .004.001a.042.042 0 0 1 .004.018l.005-.003.008.005a.07.07 0 0 1-.001-.041c0-.002 0-.003.003-.002.003 0 .003.002.002.003a.063.063 0 0 0-.002.022c0 .008.003.016.006.023v.003a.136.136 0 0 1 .007.006.298.298 0 0 1 0-.057c0-.001 0-.003.003-.002.003 0 .003.002.003.003a.305.305 0 0 0 0 .064c.006.006.01.012.014.02a.196.196 0 0 0 .009-.059c0-.007-.006-.022-.005-.03a.088.088 0 0 0-.01-.014.035.035 0 0 0-.012-.01c-.002-.001-.003-.002-.002-.005.002-.002.003-.002.004-.001.006.002.011.007.016.012l.009.016c.005 0 .007.017.013.02.014.006.028.01.043.012a.05.05 0 0 1-.034-.033c0-.001-.001-.003.001-.004.003 0 .004 0 .004.002a.049.049 0 0 0 .014.02.084.084 0 0 0 .038.014.063.063 0 0 1-.027-.037.066.066 0 0 0-.036-.04c-.001-.001-.003-.002-.002-.004.002-.003.003-.003.004-.002.01.004.018.01.025.017a.071.071 0 0 1 .015.027c.003.009.006.016.011.022.004.005.01.01.017.014-.01-.02-.005-.036-.01-.056-.003-.012-.021-.027-.017-.031.004-.005.012.009.023.013a.113.113 0 0 0 .051.01.257.257 0 0 0-.033-.036c-.011-.009-.023-.014-.034-.013-.001 0-.003 0-.003-.002 0-.003.001-.004.003-.004.013-.002.025.004.037.014.01.009.019.018.029.03l-.003-.008a.147.147 0 0 0-.02-.033.096.096 0 0 0-.03-.025c0-.001-.002-.002 0-.004 0-.003.002-.002.003-.002a.101.101 0 0 1 .032.027c.008.009.014.02.019.03a.108.108 0 0 0-.006-.022.071.071 0 0 0-.017-.028c-.006-.006-.02-.014-.02-.018l-.005-.003a.07.07 0 0 0-.016-.005c-.001 0-.003 0-.002-.004 0-.003.002-.002.003-.002.005 0 .011.003.018.006l.009.006c.005 0 .013.005.02.008.019.008.041.014.063.01a.243.243 0 0 0-.021-.01.09.09 0 0 0-.025-.006c-.002 0-.003 0-.003-.003s.002-.003.003-.003c.01 0 .018.003.027.007l.024.01c.006.004.01 0 .016-.003a.054.054 0 0 1-.018-.036.181.181 0 0 0-.03-.026c-.01-.006-.02-.01-.03-.007 0 0-.002 0-.003-.002 0-.003 0-.004.002-.004a.045.045 0 0 1 .035.008.159.159 0 0 1 .025.021v-.001c0-.026-.018-.047-.04-.05-.007 0-.018.002-.017-.003 0-.006.01-.004.022-.007a.115.115 0 0 0 .083-.063.133.133 0 0 1-.053.022.074.074 0 0 0-.021.007.058.058 0 0 0-.016.012c0 .001-.002.003-.004 0-.002-.001-.001-.002 0-.004a.064.064 0 0 1 .017-.013.082.082 0 0 1 .023-.008.13.13 0 0 0 .046-.018l-.044-.002a.202.202 0 0 0-.04.014c-.01.005-.017.012-.018.02 0 .002 0 .003-.004.003-.003 0-.003-.002-.002-.003 0-.011.01-.02.022-.026a.155.155 0 0 1 .023-.009h-.01c-.011 0-.01-.007-.002-.01a.071.071 0 0 0 .025-.02.2.2 0 0 0 .048-.106.092.092 0 0 1-.012.018.046.046 0 0 1-.022.015.081.081 0 0 1-.018.038.072.072 0 0 1-.037.02c-.002 0-.004-.003-.002-.005a.098.098 0 0 0 .028-.032.072.072 0 0 0 .008-.037c0-.001 0-.003.003-.003s.003.001.003.003a.077.077 0 0 1-.009.04.095.095 0 0 1-.017.023.061.061 0 0 0 .018-.013.078.078 0 0 0 .018-.037l.002-.002a.04.04 0 0 0 .02-.013.095.095 0 0 0 .013-.022c-.013.006-.029.005-.044.006a.151.151 0 0 0-.053.013z" fill="#F7DB17"/><path d="M9.607 3.406a1.893 1.893 0 0 0-.392-.015c-.002 0-.002.003-.002.005s.004.003.012.003a1.99 1.99 0 0 1 .38.015c.003.001.007-.008.002-.008z" fill="#F7DB17"/><path fill-rule="evenodd" clip-rule="evenodd" d="M9.217 3.385a1.514 1.514 0 0 1 .388.016l.004-.012a.012.012 0 0 1-.006.001.012.012 0 1 1 .011-.016l.007-.016a1.799 1.799 0 0 0-.417-.017l.005.016a.012.012 0 1 1 .006.018l.002.01zm.295-.029a.012.012 0 1 0-.001.024.012.012 0 0 0 0-.024zm0 .006a.006.006 0 0 0 0 .012.006.006 0 0 0 .005-.006.006.006 0 0 0-.005-.006zm-.103-.012a.012.012 0 1 0 0 .024.012.012 0 0 0 0-.024zm0 .006a.006.006 0 1 0-.001.011.006.006 0 0 0 0-.011zm-.102-.008a.012.012 0 1 0-.001.024.012.012 0 0 0 0-.024zm0 .006a.006.006 0 0 0-.006.006c0 .003.002.005.005.005a.006.006 0 0 0 0-.011z" fill="#F7DB17"/><path d="M9.416 3.279a.03.03 0 0 0-.01-.017.033.033 0 0 0-.017-.01c-.003 0-.003-.005 0-.006a.03.03 0 0 0 .015-.012.064.064 0 0 0 .01-.024c0-.003.007-.003.007 0a.042.042 0 0 0 .008.02.045.045 0 0 0 .018.014c.003.001.002.006 0 .007a.021.021 0 0 0-.014.007.056.056 0 0 0-.01.021c-.002.003-.007.003-.007 0zm.003-.011a.054.054 0 0 1 .009-.014.03.03 0 0 1 .01-.008.052.052 0 0 1-.02-.023.063.063 0 0 1-.008.015.043.043 0 0 1-.011.01.039.039 0 0 1 .02.02zM9.477 3.76l-.05.017c-.002 0-.003.002-.004-.002-.002-.003 0-.004.002-.004l.05-.018c.001 0 .003-.001.004.002s0 .004-.002.004zm.007-.031l-.06.029s-.002.001-.004-.002 0-.004.002-.005l.059-.029c.001 0 .003-.002.004.002.002.003 0 .004-.001.005zm-.175-.013l.057.033c.002.001.003.002.001.005s-.003.002-.005.001l-.056-.033c-.002-.001-.003-.002-.001-.005.001-.003.003-.002.004-.001zm.004.03l.049.022c.001.001.003.002.002.005-.002.003-.004.002-.005.002l-.049-.022c-.001 0-.003-.001-.002-.005.002-.003.003-.002.005-.001zm.02.043a.089.089 0 0 0 .034.004.023.023 0 0 0 .019-.013l.002-.047a.11.11 0 0 1-.03-.005.027.027 0 0 1-.018-.018.055.055 0 0 1 .001-.031c0-.002.001-.004.005-.003.003.001.003.003.002.005a.049.049 0 0 0-.001.027.02.02 0 0 0 .014.013.113.113 0 0 0 .059.002.037.037 0 0 0 .018-.011.022.022 0 0 0 .006-.017.011.011 0 0 0-.004-.007.024.024 0 0 0-.012-.005c-.005 0-.01 0-.014.002a.14.14 0 0 1-.007 0c-.002 0-.004 0-.004-.003s.001-.004.003-.004h.007l.015-.002a.03.03 0 0 1 .016.006.018.018 0 0 1 .008.013.03.03 0 0 1-.008.022.044.044 0 0 1-.023.013.113.113 0 0 1-.026.003l-.002.046v.002c.004.008.01.012.018.014.009.002.02 0 .034-.002.002 0 .004 0 .004.003s0 .004-.003.004a.095.095 0 0 1-.037.002.03.03 0 0 1-.02-.014.03.03 0 0 1-.02.012.092.092 0 0 1-.038-.004c-.002 0-.003-.001-.002-.005 0-.003.002-.003.004-.002zm.033.021l.039.001c.002 0 .003 0 .003.004 0 .003-.002.003-.003.003h-.039c-.002 0-.003 0-.003-.004s.001-.004.003-.004zM9.434 3.518a.258.258 0 0 1 .042-.027.068.068 0 0 1 .034-.009c.002 0 .004 0 .004.004s-.002.003-.004.003a.063.063 0 0 0-.031.008.241.241 0 0 0-.04.027c-.002 0-.003.002-.006-.001-.002-.003 0-.004.001-.005zm-.058.003a.193.193 0 0 0-.041-.032.07.07 0 0 0-.035-.01c-.001 0-.003 0-.003-.004 0-.003.001-.004.003-.004.01 0 .024.004.038.012.015.008.03.02.043.033.002.001.003.002 0 .005-.002.002-.004.001-.005 0zm-.024.095a.09.09 0 0 1 .014-.02.127.127 0 0 1 .017-.016c.002 0 .003-.002.005 0 .002.004 0 .005 0 .006a.119.119 0 0 0-.017.015.083.083 0 0 0-.013.018c0 .002-.001.004-.004.002s-.003-.003-.002-.005zm.042-.164a.07.07 0 0 1 .01.022.085.085 0 0 1 .003.026c0 .008 0 .016-.002.024a.053.053 0 0 1-.01.023.027.027 0 0 1-.032.01c.003.009.004.02 0 .029a.004.004 0 0 1-.005.001.289.289 0 0 0-.024-.011.14.14 0 0 1-.023-.012.053.053 0 0 1-.014-.013.037.037 0 0 1-.007-.016.078.078 0 0 1-.002-.017.221.221 0 0 1-.033-.025c0-.001-.002-.002 0-.005.003-.002.004 0 .006 0a.219.219 0 0 0 .033.024.11.11 0 0 1 .035.013.19.19 0 0 1 .03.02l.002.001.002.002c.005.003.01.003.015.002a.02.02 0 0 0 .011-.007.046.046 0 0 0 .01-.02.103.103 0 0 0 0-.023c.001-.01 0-.017-.002-.025a.064.064 0 0 0-.009-.02s-.002-.002.001-.004.004 0 .005 0zm-.04.099a.178.178 0 0 0-.029-.02.108.108 0 0 0-.03-.01c0 .004 0 .009.002.013a.03.03 0 0 0 .006.013.048.048 0 0 0 .012.01.14.14 0 0 0 .021.012.157.157 0 0 1 .021.01.053.053 0 0 0-.002-.026v-.002zm.078-.094a.062.062 0 0 0-.01.02.079.079 0 0 0-.005.024.103.103 0 0 0 0 .022c0 .008.003.015.007.021a.02.02 0 0 0 .012.009c.004.001.01 0 .014-.001l.003-.002.002-.002a.179.179 0 0 1 .031-.017.112.112 0 0 1 .036-.01.209.209 0 0 0 .035-.021c.001-.001.002-.002.005 0 .002.003.001.004 0 .005a.237.237 0 0 1-.035.022.078.078 0 0 1-.003.017.038.038 0 0 1-.009.016.053.053 0 0 1-.015.011.146.146 0 0 1-.023.01.15.15 0 0 0-.025.01c-.001 0-.004 0-.004-.002-.004-.01-.002-.02.001-.03a.028.028 0 0 1-.015 0 .027.027 0 0 1-.016-.01.053.053 0 0 1-.008-.025v-.023c0-.01.002-.02.005-.027a.07.07 0 0 1 .012-.02c0-.002.002-.004.005-.001.002.002.001.003 0 .005zm.087.072a.107.107 0 0 0-.03.008.177.177 0 0 0-.03.018l-.001.002a.052.052 0 0 0-.005.026.32.32 0 0 1 .022-.009.139.139 0 0 0 .022-.01.047.047 0 0 0 .013-.009.031.031 0 0 0 .007-.013.067.067 0 0 0 .003-.013z" fill="#000"/><path fill-rule="evenodd" clip-rule="evenodd" d="M9.488 3.533a.02.02 0 1 0-.001.041.02.02 0 0 0 .001-.04zm0 .007a.014.014 0 1 0-.001.028.014.014 0 0 0 0-.028zm0 .005a.008.008 0 1 0 0 .017.008.008 0 0 0 0-.017zm-.162-.018c.011 0 .02.01.02.022a.02.02 0 1 1-.02-.021zm0 .007a.014.014 0 1 1-.002.028.014.014 0 0 1 .002-.028zm0 .006c.004 0 .008.004.007.008a.008.008 0 1 1-.008-.008z" fill="#000"/><path d="M11.71 3.448l-.003.001-.775-.886-1.019.584-.172 2.064c.499.041.986.123 1.459.244l.51-2.007z" fill="#171796"/><path d="M10.114 3.575c.035-.008.07-.01.104.01a.072.072 0 0 1 .033.025.452.452 0 0 1 .049-.034.266.266 0 0 1 .072-.04.302.302 0 0 1 .11-.033.508.508 0 0 1 .116-.005.21.21 0 0 1 .093.028l.08.04a.365.365 0 0 0 .268.058c.018-.004.028.006.01.018-.134.082-.24.009-.329-.024a.651.651 0 0 1 .086.069.463.463 0 0 0 .14.097.338.338 0 0 0 .205.029c.012-.002.017 0 .017.005 0 .004-.001.012-.008.017a.194.194 0 0 1-.103.031.404.404 0 0 1-.21-.054c-.055-.03-.091-.065-.134-.097a.303.303 0 0 0-.12-.057.24.24 0 0 0-.118.003c.01.002.02.007.025.014.018.01.042.016.077.02.018.002.012.014-.016.029a.071.071 0 0 1-.066.03c-.04.026-.054.01-.067-.007a.117.117 0 0 1-.01.032.024.024 0 0 1 0 .017c.006.01.01.02.007.03.001.005.003.01.009.016a.04.04 0 0 1 .015.026c0 .007.004.013.01.018.007.007.015.012.023.022.024.009.035.027.039.05.018.007.025.02.029.035.01.005.02.01.025.019.037 0 .073 0 .106.003.032.004.057.023.08.049a.125.125 0 0 0 .048 0 .167.167 0 0 1 .053-.015.294.294 0 0 1 .093.003c.02.005.036.015.05.03.018.022.047.019.071.008a.11.11 0 0 1 .096.001.094.094 0 0 1 .044-.006.051.051 0 0 1 .04-.018c.022 0 .038.003.034.032-.001.007-.006.015-.012.017-.01.023-.03.03-.054.027a.05.05 0 0 1-.02.034c.012.035.001.049-.025.048-.005.01-.013.017-.027.015a.056.056 0 0 1-.035.02c.001.01.005.014.011.024.018.027-.008.038-.033.038a.114.114 0 0 1 .005.053c.025.015.028.031.005.047.017.029.01.05-.02.066-.001.016-.003.033-.014.042-.007.006-.018.008-.01.02.012.02.01.047-.01.048-.004 0-.007 0-.008.006 0 .003-.002.005-.005.007a.388.388 0 0 0-.063.042c-.003.002-.006.003-.01 0a.388.388 0 0 1-.069.094.059.059 0 0 1-.04.047.016.016 0 0 1-.012.014c.012.013.017.026.005.039a.119.119 0 0 1-.053.036c-.04.01-.066.008-.082-.007-.014-.014-.009-.024 0-.028-.024.002-.03-.012-.029-.03.002-.008.005-.007.013-.007.014 0 .026-.007.039-.01a.075.075 0 0 1 .02-.023c.004-.028.022-.044.046-.053a.143.143 0 0 0 .057-.05l.034-.059a.05.05 0 0 1-.01-.03.059.059 0 0 1-.023-.021c-.018-.002-.025-.01-.028-.02-.004 0-.008 0-.013-.002-.008.005-.017.01-.028.01a.277.277 0 0 1-.044.036c-.005.015-.016.02-.028.023-.037.004-.058.049-.078.067-.008.006-.013.017-.017.03-.002.023-.006.042-.019.042-.011 0-.013-.002-.014-.003h-.015c.01.012.012.025.003.037-.01.012-.022.015-.035.016a.144.144 0 0 1-.066-.008c-.018-.008-.02-.019-.02-.03-.013-.006-.016-.012-.014-.018.002-.008.009-.013.018-.01a.1.1 0 0 1 .024-.008.21.21 0 0 1 .074-.057.121.121 0 0 1 .027-.025c.004-.022.018-.04.037-.057a.08.08 0 0 1 .008-.024v-.012c-.006-.013-.01-.03-.005-.044a.054.054 0 0 1-.002-.021c-.044.025-.057.017-.062-.004-.016.013-.031.02-.042 0-.015.005-.03.01-.046.004a.105.105 0 0 1-.032.008.124.124 0 0 1-.02.028c0 .02-.006.039-.02.058a.366.366 0 0 1-.027.063.04.04 0 0 1-.005.02c.004.024-.004.036-.017.042a.097.097 0 0 1-.017.029l-.001.01c.005.013.006.027-.008.042a.41.41 0 0 1-.037.02c-.014.008-.027.004-.04 0-.021-.008-.02-.015-.017-.022a.026.026 0 0 1-.02 0l-.014-.01c-.005-.009-.007-.017.005-.023a.096.096 0 0 0 .034-.022c.004-.008.01-.015.016-.017.007-.015.015-.026.026-.029.008-.02.017-.04.028-.06.003-.005.006-.01.004-.017 0-.005 0-.01.005-.013.002-.002.007-.004.001-.007a.055.055 0 0 1 .007-.047c.011-.017.024-.058.012-.078a.113.113 0 0 1-.003-.035c-.004 0-.007 0-.011-.003-.01-.005-.017 0-.024.01-.005.013-.01.024-.016.024-.004.034-.02.06-.038.066a.118.118 0 0 0-.004.046c.002.016 0 .027-.008.03-.008.001-.016.006-.02.02-.002.004-.004.008-.004.013.012.012.008.028-.003.039-.025.025-.056.02-.09.011-.024-.01-.03-.02-.027-.03-.034-.003-.027-.029 0-.036a.14.14 0 0 0 .076-.056c.002-.033.01-.056.027-.06a.154.154 0 0 1 .017-.055.08.08 0 0 0 .01-.053c-.018-.012-.019-.024-.001-.037.005-.003.005-.006-.002-.01-.012-.001-.01-.012-.01-.022 0-.006-.003-.008-.008-.009-.025-.003-.02-.014-.008-.025.004-.005.007-.013.003-.016-.004-.002-.007-.011-.008-.019-.015-.012-.009-.024 0-.035a.044.044 0 0 1-.014-.031c-.029-.002-.04-.016-.024-.038a.14.14 0 0 1 .025-.026c.007-.01.013-.021.01-.032-.008-.021.019-.037.041-.054a.036.036 0 0 1-.005-.016c-.013-.013-.01-.024.005-.035a.043.043 0 0 1-.005-.017c-.032.006-.032-.013-.017-.043-.019-.011-.013-.03.02-.059 0-.006.002-.011.004-.015a.078.078 0 0 0-.04.012c-.013.009-.026.008-.039.002a.06.06 0 0 0-.017-.016.025.025 0 0 1-.009-.026c-.037.003-.044-.025-.022-.042a.069.069 0 0 0 .025-.031c.01-.026.032-.044.053-.062 0-.007.002-.014.004-.022a.063.063 0 0 0-.03-.011.047.047 0 0 0-.023-.026c-.007-.004-.01-.008-.005-.018-.02-.017-.015-.028-.01-.039z" fill="#000"/><path d="M10.795 4.542h-.007a.335.335 0 0 1-.032.028c-.01-.01-.023.001-.01.008l-.007.004c-.004.012-.008.017-.021.02h-.006a.136.136 0 0 1 .003-.031l-.001-.003c-.002 0-.003 0-.003.002a.169.169 0 0 0-.003.017v.016c-.033.01-.052.045-.075.07a.063.063 0 0 0-.018.031c-.002.007-.002.036-.009.037h-.01c-.004-.006-.008-.006-.014 0h-.04c-.009.01.014.006.026.014.006.003.008.01.006.019-.011.027-.074.018-.095.007-.01-.005-.01-.01-.01-.02h.014a.061.061 0 0 0 .022-.008c.002 0 .004-.002.002-.006-.003-.004-.005-.003-.007-.002a.051.051 0 0 1-.018.006l-.02.001h-.002c-.003-.002-.006-.004-.005-.007.002-.002.008 0 .01 0a.115.115 0 0 1 .028-.008.214.214 0 0 1 .074-.058c.01-.011.02-.02.031-.028.004-.026.017-.04.036-.057a.09.09 0 0 1 .01-.028V4.55c-.007-.014-.011-.026-.005-.041a.06.06 0 0 1-.002-.03v-.005a.304.304 0 0 1 .034-.024c0 .01 0 .022.002.033a.053.053 0 0 0-.008.01.021.021 0 0 0-.003.012s0 .002.002.002.002-.001.002-.002c0-.003 0-.006.002-.01a.047.047 0 0 1 .008-.009v-.001c.01 0 .02-.006.03-.014a.247.247 0 0 0 .027-.026v.043a.094.094 0 0 0-.022.028v.003h.003a.092.092 0 0 1 .02-.027c.002 0 .002-.001.002-.002a.126.126 0 0 1 .037-.021.114.114 0 0 0 0 .036.06.06 0 0 0 .022.037z" fill="#F7DB17"/><path d="M10.17 4.178c.001-.003.005-.007.007-.007a.24.24 0 0 1 .035-.047c0-.001.001-.002.003 0v.003a.233.233 0 0 0-.033.047v.006c.002.013.004.02.01.028l.002-.001a.056.056 0 0 1 .01-.016.067.067 0 0 1 .018-.014.07.07 0 0 0 .02-.026s0-.002.002-.001c.002 0 .002.002.001.003a.065.065 0 0 1-.021.027.062.062 0 0 0-.018.014.049.049 0 0 0-.008.013c.003.002.004.008.001.012-.008.013-.019.02-.002.03-.001.01.002.016.007.021.004.004.004.018-.006.028-.008.009-.002.006.007.007l.002.001a.17.17 0 0 1 .024-.032.08.08 0 0 0 .016-.02.05.05 0 0 0 .006-.02c0-.002 0-.003.002-.003s.002.002.002.003a.058.058 0 0 1-.006.022.087.087 0 0 1-.016.021.15.15 0 0 0-.024.03c.01.007.007.019.009.03l.006.001a.962.962 0 0 0 .006-.01l.01-.016c0-.001.001-.002.003 0 .002 0 .001.001 0 .002l-.01.016-.005.01c.006.006.006.015-.002.023-.016.012-.011.016.004.025a.095.095 0 0 1-.001.038v.013l.002.011c0 .002 0 .003-.002.003s-.002-.001-.002-.002l-.002-.012v-.003l-.002.006c-.01.023-.022.042-.024.068-.026.007-.022.032-.024.054a.158.158 0 0 1-.076.06c-.006.003-.021.006-.023.014 0 .003.01.009.017.005.018-.017.027-.007.006.01-.001.004 0 .007.003.01.02.017.065.023.086.01.016-.01.024-.021.01-.036.001-.021.01-.042.032-.048.002-.004.002-.013 0-.018a.14.14 0 0 1 .006-.052c0-.002.002-.004.006-.005.008-.002.024-.026.03-.05l.002-.015c.002-.009.005-.01.009-.005.004-.005.004-.009.006-.015.009-.012.021-.022.036-.015a.121.121 0 0 1-.003-.075c0-.002.002-.004.005-.004l.012-.03.013-.03h.003a2.69 2.69 0 0 0-.011.033c-.005.009-.01.019-.013.029v.004a.11.11 0 0 0 .005.077l.002.003c.007.004.006.005.006.014 0 .008 0 .015.003.023.013.026-.001.068-.014.089a.044.044 0 0 0-.006.034c.008.008.003.016-.004.021v.006a.034.034 0 0 1-.007.022c-.01.02-.02.042-.028.063-.017.005-.02.014-.026.03-.01.002-.01.005-.015.014a.109.109 0 0 1-.035.023c-.012.006 0 .01.008.016.007.006.017-.006.023-.015.006-.01.013-.007.009 0a.08.08 0 0 0-.01.028c-.002.007.025.012.03.012.015.001.035-.015.048-.023.01-.01.009-.02.004-.032v-.001a.08.08 0 0 1-.02-.002.138.138 0 0 1-.022-.008s-.002 0-.001-.002c0-.002.002-.002.003-.002a.127.127 0 0 0 .022.008.076.076 0 0 0 .019.001v-.01a.11.11 0 0 0 .02-.032c.017-.008.017-.017.015-.036a.036.036 0 0 0 .004-.02.41.41 0 0 0 .03-.065.082.082 0 0 0 .018-.059c.002-.008.005-.013.011-.013a.161.161 0 0 0 .012-.02h.003v-.002a.066.066 0 0 1 .004-.013.032.032 0 0 1 .006-.009.037.037 0 0 0 .003-.018.046.046 0 0 0-.007-.018.02.02 0 0 1-.004-.008c-.001-.003 0-.006.002-.009h.003c.002.002.001.003 0 .003-.001.002-.002.004-.001.005a.02.02 0 0 0 .004.006.05.05 0 0 1 .007.02c0 .007 0 .014-.004.021a.029.029 0 0 0-.005.009.067.067 0 0 0-.004.012v.001c.01 0 .018-.003.028-.008a.058.058 0 0 0 .014-.018.077.077 0 0 0 .008-.023s0-.002.003-.002c.002 0 .002.002.002.003a.082.082 0 0 1-.009.024.063.063 0 0 1-.01.015c.014.005.028 0 .042-.004a.177.177 0 0 1 0-.049.064.064 0 0 1 .013-.03h.003c.002.002.001.002 0 .003a.06.06 0 0 0-.011.028.165.165 0 0 0 0 .047c.006.01.01.017.022.01l.013-.01.003-.005a.532.532 0 0 1 .072-.062h.002c.002.003 0 .003 0 .004a.488.488 0 0 0-.066.056v.01c.002.014.004.023.024.015a.104.104 0 0 0 .023-.011.051.051 0 0 1 .013-.007.325.325 0 0 1 .039-.026.12.12 0 0 1 .005-.022.167.167 0 0 1 .03-.052.096.096 0 0 0 .044-.047c0-.001 0-.002.003-.002.002.001.001.002 0 .003a.098.098 0 0 1-.044.05.164.164 0 0 0-.029.05.112.112 0 0 0-.005.019h.002l-.001.004h-.001a.112.112 0 0 0 0 .033c.01 0 .019-.006.028-.013a.27.27 0 0 0 .029-.03.07.07 0 0 1 .01-.02.04.04 0 0 1 .016-.014l.003.001-.001.003a.034.034 0 0 0-.015.012.068.068 0 0 0-.009.02v.044l.001-.001a.136.136 0 0 1 .038-.02c.001 0 .003.001.002.003a.117.117 0 0 0 0 .038.056.056 0 0 0 .017.032.11.11 0 0 1 .02-.025.386.386 0 0 0 .021-.02l.009-.008s.001-.002.003 0v.003l-.01.008a.391.391 0 0 0-.009.009.122.122 0 0 0-.011.01V4.531a.07.07 0 0 0 .024.002c.002.018.004.02.02.021v-.018c0-.007.002-.014.005-.02 0-.001 0-.002.002-.001.002 0 .002.001.002.002a.078.078 0 0 0-.005.02.12.12 0 0 0 0 .017.046.046 0 0 0 .027.025.07.07 0 0 0 .008-.017.055.055 0 0 0 .002-.02s0-.002.002-.002c.003 0 .003.001.003.002 0 .007 0 .014-.003.02a.08.08 0 0 1-.01.021l-.001.001c0 .008.002.013.004.019a.126.126 0 0 1 .006-.012.067.067 0 0 1 .012-.015c0-.001.001-.002.003 0v.003a.066.066 0 0 0-.011.014.157.157 0 0 0-.007.014.081.081 0 0 0 .005.008c-.024.042-.05.1-.099.12-.025.01-.036.022-.04.049a.085.085 0 0 0-.023.025c-.016.005-.03.013-.049.013 0 .01.004.016.016.016.021-.01.026-.013.028-.011.003.002-.003.017-.02.03-.004.002-.004.003-.002.006.015.024.055.015.077.01a.1.1 0 0 0 .05-.038c.003-.007-.003-.016-.01-.024-.03.005-.025-.024.001-.012.01-.003.01-.003.013-.013.023-.009.033-.019.038-.044a.438.438 0 0 0 .065-.082c.005-.006.007-.016.006-.021a.045.045 0 0 0 .008-.017.067.067 0 0 0 .002-.019s0-.002.002-.002.002.001.003.002c0 .007-.001.013-.003.02a.217.217 0 0 1-.005.015c.002.003.002.006.006.005.02-.016.041-.028.063-.042.002-.01.008-.014.017-.014.004 0 .005-.001.006-.005.006-.012-.001-.021-.007-.032-.006-.016.004-.02.014-.028.011-.007.01-.029.01-.04h.001l-.001-.007a.1.1 0 0 0-.004-.013l.001-.003c.002 0 .003 0 .003.002l.004.013v.005c.011-.005.022-.011.026-.022.003-.013-.003-.025-.01-.036a.194.194 0 0 1-.024.01h-.002v-.003a.342.342 0 0 0 .029-.013.051.051 0 0 0 .012-.01c.008-.01-.012-.02-.02-.025h.001l-.03-.028V4.35h.003l.028.025a.112.112 0 0 0-.004-.046l-.005-.014a.045.045 0 0 1-.019-.017.042.042 0 0 1-.006-.02s0-.002.002-.002.002.001.002.002c0 .007.002.013.006.018.003.006.008.01.016.014.009.005.026.002.036-.002.014-.008-.004-.024-.008-.034-.003-.007-.004-.014-.005-.021h.003a.042.042 0 0 0-.005-.007.024.024 0 0 0-.008-.004s-.002 0-.001-.003c0-.002.002-.002.003-.001a.03.03 0 0 1 .008.005.053.053 0 0 1 .008.009.05.05 0 0 0 .004-.001c.014-.003.022-.01.03-.02a.406.406 0 0 0-.032-.03c-.001-.001-.002-.002 0-.004h.002a.323.323 0 0 1 .034.033c.013.001.015-.001.021-.013a.062.062 0 0 0-.007-.016.11.11 0 0 0-.013-.016v-.003h.003c.005.005.01.01.013.016a.063.063 0 0 1 .009.018c.005 0 .012 0 .017-.003.011-.006.002-.03-.001-.04l-.004-.002-.008-.005s-.002-.002 0-.003c0-.002.001-.001.002 0 .003 0 .005.002.008.004l.006.004.002-.002c.008-.007.011-.015.014-.024.004-.014.004-.008.02-.01.018-.003.027-.005.037-.025.006-.003.009-.005.01-.012.001-.012 0-.018-.013-.02-.02 0-.031.003-.044.016l.005.008v.003h-.003a.318.318 0 0 0-.005-.008.099.099 0 0 0-.048.007.246.246 0 0 1-.005-.002.077.077 0 0 1 .008.013.046.046 0 0 1 .005.018s0 .002-.002.002-.002-.001-.003-.002a.042.042 0 0 0-.004-.016.074.074 0 0 0-.012-.018.106.106 0 0 0-.038-.007l.006.006a.628.628 0 0 1 .008.008c.001 0 .002.001 0 .003-.001.002-.002 0-.003 0l-.008-.008a.628.628 0 0 1-.008-.008l-.001-.001a.11.11 0 0 0-.034.009.116.116 0 0 1-.024.007l.015.019a.092.092 0 0 1 .009.024c0 .001 0 .002-.002.003-.002 0-.002 0-.002-.002a.084.084 0 0 0-.024-.043.071.071 0 0 1-.021 0l.008.014v.003l-.003-.001-.008-.017a.058.058 0 0 1-.02-.007.34.34 0 0 1 .007.06c0 .001.001.003-.001.003s-.002-.002-.002-.002a.304.304 0 0 0-.009-.065.067.067 0 0 1-.008-.008.084.084 0 0 0-.024-.018v.01a.038.038 0 0 1-.008.02h-.003c-.002-.002 0-.002 0-.003a.033.033 0 0 0 .007-.03.126.126 0 0 0-.043-.01.21.21 0 0 1 .023.036c.005.005.009.01.01.017a.096.096 0 0 1 .003.02c0 .001 0 .002-.002.002s-.002 0-.002-.002c0-.006 0-.013-.003-.019a.029.029 0 0 0-.01-.015.23.23 0 0 0-.024-.039h-.015l.002.004a.024.024 0 0 1 .004.01s0 .002-.002.002c-.003 0-.003-.001-.003-.002a.024.024 0 0 0-.007-.014l-.031.002a.203.203 0 0 1 .04.091l-.001.003c-.002 0-.003 0-.003-.002a.198.198 0 0 0-.041-.092h-.002a.14.14 0 0 0-.024.005.083.083 0 0 1 .018.016c.001 0 .002.001 0 .003h-.003a.061.061 0 0 0-.008-.009.1.1 0 0 0-.012-.008.173.173 0 0 0-.013.004l-.007.003a.184.184 0 0 1 .043.042v.003h-.004a.15.15 0 0 0-.044-.044.105.105 0 0 1-.026.002l.014.032a.151.151 0 0 1 .007.036s0 .002-.002.002-.002 0-.002-.002a.148.148 0 0 0-.007-.034.241.241 0 0 0-.015-.034.319.319 0 0 1-.016-.002.404.404 0 0 1 .015.067c0 .001 0 .002-.002.003-.002 0-.002-.001-.002-.002a.359.359 0 0 0-.016-.07.157.157 0 0 0-.052-.04.068.068 0 0 1 .015.045c0 .001 0 .002-.002.002s-.002-.001-.002-.002a.066.066 0 0 0-.02-.048.632.632 0 0 0-.055-.006c.011.01.02.018.019.029 0 0 0 .002-.002.001-.003 0-.003 0-.002-.002 0-.01-.01-.018-.02-.028h-.025a.095.095 0 0 1 .011.013.055.055 0 0 1 .01.018c0 .01.002.018.006.025a.04.04 0 0 0 .019.016s.002 0 0 .003c0 .002-.001.001-.002 0a.044.044 0 0 1-.02-.017.061.061 0 0 1-.008-.026.05.05 0 0 0-.008-.017.103.103 0 0 0-.014-.016h-.027a.316.316 0 0 1 .011.074l-.001.002c-.002 0-.002 0-.002-.002a.29.29 0 0 0-.012-.074h-.003a.04.04 0 0 0-.02-.017v.002a.023.023 0 0 1-.004.009s0 .002-.002 0c-.002 0-.002-.002-.001-.002a.019.019 0 0 0 .003-.007v-.004L10.542 4c-.004-.018-.008-.026-.023-.032v.016a.056.056 0 0 1-.008.02h-.003c-.002-.001-.001-.002 0-.003a.05.05 0 0 0 .006-.018.1.1 0 0 0 .001-.016l-.002-.001c-.004-.025-.009-.04-.035-.05v.01a.055.055 0 0 1-.003.018s0 .002-.003.001c-.002 0-.001-.002-.001-.003a.053.053 0 0 0 .003-.016v-.014l-.02-.02c0 .01-.002.019-.004.028a.127.127 0 0 1-.016.034s-.001.002-.003 0c-.002 0-.001-.001 0-.002a.122.122 0 0 0 .015-.033.09.09 0 0 0 .003-.031.043.043 0 0 1-.007-.01l-.004.008s0 .002-.003 0c-.002 0-.001-.001 0-.002l.002-.007.002-.005v-.004a.03.03 0 0 0-.011-.02.058.058 0 0 1-.01.02h-.003c-.002-.001-.001-.002 0-.003a.061.061 0 0 0 .01-.02.037.037 0 0 1-.007-.01.035.035 0 0 1-.004.007.05.05 0 0 1-.008.008h-.002c-.002-.002 0-.003 0-.003a.04.04 0 0 0 .007-.008.025.025 0 0 0 .004-.007c.001-.003.002 0 0-.007.003-.012-.002-.019-.008-.029a.036.036 0 0 0-.013.003.117.117 0 0 0-.018.01c0 .001-.002.002-.003 0v-.003a.13.13 0 0 1 .02-.01.037.037 0 0 1 .016-.005.016.016 0 0 0 0-.009.168.168 0 0 1-.046.011.067.067 0 0 1-.03-.004c-.002 0-.003-.001-.002-.003s.002-.002.003-.001a.06.06 0 0 0 .029.004.162.162 0 0 0 .046-.011.144.144 0 0 0 .008-.023.07.07 0 0 1-.02.001h-.002c-.001 0-.002 0-.002-.002s.001-.002.002-.002h.001c.007 0 .014 0 .021-.002l.002-.007c0-.009.01-.01.017-.003.006.006.011.012.017.015.011.006.024 0 .034-.007l-.009-.002s-.002-.001-.001-.003a.376.376 0 0 1 .014.002l.002-.002c.024.002.039-.003.054-.019l-.036-.001a.087.087 0 0 1-.028-.007s-.002-.001 0-.003c0-.002.001-.001.002 0a.082.082 0 0 0 .027.006.28.28 0 0 0 .04.001l.003-.005a.047.047 0 0 0 .018-.01.216.216 0 0 1-.079-.022.055.055 0 0 0-.027-.014.09.09 0 0 0-.054.01l-.012-.01c-.006-.001-.012-.005-.019-.006h-.025c-.001 0-.002 0-.002-.002s.001-.002.002-.002h.026l.024.006a.181.181 0 0 1 .069-.015.23.23 0 0 1 .069-.01c-.003-.003-.002-.004 0-.005.013-.013.016-.025.011-.036-.004-.011-.015-.021-.031-.031-.017.002-.034-.003-.052 0a.161.161 0 0 0-.033.007c.01.003.017.008.024.016.008.01.013.022.016.039 0 .002.001.004-.003.004-.004.001-.004-.001-.004-.003a.074.074 0 0 0-.015-.035c-.008-.01-.025-.015-.03-.017a.351.351 0 0 0-.052.008.08.08 0 0 0-.03.013.052.052 0 0 1 .034.003.05.05 0 0 1 .024.03c.001.002.002.003-.002.005-.004 0-.005 0-.005-.003-.005-.013-.012-.02-.02-.025-.017-.008-.05-.001-.065.01a.166.166 0 0 0-.025.024c-.002.002-.004.003-.007 0-.004-.003-.002-.005 0-.006a.175.175 0 0 1 .026-.026.075.075 0 0 1 .027-.013.08.08 0 0 1 .04-.021.359.359 0 0 1 .053-.008.042.042 0 0 0-.02-.022.057.057 0 0 0-.03-.003.243.243 0 0 0-.06.033h.005c.005 0 .01 0 .015.002.002 0 .004.001.002.005-.001.004-.014.001-.018.001-.005 0-.01 0-.016.002H10.3c-.023.014-.04.029-.059.045l-.003.001c-.018 0-.03.002-.036.007-.007.005-.007.013-.006.023-.003.01-.007.02-.008.032-.02.017-.042.034-.053.06a.059.059 0 0 1-.01.02c.003 0 .007.001.01.003 0 .001 0 .002.002.003a.09.09 0 0 1 .002-.013.052.052 0 0 1 .006-.016h.003c.002 0 .001.002 0 .003a.048.048 0 0 0-.005.014.103.103 0 0 0-.003.02c0 .003-.004.003-.004.001a.012.012 0 0 0-.004-.008.021.021 0 0 0-.011-.004.126.126 0 0 1-.014.013c-.005.003-.008.007-.01.012 0 .01.011.011.022.012.025.001.005.015.019.027a.07.07 0 0 1 .017.016c.01.004.015.003.021 0 .001-.016 0-.025.007-.025h.001c0-.002 0-.004.002-.006a.035.035 0 0 1 .005-.01h.003c.002.002.001.002 0 .003a.029.029 0 0 0-.007.015c.002.003.002.008.002.016a.098.098 0 0 1 .04-.009c.027-.03.038-.023.015 0l-.004.007a.056.056 0 0 0-.007.024c-.007.006-.04.033-.028.043.009 0 .014 0 .01.006-.003.009-.016.027-.011.037.001.004.006.003.012.002v-.001a.24.24 0 0 0 .027-.025.154.154 0 0 0 .023-.032c.001-.002.002-.003.004-.003a.35.35 0 0 1 .021-.058c.001-.002.003-.002.004 0l.01.011a.016.016 0 0 0 .01.003.017.017 0 0 0 .01-.003.045.045 0 0 0 .01-.01c0-.002.001-.002.003-.001s.001.002 0 .003a.046.046 0 0 1-.011.012.02.02 0 0 1-.012.004.02.02 0 0 1-.012-.005.046.046 0 0 1-.01-.01.565.565 0 0 0-.019.056c.002.002.001.004 0 .005a.167.167 0 0 1-.024.034.236.236 0 0 1-.022.022.075.075 0 0 0 .006.02.443.443 0 0 0 .04-.038.243.243 0 0 0 .03-.04c0-.001 0-.002.003-.001.002.001.001.002 0 .003a.22.22 0 0 1-.014.021v.003c-.002.001-.003.006-.003.012l.001.028s0 .002-.002.002-.002 0-.002-.002a.173.173 0 0 1 0-.034l-.01.011a.447.447 0 0 1-.041.039l.001.003c-.013.009-.023.012-.009.024l.014-.01.016-.01c0-.001.002-.002.003 0v.003l-.016.01-.015.011c0 .006.001.01.004.015h.003l.032-.024h.003v.004a4.217 4.217 0 0 1-.036.027c-.01.008-.047.03-.043.046a.138.138 0 0 0 .026-.01.097.097 0 0 0 .025-.018c.001-.001.002-.002.003 0 .002.001.001.002 0 .003a.103.103 0 0 1-.026.019V4.091c0 .001 0 .002-.002.002s-.002-.001-.002-.002v-.005-.002a.146.146 0 0 1-.023.008c.003.015-.004.028-.012.04-.005.004-.042.034-.026.043a.04.04 0 0 0 .013.003z" fill="#F7DB17"/><path d="M10.186 3.66a.092.092 0 0 0-.027-.012.058.058 0 0 0-.02-.022c-.007-.005-.007-.005-.005-.01.008 0 .012-.003.012-.005.004 0 .008 0 .01.002a.016.016 0 0 1 .009.005c0 .001.001.002.003 0 .002 0 .001-.001 0-.002a.022.022 0 0 0-.01-.007.04.04 0 0 0-.015-.002h-.001a.03.03 0 0 0-.013-.002c-.006-.005-.01-.011-.008-.019h.001a.077.077 0 0 1 .012.005.023.023 0 0 1 .008.005s.001.002.003 0v-.003a.03.03 0 0 0-.01-.006.078.078 0 0 0-.008-.004.116.116 0 0 1 .087.011.063.063 0 0 1 .03.024l-.008.007c-.018 0-.032.002-.04.009-.008.005-.01.016-.01.026z" fill="#F7DB17"/><path d="M10.815 4.535a.049.049 0 0 1-.019.008l.001-.001a.106.106 0 0 1 .015-.021l.002-.003v.017zM10.894 4.704a.094.094 0 0 1-.015.018.164.164 0 0 1-.02.015l-.003-.001v-.003a.171.171 0 0 0 .02-.015.09.09 0 0 0 .015-.017h.003c.002 0 0 .002 0 .003zM10.947 4.641l-.009.014h-.003c-.002-.001-.002-.002 0-.003l.008-.013c0-.001.001-.002.003 0 .002 0 .001.001 0 .002zM10.918 4.637a.047.047 0 0 1-.008.018.044.044 0 0 1-.018.014l-.003-.001.001-.003a.041.041 0 0 0 .017-.013.04.04 0 0 0 .007-.016s0-.002.002-.001c.002 0 .002.001.002.002zM10.969 4.575a.043.043 0 0 0-.01.016c0 .001 0 .002-.003.001-.002 0-.002-.001-.001-.002a.042.042 0 0 1 .004-.01.043.043 0 0 1 .007-.008c0-.001.001-.002.003 0v.003zM11.01 4.578l-.005.018a.118.118 0 0 1-.009.019h-.003c-.002 0-.001-.002 0-.003A.127.127 0 0 0 11 4.595l.005-.018s0-.002.003-.001c.002 0 .002.001.001.002zM10.991 4.333c.013.02.016.04.017.059a.283.283 0 0 1 .005-.022.058.058 0 0 0 .011-.046c0-.001 0-.002.002-.002l.002.001a.063.063 0 0 1-.011.049.512.512 0 0 0-.009.04v.003c0 .002-.004.001-.004 0V4.41c0-.025 0-.05-.016-.074v-.003h.004zM10.96 4.375v.005l-.001.005c0 .001 0 .002-.003.002-.002 0-.002-.001-.002-.002v-.006l.001-.005c0-.001 0-.002.003-.002.002 0 .002.001.002.003zM10.95 4.43a.253.253 0 0 1 .01.056.046.046 0 0 1 .016-.015c.002-.001.003-.002.004 0l-.001.003a.042.042 0 0 0-.012.01.03.03 0 0 0-.006.013c0 .002-.005.002-.005 0a.206.206 0 0 0-.01-.066s0-.002.002-.002l.002.001zM10.995 4.45a.16.16 0 0 1 .003.048s0 .002-.003.002c-.002 0-.002-.002-.002-.003a.128.128 0 0 0-.002-.046l.001-.003c.002 0 .003 0 .003.002zM11.033 4.443a.1.1 0 0 1 .002.022.061.061 0 0 1-.005.022.048.048 0 0 0-.002.023.101.101 0 0 0 .008.025v.002h-.003a.102.102 0 0 1-.009-.026.052.052 0 0 1 .002-.026.057.057 0 0 0 .005-.02c0-.007 0-.014-.002-.022l.001-.002c.003 0 .003 0 .003.002zM11.052 4.38l-.003.012-.003.012c0 .001-.001.002-.003.002s-.002-.002-.002-.003l.003-.012.003-.012c0-.001.001-.002.003-.002s.002.002.002.003zM11.033 4.275l.003.012s.001.002-.001.002c-.002.001-.003 0-.003-.001l-.004-.012c0-.001 0-.002.002-.003.002 0 .002 0 .003.002zM11.042 4.195v.031a.031.031 0 0 0-.01.016.053.053 0 0 0 0 .023c0 .001 0 .002-.002.003-.002 0-.002-.001-.002-.002a.057.057 0 0 1 0-.025.035.035 0 0 1 .011-.018V4.21l-.001-.015c0-.001 0-.002.002-.002s.002 0 .002.002zM10.963 4.167a.107.107 0 0 1 .03.028.06.06 0 0 1 .011.037.002.002 0 0 1-.003.002l-.02-.01a.148.148 0 0 1-.004.073.065.065 0 0 1-.037.04c-.002 0-.004-.002-.003-.003a.156.156 0 0 0 .005-.068c0-.001 0-.002.002-.002l.002.001a.14.14 0 0 1-.004.066.061.061 0 0 0 .031-.036.15.15 0 0 0 .003-.073c0-.002.001-.003.002-.003l.022.01a.056.056 0 0 0-.01-.032.103.103 0 0 0-.03-.026v-.003c.001-.002.002-.001.003 0zM11.17 4.127l-.002.004-.001.004s0 .002-.003 0c-.002 0-.001 0-.001-.002l.002-.004.001-.004c0-.001.001-.002.003-.001.002 0 .002.002.001.003zM11.122 4.126a.03.03 0 0 1 .01.006.034.034 0 0 1 .006.01v.002h-.003a.035.035 0 0 0-.006-.009.026.026 0 0 0-.009-.005c-.001 0-.002-.001-.001-.003 0-.002.002-.002.003-.001zM11.05 4.146a.045.045 0 0 1 .01.02.07.07 0 0 1 0 .025c0 .002 0 .003-.002.002-.002 0-.002 0-.001-.002a.07.07 0 0 0-.001-.024.042.042 0 0 0-.01-.018v-.003h.003zM10.805 4.17l-.001.008v.009c-.001 0-.001.002-.003.002s-.002-.002-.002-.003a.267.267 0 0 0 .002-.017s0-.002.002-.001c.002 0 .002 0 .002.002zM10.85 4.146l.004.012v.006l-.003-.001-.001-.004-.004-.012.001-.003c.003 0 .003 0 .003.002zM10.943 4.208l.001.006a.05.05 0 0 1 0 .005c0 .002 0 .003-.002.002-.002 0-.002 0-.002-.002v-.005l-.001-.004c0-.002 0-.003.002-.003l.002.001zM10.975 4.138a.014.014 0 0 1 .005.006.01.01 0 0 1-.002.008s0 .002-.003 0c-.002 0-.001-.001 0-.002v-.005a.01.01 0 0 0-.003-.004v-.004h.003zM10.753 4.149a.04.04 0 0 0 .01.027.037.037 0 0 1 .009.016l.002.016c0 .001 0 .002-.002.002s-.002 0-.002-.002c0-.005 0-.01-.002-.015a.033.033 0 0 0-.008-.015.044.044 0 0 1-.008-.014.046.046 0 0 1-.003-.015c0-.001 0-.003.002-.003s.002.002.002.003zM10.843 4.21c.005.009.008.018.009.027l-.001.028a.046.046 0 0 0 .006.032c.006.01.015.019.026.027a.119.119 0 0 1-.005-.036c0-.014.005-.027.015-.04a.057.057 0 0 0 .008-.016.088.088 0 0 0 .004-.017c0-.001 0-.002.003-.002.002 0 .002.001.001.002a.088.088 0 0 1-.004.018.061.061 0 0 1-.009.018.064.064 0 0 0-.014.037c0 .013.003.027.007.04 0 .003-.002.004-.003.003a.105.105 0 0 1-.032-.032.05.05 0 0 1-.007-.035.094.094 0 0 0 0-.027.072.072 0 0 0-.008-.026l.001-.003.003.001zM10.807 4.265c0 .01-.003.02-.008.03a.138.138 0 0 1-.015.023l.01-.004a.09.09 0 0 0 .028-.02.117.117 0 0 0 .012-.015h.002c.002.001.002.002.001.003a.16.16 0 0 1-.023.024l.001.007.002.007c0 .001 0 .002-.002.003-.002 0-.002 0-.002-.002l-.002-.007-.001-.005a.096.096 0 0 1-.015.009l-.017.006c-.002.001-.004-.001-.002-.003a.15.15 0 0 0 .02-.028.062.062 0 0 0 .007-.028c0-.002 0-.003.002-.003s.002.002.002.003zM10.763 4.261v.01c0 .001 0 .003-.002.003s-.002-.002-.002-.003v-.01c0-.001 0-.002.002-.002s.002 0 .002.002z" fill="#000"/><path d="M10.735 4.207a.07.07 0 0 1 .005.04.075.075 0 0 1-.016.034.077.077 0 0 0-.02.026.102.102 0 0 0-.007.02.07.07 0 0 1 .007-.008.045.045 0 0 1 .02-.013.197.197 0 0 0 .048-.036c0-.001.001-.002.002 0 .002 0 .001.002 0 .003a.162.162 0 0 1-.047.037.041.041 0 0 0-.02.012.095.095 0 0 0-.013.017c0 .002-.004.001-.004-.001a.13.13 0 0 1 .01-.033.08.08 0 0 1 .02-.027.072.072 0 0 0 .016-.032.067.067 0 0 0-.005-.037c0-.001 0-.002.002-.003l.002.001zM10.825 4.35c-.002.004.001.008.007.015 0 .002.002.003.003.005.008.01.01.022.011.033a.174.174 0 0 1-.004.036c0 .002-.004.002-.004 0a.072.072 0 0 0-.016-.035.137.137 0 0 0-.032-.028s-.002 0 0-.003h.002a.141.141 0 0 1 .033.029.077.077 0 0 1 .014.026.131.131 0 0 0 .003-.024.052.052 0 0 0-.014-.036c-.006-.009-.01-.013-.007-.019 0 0 0-.002.002-.001.002 0 .002.002.002.003zM10.863 4.348l.005.005.005.005c0 .001.002.002 0 .004h-.003l-.005-.006-.005-.005c-.001-.001-.002-.002 0-.003.001-.002.002-.001.003 0zM10.91 4.363l-.01.028a3.017 3.017 0 0 0-.01.03c-.003-.001-.002-.002-.002-.003l.009-.028.008-.028c0-.001.001-.002.003-.002s.002.002.001.003zM10.936 4.52a.01.01 0 0 0 0 .007c0 .001.001.002-.001.003s-.003 0-.003-.001a.016.016 0 0 1 0-.011c0-.001 0-.002.003-.001.002 0 .002.002.001.003zM10.908 4.474a.426.426 0 0 1-.01.032c-.002 0-.002-.002-.002-.003l.004-.015.004-.015c0-.001 0-.002.003-.002.002 0 .002.002.001.003zM10.868 4.473l.004.004c.001.001.002.002 0 .003-.001.002-.002.001-.003 0l-.004-.003v-.004h.003zM10.821 4.45c0 .004-.002.007-.003.01a.145.145 0 0 1-.003.008s0 .002-.002.001c-.002 0-.002-.002-.002-.003a.145.145 0 0 1 .006-.017s.001-.002.003-.001c.002 0 .002.002.002.003zM10.754 4.522a.027.027 0 0 0-.005.01.051.051 0 0 0-.003.01s0 .002-.003.002c-.002 0-.002-.002-.001-.003l.002-.011a.033.033 0 0 1 .007-.01c0-.002.002-.002.003 0 .002 0 .001.001 0 .002zM10.562 4.71a.044.044 0 0 1-.011.014c0 .001-.002.002-.003 0-.002-.002 0-.003 0-.003a.033.033 0 0 0 .01-.012c0-.001.001-.002.003-.001.002 0 .002.002.001.003zM10.592 4.695a.016.016 0 0 1-.004.006.025.025 0 0 1-.007.004c-.001 0-.002 0-.003-.002l.001-.003a.018.018 0 0 0 .006-.003.012.012 0 0 0 .003-.004c0-.001.001-.002.003-.001.002 0 .002.002.002.003zM10.631 4.67a.017.017 0 0 1-.007.007h-.002v-.004a.016.016 0 0 0 .004-.002l.002-.003s0-.002.003 0v.002zM10.692 4.513a.073.073 0 0 0-.004.017V4.55l-.003-.001a.057.057 0 0 1-.001-.018c0-.006.002-.012.004-.018 0-.001 0-.002.002-.001.002 0 .002.001.002.002zM10.733 4.097c0 .005-.002.01-.004.014a.057.057 0 0 1-.01.014c0 .001 0 .002-.002 0-.002 0-.001-.002 0-.002a.055.055 0 0 0 .008-.013.031.031 0 0 0 .004-.013c0-.001 0-.002.002-.002s.002.001.002.002zM10.69 4.06a.059.059 0 0 1 .008.02.076.076 0 0 1 .001.018c0 .001 0 .002-.002.002s-.002 0-.002-.002l-.001-.018a.062.062 0 0 0-.007-.018V4.06l.004.001zM10.636 4.13a.062.062 0 0 1-.017-.018.027.027 0 0 1-.004-.018s0-.002.003-.001c.002 0 .002.001.001.002 0 .005 0 .01.004.015.003.006.008.01.015.016.001 0 .002.002 0 .003 0 .002-.001.001-.002 0zM10.697 4.233v.01c0 .001 0 .002-.002.002s-.002 0-.002-.002v-.01s0-.002.002-.002.002.001.002.002zM10.618 4.154c.013.012.02.026.024.041l.004.031c.006-.002.01-.007.013-.015a.108.108 0 0 0 .005-.036.076.076 0 0 0 .01-.022.135.135 0 0 0 .003-.021c0-.002.002-.003.003-.002.008.01.014.021.019.032a.117.117 0 0 1 .01.037s0 .002-.003.002c-.002 0-.002 0-.002-.002a.119.119 0 0 0-.01-.035.157.157 0 0 0-.014-.026.126.126 0 0 1-.003.016.078.078 0 0 1-.009.023.11.11 0 0 1-.005.036c-.003.009-.009.015-.015.017h-.002l-.001.016s0 .002-.002.002-.002-.002-.002-.003a.148.148 0 0 0-.003-.049.081.081 0 0 0-.022-.039c-.001 0-.002-.001 0-.003h.002zM10.665 4.35l-.003.018a.988.988 0 0 0-.005.018c-.002 0-.002-.001-.002-.002 0-.006.002-.011.003-.017l.002-.017c0-.001 0-.002.003-.002.002 0 .002.002.002.003zM10.576 4.388a.63.63 0 0 1 .003.014s0 .002-.002.002-.002 0-.003-.002a.654.654 0 0 1-.002-.013c0-.001 0-.002.002-.003.002 0 .002.001.002.002zM10.652 4.287a.096.096 0 0 1-.006.024.093.093 0 0 1-.014.022.046.046 0 0 0-.012.026.072.072 0 0 0 .002.028s0 .002-.002.002l-.002-.001a.077.077 0 0 1-.003-.03.05.05 0 0 1 .014-.027.087.087 0 0 0 .02-.045l.001-.002c.002 0 .002.002.002.003zM10.632 4.257a.043.043 0 0 1-.003.024.09.09 0 0 1-.015.023.075.075 0 0 0-.017.02.16.16 0 0 0-.01.021c0 .001 0 .002-.003.002-.002-.001-.001-.002 0-.003a.155.155 0 0 1 .01-.022.079.079 0 0 1 .017-.02.086.086 0 0 0 .014-.023.037.037 0 0 0 .003-.021c0-.001 0-.002.002-.003.002 0 .002.001.002.002zM10.535 4.303a.07.07 0 0 1-.006.042.096.096 0 0 1-.027.032h-.003c-.002-.002 0-.003 0-.004a.092.092 0 0 0 .026-.03.065.065 0 0 0 .006-.04l.002-.002c.002 0 .002.001.002.002zM10.41 4.372l.005.008a.151.151 0 0 1 .003.008v.003l-.003-.001-.004-.009-.004-.007.001-.003h.003zM10.361 4.373c0 .01.001.019.003.028a.074.074 0 0 0 .013.026.075.075 0 0 1 .006.02l.002.014a.08.08 0 0 0 .014-.02.057.057 0 0 0 .006-.024c0-.001 0-.002.002-.002s.002 0 .002.002a.064.064 0 0 1-.006.026.089.089 0 0 1-.018.024c-.002.001-.004 0-.004-.001 0-.007 0-.013-.002-.019a.07.07 0 0 0-.005-.018.079.079 0 0 1-.014-.027.109.109 0 0 1-.003-.03l.002-.001c.002 0 .002 0 .002.002zM10.368 4.542a.1.1 0 0 1 .008-.031c0-.001 0-.002.002-.002.002.001.002.002.002.003a.116.116 0 0 0-.008.03c0 .002 0 .003-.002.002-.002 0-.002 0-.002-.002zM10.362 4.589l.003-.02s0-.002.002-.001c.003 0 .002.001.002.002a89.71 89.71 0 0 0-.005.021c-.002 0-.002-.001-.002-.002zM10.33 4.668a.18.18 0 0 0 .018-.025c0-.001 0-.002.003-.001v.003a.171.171 0 0 1-.018.026h-.003v-.003zM10.284 4.403v.007c0 .002 0 .003-.003.003-.002 0-.002-.001-.002-.003v-.007c0-.001 0-.002.002-.002s.002 0 .002.002zM10.205 4.586v-.007l-.001-.006c0-.001 0-.002.002-.002s.003 0 .003.002v.012c0 .002 0 .003-.002.003s-.002-.001-.002-.002zM10.403 4.262a.143.143 0 0 0-.007.04c0 .012.003.022.012.028.01.006.014.016.019.026v.001a.088.088 0 0 0 .003-.032s0-.002.002-.002l.002.001a.097.097 0 0 1-.004.04c0 .001-.003.002-.004 0l-.003-.007c-.004-.009-.008-.018-.017-.024-.01-.006-.014-.017-.014-.03 0-.014.003-.028.007-.043 0 0 0-.002.002-.001.002 0 .002.001.002.003zM10.389 4.209c.001.01 0 .02-.001.03a.16.16 0 0 1-.01.031.096.096 0 0 0 .004.081v.003l-.003-.001a.105.105 0 0 1-.004-.084.16.16 0 0 0 .009-.03.09.09 0 0 0 0-.03s0-.002.002-.002.003 0 .003.002zM10.297 4.34a.032.032 0 0 0-.003.018.058.058 0 0 0 .008.02v.003l-.003-.001a.06.06 0 0 1-.009-.02.035.035 0 0 1 .003-.022c0-.001 0-.002.003-.001.002 0 .001.002 0 .003zM10.257 4.325v.013a.033.033 0 0 1-.003.01v.001a.016.016 0 0 0-.001.01c0 .004.002.008.005.012v.003h-.003a.034.034 0 0 1-.006-.014c-.001-.004 0-.008.002-.013a.033.033 0 0 0 .002-.01v-.01l.001-.003c.002 0 .003 0 .003.002zM10.491 3.978a.092.092 0 0 0 .013.06l-.001.002H10.5a.095.095 0 0 1-.013-.062c0-.001 0-.002.002-.002s.002.001.002.002zM10.462 4.006a.156.156 0 0 1 .02.07s0 .002-.002.002-.002-.001-.002-.002a.151.151 0 0 0-.02-.068l.001-.002h.003zM10.316 4.011a.104.104 0 0 0-.021.05.067.067 0 0 0 .008.037.092.092 0 0 1 .005.033.105.105 0 0 1-.006.034s0 .002-.003 0c-.002 0-.001-.001-.001-.002a.09.09 0 0 0 .001-.063.07.07 0 0 1-.008-.039.108.108 0 0 1 .022-.052c0-.001.001-.002.003 0 .002 0 0 .001 0 .002zM10.452 3.953a.03.03 0 0 1-.002.019.043.043 0 0 1-.013.016.033.033 0 0 0-.012.02.071.071 0 0 0 0 .028s0 .002-.002.002-.002 0-.002-.002a.077.077 0 0 1 0-.03.037.037 0 0 1 .013-.021.04.04 0 0 0 .012-.015.026.026 0 0 0 .002-.016s0-.002.002-.002l.002.001zM10.308 3.966a.044.044 0 0 1 0 .026.064.064 0 0 1-.015.025.049.049 0 0 0-.015.024.117.117 0 0 0-.005.03s0 .002-.002.002-.002-.002-.002-.003c0-.01.002-.02.005-.03a.053.053 0 0 1 .016-.025.06.06 0 0 0 .014-.024.04.04 0 0 0 0-.024l.001-.003c.002 0 .003 0 .003.002zM10.39 3.97v.01a.02.02 0 0 0 .004.008v.003c-.002.002-.003 0-.003 0a.026.026 0 0 1-.005-.01v-.012s0-.002.003-.001c.002 0 .002.001.002.002zM10.386 3.948a.035.035 0 0 0-.017.017.072.072 0 0 0-.007.029v.001a.052.052 0 0 1 .01.02.098.098 0 0 1 .001.026c0 .001 0 .002-.002.002s-.002 0-.002-.002c0-.01 0-.018-.002-.025a.05.05 0 0 0-.007-.017.067.067 0 0 0-.024.048c0 .018.007.038.02.06.001 0 .002.001 0 .002h-.003a.11.11 0 0 1-.021-.062c0-.02.009-.036.026-.052 0-.013.003-.024.007-.032a.039.039 0 0 1 .02-.018h.003l-.001.004zM10.363 3.918v.004c-.001.01-.002.022-.01.028a.033.033 0 0 0-.009.013.066.066 0 0 0-.003.016c0 .001 0 .002-.003.002-.002 0-.002-.002-.001-.003 0-.005.001-.011.003-.016a.037.037 0 0 1 .01-.015c.007-.005.008-.016.009-.025v-.005s0-.002.002-.001c.003 0 .002 0 .002.002zM10.592 4.162c.002.006.005.011.006.017a.06.06 0 0 1 .002.017c0 .001 0 .002-.003.002-.002 0-.002-.001-.002-.002l-.001-.016a.086.086 0 0 0-.006-.016l.001-.003.003.001zM10.592 4.237a.07.07 0 0 1 0 .026.09.09 0 0 1-.009.027l-.01.023s0 .002-.002.001c-.002 0-.002-.002-.001-.003l.01-.023a.086.086 0 0 0 .009-.025.066.066 0 0 0 0-.025v-.003c.003 0 .003.001.003.002zM10.545 4.167a.103.103 0 0 1 .025.102s0 .002-.002.001c-.002 0-.002-.001-.002-.002a.098.098 0 0 0-.024-.098c-.001 0-.002-.002 0-.003h.003zM10.54 4.251a.235.235 0 0 1-.034.054.106.106 0 0 0-.022.038c0 .002-.004.001-.004-.001 0-.006 0-.013-.002-.019a.075.075 0 0 0-.009-.019.055.055 0 0 1-.01-.034c0-.011.005-.022.013-.034a.104.104 0 0 0 .014-.047c0-.001 0-.002.002-.002s.002.001.002.002a.106.106 0 0 1-.014.05.061.061 0 0 0-.013.031c0 .01.003.021.01.032a.08.08 0 0 1 .01.03.1.1 0 0 1 .02-.03.19.19 0 0 0 .034-.052c0-.001 0-.002.003-.001.002 0 .001.002 0 .003zM10.416 4.211c0 .01 0 .02.002.03l.01.025c.001 0 .002.002 0 .003l-.003-.001a.093.093 0 0 1-.01-.027.12.12 0 0 1-.003-.03c0-.001 0-.002.002-.002s.002.001.002.002zM10.345 4.25V4.262s0 .002-.002.002c-.003 0-.003-.001-.003-.002v-.014s0-.002.003-.002c.002 0 .002.001.002.002zM10.368 4.184c0 .007 0 .014-.003.021a.06.06 0 0 1-.01.02h-.004V4.22a.055.055 0 0 0 .013-.037s0-.002.002-.002.002.001.002.002zM10.304 4.31a.133.133 0 0 1-.011-.07.08.08 0 0 1 .023-.044.088.088 0 0 0 .018-.025.068.068 0 0 0 .005-.036c0-.001 0-.002.002-.002s.002 0 .002.002a.074.074 0 0 1-.005.038.09.09 0 0 1-.02.026.076.076 0 0 0-.021.043c-.003.017 0 .04.011.067l-.001.003-.003-.001zM10.267 4.264a.03.03 0 0 0-.002.014c0 .005.003.01.006.014l-.001.003h-.003a.04.04 0 0 1-.006-.017c0-.005 0-.01.002-.016 0 0 .001-.002.003-.001.002 0 .002.002.001.003zM10.449 4.134c.007.011.012.022.013.034a.065.065 0 0 1-.009.035c0 .001 0 .002-.002.001-.002 0-.002-.002-.001-.003a.06.06 0 0 0 .008-.033.061.061 0 0 0-.013-.031v-.003h.004zM10.505 4.09a.097.097 0 0 1 .003.068c0 .002-.004.001-.004-.001a.062.062 0 0 0-.024-.05v-.003c.002-.002.002 0 .003 0a.064.064 0 0 1 .024.04.091.091 0 0 0-.006-.053l.002-.002.003.001zM10.54 4.044a.064.064 0 0 1 .015.03.145.145 0 0 1 .004.041.08.08 0 0 0 0 .02c0 .006.002.011.005.016v.003h-.003a.044.044 0 0 1-.006-.019v-.02c0-.016 0-.03-.004-.04a.059.059 0 0 0-.015-.028v-.003h.003zM10.45 4.035a.044.044 0 0 0-.01.02.075.075 0 0 0 0 .027v.002c-.003 0-.003 0-.003-.002a.078.078 0 0 1 0-.027.05.05 0 0 1 .01-.023h.003v.003zM10.275 4.153a.08.08 0 0 1-.014.043.1.1 0 0 1-.033.029l-.003-.001.001-.003a.097.097 0 0 0 .031-.027.076.076 0 0 0 .014-.041c0-.001 0-.002.002-.002s.002.001.002.002zM10.27 4.093v.02a.084.084 0 0 1-.008.018c0 .001 0 .002-.003.001-.002 0-.001-.002 0-.003a.082.082 0 0 0 .006-.018.047.047 0 0 0 .001-.017c0-.001 0-.002.002-.003.002 0 .002.001.002.002zM10.389 4.084v.006l.002.03v.004s0 .002-.002.002h-.002c-.002 0-.002 0-.002-.002V4.09l-.001-.008c0-.001 0-.002.002-.002s.002 0 .002.002v.002zM10.417 4.031a.048.048 0 0 0-.012.03c0 .01.003.02.008.029.01.016.013.032.012.048a.14.14 0 0 1-.013.047c0 .001-.001.002-.003.001-.002 0-.002-.001-.001-.002a.135.135 0 0 0 .013-.046.075.075 0 0 0-.012-.046.07.07 0 0 1-.008-.031c0-.01.004-.021.013-.032 0-.001.002-.002.003 0 .002 0 .001.001 0 .002zM10.233 3.703a.083.083 0 0 1 .042-.018.084.084 0 0 1 .045.009h.032s.002 0 .002.002-.001.002-.002.002h-.031a.103.103 0 0 1-.045.026.043.043 0 0 1-.035-.007c-.001-.001-.002-.002 0-.004 0-.002.002-.001.003 0 .01.006.02.009.031.006a.093.093 0 0 0 .04-.022.076.076 0 0 0-.04-.007.077.077 0 0 0-.038.017c-.001 0-.002.002-.004 0s0-.003 0-.004z" fill="#000"/><path d="M10.275 3.695a.01.01 0 1 1-.01.01.01.01 0 0 1 .01-.01zM10.347 3.76a.09.09 0 0 0 .031-.027s.001-.002.003 0c.002 0 .001.002 0 .003a.093.093 0 0 1-.032.027h-.003l.001-.004zM10.496 3.697a.022.022 0 0 1 .012 0 .03.03 0 0 1 .012.006c0 .001.002.002 0 .003-.001.002-.002.001-.003 0a.029.029 0 0 0-.01-.005.02.02 0 0 0-.01 0s-.002 0-.002-.002l.001-.002zM10.41 3.7a.034.034 0 0 1 .016-.017.046.046 0 0 1 .027-.004s.002 0 .001.002c0 .002 0 .002-.002.002-.01 0-.018 0-.024.004a.03.03 0 0 0-.013.015c0 .001-.001.002-.003.001-.002 0-.002-.002-.001-.003zM10.42 3.716c.001-.004.003-.008.006-.01a.024.024 0 0 1 .011-.007l.003.001-.001.003a.02.02 0 0 0-.01.005.015.015 0 0 0-.004.008c0 .001 0 .002-.002.002s-.002-.001-.002-.002zM10.279 3.762a.073.073 0 0 0-.006.011.035.035 0 0 0-.002.014c0 .001 0 .002-.002.002s-.002 0-.003-.002l.003-.015a.058.058 0 0 1 .006-.013s.001-.002.003 0c.002 0 .001.002 0 .003zM10.32 3.78v.006c0 .001 0 .002-.003.002-.002 0-.002 0-.002-.002V3.78c0-.001 0-.002.002-.002s.002 0 .002.002zM10.293 3.734a.04.04 0 0 0 .013.003l.013-.002s.002 0 .002.002l-.001.002a.058.058 0 0 1-.014.002c-.005 0-.01 0-.015-.003 0 0-.002 0-.001-.003 0-.002.002-.001.003 0zM10.32 3.658a.013.013 0 0 0-.01.003.015.015 0 0 0-.005.008s0 .002-.002.001c-.002 0-.002-.002-.002-.003a.02.02 0 0 1 .007-.01.018.018 0 0 1 .011-.003c.002 0 .003 0 .003.002s-.001.002-.002.002zM10.278 3.663a.033.033 0 0 0-.008.004.01.01 0 0 0-.004.005c0 .001 0 .002-.003.002-.002-.001-.002-.002-.001-.003 0-.003.002-.005.005-.007a.039.039 0 0 1 .01-.006l.002.002-.001.003zM10.252 3.663a.03.03 0 0 0-.012.014c0 .002 0 .003-.003.002-.002 0-.002-.002-.001-.003a.037.037 0 0 1 .013-.017l.003.001c.002.002 0 .003 0 .003zM10.217 3.69a.07.07 0 0 0-.015.016c-.001.001-.002.002-.003 0-.002 0-.002-.002 0-.002a.083.083 0 0 1 .016-.018h.003v.004zM10.221 3.727l-.006.007-.007.007c0 .001-.001.002-.003 0-.002-.001 0-.002 0-.003l.006-.007.007-.007s.002-.002.003 0c.002.002.001.002 0 .003zM10.187 3.737v.014c0 .001 0 .002-.003.002-.002 0-.002 0-.002-.002v-.014c0-.001 0-.002.002-.002.003 0 .003 0 .003.002zM10.23 3.794l-.002.022v.002c0 .001 0 .002-.003.002-.002 0-.002-.001-.002-.002v-.002l.003-.022c0-.001 0-.002.002-.002s.002.001.002.002zM10.205 3.775l-.001.015c0 .001 0 .002-.002.002-.003 0-.002-.001-.002-.002v-.015c0-.001 0-.002.002-.002.003 0 .003.001.003.002zM10.18 3.594a.03.03 0 0 1 .02.02l-.001.002-.003-.001a.027.027 0 0 0-.017-.017c-.001 0-.002 0-.001-.003 0-.002.002-.002.002-.001zM10.389 3.865a.065.065 0 0 1 0 .054c0 .002 0 .003-.002.002-.002 0-.002-.002-.001-.003a.061.061 0 0 0 0-.05c-.001-.002-.002-.003 0-.004l.003.001zM10.321 3.944a.108.108 0 0 1 .012-.027.243.243 0 0 1 .017-.023.072.072 0 0 0 .013-.058s0-.002.002-.002.002 0 .002.002a.074.074 0 0 1-.015.061l-.015.022a.106.106 0 0 0-.012.026c0 .001 0 .002-.002.002-.003 0-.002-.002-.002-.003zM10.234 3.922a.03.03 0 0 1 .006-.01.037.037 0 0 1 .011-.009l.003.001-.001.003a.033.033 0 0 0-.01.007.025.025 0 0 0-.005.01h-.003c-.002 0-.002-.001-.002-.002zM10.217 3.915a.087.087 0 0 1 .01-.012.043.043 0 0 1 .014-.008h.002V3.9a.041.041 0 0 0-.013.007.093.093 0 0 0-.01.012s-.001.002-.003 0c-.002-.001-.001-.002 0-.003zM10.307 3.825a.028.028 0 0 0 .011.003l.01-.001c.001 0 .002-.001.003.001 0 .002 0 .002-.002.003a.033.033 0 0 1-.024-.001v-.004c0-.002.001-.001.002 0zM10.262 3.82a.12.12 0 0 1 .004-.004c0-.001.002-.002.003 0 .002 0 .001.002 0 .002v.001l-.004.004s-.001.002-.003 0V3.82zM11.237 4.1a.06.06 0 0 1 .006.008.059.059 0 0 1 .003.009s.001.002-.001.002c-.002.001-.002 0-.003-.001a.035.035 0 0 0-.008-.014c-.001-.001-.002-.002 0-.004h.003zM10.155 4.608c.005.005.01.008.015.011a.04.04 0 0 0 .018.005s.002 0 .002.002-.001.002-.002.002a.044.044 0 0 1-.02-.005.073.073 0 0 1-.016-.012s-.002-.001 0-.003h.003z" fill="#000"/><path d="M10.971 3.639c.024 0 .048 0 .067-.003a.183.183 0 0 1-.077.03.031.031 0 0 0 .011-.014.017.017 0 0 0 0-.013zM10.914 3.633a.493.493 0 0 0 .048.005v.001c.003.004.004.007.003.01a.028.028 0 0 1-.011.013c-.002 0-.004.002-.001.005a.227.227 0 0 1-.05 0h.002a.036.036 0 0 0 .011-.02c0-.004 0-.01-.002-.014zM10.49 3.511a.533.533 0 0 1 .083-.003.04.04 0 0 1 .02.016.05.05 0 0 1 .004.032c0 .001 0 .003.004.004.004 0 .004-.001.004-.003a.056.056 0 0 0-.005-.037.041.041 0 0 0-.01-.012h.007c.032.002.057.011.085.025v.001c.007.006.009.013.008.02a.046.046 0 0 1-.012.022c-.002.001-.003.003 0 .005.003.003.004.001.006 0a.056.056 0 0 0 .014-.027c0-.005 0-.01-.002-.014l.07.035.002.001v.002a.02.02 0 0 1-.001.017.04.04 0 0 1-.02.013c-.002 0-.003.001-.002.005.001.003.003.003.005.002a.047.047 0 0 0 .023-.016.026.026 0 0 0 .004-.018c.016.008.031.017.047.024.003.006.003.011.001.016-.002.005-.007.01-.016.013-.002.001-.004.002-.002.006.002.003.004.002.005.001.01-.005.017-.01.02-.017a.022.022 0 0 0 .002-.014.315.315 0 0 0 .07.022.02.02 0 0 1 .004.014.03.03 0 0 1-.008.015c-.002.001-.003.003 0 .006h.001c-.06-.005-.113-.034-.169-.056l-.02-.007c-.02-.008-.04-.019-.062-.027l-.002-.001-.004-.002h-.003a.344.344 0 0 0-.057-.014.247.247 0 0 0-.066 0l-.003-.001a.042.042 0 0 0-.006-.031.05.05 0 0 0-.019-.017z" fill="red"/><path d="M10.393 3.537a.351.351 0 0 1 .083-.024.054.054 0 0 1 .027.02.035.035 0 0 1 .004.025.176.176 0 0 0-.074.01.05.05 0 0 0-.025-.027.05.05 0 0 0-.015-.004zM10.694 3.69a.28.28 0 0 0-.145-.048V3.64c.016-.016.02-.03.014-.044a.068.068 0 0 0-.026-.03.33.33 0 0 1 .116.022.052.052 0 0 1 .005.036c-.003.01-.01.019-.024.026-.001.001-.003.002-.001.006.002.003.004.002.005.001.015-.008.024-.019.027-.031a.054.054 0 0 0-.002-.033 1.112 1.112 0 0 1 .084.056c0 .017-.005.026-.014.031-.008.006-.02.006-.035.005-.002 0-.004 0-.004.004z" fill="red"/><path d="M10.776 3.751c-.025-.02-.05-.04-.076-.057.015.001.028 0 .038-.006.009-.006.015-.016.016-.032a.545.545 0 0 1 .067.058.043.043 0 0 1 .002.017.02.02 0 0 1-.005.01.022.022 0 0 1-.01.006.072.072 0 0 1-.028.002c-.002 0-.004 0-.004.002z" fill="red"/><path d="M10.861 3.808a.492.492 0 0 1-.079-.051c.011 0 .02 0 .027-.002a.03.03 0 0 0 .015-.008.025.025 0 0 0 .007-.015v-.01a.426.426 0 0 0 .085.059v.002c0 .007-.004.012-.012.016a.139.139 0 0 1-.039.006c-.002 0-.004 0-.004.003z" fill="red"/><path d="M10.953 3.844a.481.481 0 0 1-.083-.031.133.133 0 0 0 .037-.007c.011-.004.017-.01.017-.021a.44.44 0 0 0 .051.022c.003.007.003.012 0 .017-.003.006-.01.01-.02.015-.002 0-.004.001-.002.005z" fill="red"/><path d="M11.144 3.825c.003 0 .018-.005.01 0-.056.038-.128.038-.195.02a.051.051 0 0 0 .023-.017.023.023 0 0 0 .003-.018.356.356 0 0 0 .065.015c0 .003 0 .007-.003.01a.05.05 0 0 1-.02.013c-.002 0-.003.002-.002.005.002.004.004.003.005.002a.058.058 0 0 0 .023-.015.022.022 0 0 0 .005-.014.361.361 0 0 0 .086-.002zM10.755 4.794a.086.086 0 0 0-.011.015c-.017.005-.03.014-.049.013 0 .011.004.016.016.016.021-.01.026-.013.028-.011.003.002-.003.018-.02.03-.004.002-.004.003-.002.006.015.024.055.015.077.01a.1.1 0 0 0 .05-.038c.003-.007-.003-.016-.01-.024-.017.003-.023-.005-.02-.01a.159.159 0 0 0-.059-.007zM10.143 4.601a.133.133 0 0 1-.042.024c-.006.002-.021.005-.023.013 0 .003.01.009.017.005.018-.017.027-.007.006.01-.002.004 0 .007.003.01.02.017.065.023.086.01.016-.01.024-.021.01-.036l.002-.01-.026-.002-.016-.01-.017-.014zM10.546 4.741h-.005c-.008.01.015.006.027.014.006.003.008.01.006.019-.011.027-.074.018-.095.007-.01-.005-.01-.01-.01-.02h.014a.06.06 0 0 0 .022-.007c.002-.002.004-.003.002-.007-.003-.004-.005-.003-.007-.002a.053.053 0 0 1-.018.007.103.103 0 0 1-.02 0h-.002c-.003-.002-.006-.004-.005-.007.002-.002.008 0 .01.001a.115.115 0 0 1 .028-.01l.004-.004a.21.21 0 0 1 .05.01h-.001zM10.257 4.725c-.004.002-.005.006-.008.012a.109.109 0 0 1-.035.023c-.012.006 0 .01.008.016.007.006.017-.006.023-.015.006-.01.013-.007.009 0a.079.079 0 0 0-.01.028c-.002.007.025.012.03.012.015.001.035-.015.048-.023.01-.01.009-.02.004-.032v-.001a.08.08 0 0 1-.02-.002.143.143 0 0 1-.022-.008s-.002 0 0-.002V4.73l-.027-.006zM10.369 3.66h.013c.008 0 .016.004.024.005a.181.181 0 0 1 .07-.015.23.23 0 0 1 .068-.01c-.003-.002-.001-.003 0-.005.013-.013.016-.025.012-.035-.004-.011-.016-.022-.032-.031-.017.002-.033-.003-.051-.001a.16.16 0 0 0-.034.007c.01.004.017.009.024.017.008.009.014.022.017.038 0 .002 0 .004-.004.005-.003 0-.004-.001-.004-.003a.074.074 0 0 0-.015-.035c-.008-.011-.025-.015-.03-.018a.351.351 0 0 0-.052.008.08.08 0 0 0-.03.013.052.052 0 0 1 .035.004.05.05 0 0 1 .023.03c.001.001.002.003-.002.004-.004.002-.004 0-.005-.002a.04.04 0 0 0-.02-.025c-.016-.009-.05-.001-.065.01a.17.17 0 0 0-.025.023l-.003.002c.03.003.062.004.086.014zm-.092-.018c0-.001 0-.003.002-.004a.175.175 0 0 1 .026-.025.075.075 0 0 1 .027-.014.079.079 0 0 1 .04-.02.36.36 0 0 1 .053-.009.042.042 0 0 0-.02-.021.058.058 0 0 0-.03-.003.244.244 0 0 0-.06.033h.005l.015.001c.002 0 .004.002.002.005-.001.005-.014.002-.018.002l-.016.001H10.3a.402.402 0 0 0-.051.039c.012.004.022.01.028.015z" fill="red"/><path d="M12.592 5.936l.837-1.898-.617-.998-1.102.408-.51 2.007c.48.122.945.284 1.392.481z" fill="#0093DD"/><path d="M11.524 4.18c.552.141 1.086.327 1.598.554l-.323.733a9.366 9.366 0 0 0-1.473-.51l.198-.777z" fill="#fff"/><path d="M12.851 5.349l.216-.49a10.033 10.033 0 0 0-1.577-.546l-.127.501a9.524 9.524 0 0 1 1.496.518l-.008.017z" fill="red"/><path d="M11.645 4.695c.015-.01.03-.007.046-.005a.11.11 0 0 1 .042-.005.079.079 0 0 1 .024-.008c.004-.004.005-.008 0-.012a.024.024 0 0 1-.006-.014c-.025-.015-.034-.037-.044-.058-.014-.004-.02-.009-.022-.014a1.42 1.42 0 0 1-.02-.002c-.033.003-.04-.007-.052-.016a.038.038 0 0 1-.024-.018l-.01-.014c-.01-.01-.006-.026.007-.025.01.001.018.001.027-.003a.081.081 0 0 1 .037-.003c.013 0 .022-.01.035-.022v-.015c-.003-.006 0-.009.008-.008a.04.04 0 0 1 .035.02c.02.004.036.014.047.031.027 0 .045.01.047.02.002.008-.006.016-.018.025v.006a.052.052 0 0 1 .015.019c.015.006.03.013.043.025.039-.005.104.024.192.08.058.01.113.026.167.05h.034a.345.345 0 0 1 .274.063.34.34 0 0 1 .09.026.218.218 0 0 0 .064.014c.035.003.07.012.105.028.04.009.076.02.1.049.015.019.011.037-.01.044-.012.027-.036.028-.074.015-.025.005-.053-.016-.079-.035a.404.404 0 0 1-.1-.054.13.13 0 0 0-.05-.024c-.013-.003-.025-.004-.033 0-.003.002-.003.004 0 .007a.052.052 0 0 1 .018.032c.002.012 0 .026 0 .04.001.016.01.027.026.037.01.006.023.013.041.016.01.001.012.006.011.013.005.023.01.047.018.068.003.006.007.009.014.014.024.017.011.036-.01.04a.125.125 0 0 1-.055.032c-.015.006-.021 0-.026-.008a.02.02 0 0 1-.018-.01c-.02-.014-.003-.038.042-.028 0-.005.005-.007.009-.007a.06.06 0 0 1 0-.037c-.004-.002-.007-.005-.013-.007a.114.114 0 0 1-.044-.024c-.023-.022-.059-.04-.094-.058-.028-.002-.05-.015-.072-.026h-.03c-.01-.004-.017 0-.022.006-.01.01-.02.009-.032.007h-.043c-.007.001-.013.004-.021.004-.016-.001-.031-.001-.042.008-.009.009-.018.008-.027.005a.039.039 0 0 1-.014-.01c-.01-.002-.018-.005-.02-.008-.02-.006-.024-.011-.024-.016-.024-.006-.013-.026.004-.026.018-.001.036.003.054.005a.052.052 0 0 0 .048-.01c.008-.007.011-.013.021-.019a.155.155 0 0 1-.073-.019c-.047-.03-.084-.036-.114-.011-.008.004-.014.006-.023.003a.043.043 0 0 0-.023-.002.089.089 0 0 1-.05-.004.165.165 0 0 1-.075.003c-.021.01-.036.012-.046.003a.336.336 0 0 1-.026-.016c-.014-.002-.02-.005-.02-.01-.017-.001-.02-.008-.019-.014-.007-.009-.004-.015.003-.02a.045.045 0 0 1 .04 0 .107.107 0 0 1 .02.013c.01-.002.018 0 .026.002.005-.008.02-.009.037-.008a.064.064 0 0 1 .03-.01v-.006c-.017-.005-.026-.017-.034-.029a.119.119 0 0 1-.063-.023.063.063 0 0 1-.038-.01c-.01 0-.02 0-.03-.002a.103.103 0 0 1-.057 0h-.033c-.012.013-.025.015-.04.008a.06.06 0 0 0-.033-.02c-.011-.004-.014-.008-.016-.014-.013-.008-.01-.016.002-.022.01-.004.021-.005.04.004a.073.073 0 0 0 .02.004z" fill="#000"/><path d="M12.277 4.887c-.002-.002-.004-.008-.014-.002-.03-.002-.064-.001-.089-.016-.026-.016-.053-.032-.082-.03a.073.073 0 0 1 .032-.018.141.141 0 0 1 .058 0c.03.004.058.01.079.018.02.008.034.017.04.029l.002.002c.008.005.015.01.02.016a.082.082 0 0 1 .012.013.116.116 0 0 1-.059-.012z" fill="#fff"/><path d="M12.345 3.441l.002.01.038.194-.15.131-.007.006.009.003.188.065.038.195.002.01.006-.007.15-.13.189.065.009.003-.002-.01-.038-.195.15-.13.007-.006-.009-.003-.188-.065-.038-.196-.002-.009-.006.006-.15.13-.189-.064-.009-.003z" fill="#000"/><path d="M12.254 3.774l.14-.122.176.06-.316.062zM12.593 3.708l.14-.122.176.06-.316.062zM12.91 3.653l-.14.122-.176-.061.317-.061zM12.57 3.719l-.14.122-.175-.06.316-.062zM12.365 3.46l.176.06.036.182-.212-.243zM12.592 3.72l.176.06.035.183-.21-.243zM12.799 3.967l-.176-.06-.036-.183.212.243zM12.572 3.706l-.176-.06-.036-.183.212.243zM12.694 3.398l.035.183-.14.122.105-.305zM12.581 3.726l.036.182-.14.122.104-.304zM12.47 4.028l-.035-.182.14-.122-.105.304zM12.583 3.701l-.036-.183.14-.122-.104.305z" fill="#F7DB17"/></g></svg>