<svg width="18" height="18" fill="none" xmlns="http://www.w3.org/2000/svg"><mask id="a" style="mask-type:alpha" maskUnits="userSpaceOnUse" x="0" y="0" width="18" height="18"><path d="M18 8.999a9 9 0 0 1-9 8.998A9 9 0 1 1 9 0a9 9 0 0 1 9 8.999z" fill="#D9D9D9"/></mask><g mask="url(#a)"><path d="M0 0h30.375v19.122H0V0z" fill="#fff"/><path d="M-1.125 0h31.5v9h-31.5V0z" fill="#ED2939"/><path d="M8.19 8.137a3.45 3.45 0 1 0 0-6.9 3.45 3.45 0 0 0 0 6.9z" fill="#fff"/><path d="M9.753 8.137a3.45 3.45 0 1 0 0-6.9 3.45 3.45 0 0 0 0 6.9z" fill="#ED2939"/><path d="M10.078 1.81L9.55 3.435l1.383-1.004h-1.71l1.383 1.004-.528-1.625zM12.815 3.798h-1.709l1.383 1.004-.529-1.625-.528 1.625 1.383-1.004zM8.387 7.014L9.769 6.01H8.06l1.383 1.004-.528-1.625-.528 1.625zM11.77 7.016l-.53-1.627-.526 1.625 1.381-1.002-1.709-.003 1.384 1.007zM7.34 3.797l1.386 1.006-.531-1.625L7.669 4.8 9.05 3.799l-1.71-.002z" fill="#fff"/></g></svg>