<svg width="18" height="18" fill="none" xmlns="http://www.w3.org/2000/svg"><mask id="a" style="mask-type:alpha" maskUnits="userSpaceOnUse" x="0" y="0" width="18" height="18"><path d="M18 9A9 9 0 1 1 0 9a9 9 0 0 1 18 0z" fill="#fff"/></mask><g mask="url(#a)"><path d="M29.34-.667H-8V18h37.34V-.667z" fill="#012169"/><mask id="b" style="mask-type:luminance" maskUnits="userSpaceOnUse" x="-8" y="-1" width="19" height="10"><path d="M10.67-.667H-8v9.334h18.67V-.667z" fill="#fff"/></mask><g mask="url(#b)"><path d="M-8-.667l18.67 9.334L-8-.667zm0 9.334L10.67-.667-8 8.667z" fill="#000"/><path d="M10.252 9.503L1.335 5.044l-8.918 4.459-.835-1.67L-.753 4-8.418.168l.835-1.67 8.918 4.459 8.917-4.458.835 1.67L3.422 4l7.665 3.833-.835 1.67z" fill="#fff"/></g><mask id="c" style="mask-type:luminance" maskUnits="userSpaceOnUse" x="-8" y="-1" width="19" height="10"><path d="M-8-.667L1.335 4H-8V-.667zm9.335 0h9.335L1.335 4V-.667zm0 4.667h9.335v4.667L1.335 4zm0 0v4.667H-8L1.335 4z" fill="#fff"/></mask><g mask="url(#c)"><path d="M-8-.667l18.67 9.334L-8-.667zm0 9.334L10.67-.667-8 8.667z" fill="#000"/><path d="M10.391 9.224L1.335 4.696l-9.057 4.528-.556-1.113L-.057 4-8.278-.11l.556-1.114 9.057 4.528 9.056-4.528.557 1.114L2.726 4l8.222 4.11-.557 1.114z" fill="#C8102E"/></g><mask id="d" style="mask-type:luminance" maskUnits="userSpaceOnUse" x="-8" y="-1" width="19" height="10"><path d="M10.67-.667H-8v9.334h18.67V-.667z" fill="#fff"/></mask><g mask="url(#d)"><path d="M1.335-.667v9.334-9.334zM-8 4h18.67H-8z" fill="#000"/><path d="M2.89 8.667H-.22V5.556H-8V2.444h7.78V-.667h3.11v3.111h7.78v3.112H2.89v3.111z" fill="#fff"/></g><mask id="e" style="mask-type:luminance" maskUnits="userSpaceOnUse" x="-8" y="-1" width="19" height="10"><path d="M10.67-.667H-8v9.334h18.67V-.667z" fill="#fff"/></mask><g mask="url(#e)"><path d="M1.335-.667v9.334-9.334zM-8 4h18.67H-8z" fill="#000"/><path d="M2.268 8.667H.401V4.934H-8V3.067H.401V-.667h1.867v3.734h8.402v1.867H2.268v3.733z" fill="#C8102E"/></g><path d="M15.69 6.947v.707l1.413-.707h-1.412z" fill="#fff"/><path d="M15.96 7.777l-.415-.57 1.558-.26-1.143.83z" fill="#fff"/><path d="M15.69 6.947v.707l-1.412-.707h1.413z" fill="#fff"/><path d="M15.421 7.777l.415-.57-1.558-.26 1.143.83z" fill="#fff"/><path d="M16.127 7.264l-.671.219 1.108 1.125-.437-1.344z" fill="#fff"/><path d="M15.421 7.777l.415-.57.728 1.4-1.143-.83z" fill="#fff"/><path d="M15.254 7.264l.672.219-.235-1.562-.437 1.343z" fill="#fff"/><path d="M16.127 7.264l-.671.219.235-1.562.436 1.343z" fill="#fff"/><path d="M15.254 7.264l.672.219-1.108 1.125.436-1.344z" fill="#fff"/><path d="M15.96 7.777l-.415-.57-.727 1.4 1.143-.83z" fill="#fff"/><path d="M15.69 7.104v.466l.934-.466h-.933z" fill="#C8102E"/><path d="M15.87 7.652l-.275-.378 1.03-.171-.756.549z" fill="#C8102E"/><path d="M15.69 7.104v.466l-.933-.466h.934z" fill="#C8102E"/><path d="M15.512 7.652l.275-.378-1.03-.171.755.549z" fill="#C8102E"/><path d="M15.98 7.313l-.445.144.733.744-.289-.888z" fill="#C8102E"/><path d="M15.512 7.652l.275-.378.48.926-.755-.548z" fill="#C8102E"/><path d="M15.402 7.313l.444.144-.155-1.032-.289.888z" fill="#C8102E"/><path d="M15.98 7.313l-.445.144.156-1.032.288.888z" fill="#C8102E"/><path d="M15.402 7.313l.444.144-.732.744.288-.888z" fill="#C8102E"/><path d="M15.87 7.652l-.275-.378-.481.926.755-.548z" fill="#C8102E"/></g></svg>