<svg width="18" height="18" fill="none" xmlns="http://www.w3.org/2000/svg"><mask id="a" style="mask-type:alpha" maskUnits="userSpaceOnUse" x="0" y="0" width="18" height="18"><path d="M18 9A9 9 0 1 1 0 9a9 9 0 0 1 18 0z" fill="#fff"/></mask><g mask="url(#a)"><path d="M-5-.032h27v17.997H-5V-.032z" fill="#fff"/><path d="M-5-.032h27v5.399H-5v-5.4z" fill="#000"/><path d="M-5 12.566h27v5.399H-5v-5.4z" fill="#060"/><path d="M5.284 14.31l.195.112 5.256-9.101c.307-.082.476-.375.645-.667.112-.195.562-.974.757-1.987-.78.675-1.23 1.455-1.342 1.65-.169.292-.337.584-.255.891L5.284 14.31z" fill="#000"/><path fill-rule="evenodd" clip-rule="evenodd" d="M12.223 2.519l-.03.16a6.585 6.585 0 0 1-.764 2.003l-.002.003c-.083.144-.17.294-.275.418a.809.809 0 0 1-.38.266L5.5 14.499l-.292-.168L10.48 5.2a.81.81 0 0 1 .04-.463 2.84 2.84 0 0 1 .225-.447l.002-.002c.113-.197.567-.983 1.354-1.664l.122-.106zm-.176.304a6.531 6.531 0 0 0-1.203 1.522 2.748 2.748 0 0 0-.218.431.686.686 0 0 0-.032.418l.006.023-5.239 9.073.098.056 5.239-9.073.022-.006a.687.687 0 0 0 .346-.237c.098-.115.18-.257.265-.404.106-.183.509-.881.716-1.803z" fill="#000"/><path d="M5.284 14.31l.195.112 5.256-9.101c.307-.082.476-.375.645-.667.112-.195.562-.974.757-1.987-.78.675-1.23 1.455-1.342 1.65-.169.292-.337.584-.255.891L5.284 14.31z" fill="#fff"/><path d="M11.716 14.31l-.195.112-5.256-9.101c-.307-.082-.476-.375-.645-.667-.112-.195-.562-.974-.757-1.987.78.675 1.23 1.455 1.342 1.65.169.292.337.584.255.891l5.256 9.102z" fill="#000"/><path fill-rule="evenodd" clip-rule="evenodd" d="M4.777 2.519l.03.16c.197 1.021.651 1.807.764 2.003l.002.003c.083.144.17.294.275.418.101.12.223.218.38.266l5.272 9.13.292-.168L6.52 5.2a.808.808 0 0 0-.04-.463 2.843 2.843 0 0 0-.225-.447l-.002-.002c-.113-.197-.567-.983-1.353-1.664l-.123-.106zm.176.304a6.532 6.532 0 0 1 1.203 1.522c.085.147.167.289.218.431.05.141.069.279.032.418l-.006.023 5.239 9.073-.098.056-5.239-9.073-.022-.006a.687.687 0 0 1-.346-.237 2.76 2.76 0 0 1-.265-.404 6.532 6.532 0 0 1-.716-1.803z" fill="#000"/><path d="M11.716 14.31l-.195.112-5.256-9.101c-.307-.082-.476-.375-.645-.667-.112-.195-.562-.974-.757-1.987.78.675 1.23 1.455 1.342 1.65.169.292.337.584.255.891l5.256 9.102z" fill="#fff"/><path d="M-5 6.267v5.4H6.363c.337.9 1.462 2.7 2.137 2.7s1.8-1.8 2.137-2.7H22v-5.4H10.637c-.337-.9-1.462-2.7-2.137-2.7s-1.8 1.8-2.138 2.7H-5z" fill="#B00"/><path d="M10.637 11.665c.338-.9.563-1.8.563-2.699 0-.9-.225-1.8-.563-2.7-.337.9-.562 1.8-.562 2.7 0 .9.225 1.8.563 2.7zM6.362 11.665c-.337-.9-.562-1.8-.562-2.699 0-.9.225-1.8.562-2.7.338.9.563 1.8.563 2.7 0 .9-.225 1.8-.563 2.7z" fill="#000"/><path d="M8.5 9.642c.249 0 .45-.303.45-.675 0-.373-.201-.676-.45-.676s-.45.303-.45.675c0 .373.201.676.45.676z" fill="#fff"/><path d="M8.612 9.625s.45.9.45 2.361c0 1.463-.45 2.362-.45 2.362V9.625zM8.388 8.309s-.45-.9-.45-2.362c0-1.463.45-2.362.45-2.362v4.724zM8.388 9.625s-.45.9-.45 2.361c0 1.463.45 2.362.45 2.362V9.625zM8.612 8.309s.45-.9.45-2.362c0-1.463-.45-2.362-.45-2.362v4.724z" fill="#fff"/></g></svg>