<svg width="18" height="18" fill="none" xmlns="http://www.w3.org/2000/svg"><mask id="a" style="mask-type:alpha" maskUnits="userSpaceOnUse" x="0" y="0" width="18" height="18"><path d="M18 8.999a9 9 0 0 1-9 8.998A9 9 0 1 1 9 0a9 9 0 0 1 9 8.999z" fill="#D9D9D9"/></mask><g mask="url(#a)"><path d="M0 0h32.063v21.372H0" fill="#EE1C25"/><path d="M5.344 2.137l1.884 5.8-4.934-3.585h6.1L3.458 7.936M11.106 1.154l-.179 2.025-1.046-1.743 1.871.795-1.98.456M13.592 3.53l-.95 1.797-.288-2.012 1.416 1.459-2.003-.348M13.829 7.114l-1.6 1.253.558-1.955.697 1.91-1.687-1.135M11.065 8.617l-.095 2.031L9.853 8.95l1.902.717-1.96.538" fill="#FF0"/></g></svg>