<svg width="18" height="19" fill="none" xmlns="http://www.w3.org/2000/svg"><mask id="a" style="mask-type:luminance" maskUnits="userSpaceOnUse" x="0" y="0" width="18" height="19"><path d="M9 18.649A9 9 0 1 0 9 .65 9 9 0 1 0 9 18.65z" fill="#fff"/></mask><g mask="url(#a)"><path d="M22.903.199H6.283V18.65h16.62V.199z" fill="red"/><path d="M6.283.199H-4.778V18.65h11.06V.199z" fill="#060"/><path d="M3.598 9.747a9.733 9.733 0 0 1-1.402-.302 2.053 2.053 0 0 1-.504-.224l-.027.12c.604.275 1.248.45 1.908.517l.025-.11z" fill="#FF0"/><path d="M3.572 9.872a6.195 6.195 0 0 1-1.915-.519.015.015 0 0 1-.007-.016l.027-.12a.014.014 0 0 1 .009-.01.016.016 0 0 1 .013 0c.157.096.327.171.504.222a9.68 9.68 0 0 0 1.4.303c.003 0 .007.002.01.005l.001.005-.001.006-.026.109a.014.014 0 0 1-.004.01.014.014 0 0 1-.01.005zm-1.891-.539c.596.268 1.231.44 1.881.51l.02-.082a9.846 9.846 0 0 1-1.39-.303 2.467 2.467 0 0 1-.49-.213l-.021.088z" fill="#000"/><path d="M3.598 10.14a8.073 8.073 0 0 1-1.402-.31 2.947 2.947 0 0 1-.504-.206l-.027.12a6.31 6.31 0 0 0 1.908.504l.025-.108z" fill="#FF0"/><path d="M3.573 10.262a6.39 6.39 0 0 1-1.915-.504.014.014 0 0 1-.007-.016l.027-.12a.011.011 0 0 1 .008-.01.015.015 0 0 1 .006 0H1.7c.162.083.33.15.504.202a8.1 8.1 0 0 0 1.399.31l.005.001.005.004v.011l-.026.109a.015.015 0 0 1-.004.009.015.015 0 0 1-.009.004zm-1.891-.527a6.397 6.397 0 0 0 1.881.498l.018-.082a8.12 8.12 0 0 1-1.389-.31 3.699 3.699 0 0 1-.489-.201l-.021.095z" fill="#000"/><path d="M3.578 9.855l.018.292a8.652 8.652 0 0 1-1.056-.202c-.383-.114-.84-.28-.84-.28l.19-.236c.544.209 1.11.352 1.688.426z" fill="#FF0"/><path d="M3.597 10.161a8.776 8.776 0 0 1-1.06-.202 20.221 20.221 0 0 1-.845-.283.013.013 0 0 1-.003-.005.013.013 0 0 1 0-.012l.19-.237a.013.013 0 0 1 .016 0c.542.207 1.107.35 1.683.423a.013.013 0 0 1 .012.014l.019.29v.012a.017.017 0 0 1-.012 0zm-1.874-.504c.089.031.485.172.82.273.342.09.69.157 1.04.202l-.017-.263a7.343 7.343 0 0 1-1.67-.42l-.173.208z" fill="#000"/><path d="M3.147 8.696c-.385-.258-1.1-.807-1.129-1.087.12-.088.224-.197.303-.323.078-.16.016-.303.04-.336.024-.033.05-.201.675-.008.625.194.605.229.605.229V8.73l-.494-.034z" fill="#FF0"/><path d="M3.642 8.743l-.495-.033H3.14c-.404-.273-1.11-.807-1.136-1.097a.015.015 0 0 1 .006-.013 1.17 1.17 0 0 0 .294-.319.46.46 0 0 0 .036-.254.141.141 0 0 1 .006-.083l.006-.009c.03-.056.101-.188.686 0 .215.054.422.133.618.235v1.565a.015.015 0 0 1 0 .01.018.018 0 0 1-.015-.002zm-.491-.06l.477.032V7.176a2.786 2.786 0 0 0-.6-.22c-.565-.177-.628-.055-.652-.009a.068.068 0 0 1-.008.012.156.156 0 0 0 0 .066.485.485 0 0 1-.038.268 1.14 1.14 0 0 1-.296.323c.038.276.717.797 1.117 1.066z" fill="#000"/><path d="M2.444 8.017c.114.106 1.04.82 1.18.888V7.774l-1.097-.336-.083.579z" fill="#FF0"/><path d="M3.623 8.92h-.006c-.145-.073-1.073-.79-1.182-.892a.015.015 0 0 1 0-.012l.082-.579c0-.001 0-.003.002-.005a.013.013 0 0 1 .004-.004.018.018 0 0 1 .012 0l1.097.336a.015.015 0 0 1 .01.013v1.131a.016.016 0 0 1-.006.013.011.011 0 0 1-.013-.001zm-1.165-.908c.125.113.96.757 1.15.871V7.785l-1.07-.328-.08.555z" fill="#000"/><path d="M2.232 11.648c.123.065.213-.045.207.357a9.975 9.975 0 0 0 3.496.64l-1.259-.634a9.648 9.648 0 0 1-1.81-.302c-.096-.05-.373-.397-.634-.06z" fill="#FF0"/><path d="M5.935 12.66a10.126 10.126 0 0 1-3.502-.643.015.015 0 0 1-.005-.005.014.014 0 0 1-.002-.008c0-.293-.04-.302-.114-.317a.338.338 0 0 1-.086-.027.015.015 0 0 1-.007-.009.012.012 0 0 1 0-.01.347.347 0 0 1 .23-.148h.03a.56.56 0 0 1 .327.161c.02.018.042.035.066.05a9.643 9.643 0 0 0 1.78.302H4.678l1.259.633a.014.014 0 0 1 .007.016.016.016 0 0 1-.01.004zm-3.482-.663a10.24 10.24 0 0 0 3.415.631l-1.195-.605h-.018a9.698 9.698 0 0 1-1.793-.302.506.506 0 0 1-.07-.053.537.537 0 0 0-.31-.155h-.026a.31.31 0 0 0-.201.125c.02.008.04.014.062.018.092.022.141.047.141.338l-.005.003z" fill="#000"/><path d="M2.936 11.825a7.241 7.241 0 0 0 1.87.321l.582.321a8.663 8.663 0 0 1-2.243-.339l-.209-.303z" fill="#FF0"/><path d="M5.243 12.501a11.214 11.214 0 0 1-2.103-.358.012.012 0 0 1-.006-.006l-.209-.302a.013.013 0 0 1 0-.016.014.014 0 0 1 .016 0 6.987 6.987 0 0 0 1.866.32h.005l.581.321a.014.014 0 0 1 .007.011.015.015 0 0 1-.005.012.346.346 0 0 1-.152.018zm-2.09-.384c.686.185 1.387.305 2.094.357a.471.471 0 0 0 .11-.009l-.554-.303a7.794 7.794 0 0 1-1.83-.302l.18.257z" fill="#000"/><path d="M6.295 5.367V4.87a4.568 4.568 0 1 0 0 9.135v-.498a4.07 4.07 0 1 1 0-8.139z" fill="#FF0"/><path d="M6.308 14.018h-.014a4.581 4.581 0 0 1 0-9.162h.014v.527h-.014a4.056 4.056 0 0 0 0 8.11h.014v.525zM6.28 4.883a4.554 4.554 0 0 0 0 9.107v-.47a4.084 4.084 0 1 1 0-8.168v-.47z" fill="#000"/><path d="M2.115 9.437a4.179 4.179 0 0 0 4.18 4.18v.277a4.457 4.457 0 0 1 0-8.913v.277a4.18 4.18 0 0 0-4.18 4.179z" fill="#FF0"/><path d="M6.309 13.907h-.014a4.471 4.471 0 0 1 0-8.94h.014v.302h-.014a4.166 4.166 0 1 0 0 8.332h.014v.306zm-.027-8.912a4.443 4.443 0 1 0 0 8.885v-.25a4.194 4.194 0 0 1 0-8.385v-.25z" fill="#000"/><path d="M2.554 6.836c.35-.16.722-.272 1.103-.33v.46a3.044 3.044 0 0 0-.624.164l-.48-.294z" fill="#FF0"/><path d="M3.034 7.144h-.007l-.48-.295a.013.013 0 0 1-.006-.012.014.014 0 0 1 .007-.012 4.186 4.186 0 0 1 1.12-.331.014.014 0 0 1 0 .01v.46a.014.014 0 0 1-.011.014 2.8 2.8 0 0 0-.617.161l-.006.005zm-.452-.302l.452.277c.197-.074.402-.128.611-.16v-.432c-.366.056-.724.16-1.063.31v.005z" fill="#000"/><path d="M2.76 6.843c.269-.105.55-.179.836-.22v.26c-.166.016-.33.05-.487.1l-.35-.14z" fill="#FF0"/><path d="M3.11 6.994l-.35-.136a.014.014 0 0 1-.01-.012.015.015 0 0 1 .008-.013 3.74 3.74 0 0 1 .85-.221.015.015 0 0 1 0 .01v.261a.014.014 0 0 1-.012.014 2.368 2.368 0 0 0-.483.095l-.003.002zm-.314-.152l.314.123c.154-.048.313-.08.474-.093v-.234c-.27.04-.534.11-.789.204h.001z" fill="#000"/><path d="M2.477 6.848c-.04.065-.335.63-.356.68.524.041 1.03.211 1.473.494v-.859s-.793-.426-1.117-.315z" fill="#FF0"/><path d="M3.594 8.034h-.006a3.227 3.227 0 0 0-1.472-.494.011.011 0 0 1-.005-.005.013.013 0 0 1 0-.013c.02-.046.314-.613.357-.68a.014.014 0 0 1 .007-.005c.325-.112 1.095.302 1.128.315a.015.015 0 0 1 .007.012v.86a.016.016 0 0 1-.006.011h-.01zm-1.452-.522a3.38 3.38 0 0 1 1.437.485V7.17c-.08-.042-.792-.403-1.093-.311-.046.077-.292.547-.344.653z" fill="#000"/><path d="M3.594 7.099c-.156-.1-1.002-.388-1.157-.287 0 0-.07.11-.078.135.101-.094.409-.12 1.223.257l.012-.105z" fill="#FF0"/><path d="M3.582 7.222a.007.007 0 0 1-.006 0c-.864-.403-1.127-.334-1.21-.26a.014.014 0 0 1-.016 0 .013.013 0 0 1-.005-.016c.024-.048.05-.094.08-.138.16-.107 1.008.184 1.173.286a.013.013 0 0 1 .006.013l-.012.106a.012.012 0 0 1-.008.01l-.002-.001zm-1.016-.345c.353.036.696.141 1.008.31l.01-.078a2.493 2.493 0 0 0-1.134-.283 2.242 2.242 0 0 0-.05.082.39.39 0 0 1 .166-.03z" fill="#000"/><path d="M3.64 7.989c-.155-.1-1.317-.634-1.55-.495a1.095 1.095 0 0 0-.07.115c.27-.115.798.11 1.614.487l.006-.107z" fill="#FF0"/><path d="M3.63 8.108h-.004c-.795-.367-1.335-.599-1.6-.486a.014.014 0 0 1-.015-.003.014.014 0 0 1-.004-.014.907.907 0 0 1 .071-.118c.244-.146 1.412.403 1.565.495a.014.014 0 0 1 .006.013l-.008.106a.014.014 0 0 1-.006.011l-.004-.004zM2.19 7.564c.502.086.986.259 1.43.51l.006-.079c-.202-.12-1.306-.614-1.527-.492a.956.956 0 0 0-.05.08.477.477 0 0 1 .138-.018l.003-.001z" fill="#000"/><path d="M1.737 9.199a1.16 1.16 0 0 0-.024.403 4.12 4.12 0 0 1 1.892-.612v-.407s-1.598.23-1.868.616z" fill="#FF0"/><path d="M1.713 9.617h-.006a.012.012 0 0 1-.007-.012 1.21 1.21 0 0 1 .027-.413c.27-.386 1.815-.613 1.878-.622a.016.016 0 0 1 .01 0 .015.015 0 0 1 0 .01v.41a.013.013 0 0 1-.003.01.013.013 0 0 1-.01.003 4.134 4.134 0 0 0-1.885.605l-.004.01zm.036-.41c-.03.122-.038.248-.023.372a4.171 4.171 0 0 1 1.866-.605v-.38c-.168.027-1.595.253-1.844.605l.001.008z" fill="#000"/><path d="M1.665 9.341V9.2A4.174 4.174 0 0 1 3.58 8.54v.112s-1.631.226-1.915.688z" fill="#FF0"/><path d="M1.665 9.354a.014.014 0 0 1-.01-.013V9.2a.01.01 0 0 1 0-.007 4.267 4.267 0 0 1 1.922-.664.013.013 0 0 1 .01.015v.111a.014.014 0 0 1-.013.015c-.016 0-1.625.23-1.901.68a.013.013 0 0 1-.008.005zm.014-.15v.093c.327-.422 1.728-.634 1.885-.658v-.082c-.67.058-1.317.28-1.881.647h-.004z" fill="#000"/><path d="M1.665 9.743v-.14a4.175 4.175 0 0 1 1.915-.658v.112s-1.631.225-1.915.686z" fill="#FF0"/><path d="M1.665 9.757a.014.014 0 0 1-.01-.014v-.149a4.278 4.278 0 0 1 1.922-.663.013.013 0 0 1 .01.014v.112a.014.014 0 0 1-.012.014c-.017 0-1.626.23-1.902.68l-.004.004-.004.002zm.014-.15V9.7c.327-.421 1.728-.634 1.885-.657V8.96c-.67.058-1.317.28-1.881.646h-.004z" fill="#000"/><path d="M2.24 11.574c.045.106.104.205.176.295a4.693 4.693 0 0 1 1.546-.536s.015-.357-.19-.368c-.203-.01-1.564.392-1.532.61z" fill="#FF0"/><path d="M2.416 11.882l-.006-.001a1.281 1.281 0 0 1-.183-.306.101.101 0 0 1 .034-.084c.459-.281.97-.465 1.504-.542h.009c.215.012.202.367.202.383l-.001.005a.013.013 0 0 1-.003.005 4.74 4.74 0 0 0-1.556.54zm-.161-.31c.042.1.098.194.166.279a4.69 4.69 0 0 1 1.53-.53c0-.062-.01-.333-.178-.343h-.008a4.04 4.04 0 0 0-1.483.533.078.078 0 0 0-.027.061z" fill="#000"/><path d="M3.797 10.926c-.44.069-1.623.404-1.62.633l.055.09a2.81 2.81 0 0 1 1.583-.617l-.018-.106z" fill="#FF0"/><path d="M2.232 11.662l-.006-.001a.015.015 0 0 1-.006-.005l-.054-.09v-.006c0-.253 1.223-.583 1.631-.647.004 0 .008 0 .01.003a.014.014 0 0 1 .006.008l.02.101a.01.01 0 0 1 0 .005.01.01 0 0 1 0 .005.013.013 0 0 1-.01.005 2.823 2.823 0 0 0-1.571.605.014.014 0 0 1-.012.011l-.008.006zm-.041-.107l.037.062A3.113 3.113 0 0 1 3.8 11.02l-.014-.077c-.485.082-1.585.404-1.594.613z" fill="#000"/><path d="M3.979 11.287c-.477.068-1.6.393-1.595.63l.054.09c.027-.164.605-.46 1.568-.606l-.027-.114z" fill="#FF0"/><path d="M2.44 12.02l-.008-.002a.017.017 0 0 1-.005-.005l-.054-.09v-.007c0-.25 1.14-.577 1.606-.643a.014.014 0 0 1 .016.01l.027.11a.015.015 0 0 1 0 .011.013.013 0 0 1-.004.004.012.012 0 0 1-.005.002c-.977.152-1.532.444-1.556.597a.013.013 0 0 1-.01.011l-.008.001zm-.041-.107l.037.059c.441-.36.987-.565 1.555-.587l-.02-.082c-.528.077-1.564.4-1.572.61z" fill="#000"/><path d="M8.265 11.74c.194.101 1.462.713 1.655.572l.053-.545c.126-.004.25-.023.372-.057.026-.035.21-.163-.415-.454a8.472 8.472 0 0 0-1.268-.457l-.397.941z" fill="#FF0"/><path d="M9.83 12.348a6.149 6.149 0 0 1-1.571-.594.014.014 0 0 1-.006-.007.014.014 0 0 1 0-.01l.396-.941a.014.014 0 0 1 .007-.007.014.014 0 0 1 .01-.002c.434.12.858.273 1.269.46.288.133.445.252.466.354a.123.123 0 0 1-.04.112l-.007.008a1.13 1.13 0 0 1-.37.06l-.051.535a.017.017 0 0 1-.006.01.167.167 0 0 1-.097.022zm-1.547-.613c.303.16 1.436.682 1.625.571l.05-.54.005-.008a.016.016 0 0 1 .01-.005c.121-.001.243-.018.361-.05l.008-.01a.1.1 0 0 0 .032-.089c-.013-.062-.1-.171-.45-.333a8.528 8.528 0 0 0-1.254-.454l-.387.918z" fill="#000"/><path d="M8.326 11.655c.215.114.435.217.66.308.236.033.475.05.714.053l.273-.58s-1.21-.872-1.215-.847a92.034 92.034 0 0 1-.432 1.066z" fill="#FF0"/><path d="M9.7 12.027a5.18 5.18 0 0 1-.72-.055 3.94 3.94 0 0 0-.114-.05 4.858 4.858 0 0 1-.547-.258.013.013 0 0 1-.005-.016 147.878 147.878 0 0 0 .434-1.07.013.013 0 0 1 .006-.003c.423.261.831.544 1.225.848a.014.014 0 0 1 0 .017l-.273.582a.018.018 0 0 1-.006.005zm-1.355-.381c.172.093.35.177.532.25.056.025.1.041.116.051.231.033.465.05.699.05l.264-.561c-.44-.319-1.095-.785-1.19-.833-.044.115-.377.932-.421 1.043z" fill="#000"/><path d="M9.544 12.216c-.942.265-1.915.41-2.894.43l1.229-.612a9.71 9.71 0 0 0 1.838-.32c.097-.056.237.359-.173.502z" fill="#FF0"/><path d="M6.649 12.66a.015.015 0 0 1-.009-.003.015.015 0 0 1-.005-.007l-.001-.005v-.005l.003-.004.005-.002 1.229-.613h.025a10.075 10.075 0 0 0 1.815-.32.052.052 0 0 1 .057 0 .238.238 0 0 1 .065.216.38.38 0 0 1-.283.303c-.945.265-1.919.41-2.9.432l-.001.008zm1.233-.611l-1.165.58a11.596 11.596 0 0 0 2.824-.426.352.352 0 0 0 .265-.284.217.217 0 0 0-.053-.19.028.028 0 0 0-.028 0 9.742 9.742 0 0 1-1.825.324l-.018-.004z" fill="#000"/><path d="M9.636 11.852c-.624.143-1.257.247-1.894.31l-.671.352a11.855 11.855 0 0 0 2.384-.38l.181-.282z" fill="#FF0"/><path d="M7.12 12.53h-.05a.013.013 0 0 1-.005-.025l.67-.353a.01.01 0 0 1 .005 0 .01.01 0 0 1 .005 0h.028a16.273 16.273 0 0 0 1.865-.314c.003 0 .006.001.008.003a.014.014 0 0 1 0 .016l-.181.281-.006.007c-.765.203-1.548.333-2.338.386zm.625-.353l-.62.325c.783-.052 1.56-.18 2.319-.38l.158-.245c-.606.134-1.218.235-1.835.303l-.022-.003z" fill="#000"/><path d="M8.986 9.748a9.727 9.727 0 0 0 1.402-.302c.178-.052.347-.127.504-.224l.029.12a6.122 6.122 0 0 1-1.91.517l-.025-.11z" fill="#FF0"/><path d="M9.011 9.872a.015.015 0 0 1-.014-.011l-.025-.11a.015.015 0 0 1 0-.01.011.011 0 0 1 .004-.004 2.089 2.089 0 0 0 1.916-.527l.007.001a.016.016 0 0 1 .009.01l.028.12a.014.014 0 0 1-.007.016 6.197 6.197 0 0 1-1.916.519l-.002-.004zm-.008-.111l.018.081a6.218 6.218 0 0 0 1.882-.509l-.021-.09a2.43 2.43 0 0 1-.49.214c-.455.134-.919.236-1.389.304z" fill="#000"/><path d="M8.986 10.14a8.07 8.07 0 0 0 1.402-.309c.174-.053.343-.122.504-.206l.029.12a6.316 6.316 0 0 1-1.91.504l-.025-.108z" fill="#FF0"/><path d="M9.01 10.263a.015.015 0 0 1-.015-.011l-.025-.11a.012.012 0 0 1 0-.011.012.012 0 0 1 .01-.004 7.994 7.994 0 0 0 1.398-.31 3.032 3.032 0 0 0 .51-.205.014.014 0 0 1 .012.005.014.014 0 0 1 .004.006l.028.12a.014.014 0 0 1-.007.016 6.386 6.386 0 0 1-1.916.504zM9 10.152l.018.082a6.425 6.425 0 0 0 1.882-.498l-.021-.092c-.158.08-.322.147-.49.201a8.115 8.115 0 0 1-1.388.307h-.001z" fill="#000"/><path d="M9.005 9.855l-.018.292a8.65 8.65 0 0 0 1.056-.202c.384-.114.84-.28.84-.28l-.19-.236a7.336 7.336 0 0 1-1.688.426z" fill="#FF0"/><path d="M8.987 10.16c-.003.002-.006.002-.01 0a.016.016 0 0 1 0-.01l.019-.292c0-.003.001-.006.004-.008a.014.014 0 0 1 .008-.005A7.413 7.413 0 0 0 10.7 9.42c.004 0 .007 0 .009.003l.19.237a.016.016 0 0 1 0 .012.014.014 0 0 1-.003.005.014.014 0 0 1-.006.004s-.461.166-.84.28a8.745 8.745 0 0 1-1.06.2h-.003zm.031-.292l-.016.263c.35-.046.696-.113 1.037-.202.335-.1.732-.24.821-.273l-.17-.213c-.539.207-1.1.35-1.672.425z" fill="#000"/><path d="M8.984 7.84a7.092 7.092 0 0 0 1.479-.404l-.109-.123s-.192-.186-.123-.207c.07-.021.042-.092-.168-.137-.211-.046-.095.116-.365.201a4.461 4.461 0 0 1-.717.173l.003.497z" fill="#FF0"/><path d="M8.987 7.853h-.01a.015.015 0 0 1 0-.01v-.504a.014.014 0 0 1 .013-.014c.242-.037.481-.095.714-.172a.317.317 0 0 0 .194-.142c.034-.048.06-.088.179-.061.134.029.213.071.214.116 0 .01 0 .036-.045.048h-.005c-.006.026.065.113.134.18l.11.123a.014.014 0 0 1 0 .012.01.01 0 0 1-.008.01 7.11 7.11 0 0 1-1.484.409l-.006.005zm.011-.504v.472a7.252 7.252 0 0 0 1.442-.398l-.101-.107c-.025-.025-.154-.152-.141-.202a.032.032 0 0 1 .024-.024c.016 0 .025-.012.025-.02 0-.007-.041-.058-.191-.091-.101-.021-.117 0-.15.05a.346.346 0 0 1-.21.152 4.547 4.547 0 0 1-.698.172v-.004z" fill="#000"/><path d="M9.022 7.73a6.38 6.38 0 0 0 .918-.21l-.14-.256c-.252.083-.511.143-.774.178l-.004.289z" fill="#FF0"/><path d="M9.022 7.745a.014.014 0 0 1-.01-.004.014.014 0 0 1-.004-.011v-.288c0-.004.002-.008.004-.01a.014.014 0 0 1 .01-.005 4.4 4.4 0 0 0 .768-.178.014.014 0 0 1 .017.006l.14.256a.015.015 0 0 1 0 .011.013.013 0 0 1-.007.008 6.34 6.34 0 0 1-.918.215zm.017-.288v.26a6.81 6.81 0 0 0 .884-.202l-.127-.233c-.247.08-.5.139-.757.175z" fill="#000"/><path d="M6.289 5.367V4.87a4.568 4.568 0 1 1 0 9.135v-.498a4.07 4.07 0 1 0 0-8.139z" fill="#FF0"/><path d="M6.289 14.018h-.014v-.526h.014a4.056 4.056 0 0 0 0-8.111h-.014v-.526h.014a4.582 4.582 0 1 1 0 9.163zm.014-.504v.47a4.554 4.554 0 0 0 0-9.106v.47a4.084 4.084 0 1 1 0 8.166z" fill="#000"/><path d="M10.469 9.437a4.178 4.178 0 0 1-4.18 4.18v.277a4.457 4.457 0 1 0 0-8.913v.278a4.18 4.18 0 0 1 4.18 4.178z" fill="#FF0"/><path d="M6.289 13.907h-.014v-.302h.014a4.166 4.166 0 0 0 0-8.331h-.014V4.97h.014a4.47 4.47 0 1 1 0 8.94v-.004zm.014-.276v.249a4.443 4.443 0 0 0 0-8.885v.249a4.194 4.194 0 0 1 0 8.387z" fill="#000"/><path d="M10.846 9.2c.031.132.04.269.024.403a4.12 4.12 0 0 0-1.891-.612v-.407s1.598.23 1.867.616z" fill="#FF0"/><path d="M10.87 9.619a.01.01 0 0 1-.007 0 4.134 4.134 0 0 0-1.89-.607.013.013 0 0 1-.005-.003.013.013 0 0 1-.003-.01V8.59a.015.015 0 0 1 0-.01.017.017 0 0 1 .01 0c.066.01 1.608.236 1.878.622a1.229 1.229 0 0 1 .025.42.017.017 0 0 1-.005.006l-.002-.01zM8.992 8.98c.661.05 1.3.258 1.865.605.015-.124.007-.25-.023-.372-.249-.356-1.676-.583-1.842-.605v.372z" fill="#000"/><path d="M10.923 9.341V9.2a4.174 4.174 0 0 0-1.916-.659v.112s1.627.226 1.916.688z" fill="#FF0"/><path d="M10.919 9.355a.016.016 0 0 1-.013-.006c-.277-.45-1.886-.68-1.901-.681a.014.014 0 0 1-.012-.014v-.112a.017.017 0 0 1 0-.012h.011c.682.065 1.34.292 1.916.664a.01.01 0 0 1 0 .007v.142a.014.014 0 0 1-.01.013h.009zM9.02 8.641c.157.023 1.557.235 1.886.658v-.093a4.102 4.102 0 0 0-1.884-.647l-.002.082z" fill="#000"/><path d="M10.923 9.743v-.14a4.175 4.175 0 0 0-1.916-.658v.112s1.627.225 1.916.686z" fill="#FF0"/><path d="M10.919 9.757a.016.016 0 0 1-.013-.006C10.63 9.3 9.02 9.07 9.005 9.07a.015.015 0 0 1-.012-.014v-.112a.017.017 0 0 1 0-.011l.005-.002.006.002c.682.064 1.34.292 1.916.663a.01.01 0 0 1 0 .007v.142a.014.014 0 0 1-.003.009.014.014 0 0 1-.008.005l.01-.002zM9.02 9.043c.157.023 1.557.235 1.886.657v-.093a4.102 4.102 0 0 0-1.884-.646l-.002.082z" fill="#000"/><path d="M10.376 11.565s-.375.565-.403.605a6.24 6.24 0 0 0-1.243-1.11l.176-.87a4.623 4.623 0 0 1 1.47 1.375z" fill="#FF0"/><path d="M9.969 12.188a.015.015 0 0 1-.01 0 6.227 6.227 0 0 0-1.245-1.116.015.015 0 0 1-.001-.01l.176-.87a.014.014 0 0 1 .007-.01.016.016 0 0 1 .013 0 4.654 4.654 0 0 1 1.481 1.388v.006c-.017.023-.377.566-.404.604a.02.02 0 0 1-.017.008zm-1.227-1.136c.456.31.868.68 1.225 1.1.063-.091.359-.537.393-.59a4.678 4.678 0 0 0-1.449-1.35l-.17.84z" fill="#000"/><path d="M8.73 11.135c.148.1 1.343.96 1.184 1.178 0 0 .085-.07.094-.118.03-.154-.489-.625-1.231-1.167l-.046.107z" fill="#FF0"/><path d="M9.915 12.326h-.009a.015.015 0 0 1 0-.02.07.07 0 0 0 .01-.058c-.047-.273-1.008-.972-1.19-1.099a.013.013 0 0 1 0-.016l.048-.106a.015.015 0 0 1 .01-.007.014.014 0 0 1 .011 0c.303.22 1.28.954 1.236 1.18-.01.05-.09.118-.1.126h-.016zM8.75 11.13c.11.078 1.14.807 1.192 1.11v.026a.202.202 0 0 0 .052-.075c.026-.136-.449-.584-1.21-1.143l-.034.082z" fill="#000"/><path d="M8.931 10.277c.148.1 1.584 1.196 1.425 1.412a.427.427 0 0 0 .082-.13c.029-.153-.72-.847-1.461-1.389l-.046.107z" fill="#FF0"/><path d="M10.356 11.709h-.008a.016.016 0 0 1-.003-.01c0-.003 0-.007.003-.01a.065.065 0 0 0 .008-.05c-.05-.293-1.244-1.217-1.43-1.343a.013.013 0 0 1 0-.016l.048-.106a.015.015 0 0 1 .009-.007.014.014 0 0 1 .006-.001l.006.001c.719.524 1.497 1.236 1.466 1.404a.429.429 0 0 1-.086.136.022.022 0 0 1-.019.002zm-1.411-1.432c.159.114 1.377 1.04 1.431 1.355v.01a.245.245 0 0 0 .044-.078c.026-.139-.686-.812-1.442-1.366l-.033.079z" fill="#000"/><path d="M9.02 6.579v.352c.467.074.922.21 1.353.403a2.262 2.262 0 0 0-.26-.412A2.653 2.653 0 0 0 9.02 6.58z" fill="#FF0"/><path d="M10.372 7.348h-.007a5.418 5.418 0 0 0-1.348-.404.014.014 0 0 1-.01-.014v-.352a.014.014 0 0 1 0-.01 2.667 2.667 0 0 1 1.11.347 2.211 2.211 0 0 1 .267.425l-.003.008h-.009zm-1.339-.43c.449.073.886.2 1.304.378a1.734 1.734 0 0 0-.232-.363 2.65 2.65 0 0 0-1.07-.342l-.002.327z" fill="#000"/><path d="M8.995 6.989a5.922 5.922 0 0 1 1.473.446.359.359 0 0 0-.088-.15 6.5 6.5 0 0 0-1.4-.397l.015.1z" fill="#FF0"/><path d="M10.466 7.445h-.006A6.03 6.03 0 0 0 8.992 7a.014.014 0 0 1-.012-.012l-.014-.101a.013.013 0 0 1 0-.012.014.014 0 0 1 .012 0c.48.08.95.212 1.402.395a.372.372 0 0 1 .092.157v.008a.014.014 0 0 1-.006.007s.004.003 0 .003zm-1.46-.472c.494.083.977.227 1.436.428a.355.355 0 0 0-.072-.11 6.599 6.599 0 0 0-1.374-.389l.01.07z" fill="#000"/><path d="M8.995 6.623c.452.057.886.21 1.275.447a.422.422 0 0 0-.109-.173 3.467 3.467 0 0 0-1.18-.373l.014.099z" fill="#FF0"/><path d="M10.27 7.08h-.009a3.207 3.207 0 0 0-1.267-.444.014.014 0 0 1-.013-.012l-.014-.101a.012.012 0 0 1 0-.011 3.414 3.414 0 0 1 1.198.375.427.427 0 0 1 .117.187c0 .003 0 .006-.002.009-.004 0-.008-.001-.01-.003zm-1.264-.473c.434.057.853.2 1.232.418a.31.31 0 0 0-.085-.121 3.508 3.508 0 0 0-1.157-.369l.01.072z" fill="#000"/><path d="M6.481 12.523h-.364v1.497h.364v-1.497z" fill="#FF0"/><path d="M6.48 14.034h-.364a.014.014 0 0 1-.014-.014v-1.498c0-.004.002-.007.004-.01a.014.014 0 0 1 .01-.004h.364c.004 0 .008.002.01.004a.014.014 0 0 1 .004.01v1.498a.014.014 0 0 1-.014.014zm-.35-.029h.336v-1.469H6.13v1.47z" fill="#000"/><path d="M6.158 12.575h-.105v1.497h.105v-1.497z" fill="#FF0"/><path d="M6.16 14.086h-.107a.014.014 0 0 1-.01-.004.014.014 0 0 1-.004-.01v-1.497c0-.004.001-.008.004-.01a.014.014 0 0 1 .01-.005h.106c.003 0 .007.002.01.005a.014.014 0 0 1 .004.01v1.497a.013.013 0 0 1-.008.013.014.014 0 0 1-.005.001zm-.093-.027h.078v-1.47h-.078v1.47z" fill="#000"/><path d="M6.544 12.575h-.105v1.497h.105v-1.497z" fill="#FF0"/><path d="M6.545 14.086h-.106a.014.014 0 0 1-.01-.004.014.014 0 0 1-.004-.01v-1.497a.014.014 0 0 1 .014-.014h.111l.005.004.003.004v1.508l-.003.005-.005.003-.005.001zm-.093-.027h.079v-1.47h-.079v1.47z" fill="#000"/><path d="M6.106 6.339h.364V4.84h-.364V6.34z" fill="#FF0"/><path d="M6.47 6.353h-.365a.014.014 0 0 1-.014-.014V4.84a.014.014 0 0 1 .014-.014h.364a.014.014 0 0 1 .014.014V6.34a.014.014 0 0 1-.014.013zm-.35-.028h.336v-1.47H6.12v1.47z" fill="#000"/><path d="M6.43 6.285h.105V4.788H6.43v1.497z" fill="#FF0"/><path d="M6.535 6.3h-.106a.014.014 0 0 1-.014-.015V4.79a.014.014 0 0 1 .014-.014h.106c.003 0 .007.001.01.004a.014.014 0 0 1 .004.01v1.498a.014.014 0 0 1-.014.012zm-.092-.028h.079v-1.47h-.079v1.47z" fill="#000"/><path d="M6.045 6.285h.105V4.788h-.105v1.497z" fill="#FF0"/><path d="M6.15 6.3h-.106a.014.014 0 0 1-.014-.015V4.79a.014.014 0 0 1 .014-.014h.106a.014.014 0 0 1 .014.014v1.498a.014.014 0 0 1-.014.012zm-.093-.028h.078v-1.47h-.078v1.47z" fill="#000"/><path d="M6.303 12.678A2.733 2.733 0 0 1 3.57 9.946V6.291a.017.017 0 0 1 .017-.017h5.428a.017.017 0 0 1 .012.005.017.017 0 0 1 .005.012v3.654a2.733 2.733 0 0 1-2.73 2.733z" fill="#fff"/><path d="M6.303 12.687a2.745 2.745 0 0 1-2.742-2.74V6.29a.027.027 0 0 1 .028-.027h5.43a.027.027 0 0 1 .027.027v3.654a2.746 2.746 0 0 1-2.743 2.742zM3.589 6.283a.008.008 0 0 0-.006.002.008.008 0 0 0-.003.006v3.654a2.721 2.721 0 0 0 5.445 0V6.291a.008.008 0 0 0-.002-.006l-.003-.001H3.59z" fill="#000"/><path d="M6.302 12.556a2.63 2.63 0 0 1-2.629-2.632V6.408a.016.016 0 0 1 .005-.012.016.016 0 0 1 .012-.004h5.226a.016.016 0 0 1 .016.016v3.516a2.628 2.628 0 0 1-2.63 2.632z" fill="red"/><path d="M6.302 12.566A2.64 2.64 0 0 1 3.664 9.93V6.413a.026.026 0 0 1 .026-.026h5.225a.026.026 0 0 1 .027.026V9.93a2.64 2.64 0 0 1-2.64 2.637zm-2.613-6.16a.007.007 0 0 0-.005.002.007.007 0 0 0-.002.005V9.93a2.62 2.62 0 0 0 5.243 0V6.413a.008.008 0 0 0-.007-.007H3.69z" fill="#000"/><path d="M6.302 11.528A1.572 1.572 0 0 1 4.73 9.956V7.46h3.145v2.496a1.572 1.572 0 0 1-1.573 1.572z" fill="#fff"/><path d="M6.303 11.537A1.583 1.583 0 0 1 4.72 9.955V7.451h3.163v2.505a1.583 1.583 0 0 1-1.581 1.581zM4.74 7.47v2.485a1.565 1.565 0 0 0 1.563 1.563 1.565 1.565 0 0 0 1.563-1.563V7.47H4.74z" fill="#000"/><path d="M6.303 8.7a.343.343 0 0 1-.344-.342v-.515h.687v.515a.344.344 0 0 1-.343.343z" fill="#039"/><path d="M6.174 8.022a.069.069 0 1 1-.137 0 .069.069 0 0 1 .137 0zM6.558 8.022a.068.068 0 1 1-.137 0 .068.068 0 0 1 .137 0zM6.174 8.403a.069.069 0 1 1-.069-.068.07.07 0 0 1 .069.068zM6.558 8.403a.069.069 0 1 1-.137 0 .069.069 0 0 1 .137 0zM6.365 8.213a.069.069 0 1 1-.137 0 .069.069 0 0 1 .137 0z" fill="#fff"/><path d="M6.303 9.898a.343.343 0 0 1-.344-.343V9.04h.687v.515a.344.344 0 0 1-.343.343z" fill="#039"/><path d="M6.174 9.219a.069.069 0 1 1-.137 0 .069.069 0 0 1 .137 0zM6.558 9.219a.068.068 0 1 1-.137 0 .068.068 0 0 1 .137 0zM6.174 9.6a.069.069 0 1 1-.069-.069.07.07 0 0 1 .069.069zM6.558 9.6a.068.068 0 1 1-.137 0 .068.068 0 0 1 .137 0zM6.365 9.41a.069.069 0 1 1-.137 0 .069.069 0 0 1 .137 0z" fill="#fff"/><path d="M7.26 9.898a.343.343 0 0 1-.343-.343V9.04h.687v.515a.343.343 0 0 1-.344.343z" fill="#039"/><path d="M7.132 9.219a.069.069 0 1 1-.138 0 .069.069 0 0 1 .138 0zM7.516 9.219a.069.069 0 1 1-.137 0 .069.069 0 0 1 .137 0zM7.132 9.6a.069.069 0 1 1-.138 0 .069.069 0 0 1 .138 0zM7.45 9.669a.069.069 0 1 0 0-.137.069.069 0 0 0 0 .137zM7.323 9.41a.068.068 0 1 1-.068-.069.068.068 0 0 1 .068.069z" fill="#fff"/><path d="M5.344 9.898a.343.343 0 0 1-.343-.343V9.04h.687v.515a.344.344 0 0 1-.344.343z" fill="#039"/><path d="M5.216 9.219a.069.069 0 1 1-.137 0 .069.069 0 0 1 .137 0zM5.6 9.219a.069.069 0 1 1-.137 0 .069.069 0 0 1 .137 0zM5.148 9.669a.069.069 0 1 0 0-.138.069.069 0 0 0 0 .138zM5.6 9.6a.069.069 0 1 1-.068-.069.07.07 0 0 1 .068.069zM5.408 9.41a.069.069 0 1 1-.138 0 .069.069 0 0 1 .138 0z" fill="#fff"/><path d="M6.303 11.094a.34.34 0 0 1-.344-.342v-.516h.687v.516a.344.344 0 0 1-.343.342z" fill="#039"/><path d="M6.174 10.416a.068.068 0 1 1-.137 0 .068.068 0 0 1 .137 0zM6.558 10.416a.068.068 0 1 1-.132-.026.068.068 0 0 1 .063-.043.068.068 0 0 1 .069.069zM6.174 10.797a.069.069 0 0 1-.082.067.07.07 0 0 1-.054-.054.068.068 0 1 1 .136-.013zM6.558 10.797a.069.069 0 0 1-.082.067.069.069 0 0 1-.05-.093.07.07 0 0 1 .063-.043.069.069 0 0 1 .069.069zM6.365 10.606a.069.069 0 0 1-.042.064.068.068 0 0 1-.075-.015.069.069 0 1 1 .117-.049z" fill="#fff"/><path d="M6.646 7.017H5.94l-.027.303h.756l-.023-.303z" fill="#FF0"/><path d="M6.682 7.334h-.776v-.01l.028-.316h.719v.008l.029.318zm-.756-.018h.736l-.026-.289H5.95l-.024.289z" fill="#000"/><path d="M6.491 7.307h-.395v-.009a.21.21 0 1 1 .395 0v.01zm-.377-.018h.358a.19.19 0 1 0-.358 0z" fill="#000"/><path d="M6.415 7.31h-.242V7.3c0-.134.078-.202.12-.202.043 0 .122.07.122.201v.01zM6.19 7.29h.202c0-.115-.073-.175-.101-.175-.028 0-.098.06-.102.175z" fill="#000"/><path d="M6.144 6.719h-.19v.166h.19v-.166z" fill="#FF0"/><path d="M6.154 6.894h-.208v-.185h.208v.185zm-.19-.018h.17v-.147h-.17v.147z" fill="#000"/><path d="M6.05 6.765l-.007.001a.017.017 0 0 0-.011.016v.058h.034v-.058a.017.017 0 0 0-.016-.017z" fill="#000"/><path d="M6.175 6.606v.101a.025.025 0 0 1-.026.025h-.201a.025.025 0 0 1-.025-.025v-.1h.052v.049h.046v-.05h.053v.05h.046v-.05h.055z" fill="#FF0"/><path d="M6.15 6.743H5.95a.034.034 0 0 1-.034-.035v-.112h.07v.05h.027v-.05h.071v.05h.028v-.05h.07v.112a.035.035 0 0 1-.03.035zm-.215-.126v.092a.016.016 0 0 0 .016.016h.202a.015.015 0 0 0 .016-.016v-.092h-.034v.048h-.064v-.048h-.034v.048h-.065v-.048h-.037z" fill="#000"/><path d="M6.631 6.719h-.19v.166h.19v-.166z" fill="#FF0"/><path d="M6.64 6.894h-.207v-.185h.208v.185zm-.189-.018h.17v-.147h-.17v.147z" fill="#000"/><path d="M6.537 6.765l-.007.001a.017.017 0 0 0-.01.016v.058h.034v-.058c0-.002 0-.005-.002-.007a.017.017 0 0 0-.015-.01z" fill="#000"/><path d="M6.662 6.606v.101a.025.025 0 0 1-.026.025h-.201a.025.025 0 0 1-.025-.025v-.1h.052v.049h.051v-.05h.053v.05h.046v-.05h.05z" fill="#FF0"/><path d="M6.638 6.743h-.202a.034.034 0 0 1-.034-.035v-.112h.07v.05h.032v-.05h.071v.05h.027v-.05h.07v.112a.033.033 0 0 1-.01.025.033.033 0 0 1-.024.01zm-.216-.126v.092a.016.016 0 0 0 .016.016h.201a.015.015 0 0 0 .012-.004.015.015 0 0 0 .005-.012v-.092h-.034v.048h-.064v-.048h-.034v.048h-.065v-.048h-.037z" fill="#000"/><path d="M6.382 6.575h-.178l-.005.309h.19l-.007-.309z" fill="#FF0"/><path d="M6.397 6.893H6.19v-.009l.005-.318h.195v.01l.007.317zm-.19-.018h.17l-.005-.29h-.16l-.004.29z" fill="#000"/><path d="M6.294 6.666a.017.017 0 0 0-.017.017v.074h.034v-.074a.017.017 0 0 0-.017-.017z" fill="#000"/><path d="M6.419 6.465v.1a.025.025 0 0 1-.026.026h-.201a.024.024 0 0 1-.018-.007.024.024 0 0 1-.007-.019v-.1h.052v.048h.046v-.048h.053v.048h.046v-.048h.055z" fill="#FF0"/><path d="M6.395 6.602h-.202a.034.034 0 0 1-.034-.035v-.11h.07v.049h.027v-.05h.07v.05h.028v-.05h.07v.111a.034.034 0 0 1-.03.035zm-.216-.127v.092a.016.016 0 0 0 .016.017h.202a.015.015 0 0 0 .015-.01.015.015 0 0 0 0-.007v-.092H6.38v.05h-.064v-.05H6.28v.05h-.065v-.05h-.037z" fill="#000"/><path d="M6.68 7.376h-.776a.037.037 0 0 1 0-.074h.777a.038.038 0 0 1 .034.023.037.037 0 0 1-.034.051z" fill="#FF0"/><path d="M6.682 7.386h-.777a.047.047 0 0 1-.053-.045.046.046 0 0 1 .034-.044.047.047 0 0 1 .02-.002h.776a.047.047 0 0 1 .037.011.046.046 0 0 1 .012.054.046.046 0 0 1-.05.026zm-.777-.073a.027.027 0 0 0-.025.017.027.027 0 0 0-.002.01c0 .008.003.014.009.02a.028.028 0 0 0 .018.007h.777a.027.027 0 0 0 .027-.027.028.028 0 0 0-.027-.027h-.777z" fill="#000"/><path d="M6.641 7.018h-.696a.033.033 0 0 1-.034-.033.033.033 0 0 1 .033-.033h.697c.01 0 .018.004.024.01a.033.033 0 0 1 0 .047.034.034 0 0 1-.024.01z" fill="#FF0"/><path d="M6.642 7.027h-.697a.044.044 0 0 1 0-.087h.697a.043.043 0 0 1 0 .087zm-.697-.069a.025.025 0 0 0-.02.025.025.025 0 0 0 .02.024h.697a.024.024 0 0 0 .024-.024.025.025 0 0 0-.015-.024.025.025 0 0 0-.01-.003h-.696v.002z" fill="#000"/><path d="M6.665 6.958H5.92a.034.034 0 1 1 0-.068h.745c.009 0 .018.003.024.01a.034.034 0 0 1-.024.058z" fill="#FF0"/><path d="M6.666 6.967H5.92a.043.043 0 0 1-.044-.043c0-.012.005-.022.013-.03a.044.044 0 0 1 .03-.013h.746c.011 0 .022.004.03.012a.043.043 0 0 1-.03.074zm-.745-.07a.025.025 0 0 0-.028.015.025.025 0 0 0 .017.035h.756a.026.026 0 0 0 .02-.005.025.025 0 0 0 .01-.02.025.025 0 0 0-.01-.019.025.025 0 0 0-.02-.005H5.92z" fill="#000"/><path d="M8.081 11.579l-.496-.497-.236.202.536.536.196-.241z" fill="#FF0"/><path d="M7.883 11.829l-.549-.55.007-.006.243-.201.006.006.505.504-.006.006-.206.24zm-.522-.549l.52.52.187-.222-.484-.484-.223.186z" fill="#000"/><path d="M7.767 11.676l-.28-.28.007-.007a.211.211 0 0 1 .392.025.211.211 0 0 1-.113.255l-.006.007zm-.254-.28l.254.253a.19.19 0 0 0 .055-.31.19.19 0 0 0-.252-.015.192.192 0 0 0-.057.071z" fill="#000"/><path d="M7.71 11.622l-.171-.171.006-.007c.094-.093.202-.087.229-.057.014.018.021.04.019.063a.237.237 0 0 1-.078.166l-.005.006zm-.145-.17l.145.145a.217.217 0 0 0 .066-.146.073.073 0 0 0-.015-.05c-.02-.021-.111-.03-.195.049v.002z" fill="#000"/><path d="M7.937 11.013l-.133-.133-.117.117.133.133.117-.117z" fill="#FF0"/><path d="M7.82 11.144l-.147-.147.006-.006.125-.124.147.147-.006.006-.125.124zm-.12-.147l.12.12.101-.1-.12-.121-.102.1z" fill="#000"/><path d="M7.837 10.98a.017.017 0 0 0-.024 0l-.041.04.024.025.04-.041a.017.017 0 0 0 .006-.012.017.017 0 0 0-.005-.012z" fill="#000"/><path d="M8.038 10.956l-.072.072a.023.023 0 0 1-.008.006.025.025 0 0 1-.019 0 .023.023 0 0 1-.008-.006l-.141-.141a.025.025 0 0 1-.007-.018c0-.006.002-.013.007-.018l.072-.071.037.037-.035.035.032.033.035-.035.037.037-.035.035.033.033.036-.035.036.036z" fill="#FF0"/><path d="M7.948 11.044a.036.036 0 0 1-.024-.01l-.141-.14a.034.034 0 0 1-.01-.025.034.034 0 0 1 .01-.024l.079-.079.049.05-.035.035.019.019.035-.035.05.05-.035.035.02.02.036-.035.05.05-.078.078a.044.044 0 0 1-.025.011zm-.086-.253l-.066.066a.015.015 0 0 0-.003.005.015.015 0 0 0 0 .012c0 .002.002.004.003.005l.141.141a.016.016 0 0 0 .022 0l.066-.065-.024-.025-.035.036-.047-.047.035-.035-.024-.024-.035.035-.046-.046.036-.036-.023-.022z" fill="#000"/><path d="M8.28 11.356l-.132-.133-.117.116.133.133.117-.116z" fill="#FF0"/><path d="M8.164 11.488l-.147-.146.007-.007.124-.125.146.147-.006.007-.124.124zm-.12-.146l.12.12.101-.1-.121-.121-.1.1z" fill="#000"/><path d="M8.18 11.323a.018.018 0 0 0-.024 0l-.04.04.024.025.04-.041a.016.016 0 0 0 .005-.012.016.016 0 0 0-.004-.012z" fill="#000"/><path d="M8.383 11.3l-.072.073a.024.024 0 0 1-.027.006.023.023 0 0 1-.008-.006l-.141-.141a.026.026 0 0 1 0-.036l.071-.072.038.038-.036.035.033.032.035-.035.037.036-.035.036.033.033.036-.035.036.036z" fill="#FF0"/><path d="M8.292 11.388a.034.034 0 0 1-.024-.01l-.141-.141a.033.033 0 0 1-.01-.024.033.033 0 0 1 .01-.025l.078-.078.05.05-.035.035.019.02.035-.036.05.05-.035.036.02.02.036-.035.049.05-.079.078a.041.041 0 0 1-.023.01zm-.087-.252l-.065.065a.015.015 0 0 0 0 .011.015.015 0 0 0 0 .012l.141.14a.015.015 0 0 0 .005.004l.006.002c.002 0 .004 0 .006-.002a.015.015 0 0 0 .005-.003l.066-.066-.024-.024-.036.035-.046-.046.035-.035-.024-.025-.035.036-.046-.046.036-.035-.024-.023z" fill="#000"/><path d="M8.206 11.08l-.126-.125-.222.213.134.133.214-.222z" fill="#FF0"/><path d="M7.992 11.316l-.006-.006-.14-.14.006-.007.227-.22.006.006.133.132-.007.006-.22.229zm-.12-.147l.12.12.201-.208-.113-.114-.208.202z" fill="#000"/><path d="M8.08 11.082a.017.017 0 0 0-.012-.005.017.017 0 0 0-.012.005l-.052.051.024.025.052-.052a.016.016 0 0 0 0-.024z" fill="#000"/><path d="M8.31 11.028l-.072.072a.024.024 0 0 1-.018.007.024.024 0 0 1-.018-.007l-.14-.141a.025.025 0 0 1 0-.036l.07-.071.038.037-.035.035.032.032.035-.035.038.038-.036.035.034.033.035-.035.036.036z" fill="#FF0"/><path d="M8.22 11.116a.035.035 0 0 1-.025-.01l-.14-.141a.034.034 0 0 1 0-.05l.078-.078.05.049-.036.035.02.02.034-.036.05.05-.035.036.02.02.035-.036.05.05-.08.079a.031.031 0 0 1-.022.012zm-.087-.253l-.066.065a.015.015 0 0 0-.005.012.015.015 0 0 0 .005.01l.141.142a.015.015 0 0 0 .006.003.016.016 0 0 0 .017-.003l.065-.066-.024-.024-.035.035-.047-.046.036-.035-.025-.025-.035.036-.046-.047.035-.035-.022-.022z" fill="#000"/><path d="M7.851 11.86l-.548-.549a.037.037 0 0 1 0-.052.036.036 0 0 1 .04-.008.036.036 0 0 1 .012.008l.549.55a.036.036 0 0 1-.027.062.038.038 0 0 1-.026-.011z" fill="#FF0"/><path d="M7.878 11.88a.043.043 0 0 1-.032-.014l-.549-.55a.046.046 0 0 1 .066-.066l.548.55c.009.008.014.02.014.033a.043.043 0 0 1-.014.032.045.045 0 0 1-.033.014zm-.549-.624a.025.025 0 0 0-.019.008.028.028 0 0 0 0 .04l.55.549a.027.027 0 0 0 .044-.03.025.025 0 0 0-.006-.008l-.55-.549a.025.025 0 0 0-.02-.009v-.001z" fill="#000"/><path d="M8.076 11.58l-.493-.493a.033.033 0 0 1-.007-.036.033.033 0 0 1 .007-.011.033.033 0 0 1 .024-.01.033.033 0 0 1 .024.01l.493.493a.033.033 0 0 1 .007.037.033.033 0 0 1-.007.01.032.032 0 0 1-.048 0z" fill="#FF0"/><path d="M8.1 11.597a.043.043 0 0 1-.03-.013l-.493-.493a.041.041 0 0 1-.012-.03c0-.012.005-.023.012-.031a.045.045 0 0 1 .06 0l.494.493a.042.042 0 0 1 0 .06.036.036 0 0 1-.03.014zm-.49-.56a.02.02 0 0 0-.01.002.02.02 0 0 0-.007.005.022.022 0 0 0-.006.016.022.022 0 0 0 .007.016l.494.493a.025.025 0 0 0 .034 0 .024.024 0 0 0 .005-.027.026.026 0 0 0-.005-.007l-.493-.493a.03.03 0 0 0-.02-.005z" fill="#000"/><path d="M8.137 11.551l-.527-.526a.034.034 0 0 1 0-.049.034.034 0 0 1 .05 0l.526.527a.035.035 0 1 1-.05.048z" fill="#FF0"/><path d="M8.16 11.572a.043.043 0 0 1-.031-.014l-.527-.525a.043.043 0 0 1-.013-.03c0-.012.005-.023.013-.031a.043.043 0 0 1 .03-.013c.012 0 .024.004.032.013l.526.526c.009.008.013.02.013.031a.041.041 0 0 1-.013.03.04.04 0 0 1-.03.012zm-.526-.595a.025.025 0 0 0-.023.015.024.024 0 0 0 .006.027l.526.526a.027.027 0 0 0 .036 0 .024.024 0 0 0 0-.035l-.526-.526a.03.03 0 0 0-.018-.008h-.001z" fill="#000"/><path d="M4.504 11.579L5 11.082l.236.202-.535.536-.197-.241z" fill="#FF0"/><path d="M4.702 11.829l-.006-.007-.202-.243.504-.505.006.005.245.202-.007.007-.54.54zm-.186-.25l.187.221.52-.52L5 11.094l-.484.485z" fill="#000"/><path d="M4.817 11.674l-.006-.006a.32.32 0 0 1-.101-.201.184.184 0 0 1 .036-.143.27.27 0 0 1 .342.063l.006.006-.006.006-.271.275zm.048-.367a.151.151 0 0 0-.1.033.169.169 0 0 0-.031.127.303.303 0 0 0 .087.181l.253-.254a.302.302 0 0 0-.21-.087z" fill="#000"/><path d="M4.873 11.622l-.006-.006a.238.238 0 0 1-.078-.166.09.09 0 0 1 .02-.063c.03-.03.135-.036.228.058l.006.007-.006.006-.164.164zm0-.235a.054.054 0 0 0-.065.064.214.214 0 0 0 .066.146l.145-.145a.22.22 0 0 0-.147-.065h.001z" fill="#000"/><path d="M4.764 11.13l.133-.133-.116-.117-.133.133.116.117z" fill="#FF0"/><path d="M4.764 11.144l-.13-.131.005-.006.14-.14.131.13-.006.007-.14.14zm-.1-.131l.1.1.121-.12-.1-.101-.122.12z" fill="#000"/><path d="M4.747 10.98a.017.017 0 0 1 .024 0l.041.04-.024.025-.041-.041a.017.017 0 0 1-.005-.012c0-.005.002-.009.005-.012z" fill="#000"/><path d="M4.545 10.956l.072.072a.024.024 0 0 0 .027.006.023.023 0 0 0 .008-.006l.141-.141a.025.025 0 0 0 .007-.018.026.026 0 0 0-.007-.018l-.071-.071-.038.037.036.035-.033.033-.035-.035-.037.037.035.035-.033.033-.035-.035-.037.036z" fill="#FF0"/><path d="M4.634 11.044a.035.035 0 0 1-.024-.01l-.079-.078.05-.05.035.035.02-.02-.035-.035.05-.05.035.035.02-.02-.036-.035.05-.049.078.079a.034.034 0 0 1 0 .048l-.14.141a.036.036 0 0 1-.024.01zm-.077-.088l.066.065a.016.016 0 0 0 .011.005.016.016 0 0 0 .011-.005l.141-.141a.018.018 0 0 0 0-.011.016.016 0 0 0 0-.011l-.065-.066-.024.024.035.036-.046.046-.035-.035-.024.024.035.035-.046.047-.035-.036-.024.023z" fill="#000"/><path d="M4.42 11.475l.133-.133-.116-.117-.133.133.116.117z" fill="#FF0"/><path d="M4.42 11.489l-.132-.131.006-.006.14-.14.132.13-.007.007-.14.14zm-.101-.131l.1.1.121-.12-.1-.101-.121.12z" fill="#000"/><path d="M4.402 11.323a.018.018 0 0 1 .012-.005c.005 0 .009.002.012.005l.041.04-.024.025-.04-.041a.016.016 0 0 1-.006-.012l.001-.007.004-.005z" fill="#000"/><path d="M4.201 11.3l.072.073a.025.025 0 0 0 .027.006.023.023 0 0 0 .008-.006l.141-.141a.026.026 0 0 0 0-.036l-.071-.072-.037.038.035.035-.032.032-.036-.035-.037.036.035.036-.033.033-.035-.035-.037.036z" fill="#FF0"/><path d="M4.29 11.388a.035.035 0 0 1-.025-.01l-.079-.079.05-.05.035.036.02-.02-.035-.035.05-.052.036.035.019-.019-.035-.035.049-.05.079.08a.033.033 0 0 1 0 .047l-.142.14a.034.034 0 0 1-.023.012zm-.077-.089l.065.066a.015.015 0 0 0 .005.003l.006.002c.002 0 .004 0 .006-.002a.015.015 0 0 0 .005-.003l.141-.141a.017.017 0 0 0 0-.011.016.016 0 0 0 0-.012l-.065-.065-.024.023.035.035-.045.046-.036-.036-.024.025.035.035-.046.046-.035-.035-.023.024z" fill="#000"/><path d="M4.377 11.08l.125-.125.222.213-.133.133-.214-.222z" fill="#FF0"/><path d="M4.59 11.316l-.227-.235.138-.138.235.226-.006.006-.14.14zm-.202-.235l.202.209.12-.12-.209-.202-.113.113z" fill="#000"/><path d="M4.503 11.082a.017.017 0 0 1 .012-.005c.004 0 .009.001.012.005l.052.051-.024.025-.052-.052a.016.016 0 0 1 0-.024z" fill="#000"/><path d="M4.273 11.028l.072.072a.024.024 0 0 0 .017.007.024.024 0 0 0 .018-.007l.141-.141a.025.025 0 0 0 0-.036l-.072-.071-.037.037.035.035-.032.032-.035-.035-.037.038.035.035-.033.033-.036-.035-.036.036z" fill="#FF0"/><path d="M4.36 11.116a.035.035 0 0 1-.023-.01l-.079-.079.05-.05.035.036.02-.02-.035-.034.05-.05.035.034.02-.019-.036-.035.05-.05.078.08a.034.034 0 0 1 0 .048l-.141.14a.041.041 0 0 1-.023.009zm-.076-.09l.066.066a.015.015 0 0 0 .005.003l.006.002c.002 0 .004 0 .006-.002a.015.015 0 0 0 .005-.003l.141-.142a.015.015 0 0 0 .005-.01.015.015 0 0 0-.005-.012l-.065-.065-.025.024.036.035-.046.047-.035-.036-.024.024.035.036-.046.046-.036-.035-.023.022z" fill="#000"/><path d="M4.732 11.86l.55-.549a.037.037 0 0 0-.013-.06.035.035 0 0 0-.028 0 .036.036 0 0 0-.012.008l-.549.55a.036.036 0 0 0 0 .052c.008.006.017.01.026.01.01 0 .019-.005.026-.011z" fill="#FF0"/><path d="M4.707 11.88a.047.047 0 0 1-.034-.015.047.047 0 0 1-.014-.032.046.046 0 0 1 .014-.034l.55-.549a.047.047 0 0 1 .076.015.045.045 0 0 1-.01.05l-.549.55a.046.046 0 0 1-.033.014zm.548-.624a.025.025 0 0 0-.019.008l-.548.549a.027.027 0 0 0-.007.03.025.025 0 0 0 .007.008.027.027 0 0 0 .039 0l.548-.549a.028.028 0 0 0 0-.039.032.032 0 0 0-.02-.006v-.001z" fill="#000"/><path d="M4.507 11.58L5 11.089a.034.034 0 0 0 .01-.024.033.033 0 0 0-.01-.024.034.034 0 0 0-.01-.007.033.033 0 0 0-.014-.003l-.013.003a.034.034 0 0 0-.01.007l-.493.493a.034.034 0 0 0-.01.024.033.033 0 0 0 .01.024.032.032 0 0 0 .023.01.03.03 0 0 0 .024-.01z" fill="#FF0"/><path d="M4.483 11.597a.044.044 0 0 1-.024-.008.044.044 0 0 1-.02-.044.044.044 0 0 1 .012-.023l.493-.493a.044.044 0 0 1 .073.031.044.044 0 0 1-.013.03l-.492.494a.039.039 0 0 1-.013.01.039.039 0 0 1-.016.003zm.49-.56a.023.023 0 0 0-.015.007l-.493.49a.026.026 0 0 0-.008.018.026.026 0 0 0 .044.019l.493-.493a.023.023 0 0 0 .007-.017c0-.003 0-.006-.002-.008a.021.021 0 0 0-.005-.008.022.022 0 0 0-.025-.008h.005z" fill="#000"/><path d="M4.447 11.55l.527-.526a.034.034 0 0 0 .01-.024.034.034 0 0 0-.034-.034.034.034 0 0 0-.025.01l-.526.526a.035.035 0 0 0 0 .048.034.034 0 0 0 .048 0z" fill="#FF0"/><path d="M4.422 11.57a.04.04 0 0 1-.03-.013.044.044 0 0 1-.013-.03c0-.011.005-.023.013-.031l.527-.526a.044.044 0 0 1 .048-.01c.009.003.015.009.02.016a.043.043 0 0 1 .007.025.041.041 0 0 1-.013.03l-.526.526a.047.047 0 0 1-.033.013zm.528-.594a.025.025 0 0 0-.017.007l-.528.526a.024.024 0 0 0 0 .035.026.026 0 0 0 .018.008.026.026 0 0 0 .018-.008l.527-.526a.025.025 0 0 0 .007-.017.025.025 0 0 0-.007-.017.025.025 0 0 0-.018-.008z" fill="#000"/><path d="M4.537 7.017h-.706l-.027.303h.756l-.023-.303z" fill="#FF0"/><path d="M4.575 7.334h-.778v-.01l.028-.316h.72v.008l.03.318zm-.757-.018h.736l-.026-.289h-.685l-.025.289z" fill="#000"/><path d="M4.383 7.307h-.395v-.009a.21.21 0 1 1 .395 0v.01zm-.376-.018h.358a.19.19 0 1 0-.358 0z" fill="#000"/><path d="M4.306 7.31h-.242V7.3c0-.134.08-.202.121-.202.043 0 .121.07.121.201v.01zm-.222-.019h.201c0-.115-.072-.175-.1-.175-.029 0-.098.06-.102.175z" fill="#000"/><path d="M4.036 6.719h-.19v.166h.19v-.166z" fill="#FF0"/><path d="M4.045 6.894h-.207v-.185h.207v.185zm-.19-.018h.171v-.147h-.17v.147z" fill="#000"/><path d="M3.941 6.765a.017.017 0 0 0-.012.005.017.017 0 0 0-.005.012v.058h.034v-.058a.017.017 0 0 0-.017-.017z" fill="#000"/><path d="M4.066 6.606v.101a.025.025 0 0 1-.025.025H3.84a.025.025 0 0 1-.025-.025v-.1h.053v.049h.046v-.05h.053v.05h.046v-.05h.054z" fill="#FF0"/><path d="M4.042 6.743h-.201a.034.034 0 0 1-.035-.035v-.112h.07v.05h.028v-.05h.07v.05h.028v-.05h.07v.112a.034.034 0 0 1-.03.035zm-.216-.126v.092a.016.016 0 0 0 .017.016h.201a.015.015 0 0 0 .016-.016v-.092h-.032v.048h-.064v-.048h-.035v.048h-.064v-.048h-.039z" fill="#000"/><path d="M4.523 6.719h-.19v.166h.19v-.166z" fill="#FF0"/><path d="M4.532 6.894h-.207v-.185h.207v.185zm-.19-.018h.171v-.147h-.17v.147z" fill="#000"/><path d="M4.428 6.765a.017.017 0 0 0-.017.017v.058h.034v-.058a.017.017 0 0 0-.017-.017z" fill="#000"/><path d="M4.553 6.606v.101a.025.025 0 0 1-.025.025h-.202a.025.025 0 0 1-.025-.025v-.1h.053v.049H4.4v-.05h.052v.05H4.5v-.05h.054z" fill="#FF0"/><path d="M4.528 6.743h-.201a.034.034 0 0 1-.035-.035v-.112h.07v.05h.028v-.05h.072v.05h.027v-.05h.07v.112a.032.032 0 0 1-.018.032.032.032 0 0 1-.013.003zm-.216-.126v.092a.016.016 0 0 0 .017.016h.201a.015.015 0 0 0 .016-.016v-.092h-.033v.048h-.064v-.048h-.035v.048H4.35v-.048h-.038z" fill="#000"/><path d="M4.274 6.575h-.178l-.005.309h.19l-.007-.309z" fill="#FF0"/><path d="M4.29 6.893h-.208v-.009l.006-.318h.195v.01l.006.317zm-.19-.018h.17l-.006-.29h-.16l-.003.29z" fill="#000"/><path d="M4.185 6.666a.017.017 0 0 0-.017.017v.074h.034v-.074a.017.017 0 0 0-.017-.017z" fill="#000"/><path d="M4.31 6.465v.1a.025.025 0 0 1-.025.026h-.202a.025.025 0 0 1-.022-.026v-.1h.053v.048h.046v-.048h.053v.048h.046v-.048h.051z" fill="#FF0"/><path d="M4.285 6.602h-.201a.034.034 0 0 1-.035-.035v-.11h.072v.049h.027v-.05h.07v.05h.028v-.05h.07v.111a.034.034 0 0 1-.03.035zm-.216-.127v.092l.001.007.004.005a.015.015 0 0 0 .012.005h.201a.015.015 0 0 0 .015-.01.015.015 0 0 0 .001-.007v-.092H4.27v.05h-.064v-.05H4.17v.05h-.064v-.05h-.038z" fill="#000"/><path d="M4.572 7.376h-.776a.037.037 0 0 1-.037-.037c0-.01.004-.019.01-.026a.038.038 0 0 1 .027-.01h.776c.01 0 .02.003.027.01a.037.037 0 0 1 0 .053.037.037 0 0 1-.027.01z" fill="#FF0"/><path d="M4.573 7.386h-.777a.047.047 0 0 1-.049-.026.046.046 0 0 1 .03-.063.047.047 0 0 1 .02-.002h.776a.046.046 0 0 1 .04.046.047.047 0 0 1-.04.046zm-.777-.073a.027.027 0 0 0-.02.008.027.027 0 0 0-.007.02c0 .006.003.013.008.018a.028.028 0 0 0 .02.008h.776A.027.027 0 0 0 4.6 7.34a.028.028 0 0 0-.027-.027h-.777z" fill="#000"/><path d="M4.533 7.018h-.697a.033.033 0 0 1-.033-.033.033.033 0 0 1 .033-.033h.697a.033.033 0 0 1 .033.033.033.033 0 0 1-.033.033z" fill="#FF0"/><path d="M4.533 7.027h-.696a.044.044 0 0 1 0-.087h.696a.043.043 0 0 1 0 .087zm-.696-.069a.025.025 0 0 0-.02.025.025.025 0 0 0 .02.024h.696a.024.024 0 0 0 .024-.024.025.025 0 0 0-.006-.018.025.025 0 0 0-.018-.009h-.696v.002z" fill="#000"/><path d="M4.556 6.958h-.745a.034.034 0 1 1 0-.068h.745c.01 0 .018.003.025.01a.034.034 0 0 1-.025.058z" fill="#FF0"/><path d="M4.556 6.967h-.744a.043.043 0 0 1-.043-.043c0-.012.004-.022.012-.03a.044.044 0 0 1 .031-.013h.744a.044.044 0 0 1 .044.043.043.043 0 0 1-.043.043zm-.744-.07a.025.025 0 0 0-.03.025.025.025 0 0 0 .03.025h.744a.026.026 0 0 0 .021-.005.025.025 0 0 0 .007-.03.025.025 0 0 0-.028-.014h-.744z" fill="#000"/><path d="M8.747 7.017H8.04l-.027.303h.756l-.023-.303z" fill="#FF0"/><path d="M8.784 7.334h-.777v-.01l.028-.316h.719v.008l.03.318zm-.756-.018h.736l-.026-.289h-.686l-.024.289z" fill="#000"/><path d="M8.593 7.307h-.396v-.009a.21.21 0 1 1 .396 0v.01zm-.378-.018h.358a.19.19 0 1 0-.358 0z" fill="#000"/><path d="M8.516 7.31h-.242V7.3c0-.134.079-.202.121-.202.042 0 .121.07.121.201v.01zm-.224-.019h.202c0-.115-.073-.175-.101-.175-.028 0-.097.06-.1.175z" fill="#000"/><path d="M8.246 6.719h-.19v.166h.19v-.166z" fill="#FF0"/><path d="M8.255 6.894h-.208v-.185h.208v.185zm-.19-.018h.17v-.147h-.17v.147z" fill="#000"/><path d="M8.15 6.765a.017.017 0 0 0-.016.017v.058h.034v-.058a.016.016 0 0 0-.005-.012.016.016 0 0 0-.012-.005z" fill="#000"/><path d="M8.276 6.606v.101a.025.025 0 0 1-.025.025h-.202a.025.025 0 0 1-.025-.025v-.1h.052v.049h.047v-.05h.052v.05h.054v-.05h.047z" fill="#FF0"/><path d="M8.252 6.743H8.05a.034.034 0 0 1-.034-.035v-.112h.07v.05h.029v-.05h.07v.05h.035v-.05h.07v.112a.035.035 0 0 1-.038.035zm-.216-.126v.092a.016.016 0 0 0 .016.016h.202a.015.015 0 0 0 .016-.016v-.092h-.033v.048h-.065v-.048h-.034v.048h-.065v-.048h-.037z" fill="#000"/><path d="M8.733 6.719h-.19v.166h.19v-.166z" fill="#FF0"/><path d="M8.742 6.894h-.208v-.185h.208v.185zm-.19-.018h.17v-.147h-.17v.147z" fill="#000"/><path d="M8.637 6.765a.017.017 0 0 0-.017.017v.058h.034v-.058a.016.016 0 0 0-.005-.012.016.016 0 0 0-.012-.005z" fill="#000"/><path d="M8.763 6.606v.101a.025.025 0 0 1-.025.025h-.202a.025.025 0 0 1-.025-.025v-.1h.052v.049h.047v-.05h.052v.05h.047v-.05h.054z" fill="#FF0"/><path d="M8.738 6.743h-.202a.034.034 0 0 1-.034-.035v-.112h.07v.05H8.6v-.05h.07v.05h.028v-.05h.071v.112a.034.034 0 0 1-.031.035zm-.216-.126v.092a.016.016 0 0 0 .015.016h.202a.015.015 0 0 0 .015-.01.015.015 0 0 0 .001-.006v-.092h-.033v.048h-.065v-.048h-.034v.048h-.065v-.048h-.036z" fill="#000"/><path d="M8.484 6.575h-.179l-.005.309h.19l-.006-.309z" fill="#FF0"/><path d="M8.499 6.893H8.29l.006-.327h.196v.01l.006.317zm-.19-.018h.17l-.006-.29h-.158l-.006.29z" fill="#000"/><path d="M8.394 6.666a.017.017 0 0 0-.017.017v.074h.034v-.074a.016.016 0 0 0-.017-.017z" fill="#000"/><path d="M8.52 6.465v.1a.025.025 0 0 1-.025.026h-.202a.025.025 0 0 1-.025-.026v-.1h.052v.048h.047v-.048h.052v.048h.047v-.048h.054z" fill="#FF0"/><path d="M8.496 6.602h-.202a.034.034 0 0 1-.034-.035v-.11h.07v.049h.028v-.05h.07v.05h.028v-.05h.07v.111a.034.034 0 0 1-.03.035zm-.216-.127v.092a.015.015 0 0 0 .004.012.015.015 0 0 0 .012.005h.202a.015.015 0 0 0 .015-.01.015.015 0 0 0 .001-.007v-.092H8.48v.05h-.065v-.05h-.034v.05h-.065v-.05H8.28z" fill="#000"/><path d="M8.782 7.376h-.776a.037.037 0 0 1-.038-.037.037.037 0 0 1 .037-.037h.777c.01 0 .02.004.026.011a.037.037 0 0 1 0 .053.037.037 0 0 1-.026.01z" fill="#FF0"/><path d="M8.782 7.386h-.776a.047.047 0 0 1-.05-.026.046.046 0 0 1 .03-.063.047.047 0 0 1 .02-.002h.776a.047.047 0 0 1 .037.011.046.046 0 0 1 .012.054.046.046 0 0 1-.049.026zm-.776-.073a.027.027 0 0 0-.02.008.027.027 0 0 0-.007.02c0 .006.003.013.008.018a.028.028 0 0 0 .019.008h.776a.028.028 0 0 0 .028-.027.028.028 0 0 0-.028-.027h-.776z" fill="#000"/><path d="M8.743 7.018h-.697a.033.033 0 0 1-.033-.033c0-.008.003-.017.01-.023a.033.033 0 0 1 .023-.01h.697c.009 0 .017.004.023.01a.033.033 0 0 1 0 .047.034.034 0 0 1-.023.01z" fill="#FF0"/><path d="M8.743 7.027h-.697a.044.044 0 0 1-.03-.012.043.043 0 0 1-.012-.03.042.042 0 0 1 .011-.03.043.043 0 0 1 .031-.015h.697a.042.042 0 0 1 .042.042.043.043 0 0 1-.025.042.044.044 0 0 1-.017.003zm-.697-.069a.025.025 0 0 0-.02.025.025.025 0 0 0 .02.024h.697a.024.024 0 0 0 .024-.024.025.025 0 0 0-.006-.018.025.025 0 0 0-.018-.009h-.697v.002z" fill="#000"/><path d="M8.766 6.958h-.745a.034.034 0 1 1 0-.068h.745c.01 0 .018.003.024.01a.034.034 0 0 1-.024.058z" fill="#FF0"/><path d="M8.766 6.967H8.02a.043.043 0 0 1-.03-.073.044.044 0 0 1 .03-.013h.745a.044.044 0 0 1 .043.043.043.043 0 0 1-.043.043zm-.745-.07a.025.025 0 0 0-.028.015.025.025 0 0 0 .017.035h.756a.026.026 0 0 0 .028-.014.025.025 0 0 0-.017-.035.025.025 0 0 0-.011 0H8.02z" fill="#000"/><path d="M4.537 9.16h-.706l-.027.302h.756l-.023-.302z" fill="#FF0"/><path d="M4.575 9.476h-.778v-.01l.028-.315h.72v.008l.03.317zm-.757-.018h.736l-.026-.288h-.685l-.025.288z" fill="#000"/><path d="M4.383 9.45h-.395v-.01a.21.21 0 1 1 .395 0v.01zm-.376-.017h.358a.19.19 0 1 0-.358 0z" fill="#000"/><path d="M4.306 9.453h-.242v-.01c0-.133.08-.202.121-.202.043 0 .121.07.121.202v.01zm-.222-.018h.201c0-.115-.072-.176-.1-.176-.029 0-.098.06-.102.176z" fill="#000"/><path d="M4.036 8.861h-.19v.166h.19v-.166z" fill="#FF0"/><path d="M4.045 9.037h-.207v-.185h.207v.185zm-.19-.019h.171v-.147h-.17v.147z" fill="#000"/><path d="M3.941 8.908a.017.017 0 0 0-.017.017v.058h.034v-.058a.017.017 0 0 0-.017-.017z" fill="#000"/><path d="M4.066 8.749v.1a.025.025 0 0 1-.025.026H3.84a.025.025 0 0 1-.025-.025v-.101h.053v.05h.046v-.05h.053v.05h.046v-.05h.054z" fill="#FF0"/><path d="M4.042 8.886h-.201a.034.034 0 0 1-.035-.034V8.74h.07v.048h.028V8.74h.07v.048h.028V8.74h.07v.112a.034.034 0 0 1-.03.034zm-.216-.127v.093a.016.016 0 0 0 .017.016h.201a.015.015 0 0 0 .016-.016v-.093h-.032v.049h-.064v-.049h-.035v.049h-.064v-.049h-.039z" fill="#000"/><path d="M4.523 8.861h-.19v.166h.19v-.166z" fill="#FF0"/><path d="M4.532 9.037h-.207v-.185h.207v.185zm-.19-.019h.171v-.147h-.17v.147z" fill="#000"/><path d="M4.428 8.908a.017.017 0 0 0-.017.017v.058h.034v-.058a.017.017 0 0 0-.017-.017z" fill="#000"/><path d="M4.553 8.749v.1a.025.025 0 0 1-.025.026h-.202a.025.025 0 0 1-.025-.025v-.101h.053v.05H4.4v-.05h.052v.05H4.5v-.05h.054z" fill="#FF0"/><path d="M4.528 8.886h-.201a.034.034 0 0 1-.035-.034V8.74h.07v.048h.028V8.74h.072v.048h.027V8.74h.07v.112a.032.032 0 0 1-.018.031.032.032 0 0 1-.013.003zm-.216-.127v.093a.016.016 0 0 0 .017.016h.201a.015.015 0 0 0 .016-.016v-.093h-.033v.049h-.064v-.049h-.035v.049H4.35v-.049h-.038z" fill="#000"/><path d="M4.274 8.719h-.178l-.005.308h.19l-.007-.308z" fill="#FF0"/><path d="M4.29 9.035h-.208v-.009l.006-.317h.195v.009l.006.317zm-.19-.018h.17l-.006-.29h-.16l-.003.29z" fill="#000"/><path d="M4.185 8.809a.017.017 0 0 0-.017.017V8.9h.034v-.074a.017.017 0 0 0-.017-.017z" fill="#000"/><path d="M4.31 8.607v.101a.025.025 0 0 1-.025.025h-.202a.025.025 0 0 1-.022-.025v-.1h.053v.049h.046v-.05h.053v.05h.046v-.05h.051z" fill="#FF0"/><path d="M4.285 8.744h-.201a.034.034 0 0 1-.035-.034V8.6h.072v.049h.027v-.05h.07v.05h.028v-.05h.07v.111a.033.033 0 0 1-.03.034zm-.216-.127v.092a.015.015 0 0 0 .017.016h.201a.015.015 0 0 0 .016-.016v-.092H4.27v.05h-.064v-.05H4.17v.05h-.064v-.05h-.038z" fill="#000"/><path d="M4.572 9.52h-.776a.037.037 0 0 1-.037-.036.037.037 0 0 1 .037-.037h.776c.01 0 .02.004.027.01.007.008.01.017.01.027 0 .01-.004.019-.01.026a.037.037 0 0 1-.027.01z" fill="#FF0"/><path d="M4.573 9.53h-.777a.047.047 0 0 1-.053-.046.045.045 0 0 1 .016-.034.047.047 0 0 1 .037-.011h.777a.046.046 0 0 1 .04.045.046.046 0 0 1-.04.046zm-.777-.074a.027.027 0 1 0 0 .055h.777a.028.028 0 0 0 .027-.028.027.027 0 0 0-.027-.027h-.777z" fill="#000"/><path d="M4.533 9.161h-.697a.033.033 0 0 1-.033-.033c0-.009.004-.017.01-.023a.033.033 0 0 1 .023-.01h.697a.033.033 0 0 1 .033.033.033.033 0 0 1-.033.033z" fill="#FF0"/><path d="M4.533 9.17h-.696a.044.044 0 0 1 0-.087h.696a.044.044 0 0 1 .038.044.044.044 0 0 1-.038.043zm-.696-.068a.025.025 0 0 0-.02.025.025.025 0 0 0 .02.024h.696a.024.024 0 0 0 .024-.024.025.025 0 0 0-.024-.026l-.696.001z" fill="#000"/><path d="M4.556 9.1h-.745a.034.034 0 1 1 0-.068h.745a.034.034 0 0 1 .025.059.033.033 0 0 1-.025.01z" fill="#FF0"/><path d="M4.556 9.11h-.744a.043.043 0 0 1-.043-.044.043.043 0 0 1 .043-.043h.744a.044.044 0 0 1 .044.043.043.043 0 0 1-.043.043zm-.744-.069a.025.025 0 0 0-.028.014.025.025 0 0 0 .007.03.026.026 0 0 0 .021.005h.744a.025.025 0 0 0 .028-.013.025.025 0 0 0-.028-.036h-.744z" fill="#000"/><path d="M8.747 9.16H8.04l-.027.302h.756l-.023-.302z" fill="#FF0"/><path d="M8.784 9.476h-.777v-.01l.028-.315h.719v.008l.03.317zm-.756-.018h.736l-.026-.288h-.686l-.024.288z" fill="#000"/><path d="M8.593 9.45h-.396v-.01a.21.21 0 1 1 .396 0v.01zm-.378-.017h.358a.19.19 0 1 0-.358 0z" fill="#000"/><path d="M8.516 9.453h-.242v-.01c0-.133.079-.202.121-.202.042 0 .121.07.121.202v.01zm-.224-.018h.202c0-.115-.073-.176-.101-.176-.028 0-.097.06-.1.176z" fill="#000"/><path d="M8.246 8.861h-.19v.166h.19v-.166z" fill="#FF0"/><path d="M8.255 9.037h-.208v-.185h.208v.185zm-.19-.019h.17v-.147h-.17v.147z" fill="#000"/><path d="M8.15 8.908a.017.017 0 0 0-.016.018v.057h.034v-.057a.016.016 0 0 0-.005-.013.016.016 0 0 0-.012-.005z" fill="#000"/><path d="M8.276 8.749v.1a.025.025 0 0 1-.025.026h-.202a.025.025 0 0 1-.025-.025v-.101h.052v.05h.047v-.05h.052v.05h.054v-.05h.047z" fill="#FF0"/><path d="M8.252 8.886H8.05a.034.034 0 0 1-.034-.034V8.74h.07v.048h.029V8.74h.07v.048h.035V8.74h.07v.112a.035.035 0 0 1-.038.034zm-.216-.127v.093a.016.016 0 0 0 .016.016h.202a.015.015 0 0 0 .016-.016v-.093h-.033v.049h-.065v-.049h-.034v.049h-.065v-.049h-.037z" fill="#000"/><path d="M8.733 8.861h-.19v.166h.19v-.166z" fill="#FF0"/><path d="M8.742 9.037h-.208v-.185h.208v.185zm-.19-.019h.17v-.147h-.17v.147z" fill="#000"/><path d="M8.637 8.908a.017.017 0 0 0-.017.018v.057h.034v-.057a.016.016 0 0 0-.005-.013.016.016 0 0 0-.012-.005z" fill="#000"/><path d="M8.763 8.749v.1a.025.025 0 0 1-.025.026h-.202a.025.025 0 0 1-.025-.025v-.101h.052v.05h.047v-.05h.052v.05h.046v-.05h.055z" fill="#FF0"/><path d="M8.738 8.886h-.202a.034.034 0 0 1-.034-.034V8.74h.07v.048H8.6V8.74h.07v.048h.028V8.74h.071v.112a.034.034 0 0 1-.031.034zm-.216-.127v.093a.016.016 0 0 0 .015.016h.202a.015.015 0 0 0 .012-.004.015.015 0 0 0 .004-.012v-.093h-.033v.049h-.065v-.049h-.034v.049h-.065v-.049h-.036z" fill="#000"/><path d="M8.484 8.719h-.179l-.005.308h.19l-.006-.308z" fill="#FF0"/><path d="M8.499 9.035H8.29l.006-.326h.195v.009l.007.317zm-.19-.018h.17l-.006-.29h-.158l-.006.29z" fill="#000"/><path d="M8.394 8.809a.017.017 0 0 0-.017.017V8.9h.034v-.074a.016.016 0 0 0-.005-.012.016.016 0 0 0-.012-.005z" fill="#000"/><path d="M8.52 8.607v.101a.025.025 0 0 1-.025.025h-.202a.025.025 0 0 1-.025-.025v-.1h.052v.049h.047v-.05h.052v.05h.046v-.05h.055z" fill="#FF0"/><path d="M8.496 8.744h-.202a.034.034 0 0 1-.034-.034V8.6h.07v.049h.028v-.05h.07v.05h.028v-.05h.07v.111a.034.034 0 0 1-.03.034zm-.216-.127v.092a.015.015 0 0 0 .01.015l.006.001h.202a.015.015 0 0 0 .016-.016v-.092H8.48v.05h-.065v-.05h-.034v.05h-.065v-.05H8.28z" fill="#000"/><path d="M8.782 9.52h-.776a.037.037 0 0 1-.038-.036.037.037 0 0 1 .038-.037h.776c.01 0 .02.004.027.01.007.008.01.017.01.027 0 .01-.004.019-.01.026a.037.037 0 0 1-.027.01z" fill="#FF0"/><path d="M8.782 9.53h-.776a.046.046 0 0 1-.047-.046.046.046 0 0 1 .047-.046h.776a.047.047 0 0 1 .037.01.046.046 0 0 1-.017.08.047.047 0 0 1-.02.002zm-.776-.074a.027.027 0 1 0 0 .055h.776a.027.027 0 1 0 0-.055h-.776z" fill="#000"/><path d="M8.743 9.161h-.697a.033.033 0 0 1-.033-.033c0-.009.003-.017.01-.023a.033.033 0 0 1 .023-.01h.697c.009 0 .017.003.023.01a.033.033 0 0 1 0 .046.034.034 0 0 1-.023.01z" fill="#FF0"/><path d="M8.743 9.17h-.697a.043.043 0 0 1-.042-.042.043.043 0 0 1 .025-.041.044.044 0 0 1 .017-.004h.697a.044.044 0 0 1 .038.044.044.044 0 0 1-.038.043zm-.697-.068a.025.025 0 0 0-.02.025c0 .005.002.01.006.015a.025.025 0 0 0 .014.009h.697a.024.024 0 0 0 .024-.024.025.025 0 0 0-.007-.018.025.025 0 0 0-.017-.008l-.697.001z" fill="#000"/><path d="M8.766 9.1H8.02a.034.034 0 1 1 0-.068h.745c.009 0 .018.004.024.01a.034.034 0 0 1-.024.058z" fill="#FF0"/><path d="M8.766 9.11H8.02a.043.043 0 0 1-.03-.073.044.044 0 0 1 .03-.014h.745a.043.043 0 0 1 .043.043.043.043 0 0 1-.043.043zM8.02 9.04a.026.026 0 0 0-.028.014.025.025 0 0 0 .007.03.025.025 0 0 0 .02.005h.746a.025.025 0 0 0 .028-.013.025.025 0 0 0-.017-.035.026.026 0 0 0-.011 0H8.02z" fill="#000"/></g></svg>