<svg width="18" height="18" fill="none" xmlns="http://www.w3.org/2000/svg"><mask id="a" style="mask-type:alpha" maskUnits="userSpaceOnUse" x="0" y="0" width="18" height="18"><circle cx="9" cy="9" r="9" fill="#D9D9D9"/></mask><g mask="url(#a)"><path d="M-4 .153h27v18H-4v-18z" fill="#fff"/><path d="M.451 5.825L2.948 2.08zm.936.624l2.497-3.744zm.937.624L4.82 3.329z" fill="#000"/><path fill-rule="evenodd" clip-rule="evenodd" d="M3.26 2.288L.763 6.033.14 5.617l2.497-3.745.624.416zm.936.625L1.7 6.657l-.625-.416 2.497-3.744.624.416zm.936.624L2.636 7.28l-.624-.416L4.508 3.12l.624.416z" fill="#000"/><path d="M14.18 14.977l2.496-3.744zm.936.624l2.497-3.744zm.936.624l2.497-3.744z" fill="#000"/><path fill-rule="evenodd" clip-rule="evenodd" d="M16.988 11.44l-2.496 3.745-.624-.416 2.496-3.745.624.416zm.936.624l-2.496 3.745-.624-.416 2.496-3.745.624.416zm.937.624l-2.497 3.745-.624-.416 2.496-3.745.625.416z" fill="#000"/><path fill-rule="evenodd" clip-rule="evenodd" d="M17.82 14.925l-3.12-2.08.208-.312 3.12 2.08-.207.312z" fill="#fff"/><path d="M13.244 11.649a4.5 4.5 0 1 0-7.488-4.993 4.5 4.5 0 0 0 7.488 4.993z" fill="#CD2E3A"/><path d="M5.756 6.656A2.25 2.25 0 0 0 9.5 9.152a2.25 2.25 0 1 1 3.744 2.497 4.5 4.5 0 1 1-7.488-4.993z" fill="#0047A0"/><path d="M2.948 16.225L.45 12.481zm.936-.624l-2.496-3.744zm.936-.624l-2.496-3.744z" fill="#000"/><path fill-rule="evenodd" clip-rule="evenodd" d="M.763 12.273l2.497 3.744-.624.416L.139 12.69l.624-.416zm.937-.624l2.496 3.744-.624.416-2.497-3.744.625-.416zm.936-.624l2.496 3.744-.624.416-2.496-3.744.624-.416z" fill="#000"/><path d="M16.676 7.072L14.18 3.328zm.937-.624l-2.497-3.744zm.936-.624L16.052 2.08z" fill="#000"/><path fill-rule="evenodd" clip-rule="evenodd" d="M14.492 3.12l2.496 3.744-.624.416-2.496-3.744.624-.416zm.936-.624l2.496 3.744-.623.416-2.497-3.744.624-.416zm.936-.624l2.497 3.744-.625.416-2.496-3.744.624-.416z" fill="#000"/><path fill-rule="evenodd" clip-rule="evenodd" d="M3.208 13.573l-.936.624-.208-.312L3 13.26l.208.312zM16 5.044l-1.092.728-.208-.312 1.092-.728.208.312zm1.872-1.248l-.936.624-.207-.312.936-.624.207.312z" fill="#fff"/></g></svg>