<svg width="18" height="18" fill="none" xmlns="http://www.w3.org/2000/svg"><path d="M9 18A9 9 0 1 1 9 0a9 9 0 0 1 0 18z" fill="#003893"/><path d="M9 17.32A8.32 8.32 0 1 1 9 .68a8.32 8.32 0 0 1 0 16.64z" fill="#DC143C"/><path d="M9.99 6.174a3.096 3.096 0 0 1-.993.162L9 6.33a3.1 3.1 0 0 1-3.1-3.1 3.321 3.321 0 0 0 1.393 1.639l.264-.197-.518-.39.627-.16-.332-.563.649.093-.096-.643.563.337.16-.636.39.52.39-.52.163.634.56-.333-.096.649.649-.096-.062.102-.276.461.633.16-.519.39.26.2a3.286 3.286 0 0 0 1.396-1.64A3.1 3.1 0 0 1 9.99 6.174zM6.958 12.941l-1.29-.544 1.29-.55-.843-1.116 1.39.169-.17-1.39 1.115.842L9 9.058l.545 1.289 1.12-.843-.17 1.39 1.39-.17-.843 1.115 1.18.503.11.047-.11.046-1.18.499.843 1.115-1.39-.171.17 1.393-1.115-.843L9 15.72l-.545-1.292-1.12.846.17-1.39-1.39.173.843-1.116z" fill="#fff"/></svg>