<svg width="18" height="18" fill="none" xmlns="http://www.w3.org/2000/svg"><mask id="a" style="mask-type:alpha" maskUnits="userSpaceOnUse" x="0" y="0" width="18" height="18"><path d="M18 9A9 9 0 1 1 0 9a9 9 0 0 1 18 0z" fill="#D9D9D9"/></mask><g mask="url(#a)"><path d="M-1-.499h38V18.5H-1V-.5z" fill="red"/><path d="M-1-.499h38v12.666H-1V-.499z" fill="#00F"/><path d="M-1-.499h38v6.332H-1V-.499z" fill="#fff"/><path d="M6.196 3.153a5.716 5.716 0 0 1 4.608 0c.24 3.402-.527 5.33-2.304 5.785-1.776-.455-2.544-2.383-2.303-5.785z" fill="#00F"/><path d="M8.5 3.765l.07.158.172-.019-.102.14.102.139-.172-.019-.07.158-.07-.158-.172.019.102-.14-.102-.139.172.019M7.85 2.897l.069.158.172-.019-.102.14.102.139-.172-.019-.07.158-.07-.158-.171.019.102-.14-.102-.139.172.019M9.15 2.897l.07.158.172-.019-.102.14.102.139-.172-.019-.07.158-.069-.158-.172.019.102-.14-.102-.139.172.019" fill="#FF0"/><path d="M8.5 4.663l.558 1.116.371-.496.93 1.24a.617.617 0 0 1-.024.17A2.875 2.875 0 0 1 8.5 8.623a2.875 2.875 0 0 1-1.835-1.93.62.62 0 0 1-.024-.17l.93-1.24.371.496.558-1.116z" fill="#fff"/><path d="M6.665 6.693a.62.62 0 0 0 .905.366.62.62 0 0 1 .62 0 .62.62 0 0 0 .62 0 .62.62 0 0 1 .62 0 .62.62 0 0 0 .905-.366l.024.008v.454a.62.62 0 0 0-.31.083.619.619 0 0 1-.62 0 .62.62 0 0 0-.62 0 .62.62 0 0 1-.62 0 .62.62 0 0 0-.619 0 .62.62 0 0 1-.62 0 .62.62 0 0 0-.31-.083v-.454" fill="#00F"/><path d="M6.665 7.05a.62.62 0 0 0 .905.367.619.619 0 0 1 .62 0 .62.62 0 0 0 .62 0 .62.62 0 0 1 .62 0 .62.62 0 0 0 .905-.367l.024.009v.454a.62.62 0 0 0-.31.083.619.619 0 0 1-.62 0 .62.62 0 0 0-.62 0 .619.619 0 0 1-.62 0 .62.62 0 0 0-.619 0 .62.62 0 0 1-.62 0 .62.62 0 0 0-.31-.083v-.454" fill="#00F"/><path d="M6.021 3.234c.058-.028.116-.055.175-.081l.184 2.94A3.054 3.054 0 0 0 8.5 8.812a3.055 3.055 0 0 0 2.12-2.72l.184-2.94.175.082-.18 2.87A3.234 3.234 0 0 1 8.499 9 3.235 3.235 0 0 1 6.2 6.104l-.18-2.87h.001z" fill="red"/></g></svg>