<svg width="18" height="18" fill="none" xmlns="http://www.w3.org/2000/svg"><mask id="a" style="mask-type:alpha" maskUnits="userSpaceOnUse" x="0" y="0" width="18" height="18"><circle cx="9" cy="9" r="9" fill="#D9D9D9"/></mask><g mask="url(#a)"><path d="M-2.842.113h5.92l.245.332h11.354l.244-.332h5.921v16.103h-5.92l-.245-.333H3.323l-.244.333h-5.921V.113z" fill="#D52B1E"/><path d="M3.079-.834h11.842v18.47H3.08V-.833zm6.143 13.769l-.111-2.129a.234.234 0 0 1 .274-.242l2.12.373-.287-.79a.16.16 0 0 1 .05-.18l2.32-1.88-.522-.243a.16.16 0 0 1-.084-.195l.459-1.411-1.337.283a.16.16 0 0 1-.18-.093l-.26-.61-1.043 1.12a.16.16 0 0 1-.274-.14l.503-2.595-.806.466a.161.161 0 0 1-.225-.067L9 2.994l-.82 1.608a.16.16 0 0 1-.224.067l-.806-.466.503 2.595a.16.16 0 0 1-.274.14l-1.043-1.12-.26.61a.16.16 0 0 1-.18.093L4.56 6.238l.46 1.41a.16.16 0 0 1-.085.196l-.523.244 2.322 1.88a.16.16 0 0 1 .05.18l-.287.789 2.12-.373a.236.236 0 0 1 .255.14c.013.032.02.067.018.102l-.111 2.129h.444z" fill="#fff"/></g></svg>