<svg width="18" height="18" fill="none" xmlns="http://www.w3.org/2000/svg"><mask id="a" style="mask-type:alpha" maskUnits="userSpaceOnUse" x="0" y="0" width="18" height="18"><circle cx="9" cy="9" r="9" fill="#D9D9D9"/></mask><g clip-path="url(#clip0_171_1709)" mask="url(#a)"><path d="M-6 0h36v18H-6V0z" fill="#012169"/><mask id="b" style="mask-type:luminance" maskUnits="userSpaceOnUse" x="-6" y="0" width="18" height="9"><path d="M-6 0h18v9H-6V0z" fill="#fff"/></mask><g mask="url(#b)"><path d="M-6 0l18 9zm18 0L-6 9z" fill="#000"/><path fill-rule="evenodd" clip-rule="evenodd" d="M.988 4.5L-6.402.805l.804-1.61L3 3.494l8.598-4.3.804 1.61L5.013 4.5l7.39 3.695-.804 1.61L3 5.506l-8.598 4.299-.804-1.61L.987 4.5z" fill="#fff"/></g><mask id="c" style="mask-type:luminance" maskUnits="userSpaceOnUse" x="-6" y="0" width="18" height="9"><path d="M-6 0v4.5h18V9L-6 0zm18 0H3v9h-9l18-9z" fill="#fff"/></mask><g mask="url(#c)"><path d="M-6 0l18 9zm18 0L-6 9z" fill="#000"/><path fill-rule="evenodd" clip-rule="evenodd" d="M1.658 4.5L-6.268.537l.536-1.074L3 3.83l8.732-4.366.536 1.074L4.342 4.5l7.926 3.963-.536 1.074L3 5.17l-8.732 4.366-.536-1.074L1.658 4.5z" fill="#E4002B"/></g><path d="M3 0v9zm-9 4.5h18z" fill="#000"/><path fill-rule="evenodd" clip-rule="evenodd" d="M1.5 3V0h3v3H12v3H4.5v3h-3V6H-6V3h7.5z" fill="#fff"/><path d="M3 0v9zm-9 4.5h18z" fill="#000"/><path fill-rule="evenodd" clip-rule="evenodd" d="M2.1 3.6V0h1.8v3.6H12v1.8H3.9V9H2.1V5.4H-6V3.6h8.1z" fill="#E4002B"/><path d="M3 10.8l.52 1.62 1.59-.603-.94 1.416 1.462.868-1.694.147.233 1.685L3 14.7l-1.171 1.233.233-1.684L.368 14.1l1.462-.868-.94-1.416 1.59.602L3 10.8zM16.5 6.59l.248.77.757-.287-.448.675.697.413-.807.07.11.802-.557-.586-.558.586.111-.802-.807-.07.697-.413-.448-.675.757.287.248-.77z" fill="#fff"/></g><defs><clipPath id="clip0_171_1709"><path fill="#fff" transform="translate(-6)" d="M0 0h36v18H0z"/></clipPath></defs></svg>